<svg xmlns="http://www.w3.org/2000/svg" width="25.335" height="32.016" viewBox="0 0 25.335 32.016"><g transform="translate(0)"><g transform="translate(7.973 7.77)"><g transform="translate(0)"><path class="a" d="M182.043,124.25l-1.128,4.142h2.256Z" transform="translate(-180.915 -124.25)"/></g></g><g transform="translate(0)"><path class="a" d="M76.82,0H55.353a1.936,1.936,0,0,0-1.934,1.934V18.825H78.754V1.934A1.936,1.936,0,0,0,76.82,0ZM66.515,15.853a2.04,2.04,0,0,1-1.043.294q-.665,0-.788-.448l-.526-1.932H60.9L60.371,15.7q-.124.448-.788.448a2.038,2.038,0,0,1-1.043-.294.831.831,0,0,1-.5-.7.839.839,0,0,1,.031-.17l2.875-9.428a1,1,0,0,1,.564-.595,2.56,2.56,0,0,1,2.025,0,1,1,0,0,1,.564.595l2.89,9.428a.864.864,0,0,1,.031.17A.831.831,0,0,1,66.515,15.853Zm7.411-.448a.623.623,0,0,1-.332.526,1.514,1.514,0,0,1-.842.216,1.228,1.228,0,0,1-.757-.231.682.682,0,0,1-.309-.561v-.363a3.033,3.033,0,0,1-2.349,1.31,1.948,1.948,0,0,1-1.414-.547,2.12,2.12,0,0,1-.564-1.594,1.814,1.814,0,0,1,.935-1.742,5.735,5.735,0,0,1,2.681-.506h.556V11.75a1.328,1.328,0,0,0-.278-.842,1.049,1.049,0,0,0-.881-.356,2.354,2.354,0,0,0-1.221.286,1.987,1.987,0,0,1-.587.286.659.659,0,0,1-.587-.363,1.582,1.582,0,0,1-.216-.827q0-.51.858-.873A4.536,4.536,0,0,1,70.4,8.7a3.625,3.625,0,0,1,2.651.866,2.923,2.923,0,0,1,.873,2.164V15.4Z" transform="translate(-53.419 0)"/></g><g transform="translate(16.349 13.071)"><g transform="translate(0)"><path class="a" d="M316.575,209.025a6.794,6.794,0,0,0-.842.043,1.347,1.347,0,0,0-.595.222.578.578,0,0,0-.263.509.532.532,0,0,0,.6.6,1.1,1.1,0,0,0,.773-.4,1.288,1.288,0,0,0,.386-.917v-.057Z" transform="translate(-314.875 -209.025)"/></g></g><g transform="translate(0 20.703)"><path class="a" d="M53.419,331.08v9.379a1.936,1.936,0,0,0,1.934,1.934H76.82a1.936,1.936,0,0,0,1.934-1.934V331.08Zm5.365,2.225h4.87a.939.939,0,0,1,0,1.878h-4.87a.939.939,0,1,1,0-1.878Zm8.647,4.867H58.784a.939.939,0,1,1,0-1.878h8.647a.939.939,0,0,1,0,1.878Zm5.894,0H70.989a.939.939,0,0,1,0-1.878h2.336a.939.939,0,0,1,0,1.878Z" transform="translate(-53.419 -331.08)"/></g></g></svg>