<svg width="80" height="65" viewBox="0 0 80 65" fill="none" xmlns="http://www.w3.org/2000/svg">
<path opacity="0.1" d="M77.9384 37.6612V37.7721C77.9384 38.659 77.8275 39.435 77.8275 40.322C77.8275 40.4328 77.8275 40.4328 77.8275 40.5437C77.8275 40.6546 77.8275 40.7654 77.8275 40.8763C77.6058 42.3175 77.2732 43.7588 76.9406 45.2001C76.3863 47.0848 75.4993 48.8586 74.5015 50.6325C74.1689 51.1868 73.8364 51.6302 73.5038 52.0737C73.282 52.2954 73.0603 52.628 72.9494 52.8498C72.8386 53.0715 72.6168 53.1824 72.506 53.4041L72.3951 53.515C71.619 54.4019 70.7321 55.1779 69.8452 55.954C68.4039 57.1735 66.8518 58.2822 65.1889 59.1691C65.078 59.28 64.9671 59.2799 64.9671 59.2799C62.8607 60.6103 60.5325 61.719 58.2043 62.7168C55.6544 63.8254 52.9937 64.4906 50.3329 64.8232C46.5635 65.1558 42.794 65.045 39.0246 64.2689C35.9204 63.7146 32.8162 63.0494 29.8228 62.0516L29.3793 61.9407C29.1576 61.8299 28.825 61.8299 28.6033 61.719C27.0512 61.1647 25.499 60.6103 24.0578 60.056C20.2884 58.5039 16.6298 56.5083 13.193 54.291C12.7495 53.9584 12.3061 53.7367 11.8626 53.4041C11.0865 52.9606 10.5322 52.5172 9.97789 52.0737L9.64529 51.852C8.09317 50.6325 6.76279 49.4129 5.4324 47.9717C3.65856 46.087 2.21731 43.8697 1.21952 41.4306C1.10865 41.098 0.886923 40.6546 0.776058 40.2111C0.665192 39.9894 0.665192 39.7676 0.554327 39.5459C0.443462 39.2133 0.443462 38.9916 0.332596 38.659C0.332596 38.5481 0.332596 38.5481 0.332596 38.4373C0.110865 37.4395 0 36.3308 0 35.333C0 34.4461 0.110865 33.4483 0.332596 32.5614C0.554327 31.5636 0.886923 30.6767 1.21952 29.7898C1.55212 29.0137 2.10644 28.2376 2.66077 27.5725C3.10423 27.129 3.54769 26.6855 3.99115 26.3529C4.87808 25.6877 5.87587 25.2443 6.87365 24.9117C7.31712 24.69 7.87144 24.5791 8.3149 24.4682C8.6475 24.3574 8.9801 24.2465 9.31269 24.1356L10.3105 23.9139C10.9757 23.6922 11.6409 23.5813 12.3061 23.3596C14.0799 22.8052 15.7429 22.14 17.295 21.2531C17.5167 21.1423 17.8493 20.9205 18.0711 20.8097C18.4037 20.5879 18.7363 20.3662 19.0688 20.0336C19.4014 19.8119 19.734 19.4793 19.9558 19.1467L20.0666 19.0358C20.2884 18.8141 20.5101 18.4815 20.7318 18.2598C20.8427 18.1489 20.9536 18.038 21.0644 17.8163C21.1753 17.5946 21.2862 17.3728 21.397 17.262C22.0622 16.2642 22.3948 15.0447 22.2839 13.936C22.2839 13.7143 22.2839 13.4925 22.2839 13.3817C22.1731 12.7165 22.0622 11.9404 21.9513 11.2752C21.6187 8.39274 21.7296 5.84283 23.9469 3.4038C26.6077 0.410431 30.7097 -0.254762 34.4791 0.0778344C45.5657 0.632161 55.5436 6.84062 64.3019 14.2686C65.078 14.9338 65.854 15.599 66.5192 16.2642L67.0736 16.8185C68.4039 18.038 69.8452 19.3684 71.0647 20.6988C71.1756 20.8097 71.2864 20.9205 71.3973 21.0314C71.5082 21.1423 71.5082 21.1423 71.619 21.2531C72.0625 21.6966 72.3951 22.14 72.7277 22.5835C73.7255 23.803 74.6124 25.1334 75.3885 26.5747C76.4971 28.792 77.2732 31.1201 77.7166 33.67C77.8275 34.557 77.9384 35.4439 78.0492 36.3308C78.0492 36.5525 78.0492 36.8851 78.0492 37.1069V37.3286C77.9384 37.4395 77.9384 37.5503 77.9384 37.6612Z" fill="#FF9100"/>
<path d="M32.0401 36.3308L30.7097 59.5016H32.0401L33.1488 35.9982L32.0401 36.3308Z" fill="#3F3D56"/>
<path d="M27.162 48.0825H11.0865V51.6302H27.162V48.0825Z" fill="#FF9100"/>
<path d="M28.2707 51.1868V53.4041H11.6409C11.0865 52.9606 10.4213 52.5172 9.86702 52.0737V51.1868H28.2707Z" fill="#3F3D56"/>
<path d="M31.5966 46.1978C31.5966 46.4195 31.4858 46.6413 31.3749 46.863C31.264 47.4173 31.0423 47.9716 31.0423 48.6368C30.9314 49.4129 31.1532 50.4107 30.5988 50.965C30.488 51.0759 30.2662 51.1867 30.1554 51.4085C30.1554 51.4085 30.1554 51.4085 30.0445 51.5193C29.9336 51.6302 29.9336 51.9628 29.9336 52.1845C29.9336 52.628 29.9336 53.1823 30.0445 53.6258C30.3771 55.1779 30.488 56.8409 30.1554 58.393C30.0445 58.6147 29.9336 58.9473 29.8228 59.169C29.601 59.7234 29.3793 60.2777 29.2684 60.832C29.2684 61.2755 29.1576 61.7189 29.2684 62.1624C29.0467 62.0515 28.7141 62.0515 28.4924 61.9407C26.9403 61.3863 25.3882 60.832 23.9469 60.2777C23.9469 60.2777 23.9469 60.2777 23.9469 60.1668C24.0578 59.3908 23.9469 58.7256 23.7252 57.9495C23.2817 56.5083 22.7274 54.9562 22.3948 53.5149C22.2839 52.9606 22.1731 52.2954 22.1731 51.7411C22.1731 51.6302 22.1731 51.5193 22.1731 51.2976C22.1731 51.0759 22.1731 50.965 22.1731 50.7433C22.1731 50.4107 22.1731 49.9672 21.9513 49.7455C21.7296 49.6346 21.6187 49.6346 21.397 49.5237C21.0644 49.302 20.7318 49.0803 20.5101 48.8586C20.2883 48.6368 19.8449 48.526 19.5123 48.526C17.7384 48.9694 16.2972 50.5215 14.6342 51.2976C14.5233 51.2976 14.5233 51.4085 14.4125 51.4085C14.1907 51.5193 13.969 51.6302 13.7473 51.7411C13.4147 51.6302 13.3038 51.7411 13.3038 51.9628C13.3038 52.1845 13.3038 52.2954 13.3038 52.5171C13.3038 52.8497 13.3038 53.0714 13.3038 53.404C13.3038 53.5149 13.3038 53.6258 13.193 53.7366C13.0821 53.9584 13.0821 54.0692 12.9712 54.291C12.5278 53.9584 12.0843 53.7366 11.6408 53.404C11.0865 52.9606 10.4213 52.5171 9.867 52.0737L9.5344 51.7411C7.98229 50.5215 6.6519 49.302 5.32152 47.8608C5.54325 47.4173 5.76498 46.9738 5.87584 46.4195C5.98671 46.0869 5.98671 45.8652 6.09758 45.5326C6.20844 45.2 6.31931 44.9783 6.54104 44.7565C7.20623 43.7588 8.09315 42.9827 9.09094 42.2066C10.1996 41.5414 11.1974 40.8762 12.1952 40.1002C12.5278 39.7676 12.8604 39.435 13.0821 38.9915C13.0821 38.9915 13.0821 38.9915 13.0821 38.8807C13.193 38.7698 13.193 38.5481 13.193 38.4372C13.3038 38.1046 13.3038 37.6612 13.3038 37.3286C14.4125 37.5503 15.5211 37.5503 16.6298 37.4394C17.9602 37.3286 19.1797 36.8851 20.5101 36.7742C20.6209 36.7742 20.7318 36.7742 20.8427 36.7742C21.2861 36.7742 21.7296 36.7742 22.0622 36.7742C22.3948 36.7742 22.7274 36.7742 23.06 36.7742L26.9403 36.8851C27.3837 36.8851 27.8272 36.8851 28.1598 37.1068C28.6032 37.3286 29.0467 37.6612 29.2684 38.1046L29.3793 38.2155C29.601 38.5481 29.8228 38.9915 29.9336 39.435V39.5459C29.9336 39.6567 30.0445 39.7676 30.0445 39.8785C30.0445 39.9893 30.0445 40.1002 30.1554 40.1002C30.2662 40.5437 30.2662 40.9871 30.488 41.4306V41.5414C30.7097 41.9849 30.9314 42.4284 31.1532 42.8718C31.264 43.2044 31.3749 43.537 31.4857 43.8696C31.7075 44.6457 31.7075 45.4217 31.5966 46.1978Z" fill="#35323E"/>
<path d="M19.9558 17.0402C19.6232 16.8185 19.0688 16.9294 18.7362 17.1511C18.4036 17.262 18.0711 17.3728 17.7385 17.4837C17.6276 17.4837 17.6276 17.4837 17.5167 17.4837C17.4059 17.4837 17.295 17.262 17.1841 17.1511C16.9624 16.9294 16.6298 16.9294 16.4081 17.1511C16.1863 17.262 15.8537 17.3728 15.632 17.3728C15.2994 17.3728 15.0777 17.1511 14.7451 17.1511C14.1908 17.1511 13.7473 17.8163 13.193 17.5946C12.8604 17.4837 12.6386 17.0402 12.3061 17.1511C12.0843 17.262 12.0843 17.5946 11.8626 17.8163C11.6409 18.038 11.4191 18.1489 11.0865 18.2598C9.97788 18.7032 9.42355 19.701 9.53442 20.6988C9.64528 21.2531 9.86701 21.6966 9.97788 22.2509C10.5322 23.6922 10.3105 25.466 10.9757 26.7964C11.0865 26.6855 11.0865 26.6855 11.1974 26.5747C10.9757 27.0181 10.9757 27.5724 11.0865 28.0159C11.1974 28.2376 11.3083 28.4594 11.3083 28.6811C11.4191 28.9028 11.4191 29.2354 11.53 29.4572L12.1952 32.5614C12.5278 33.7809 12.7495 35.0004 12.7495 36.2199C12.7495 36.996 12.7495 37.8829 12.5278 38.659C13.7473 38.3264 14.9668 37.9938 16.2972 37.8829C16.7407 37.8829 17.295 37.9938 17.7385 37.9938C19.0688 38.2155 20.5101 38.3264 21.8405 38.3264C22.0622 38.3264 22.2839 38.3264 22.5057 38.2155C22.7274 38.1047 22.8383 37.9938 22.9491 37.8829C23.2817 37.6612 23.7252 37.6612 24.0578 37.6612C25.8316 37.7721 27.4946 38.1047 29.1576 38.4373C29.8228 36.996 29.9336 35.333 29.3793 33.7809C29.1576 33.3374 29.0467 32.894 28.9359 32.4505C28.9359 32.1179 28.9359 31.8962 28.9359 31.5636C28.9359 30.7875 28.825 30.1224 28.4924 29.4572C28.3815 29.2354 28.2707 28.9028 28.2707 28.5702C28.2707 28.2376 28.3815 28.0159 28.6033 27.7942C29.0467 26.6855 29.9336 25.7986 31.0423 25.1334L32.2618 24.2465C32.151 23.1378 31.8184 22.0292 31.3749 21.0314C30.9314 20.0336 30.2662 19.1467 29.2685 18.4815C28.9359 18.2598 28.6033 18.1489 28.2707 18.038C27.8272 17.8163 27.2729 17.7054 26.8294 17.5946C26.2751 17.5946 25.6099 17.7054 25.0556 17.8163C23.5035 18.2598 21.397 18.2598 19.9558 17.0402Z" fill="#FF9100"/>
<path d="M33.7031 35.8873L33.1488 36.6634L32.0401 38.1047L30.7097 39.7676L30.3771 40.2111H29.7119H12.3061H1.33039H0.665202C0.554337 39.9894 0.554337 39.7676 0.443472 39.5459C0.332606 39.2133 0.332606 38.9916 0.221741 38.659C0.221741 38.5481 0.221741 38.5481 0.221741 38.4372L4.21289 35.8873H5.65414H10.1996H12.7495H13.5256H15.1886L28.1598 35.7765H28.825H29.1576H29.9337H32.8162L33.3705 35.5547L33.7031 35.8873Z" fill="#3F3D56"/>
<path d="M33.3705 35.4438L32.8162 35.9982L31.9292 37.1068L30.0445 39.3241L13.0821 38.8807L0.332596 38.6589C0.332596 38.5481 0.332596 38.5481 0.332596 38.4372C0.110865 37.4394 0 36.3308 0 35.333L1.44125 34.5569L1.77385 34.3352L4.32375 33.1157L6.54106 32.007L12.3061 32.7831L13.6364 32.8939L14.1908 33.0048L15.0777 33.1157H15.1886L28.4924 34.8895L29.9337 35.1112L30.8206 35.2221L33.3705 35.4438Z" fill="#504F60"/>
<path d="M30.5988 39.3241V39.6567L30.488 41.4305L30.0445 51.2976L29.9336 53.404L29.7119 58.9473L29.6011 62.0515L29.1576 61.9406C28.9359 61.8298 28.6033 61.8298 28.3815 61.7189L29.6011 40.1002V39.6567L30.1554 39.5458L30.5988 39.3241Z" fill="#3F3D56"/>
<path d="M1.21951 39.3241V40.211V41.4305C1.10865 41.0979 0.886917 40.6545 0.776052 40.211C0.665187 39.9893 0.665187 39.7676 0.554321 39.5458L1.21951 39.3241Z" fill="#3F3D56"/>
<path d="M22.5057 27.0181C24.5875 27.0181 26.2751 24.7845 26.2751 22.0292C26.2751 19.2738 24.5875 17.0402 22.5057 17.0402C20.4239 17.0402 18.7362 19.2738 18.7362 22.0292C18.7362 24.7845 20.4239 27.0181 22.5057 27.0181Z" fill="#A1616A"/>
<path opacity="0.1" d="M22.5057 27.0181C24.5875 27.0181 26.2751 24.7845 26.2751 22.0292C26.2751 19.2738 24.5875 17.0402 22.5057 17.0402C20.4239 17.0402 18.7362 19.2738 18.7362 22.0292C18.7362 24.7845 20.4239 27.0181 22.5057 27.0181Z" fill="black"/>
<path d="M23.06 24.1356C25.9378 24.1356 28.2707 21.8027 28.2707 18.9249C28.2707 16.0471 25.9378 13.7142 23.06 13.7142C20.1822 13.7142 17.8493 16.0471 17.8493 18.9249C17.8493 21.8027 20.1822 24.1356 23.06 24.1356Z" fill="#A1616A"/>
<path d="M23.06 10.9426C22.7274 10.9426 22.3948 11.0535 22.0622 11.0535C21.2862 11.2752 20.5101 11.6078 19.8449 12.1621C19.5123 12.3839 19.2906 12.6056 19.0689 12.8273C18.7363 13.3816 18.8471 14.0468 18.6254 14.6012C18.5145 14.9338 18.4037 15.1555 18.1819 15.4881C17.7385 16.2641 17.5168 17.0402 17.295 17.9271C17.295 18.1489 17.1842 18.3706 17.4059 18.3706C17.5168 18.3706 17.6276 18.3706 17.7385 18.3706C18.2928 18.1489 18.958 18.1489 19.5123 18.4814C19.9558 18.9249 19.9558 19.5901 20.3993 19.8118C20.9536 20.1444 21.9514 19.701 22.3948 20.1444C22.6166 20.3662 22.7274 20.5879 22.9492 20.8096C23.5035 21.2531 24.2795 21.364 24.9447 21.1422C25.3882 21.0314 25.8317 21.0314 26.0534 21.364C26.1643 21.4748 26.1643 21.6965 26.386 21.8074C26.7186 22.0291 27.0512 21.9183 27.2729 21.6965C27.4946 21.4748 27.7164 21.1422 27.8272 20.9205C28.1598 20.477 28.9359 20.1444 29.2685 19.701C29.6011 19.2575 29.7119 18.814 29.8228 18.2597L30.1554 16.4859C30.3771 15.7098 30.3771 14.9338 30.0445 14.2686C29.9337 14.0468 29.7119 13.8251 29.6011 13.6034C29.4902 13.4925 29.4902 13.2708 29.3793 13.1599C29.2685 13.049 29.1576 12.8273 28.9359 12.7165L28.1598 12.0513C27.9381 11.8295 27.6055 11.6078 27.2729 11.3861C26.1643 10.61 24.3904 10.8317 23.06 10.9426Z" fill="#464353"/>
<path d="M5.98672 24.3573C5.76499 24.579 5.65412 24.8008 5.43239 25.0225C5.21066 25.1334 5.0998 25.3551 4.87807 25.466C4.54547 25.6877 4.21287 25.9094 3.99114 26.242C3.65855 26.4638 3.43682 26.7964 3.10422 27.1289C2.66076 27.6833 2.43903 28.4593 2.10643 29.0137C1.77384 29.568 1.21951 30.0114 0.886912 30.4549C0.776047 30.6766 0.554316 30.8984 0.554316 31.231C0.554316 31.4527 0.443451 31.7853 0.443451 32.007C0.443451 32.4505 0.443451 32.8939 0.554316 33.3374C0.665182 33.7809 0.886913 34.1135 1.21951 34.4461C1.5521 34.6678 1.8847 34.8895 2.32816 34.8895C2.54989 35.0004 2.77162 35.0004 2.88249 34.8895C2.99335 34.7787 3.10422 34.6678 3.21509 34.5569L4.21287 33.4483C4.87807 32.6722 5.54326 32.007 6.43018 31.4527C6.76278 31.3418 6.98451 31.231 7.3171 31.1201C8.53662 30.4549 9.42355 29.3463 9.75614 28.0159C9.86701 27.6833 9.86701 27.3507 9.97787 27.0181L10.0887 26.1312V26.0203L9.97787 25.9094C9.31268 25.3551 8.64749 24.6899 8.09316 24.1356C7.9823 23.9139 7.76057 23.803 7.6497 23.5813C7.42797 23.4704 7.42797 23.4704 7.20624 23.5813C6.65191 23.6921 6.31932 24.0247 5.98672 24.3573Z" fill="#A1616A"/>
<path d="M12.7495 30.2332C12.7495 30.1223 12.6387 30.1223 12.5278 30.1223C12.4169 30.1223 12.4169 30.2332 12.4169 30.344H12.3061L14.7451 35.333L15.1886 35.1113L12.7495 30.2332Z" fill="#3F3D56"/>
<path opacity="0.04" d="M5.98672 24.3573C5.76499 24.579 5.65412 24.8008 5.43239 25.0225C5.21066 25.1334 5.0998 25.3551 4.87807 25.466C4.54547 25.6877 4.21287 25.9094 3.99114 26.242C3.65855 26.4638 3.43682 26.7964 3.10422 27.1289C2.66076 27.6833 2.43903 28.4593 2.10643 29.0137C1.77384 29.568 1.21951 30.0114 0.886912 30.4549C0.776047 30.6766 0.554316 30.8984 0.554316 31.231C0.554316 31.4527 0.443451 31.7853 0.443451 32.007C0.443451 32.4505 0.443451 32.8939 0.554316 33.3374C0.665182 33.7809 0.886913 34.1135 1.21951 34.4461C1.5521 34.6678 1.8847 34.8895 2.32816 34.8895C2.54989 35.0004 2.77162 35.0004 2.88249 34.8895C2.99335 34.7787 3.10422 34.6678 3.21509 34.5569L4.21287 33.4483C4.87807 32.6722 5.54326 32.007 6.43018 31.4527C6.76278 31.3418 6.98451 31.231 7.3171 31.1201C8.53662 30.4549 9.42355 29.3463 9.75614 28.0159C9.86701 27.6833 9.86701 27.3507 9.97787 27.0181L10.0887 26.1312V26.0203L9.97787 25.9094C9.31268 25.3551 8.64749 24.6899 8.09316 24.1356C7.9823 23.9139 7.76057 23.803 7.6497 23.5813C7.42797 23.4704 7.42797 23.4704 7.20624 23.5813C6.65191 23.6921 6.31932 24.0247 5.98672 24.3573Z" fill="black"/>
<path d="M34.0357 33.4483C34.0357 34.0026 33.9248 34.4461 33.8139 35.0004C33.7031 35.2221 33.5922 35.333 33.3705 35.4439C33.2596 35.4439 33.1488 35.4439 32.927 35.4439C31.3749 35.333 29.7119 35.4439 28.1598 35.7765C28.3815 34.8895 28.4924 34.0026 28.4924 33.0048C28.4924 32.7831 28.6033 32.5614 28.6033 32.2288C28.6033 31.3418 28.3815 30.4549 28.1598 29.568C28.0489 28.7919 28.0489 28.0159 28.1598 27.2398C28.1598 27.0181 28.2707 26.9072 28.3815 26.6855C28.4924 26.4638 28.6033 26.3529 28.825 26.242C29.4902 25.9094 30.2663 25.7986 31.0423 25.9094C31.7075 25.9094 32.3727 26.0203 32.927 26.242C33.3705 26.5746 33.4813 27.6833 33.5922 28.2376C33.8139 29.0137 33.9248 29.9006 33.9248 30.6766C34.0357 31.6744 34.0357 32.5614 34.0357 33.4483Z" fill="#A1616A"/>
<path d="M4.87807 35.333L7.76057 37.2177L20.9535 36.7743L12.306 35.333H4.87807Z" fill="white"/>
<path d="M8.75837 19.8118C8.3149 20.2553 7.87144 20.6988 7.42798 21.1422C6.76279 21.6966 6.0976 22.2509 5.4324 22.8052C5.98673 22.9161 6.31933 23.3595 6.54106 23.9139C6.54106 24.0247 6.54106 24.1356 6.65192 24.2465C6.76279 24.4682 6.87365 24.8008 7.09538 25.0225C7.87144 25.9094 9.09096 26.6855 9.53442 27.7942C9.53442 27.905 9.53442 27.905 9.64529 27.905H9.75615C10.1996 27.7942 10.5322 27.5724 10.8648 27.129C11.4191 26.3529 11.9735 25.5768 12.1952 24.6899C12.5278 23.803 12.5278 22.8052 12.1952 21.9183C11.9735 21.4748 11.8626 21.0314 11.53 20.6988L10.8648 19.701C10.7539 19.4792 10.6431 19.1467 10.4213 19.0358C9.86702 18.8141 9.09096 19.4792 8.75837 19.8118Z" fill="#FF9100"/>
<path d="M32.7053 25.0226L33.3705 26.6855C31.8184 26.1312 30.1554 26.3529 28.825 27.3507C28.3815 27.5725 28.0489 28.0159 27.9381 28.4594C27.7164 28.4594 27.6055 28.4594 27.4946 28.2376C27.3838 28.1268 27.3838 27.9051 27.2729 27.7942C27.2729 27.129 27.3838 26.5747 27.7163 26.0203C27.8272 25.6877 27.9381 25.466 28.1598 25.2443C28.3815 25.0225 28.6033 24.9117 28.825 24.69C29.6011 24.2465 30.488 23.803 31.3749 23.5813C31.7075 23.3596 32.151 23.4704 32.3727 23.803C32.5944 24.1356 32.4836 24.5791 32.7053 25.0226Z" fill="#FF9100"/>
<path d="M4.87807 29.9005C5.0998 30.0114 5.21066 30.2331 5.43239 30.344C5.65413 30.4549 5.87586 30.5657 5.98672 30.6766L6.76278 31.0092C6.98451 31.1201 7.31711 31.2309 7.53884 31.3418C7.87143 31.4527 8.20403 31.4527 8.53662 31.5635C8.98009 31.6744 9.42355 31.8961 9.75614 32.007C10.1996 32.1178 10.6431 32.1178 11.0865 31.8961C11.3083 31.6744 11.53 31.4527 11.7517 31.4527C11.9735 31.4527 12.0843 31.4527 12.306 31.5635L14.4125 32.6722C14.7451 32.783 14.9668 33.0048 15.1885 33.2265C15.2994 33.4482 15.2994 33.7808 14.9668 34.0026C14.856 34.0026 14.7451 34.0026 14.6342 34.0026C14.5234 34.0026 14.4125 34.1134 14.4125 34.2243C14.4125 34.3352 14.4125 34.3352 14.4125 34.446C14.5234 34.6678 14.5234 34.8895 14.4125 35.1112C14.3016 35.3329 14.0799 35.4438 13.8582 35.3329C13.8582 35.6655 13.5256 35.8873 13.193 35.9981C12.4169 36.109 11.6409 36.109 10.8648 35.9981C10.5322 35.9981 10.1996 35.8873 9.97787 35.7764C9.86701 35.6655 9.75614 35.6655 9.53441 35.5547C9.09095 35.3329 8.75836 35.3329 8.31489 35.3329C6.43018 35.3329 4.54547 35.1112 2.66076 34.6678C2.32816 34.6678 1.99557 34.5569 1.66297 34.3352C1.10864 33.8917 0.886913 33.2265 0.997779 32.5613C1.10864 31.8961 1.44124 31.2309 1.77384 30.6766L2.2173 29.9005C2.2173 29.7897 2.32816 29.6788 2.43903 29.5679C3.21509 29.2353 4.21287 29.3462 4.87807 29.9005Z" fill="#A1616A"/>
<path opacity="0.04" d="M4.87807 29.9005C5.0998 30.0114 5.21066 30.2331 5.43239 30.344C5.65413 30.4549 5.87586 30.5657 5.98672 30.6766L6.76278 31.0092C6.98451 31.1201 7.31711 31.2309 7.53884 31.3418C7.87143 31.4527 8.20403 31.4527 8.53662 31.5635C8.98009 31.6744 9.42355 31.8961 9.75614 32.007C10.1996 32.1178 10.6431 32.1178 11.0865 31.8961C11.3083 31.6744 11.53 31.4527 11.7517 31.4527C11.9735 31.4527 12.0843 31.4527 12.306 31.5635L14.4125 32.6722C14.7451 32.783 14.9668 33.0048 15.1885 33.2265C15.2994 33.4482 15.2994 33.7808 14.9668 34.0026C14.856 34.0026 14.7451 34.0026 14.6342 34.0026C14.5234 34.0026 14.4125 34.1134 14.4125 34.2243C14.4125 34.3352 14.4125 34.3352 14.4125 34.446C14.5234 34.6678 14.5234 34.8895 14.4125 35.1112C14.3016 35.3329 14.0799 35.4438 13.8582 35.3329C13.8582 35.6655 13.5256 35.8873 13.193 35.9981C12.4169 36.109 11.6409 36.109 10.8648 35.9981C10.5322 35.9981 10.1996 35.8873 9.97787 35.7764C9.86701 35.6655 9.75614 35.6655 9.53441 35.5547C9.09095 35.3329 8.75836 35.3329 8.31489 35.3329C6.43018 35.3329 4.54547 35.1112 2.66076 34.6678C2.32816 34.6678 1.99557 34.5569 1.66297 34.3352C1.10864 33.8917 0.886913 33.2265 0.997779 32.5613C1.10864 31.8961 1.44124 31.2309 1.77384 30.6766L2.2173 29.9005C2.2173 29.7897 2.32816 29.6788 2.43903 29.5679C3.21509 29.2353 4.21287 29.3462 4.87807 29.9005Z" fill="black"/>
<path d="M29.7119 31.3419C29.2685 31.4528 28.825 31.5636 28.3816 31.6745C27.9381 31.8962 27.4946 32.118 27.162 32.3397C26.0534 32.894 24.9447 33.2266 23.7252 33.3375C22.9492 33.4484 22.284 33.5592 21.5079 33.5592C20.5101 33.4484 19.5123 33.2266 18.6254 32.894C17.6276 32.5614 16.6298 32.5614 15.7429 32.7832C14.7451 33.1158 13.9691 33.8918 13.6365 34.8896C13.4147 35.4439 13.4147 36.1091 13.4147 36.7743C13.6365 36.8852 13.8582 36.6634 13.9691 36.4417C14.0799 36.22 14.1908 35.9983 14.3017 35.7765C14.6343 35.8874 14.7451 36.4417 15.0777 36.6635C15.2994 36.7743 15.5212 36.8852 15.7429 36.8852L16.9624 37.1069C17.295 37.2178 17.5168 37.1069 17.8493 36.996C17.9602 36.8852 17.9602 36.7743 18.0711 36.6635C18.2928 36.4417 18.6254 36.3309 18.8471 36.4417C19.7341 36.5526 20.621 37.1069 21.5079 36.996C21.8405 36.8852 22.0622 36.8852 22.3948 36.6635C24.1687 35.9983 26.1643 36.4417 27.9381 36.1091C28.6033 35.9983 29.2685 35.7765 29.9337 35.4439C30.2663 35.3331 30.5989 35.1113 30.9315 34.8896C31.4858 34.4461 31.8184 33.6701 31.8184 33.0049C31.7075 32.4506 31.4858 31.8962 31.0423 31.5636C30.9315 31.4528 30.7097 31.231 30.488 31.1202C30.2663 30.8984 29.9337 31.231 29.7119 31.3419Z" fill="#A1616A"/>
<g opacity="0.1">
<path opacity="0.1" d="M27.386 20.9581C27.1642 20.8473 27.1642 20.6255 27.0534 20.5147C26.8316 20.1821 26.2773 20.2929 25.9447 20.2929C25.2795 20.5147 24.5035 20.4038 23.9491 19.9603C23.7274 19.7386 23.6165 19.5169 23.3948 19.2952C22.9514 18.8517 21.9536 19.2952 21.3992 18.9626C20.8449 18.63 20.9558 17.9648 20.5123 17.6322C19.958 17.1887 19.2928 17.1887 18.7385 17.4104C18.6276 17.4104 18.5167 17.5213 18.4059 17.4104C18.1841 17.4104 18.1841 17.1887 18.295 16.967C18.5167 16.0801 18.7385 15.304 19.1819 14.5279C19.4037 14.3062 19.5145 13.9736 19.6254 13.641C19.7363 13.1976 19.7363 12.7541 19.958 12.1998C19.6254 12.3106 19.4037 12.5324 19.2928 12.7541C18.9602 13.3084 19.0711 13.9736 18.8493 14.5279C18.7385 14.7497 18.6276 15.0823 18.4059 15.304C18.0733 16.0801 17.7407 16.8561 17.519 17.743C17.519 17.8539 17.519 18.1865 17.6298 18.1865C17.7407 18.1865 17.8515 18.1865 17.9624 18.1865C18.5167 17.9648 19.1819 17.9648 19.7363 18.2974C20.1797 18.7408 20.1797 19.406 20.6232 19.6277C21.1775 19.9603 22.1753 19.5169 22.6188 19.9603C22.9514 20.1821 23.0622 20.5147 23.1731 20.7364C23.7274 21.069 24.5035 21.2907 25.1687 21.069C25.6121 20.9581 26.0556 20.9581 26.2773 21.2907C26.3882 21.4016 26.499 21.5125 26.6099 21.6233C26.9425 21.8451 27.2751 21.8451 27.4968 21.5125C27.7186 21.4016 27.8294 21.1799 27.9403 21.069C27.7186 21.069 27.4968 21.069 27.386 20.9581Z" fill="black"/>
<path opacity="0.1" d="M28.8272 20.0712C28.8272 20.1821 28.7164 20.1821 28.7164 20.293C29.049 20.0712 29.3816 19.8495 29.6033 19.6278C29.6033 19.5169 29.7142 19.406 29.7142 19.2952C29.3816 19.5169 29.049 19.7386 28.8272 20.0712Z" fill="black"/>
</g>
<path d="M45.2331 36.1091L45.4548 59.3908L46.5634 59.2799L46.3417 36.1091H45.2331Z" fill="#3F3D56"/>
<path d="M52.1068 40.4328L52.3285 63.7145L53.4371 63.6036L53.2154 40.3219L52.1068 40.4328Z" fill="#3F3D56"/>
<path d="M73.282 52.1845V51.7411V51.5193V47.4173L73.1712 40.9871V40.4328H72.0625V40.9871V44.424V45.8652V47.0847V49.1912V50.4107V50.5216V52.1845V53.6258L72.1734 53.5149C72.2842 53.4041 72.506 53.1823 72.6168 52.9606L73.282 52.1845Z" fill="#3F3D56"/>
<path d="M50.7763 44.2022L50.1111 45.2L50.7763 49.6346L56.3196 51.1867H65.2997L70.6212 51.5193L73.1711 49.7455L72.7277 46.7521L70.843 44.2022H50.7763Z" fill="#FF9100"/>
<path d="M50.1112 45.0892L49.8894 47.8608C49.8894 47.8608 48.2265 53.1823 61.9738 52.8497C75.7211 52.5172 73.3929 51.4085 73.3929 51.4085L73.1712 48.3043C73.1712 48.3043 73.6146 49.7455 66.6301 49.6347C59.6456 49.5238 53.2154 48.7477 53.2154 48.7477C53.2154 48.7477 50.7764 49.0803 50.1112 45.0892Z" fill="#3F3D56"/>
<path d="M61.6411 20.9205C60.8651 21.364 60.1999 21.9183 59.8673 22.6944C59.5347 23.4705 59.2021 24.2465 58.9804 25.1334C58.7586 26.0204 58.5369 26.9073 58.426 27.7942C58.2043 29.4572 58.426 31.0093 59.0912 32.5614C59.7564 34.0027 61.1977 35.1113 62.7498 35.4439C63.415 35.5548 63.9693 35.5548 64.6345 35.4439C65.7432 35.333 66.8518 35.1113 67.9605 34.6679C69.0691 34.4461 70.1778 33.6701 70.7321 32.6723C70.9538 32.0071 71.0647 31.3419 71.0647 30.6767C71.0647 28.792 70.7321 26.9073 70.1778 25.1334C70.0669 24.5791 69.8452 24.1356 69.5126 23.6922C69.18 23.2487 68.7365 22.9161 68.2931 22.5835C66.4083 21.364 63.9693 19.8119 61.6411 20.9205Z" fill="#FBBEBE"/>
<path opacity="0.05" d="M61.6411 20.9205C60.8651 21.364 60.1999 21.9183 59.8673 22.6944C59.5347 23.4705 59.2021 24.2465 58.9804 25.1334C58.7586 26.0204 58.5369 26.9073 58.426 27.7942C58.2043 29.4572 58.426 31.0093 59.0912 32.5614C59.7564 34.0027 61.1977 35.1113 62.7498 35.4439C63.415 35.5548 63.9693 35.5548 64.6345 35.4439C65.7432 35.333 66.8518 35.1113 67.9605 34.6679C69.0691 34.4461 70.1778 33.6701 70.7321 32.6723C70.9538 32.0071 71.0647 31.3419 71.0647 30.6767C71.0647 28.792 70.7321 26.9073 70.1778 25.1334C70.0669 24.5791 69.8452 24.1356 69.5126 23.6922C69.18 23.2487 68.7365 22.9161 68.2931 22.5835C66.4083 21.364 63.9693 19.8119 61.6411 20.9205Z" fill="black"/>
<path d="M60.7542 31.1201C60.976 31.4527 61.3086 31.6745 61.5303 31.8962C62.3063 32.3397 63.3041 32.5614 64.1911 32.5614C64.9671 32.6722 65.7432 32.4505 66.2975 32.0071C66.5192 31.6745 66.6301 31.4527 66.741 31.1201C67.2953 29.1246 67.6279 27.0181 67.8496 24.9117H69.956C70.7321 28.9028 70.9538 33.0048 70.7321 37.1069L70.6212 43.0936L69.18 42.9827C65.854 42.6501 62.6389 42.3175 59.313 42.2067C57.4283 42.2067 55.4327 42.2067 53.548 42.4284L56.5413 33.4483C56.9848 32.3397 57.3174 31.1201 57.4283 29.9006C57.5391 28.1268 57.0957 26.2421 57.7609 24.5791C57.7609 24.4682 57.8717 24.3573 57.9826 24.2465C58.0935 24.2465 58.3152 24.1356 58.4261 24.2465C58.6478 24.2465 59.5347 24.2465 59.7564 24.4682C60.089 24.6899 59.8673 24.8008 59.7564 25.1334C59.5347 25.7986 59.4238 26.5747 59.4238 27.3507C59.4238 28.6811 59.8673 30.0115 60.7542 31.1201Z" fill="#FF9100"/>
<path d="M73.282 52.1845C73.6146 51.7411 73.9472 51.1868 74.2798 50.7433C74.1689 50.4107 73.9472 50.0781 73.8363 49.7455C73.6146 49.1912 73.5037 48.6369 73.3929 48.0825C73.3929 47.8608 73.282 47.6391 73.282 47.5282C72.7277 45.4218 72.5059 43.3153 72.2842 41.098C72.2842 40.8763 72.2842 40.7654 72.2842 40.5437V39.7676C72.2842 39.3242 72.2842 38.7698 72.3951 38.3264C72.3951 38.2155 72.3951 38.1046 72.3951 37.9938C72.3951 37.9938 72.3951 37.9938 72.3951 37.8829L77.9384 37.6612H78.3818C78.7144 37.6612 79.047 37.6612 79.2687 37.4395C79.7122 37.1069 79.8231 36.5525 79.7122 35.9982C79.7122 34.6678 79.4905 33.3374 79.2687 32.007C79.1579 31.0093 78.7144 30.0115 78.0492 29.2354C77.4949 28.5702 76.7188 28.1268 76.3862 27.3507C76.2754 27.0181 76.2754 26.7964 76.1645 26.4638C76.0536 26.242 75.8319 26.0203 75.6102 25.7986C74.8341 25.0225 74.1689 24.1356 73.7255 23.2487C73.3929 22.5835 73.0603 21.9183 72.6168 21.364C72.6168 21.364 72.6168 21.364 72.5059 21.2531C72.1734 20.9205 71.619 20.8096 71.1756 21.0314C71.0647 21.0314 70.9538 21.1422 70.9538 21.1422C70.7321 21.2531 70.6212 21.4748 70.5104 21.5857C69.956 22.14 69.6234 22.8052 69.18 23.4704C68.9583 23.9139 68.7365 24.4682 68.5148 24.9117C68.4039 25.3551 68.2931 25.6877 68.1822 26.1312C68.0713 26.4638 68.0713 26.7964 67.9605 27.0181C67.8496 28.2376 67.7387 29.3463 67.8496 30.5658C67.8496 31.6745 67.9605 32.7831 68.0713 33.7809C68.0713 34.0026 68.0713 34.3352 68.1822 34.5569C68.2931 35.1113 68.2931 35.5547 68.4039 36.1091C68.4039 36.3308 68.5148 36.5525 68.5148 36.6634V36.7743C68.6257 37.2177 68.7365 37.6612 68.7365 38.1046C68.7365 38.2155 68.7365 38.2155 68.7365 38.3264C68.7365 38.5481 68.7365 38.8807 68.7365 39.1024C68.7365 39.435 68.7365 39.7676 68.6257 39.9894V40.1002C68.6257 40.2111 68.6257 40.4328 68.6257 40.5437C68.6257 40.8763 68.7365 41.3197 68.7365 41.6523C68.8474 42.3175 69.0691 42.9827 69.4017 43.6479C69.4017 43.7588 69.5126 43.7588 69.5126 43.8696C69.956 44.6457 70.3995 45.3109 70.843 46.0869C71.1756 46.7521 71.3973 47.5282 71.619 48.1934C71.619 48.4151 71.7299 48.6369 71.7299 48.9694C71.8408 49.4129 71.8408 49.7455 71.9516 50.189V50.2998C72.0625 50.8542 72.1733 51.2976 72.2842 51.8519C72.3951 52.1845 72.3951 52.4063 72.5059 52.7389L73.282 52.1845Z" fill="#464353"/>
<path d="M72.2843 45.7544C72.2843 45.8652 72.2843 45.8652 72.2843 45.9761C72.2843 46.3087 72.2843 46.6413 72.1734 47.0847C72.0625 47.5282 71.9517 48.0825 71.8408 48.526C71.7299 48.8586 71.6191 49.0803 71.3973 49.4129C71.2865 49.6346 71.0647 49.8564 70.843 50.0781C70.2887 50.5216 69.6235 50.8542 68.9583 50.965C68.6257 51.0759 68.2931 51.1868 68.0714 51.2976L67.9605 51.4085L67.0736 51.9628C66.8519 52.0737 66.5193 52.2954 66.4084 52.628L66.2975 52.7389C66.1867 52.9606 66.0758 53.1823 66.0758 53.5149C65.6323 55.3996 65.1889 57.1735 64.8563 59.0582C64.8563 59.1691 64.8563 59.2799 64.7454 59.3908C62.639 60.7212 60.3108 61.8298 57.9826 62.8276L57.5392 58.6147C57.5392 58.2821 57.4283 57.9495 57.5392 57.6169C57.5392 57.0626 57.7609 56.5083 57.8718 55.954C57.9826 55.3996 57.8718 54.8453 57.5392 54.4018C57.4283 54.1801 57.3174 54.0693 57.3174 53.8475C57.3174 53.6258 57.4283 53.5149 57.65 53.4041C57.7609 53.1823 57.8718 52.9606 57.7609 52.7389C57.7609 52.628 57.65 52.5171 57.65 52.4063C57.4283 52.0737 57.4283 51.7411 57.4283 51.2976C57.4283 51.1868 57.4283 51.1868 57.4283 51.0759C57.4283 50.965 57.3174 50.965 57.2066 50.8542C57.0957 50.7433 57.2066 50.5216 57.3174 50.2998C57.4283 50.0781 57.4283 49.9672 57.4283 49.7455C57.4283 49.6346 57.4283 49.5238 57.4283 49.4129C57.4283 49.302 57.4283 49.0803 57.5392 48.9694C57.7609 48.1934 58.2044 47.5282 58.8695 47.0847C59.2021 46.863 59.5347 46.7521 59.8673 46.5304C60.1999 46.3087 60.5325 46.0869 60.8651 45.7544C61.5303 45.2 62.3064 44.6457 63.0824 44.0914C63.8585 43.537 64.7454 42.9827 65.6323 42.5393C65.8541 42.4284 65.9649 42.3175 66.1867 42.2067C66.4084 42.0958 66.6301 41.9849 66.8519 41.8741C67.517 41.6523 68.2931 41.6523 69.0692 41.8741C69.4018 41.9849 69.7344 42.0958 69.9561 42.2067C70.2887 42.3175 70.5104 42.4284 70.7321 42.5393C71.3973 42.8718 71.9517 43.537 72.1734 44.2022C72.2843 44.8674 72.2843 45.3109 72.2843 45.7544Z" fill="#F86D70"/>
<path opacity="0.1" d="M72.2843 45.7544C72.2843 45.8652 72.2843 45.8652 72.2843 45.9761C72.2843 46.3087 72.2843 46.6413 72.1734 47.0847C72.0625 47.5282 71.9517 48.0825 71.8408 48.526C71.7299 48.8586 71.6191 49.0803 71.3973 49.4129C71.2865 49.6346 71.0647 49.8564 70.843 50.0781C70.2887 50.5216 69.6235 50.8542 68.9583 50.965C68.6257 51.0759 68.2931 51.1868 68.0714 51.2976L67.9605 51.4085L67.0736 51.9628C66.8519 52.0737 66.5193 52.2954 66.4084 52.628L66.2975 52.7389C66.1867 52.9606 66.0758 53.1823 66.0758 53.5149C65.6323 55.3996 65.1889 57.1735 64.8563 59.0582C64.8563 59.1691 64.8563 59.2799 64.7454 59.3908C62.639 60.7212 60.3108 61.8298 57.9826 62.8276L57.5392 58.6147C57.5392 58.2821 57.4283 57.9495 57.5392 57.6169C57.5392 57.0626 57.7609 56.5083 57.8718 55.954C57.9826 55.3996 57.8718 54.8453 57.5392 54.4018C57.4283 54.1801 57.3174 54.0693 57.3174 53.8475C57.3174 53.6258 57.4283 53.5149 57.65 53.4041C57.7609 53.1823 57.8718 52.9606 57.7609 52.7389C57.7609 52.628 57.65 52.5171 57.65 52.4063C57.4283 52.0737 57.4283 51.7411 57.4283 51.2976C57.4283 51.1868 57.4283 51.1868 57.4283 51.0759C57.4283 50.965 57.3174 50.965 57.2066 50.8542C57.0957 50.7433 57.2066 50.5216 57.3174 50.2998C57.4283 50.0781 57.4283 49.9672 57.4283 49.7455C57.4283 49.6346 57.4283 49.5238 57.4283 49.4129C57.4283 49.302 57.4283 49.0803 57.5392 48.9694C57.7609 48.1934 58.2044 47.5282 58.8695 47.0847C59.2021 46.863 59.5347 46.7521 59.8673 46.5304C60.1999 46.3087 60.5325 46.0869 60.8651 45.7544C61.5303 45.2 62.3064 44.6457 63.0824 44.0914C63.8585 43.537 64.7454 42.9827 65.6323 42.5393C65.8541 42.4284 65.9649 42.3175 66.1867 42.2067C66.4084 42.0958 66.6301 41.9849 66.8519 41.8741C67.517 41.6523 68.2931 41.6523 69.0692 41.8741C69.4018 41.9849 69.7344 42.0958 69.9561 42.2067C70.2887 42.3175 70.5104 42.4284 70.7321 42.5393C71.3973 42.8718 71.9517 43.537 72.1734 44.2022C72.2843 44.8674 72.2843 45.3109 72.2843 45.7544Z" fill="black"/>
<path d="M64.5237 32.3396C64.5237 32.2288 64.4128 32.2288 64.3019 32.2288C64.1911 32.2288 64.1911 32.3396 64.1911 32.4505H64.0802L66.5192 37.4394L66.9627 37.2177L64.5237 32.3396Z" fill="#3F3D56"/>
<path d="M67.517 27.129C70.3948 27.129 72.7277 24.7961 72.7277 21.9183C72.7277 19.0405 70.3948 16.7076 67.517 16.7076C64.6393 16.7076 62.3064 19.0405 62.3064 21.9183C62.3064 24.7961 64.6393 27.129 67.517 27.129Z" fill="#FBBEBE"/>
<path d="M74.3906 18.7032C74.3906 18.2598 74.2798 17.9272 74.1689 17.4837C73.9472 16.1533 73.282 14.9338 72.3951 13.936C72.2842 13.7143 72.2842 13.4926 72.1733 13.2708C71.8407 12.4948 71.5081 11.7187 70.9538 11.0535C70.7321 10.61 70.2886 10.3883 69.7343 10.2775C69.6234 10.2775 69.5126 10.2775 69.2908 10.2775C69.18 10.1666 69.18 10.1666 69.0691 10.0557C68.6256 9.39053 67.7387 9.1688 66.9627 9.27966H66.8518H66.7409C66.7409 9.39053 66.8518 9.39053 66.8518 9.5014C66.9627 9.72313 67.0735 9.83399 67.0735 10.0557C67.1844 10.1666 67.1844 10.3883 67.2953 10.4992C66.5192 10.7209 65.7431 11.1644 65.1888 11.7187L63.7476 13.0491C63.7476 13.0491 63.7476 13.0491 63.7476 13.16C63.7476 13.2708 63.7476 13.2708 63.7476 13.3817H64.7454H64.8562C64.8562 13.4925 64.8562 13.6034 64.8562 13.7143C64.7454 13.8251 64.5236 13.936 64.4128 14.0469C64.3019 14.1577 64.0802 14.3795 63.9693 14.4903C63.0824 15.599 62.6389 16.9294 62.6389 18.2598V18.7032C62.6389 18.8141 62.6389 18.8141 62.6389 18.925C62.6389 19.0358 62.6389 19.1467 62.7498 19.2575C62.7498 19.2575 62.8606 19.3684 62.9715 19.3684H63.0824H63.1932C63.5258 19.5901 63.6367 19.9227 63.9693 20.1445C63.9693 20.1445 63.9693 20.1445 64.0802 20.1445H64.191H64.3019H64.4128H64.5236C64.6345 20.1445 64.6345 20.1445 64.7454 20.1445C64.9671 20.1445 65.1888 20.1445 65.5214 20.1445L67.6279 19.9227C68.0713 19.8119 68.6256 19.8119 69.0691 19.9227C69.4017 20.0336 69.8452 20.1445 70.1778 20.3662C70.2886 20.3662 70.3995 20.4771 70.3995 20.4771H70.5104H70.6212H70.7321H70.843H70.9538H71.0647H71.1755H71.2864C71.3973 20.4771 71.3973 20.4771 71.5081 20.4771C71.619 20.4771 71.7299 20.4771 71.9516 20.4771H72.0625H72.1733H72.6168H72.7277C72.9494 20.4771 73.0603 20.4771 73.282 20.4771H73.3929H73.5037C73.8363 20.3662 74.0581 20.1445 74.1689 19.8119C74.1689 19.701 74.2798 19.701 74.2798 19.5901C74.2798 19.4793 74.2798 19.4793 74.3906 19.3684C74.3906 19.2576 74.3906 19.2575 74.5015 19.1467C74.5015 19.1467 74.5015 19.1467 74.5015 19.0358C74.5015 18.925 74.5015 18.925 74.5015 18.925C74.5015 18.8141 74.5015 18.7032 74.5015 18.5924V18.4815C74.5015 18.3706 74.5015 18.3706 74.5015 18.2598V18.038C74.3906 18.8141 74.3906 18.7032 74.3906 18.7032ZM72.3951 13.8251C72.2842 13.7143 72.2842 13.7143 72.1733 13.6034C72.1733 13.7143 72.2842 13.7143 72.3951 13.8251Z" fill="#464353"/>
<path d="M57.5391 21.5857C56.9848 21.364 56.3196 21.364 55.7653 21.364C55.4327 21.4748 55.1001 21.6966 54.7675 21.9183C53.6588 22.8052 52.6611 23.9139 51.9959 25.1334C51.885 25.3551 51.7741 25.5768 51.7741 25.7986C51.7741 26.0203 51.7741 26.3529 51.885 26.5746C52.4393 28.2376 53.6588 29.568 54.2132 31.231C54.6566 33.0048 54.6566 34.8895 54.2132 36.6634C53.6588 38.8807 52.8828 40.9871 51.6633 42.8718C51.5524 43.2044 51.3307 43.4262 51.1089 43.6479C50.7763 43.9805 50.4437 44.0914 50.222 44.5348C50.1111 44.7566 50.1111 44.8674 50.1111 45.0892C50.0003 45.5326 49.5568 45.9761 49.5568 46.5304C49.5568 46.9739 49.6677 47.3065 49.7786 47.6391C50.0003 48.3043 50.0003 48.9694 49.6677 49.6346C49.2242 50.7433 48.2264 51.7411 48.4482 52.9606C49.2242 52.8497 49.7785 52.4063 50.222 51.8519C50.3329 51.6302 50.4437 51.4085 50.5546 51.1868C50.9981 50.8542 51.6633 51.1868 51.9959 50.8542C52.3285 50.5216 52.3285 50.189 52.2176 49.7455C52.1067 49.4129 51.885 49.0803 51.7741 48.6369C51.7741 47.9717 51.7741 47.1956 51.885 46.5304C51.885 46.1978 51.7741 45.8652 51.7741 45.5326C51.7741 44.8674 52.1067 44.3131 52.5502 43.8696C52.9936 43.4262 53.548 43.0936 54.1023 42.8718L56.2087 41.7632C56.9848 41.4306 57.65 40.8763 58.0935 40.1002C58.2043 39.7676 58.2043 39.435 58.2043 39.1024C58.3152 34.2244 59.5347 29.3463 60.7542 24.5791C60.976 23.803 61.1977 23.1378 61.4194 22.3618C61.752 21.6966 62.3063 21.0314 62.5281 20.477C60.7542 20.3662 59.313 21.8074 57.5391 21.5857Z" fill="#464353"/>
<path d="M69.2909 52.4063C69.5126 53.5149 69.6235 54.7344 69.7344 55.8431C68.2931 57.0626 66.741 58.1713 65.078 59.0582C64.9671 59.1691 64.8563 59.1691 64.8563 59.1691C64.7454 58.9473 64.5237 58.7256 64.1911 58.6147C63.6368 57.3952 62.9716 56.0648 62.4172 54.8453C62.0846 54.1801 61.752 53.5149 61.6412 52.7389C61.5303 52.1845 61.5303 51.6302 61.4195 50.965C61.4195 50.6324 61.3086 50.2998 61.1977 49.9672C61.0869 49.6346 60.976 49.4129 60.8651 49.1912C60.7543 48.8586 60.6434 48.526 60.6434 48.1934C60.6434 48.0825 60.6434 47.9716 60.6434 47.8608C60.5325 47.7499 60.5325 47.7499 60.4217 47.6391C60.1999 47.4173 60.0891 47.1956 60.1999 46.863C59.7565 46.863 59.4239 47.4173 59.2021 47.8608C58.9804 48.3042 58.7587 48.7477 58.537 49.0803C58.3152 49.302 58.0935 49.5238 57.7609 49.7455C57.7609 49.7455 57.7609 49.7455 57.65 49.7455C56.9848 49.9672 56.2088 49.9672 55.4327 49.8564C54.7675 49.7455 54.1023 49.5238 53.6589 49.1912C53.548 49.0803 53.3263 48.9694 53.2154 48.7477C52.772 48.0825 52.5502 47.4173 52.4394 46.6413C52.4394 46.5304 52.4394 46.5304 52.4394 46.4195C52.3285 45.8652 52.3285 45.3109 52.3285 44.8674C52.3285 44.7565 52.3285 44.6457 52.3285 44.424C52.3285 44.3131 52.3285 44.2022 52.3285 44.2022C52.3285 44.0914 52.3285 43.9805 52.4394 43.7588C52.4394 43.3153 52.6611 42.8718 52.8828 42.4284C52.9937 42.2066 53.2154 41.9849 53.4371 41.7632C53.548 41.6523 53.6589 41.6523 53.6589 41.5415C53.7697 41.4306 53.9915 41.3197 54.1023 41.2089C54.5458 40.9871 54.8784 40.7654 55.3219 40.6545C55.4327 40.6545 55.5436 40.5437 55.6545 40.5437C56.0979 40.4328 56.4305 40.3219 56.874 40.4328C57.2066 40.4328 57.65 40.5437 57.9826 40.5437C58.9804 40.4328 59.8673 40.4328 60.8651 40.2111C62.1955 39.9893 63.5259 40.1002 64.7454 40.6545L64.8563 40.7654C65.4106 41.098 65.8541 41.6523 66.2975 42.2066C66.4084 42.3175 66.4084 42.4284 66.5193 42.5392C66.6301 42.8718 66.8519 43.0936 66.9627 43.4262C67.0736 43.537 67.0736 43.7588 67.0736 43.8696V43.9805C67.0736 44.0914 66.9627 44.2022 66.9627 44.3131C66.9627 44.7565 67.2953 45.0891 67.4062 45.5326C67.517 45.8652 67.5171 46.0869 67.5171 46.4195C67.6279 46.863 67.7388 47.1956 67.9605 47.5282C68.2931 48.0825 68.5148 48.7477 68.7366 49.302C68.8474 49.7455 68.9583 50.189 69.0692 50.6324C69.0692 50.7433 69.18 50.965 69.18 51.0759C69.18 51.6302 69.18 52.0737 69.2909 52.4063Z" fill="#F86D70"/>
<path d="M77.9384 40.4328V40.9871H77.7166H76.3863L73.1712 40.8763H72.2842H72.0625H70.7321H68.8474H64.7454L57.7609 40.7654H55.211H54.2132H53.3263H52.7719H52.2176H48.1156H47.0069H46.5635L46.4526 40.322L45.2331 37.3286L45.0114 36.7743L45.1222 36.1091L45.8983 36.5525L46.3417 36.6634L53.7697 37.5503L55.211 37.7721L58.2043 38.1046L61.0868 38.4372L62.1955 38.5481L68.8474 39.435L70.7321 39.6568L72.2842 39.8785L77.8275 40.5437L77.9384 40.4328Z" fill="#3F3D56"/>
<path d="M45.2331 35.9982L46.6743 39.7676L77.9384 40.4328V36.3308L45.2331 35.9982Z" fill="#504F60"/>
<path d="M46.7852 40.2111L47.0069 63.4928L48.1156 63.382L47.8939 40.2111H46.7852Z" fill="#3F3D56"/>
<path d="M77.8275 40.9871H77.7166C77.4949 42.4284 77.1623 43.8696 76.8297 45.3109L76.4971 40.9871V40.7654L77.8275 40.6545V40.9871Z" fill="#3F3D56"/>
<path d="M73.3929 38.2155L61.5303 38.4372L57.8717 37.2177L67.7388 36.6634L73.3929 38.2155Z" fill="white"/>
<path d="M58.4261 33.4483C58.3152 33.4483 58.2043 33.5592 58.0935 33.67C57.9826 33.7809 57.9826 33.8918 57.9826 34.0026L57.7609 35.2222C57.7609 35.333 57.7609 35.4439 57.7609 35.5548C57.7609 35.6656 57.9826 35.6656 58.0935 35.6656C58.0935 35.8874 58.0935 36.1091 58.2043 36.3308C58.3152 36.5525 58.6478 36.5525 58.8695 36.4417C58.9804 36.6634 59.2021 36.6634 59.4238 36.5525C59.313 36.5525 59.313 36.7743 59.4238 36.8851C59.5347 36.996 59.6456 36.996 59.7564 36.996C61.1977 37.2177 62.6389 36.996 63.9693 36.4417C63.9693 35.8874 63.8585 35.2222 63.7476 34.6678C63.7476 34.2244 63.5259 33.8918 63.3041 33.5592C62.4172 33.0049 61.3086 32.7831 60.3108 32.894C59.6456 33.0049 59.0913 33.2266 58.4261 33.4483Z" fill="#FBBEBE"/>
<path opacity="0.1" d="M70.6212 33.67C67.6279 33.8918 64.7454 33.67 61.8629 32.894C62.0846 33.8918 62.0846 35.0004 61.8629 36.1091L75.6102 37.2177C76.8297 37.3286 77.9383 37.4395 79.1579 37.4395C79.7122 37.3286 74.3906 35.5548 74.6124 35.0004C75.1667 33.4483 77.1623 32.6723 75.721 32.5614C73.9472 32.4505 72.3951 33.67 70.6212 33.67Z" fill="black"/>
<path d="M70.6212 33.7809C67.6279 34.0026 64.7454 33.7809 61.8629 33.0048C62.0846 34.0026 62.0846 35.1113 61.8629 36.2199L75.6102 37.3286C76.8297 37.4395 77.9383 37.5503 79.1579 37.5503C79.7122 37.4395 79.6013 36.6634 79.823 36.2199C80.3774 34.6678 77.1623 32.7831 75.721 32.7831C73.9472 32.5614 72.5059 33.7809 70.6212 33.7809Z" fill="#464353"/>
<path d="M65.9649 34.0026C66.0758 34.0026 66.1866 34.1135 66.2975 34.2244C66.4084 34.3352 66.4084 34.4461 66.4084 34.557L66.6301 35.7765C66.6301 35.8874 66.6301 35.9982 66.6301 36.1091C66.6301 36.2199 66.4084 36.2199 66.2975 36.2199C66.2975 36.4417 66.2975 36.6634 66.1866 36.8851C66.0758 37.1069 65.7432 37.1069 65.5214 36.996C65.4106 37.2177 65.1888 37.2177 64.9671 37.1069C65.078 37.1069 65.078 37.3286 64.9671 37.4395C64.8562 37.5503 64.7454 37.5503 64.6345 37.5503C63.1933 37.7721 61.752 37.5503 60.4216 36.996C60.4216 36.4417 60.5325 35.7765 60.6434 35.2222C60.6434 34.7787 60.8651 34.4461 61.0868 34.1135C61.9737 33.5592 63.0824 33.3374 64.0802 33.4483C64.8562 33.67 65.4106 33.7809 65.9649 34.0026Z" fill="#FBBEBE"/>
<path d="M46.5635 31.4527C46.2309 31.7853 46.0091 32.1179 45.8983 32.5613C45.6766 33.3374 45.5657 34.2243 45.6765 35.0004C45.6765 35.2221 45.6765 35.4438 45.7874 35.6656C45.8983 35.7764 46.0091 35.8873 46.2309 35.9982C47.0069 36.3308 47.783 36.5525 48.559 36.5525C49.7786 36.6634 50.9981 36.7742 52.2176 36.7742C55.3218 36.8851 58.4261 36.5525 61.4194 37.3286C61.0868 36.7742 60.976 35.9982 61.3086 35.333C61.5303 34.6678 61.8629 34.1135 62.3064 33.5591C60.976 33.1157 59.4239 33.7809 57.9826 33.7809C56.5414 33.67 55.1001 32.8939 53.6589 32.8939C53.3263 32.8939 52.9937 32.8939 52.6611 32.8939C52.3285 32.7831 52.1067 32.5613 51.9959 32.2288C52.4393 32.2288 52.7719 32.007 52.8828 31.5636C52.9937 31.231 53.1045 30.7875 53.2154 30.4549C53.6589 29.568 54.6566 29.1245 55.3218 28.3485C55.5436 28.1267 55.5436 27.7941 55.4327 27.5724C55.4327 27.5724 55.4327 27.5724 55.4327 27.4615C54.7675 26.7963 54.1023 26.242 53.3263 25.7986C53.1045 25.5768 52.5502 24.8008 52.3285 24.8008C51.885 24.6899 51.4415 25.3551 51.109 25.6877C49.5568 27.6833 48.0047 29.568 46.5635 31.4527Z" fill="#464353"/>
<path opacity="0.07" d="M62.8607 31.231C63.0824 31.3418 63.3041 31.5636 63.415 31.7853C63.5259 32.007 63.6367 32.2287 63.6367 32.5613C63.6367 32.1179 63.8585 31.5636 64.3019 31.4527L62.8607 31.231Z" fill="black"/>
<g opacity="0.1">
<path opacity="0.1" d="M67.4472 9.97369C67.3363 9.64109 67.2254 9.41936 67.1146 9.19763C67.0037 9.19763 66.8929 9.19763 66.8929 9.3085C67.0037 9.53023 67.1146 9.75196 67.2254 9.97369C67.3363 9.97369 67.3363 9.97369 67.4472 9.97369Z" fill="black"/>
<path opacity="0.1" d="M64.5647 13.5213C64.6756 13.5213 64.6756 13.4105 64.6756 13.4105V13.0779H63.7887C63.6778 13.1887 63.5669 13.2996 63.6778 13.5213H64.5647Z" fill="black"/>
<path opacity="0.1" d="M74.0991 19.9516C73.9883 20.2842 73.7665 20.5059 73.4339 20.6168C73.2122 20.7276 72.9905 20.7276 72.6579 20.7276C71.7709 20.7276 70.9949 20.6168 70.108 20.395C69.7754 20.2842 69.3319 20.0624 68.9993 19.9516C68.445 19.9516 68.0015 19.9516 67.5581 19.9516L65.4516 20.2842C64.8973 20.395 64.2321 20.2842 63.6778 19.9516C63.456 19.7298 63.2343 19.3972 62.9017 19.2864C62.7908 19.1755 62.68 19.1755 62.5691 19.0646C62.4583 18.9538 62.4583 18.8429 62.4583 18.732C62.4583 18.6212 62.4583 18.5103 62.4583 18.5103C62.4583 18.732 62.4583 18.9538 62.4583 19.1755C62.4583 19.2864 62.4583 19.3972 62.5691 19.5081C62.68 19.619 62.7908 19.7298 62.9017 19.7298C63.2343 19.9516 63.3452 20.2842 63.6778 20.395C64.2321 20.7276 64.8973 20.8385 65.4516 20.6168L67.5581 20.395C68.0015 20.2842 68.5558 20.2842 68.9993 20.395C69.3319 20.5059 69.7754 20.6168 70.108 20.8385C70.884 21.0602 71.7709 21.1711 72.6579 21.1711C72.8796 21.1711 73.2122 21.1711 73.4339 21.0602C73.7665 20.9494 73.9883 20.7276 74.0991 20.395C74.4317 19.8407 74.5426 19.1755 74.4317 18.6212C74.4317 19.1755 74.3208 19.619 74.0991 19.9516Z" fill="black"/>
</g>
<path opacity="0.1" d="M67.4061 10.4991L68.5148 11.6078C68.5148 11.4969 67.517 11.1643 67.4061 10.4991Z" fill="black"/>
</svg>
