<svg width="32" height="32" viewBox="0 0 32 32" fill="none" xmlns="http://www.w3.org/2000/svg">
<rect width="32" height="32" rx="10" fill="white" fill-opacity="0.2"/>
<path fill-rule="evenodd" clip-rule="evenodd" d="M23.3973 22.3285C23.4294 22.3687 23.4535 22.4008 23.4776 22.433C23.9678 23.0598 23.0758 23.8232 22.5936 23.1643C22.5695 23.1321 22.5454 23.1 22.5133 23.0678L23.3973 22.3285ZM22.2642 22.7383C20.5846 20.5284 18.889 18.3104 17.2014 16.1085C17.0005 15.5299 16.7996 14.9513 16.5987 14.3807C17.0728 14.7183 17.5469 15.0558 18.0211 15.4013C19.7247 17.6032 21.4364 19.7971 23.1481 22.0071L22.2642 22.7383Z" fill="white"/>
<path fill-rule="evenodd" clip-rule="evenodd" d="M10.6278 11.6326C10.6359 11.4317 10.7002 11.271 10.7966 11.1424C10.9011 11.0138 11.0457 10.9013 11.2145 10.8049C11.343 10.7326 11.4154 10.6201 11.4154 10.4754C11.4154 10.379 11.3832 10.2986 11.3189 10.2343C11.2627 10.17 11.1823 10.1379 11.0698 10.1379C10.9171 10.1379 10.7323 10.2182 10.5314 10.387C10.3225 10.5558 10.1537 10.7888 10.009 11.0701C9.87243 11.3594 9.8001 11.6648 9.8001 11.9942C9.8001 12.3559 9.88046 12.6371 10.0412 12.83C10.2019 13.0229 10.4028 13.1193 10.6439 13.1193C10.8689 13.1193 11.0537 13.047 11.2064 12.9104C11.3591 12.7737 11.4314 12.5969 11.4314 12.388C11.4314 12.171 11.3591 11.9862 11.2064 11.8415C11.0537 11.6969 10.885 11.6326 10.6921 11.6326H10.6278ZM12.8297 11.6326C12.8458 11.4317 12.9021 11.271 12.9985 11.1424C13.0949 11.0219 13.2315 10.9013 13.4083 10.8049C13.5369 10.7326 13.6092 10.6281 13.6092 10.4754C13.6092 10.3709 13.5771 10.2906 13.5208 10.2263C13.4566 10.17 13.3762 10.1379 13.2637 10.1379C13.1512 10.1379 13.0146 10.1861 12.8619 10.2825C12.7092 10.387 12.5726 10.5156 12.436 10.6843C12.3074 10.8531 12.2029 11.046 12.1145 11.271C12.0342 11.504 11.994 11.7451 11.994 11.9942C11.994 12.3559 12.0743 12.6291 12.2351 12.83C12.3958 13.0309 12.5967 13.1273 12.8378 13.1273C13.0628 13.1273 13.2476 13.055 13.4003 12.9184C13.553 12.7737 13.6253 12.5969 13.6253 12.388C13.6253 12.171 13.553 11.9862 13.4003 11.8415C13.2476 11.6969 13.0789 11.6326 12.894 11.6326H12.8297ZM15.8594 13.4247C16.1085 14.3488 16.3496 15.281 16.5987 16.2052C17.6916 17.6517 18.8006 19.1143 19.9016 20.5608H13.7217L9.84832 23.9922V20.5447C8.89201 20.4081 8 19.4357 8 18.4633V10.0977C8 9.053 9.03666 8.0083 10.0733 8.0083H19.5319V11.7612C19.5319 11.8174 19.548 11.8657 19.5721 11.9139C19.6042 11.9621 19.6364 11.9942 19.6846 12.0264C19.7328 12.0505 19.781 12.0666 19.8373 12.0666H23.4616V18.4633V18.5437V20.5527H22.6981C21.2757 18.6964 19.8212 16.8159 18.3747 14.9515L15.8594 13.4247ZM20.1426 11.4558V8.50654L23.0437 11.4558H20.1426Z" fill="white"/>
</svg>
