<svg width="16" height="16" viewBox="0 0 16 16" fill="none" xmlns="http://www.w3.org/2000/svg">
<path d="M7.98982 1.33337C10.0356 1.33337 11.6818 2.94323 11.6818 4.93071V5.95294C12.83 6.31135 13.6666 7.3508 13.6666 8.59231V11.8836C13.6666 13.4206 12.3924 14.6667 10.8215 14.6667H5.17918C3.60755 14.6667 2.33331 13.4206 2.33331 11.8836V8.59231C2.33331 7.3508 3.17061 6.31135 4.31817 5.95294V4.93071C4.32494 2.94323 5.97109 1.33337 7.98982 1.33337ZM7.99659 8.92289C7.67143 8.92289 7.40723 9.18127 7.40723 9.49926V10.97C7.40723 11.2946 7.67143 11.553 7.99659 11.553C8.32853 11.553 8.59273 11.2946 8.59273 10.97V9.49926C8.59273 9.18127 8.32853 8.92289 7.99659 8.92289ZM8.00337 2.49274C6.62819 2.49274 5.51044 3.57923 5.50367 4.91746V5.80918H10.4963V4.93071C10.4963 3.58585 9.37854 2.49274 8.00337 2.49274Z" fill="black" fill-opacity="0.5"/>
</svg>
