<svg width="16" height="16" viewBox="0 0 16 16" fill="none" xmlns="http://www.w3.org/2000/svg">
<path d="M8.83496 1.33337C9.00658 1.33337 9.13859 1.47337 9.13859 1.64004V3.78671C9.13859 5.00671 10.1353 6.00671 11.3432 6.01337C11.8449 6.01337 12.2409 6.02004 12.5445 6.02004L12.657 6.01955C12.8599 6.018 13.1331 6.01337 13.3696 6.01337C13.5346 6.01337 13.6666 6.14671 13.6666 6.31337V11.6734C13.6666 13.3267 12.3399 14.6667 10.703 14.6667H5.44882C3.73265 14.6667 2.33331 13.26 2.33331 11.5267V4.34004C2.33331 2.68671 3.66665 1.33337 5.31021 1.33337H8.83496ZM9.54123 9.93337H5.95047C5.67985 9.93337 5.45543 10.1534 5.45543 10.4267C5.45543 10.7 5.67985 10.9267 5.95047 10.9267H9.54123C9.81186 10.9267 10.0363 10.7 10.0363 10.4267C10.0363 10.1534 9.81186 9.93337 9.54123 9.93337ZM8.1815 6.60004H5.95047C5.67985 6.60004 5.45543 6.82671 5.45543 7.10004C5.45543 7.37337 5.67985 7.59337 5.95047 7.59337H8.1815C8.45212 7.59337 8.67655 7.37337 8.67655 7.10004C8.67655 6.82671 8.45212 6.60004 8.1815 6.60004ZM10.1004 1.93737C10.1004 1.65004 10.4457 1.50737 10.643 1.71471C11.3565 2.46404 12.6034 3.77404 13.3004 4.50604C13.4932 4.70804 13.3519 5.04337 13.074 5.04404C12.5315 5.04604 11.8919 5.04404 11.4318 5.03937C10.7018 5.03937 10.1004 4.43204 10.1004 3.69471V1.93737Z" fill="black" fill-opacity="0.5"/>
</svg>
