<svg width="20" height="20" viewBox="0 0 20 20" fill="none" xmlns="http://www.w3.org/2000/svg">
<path opacity="0.5" d="M3.18125 6.37135C2.77684 6.3711 2.38158 6.25081 2.04545 6.02568C1.70932 5.80056 1.4474 5.4807 1.29281 5.10656C1.13822 4.73242 1.0979 4.32078 1.17695 3.9237C1.25599 3.52662 1.45086 3.16192 1.73691 2.8757C2.02296 2.58949 2.38734 2.39461 2.784 2.31571C3.18066 2.23681 3.59177 2.27743 3.96538 2.43244C4.33898 2.58744 4.65829 2.84987 4.88294 3.18654C5.10759 3.52321 5.2275 3.91901 5.2275 4.3239C5.22684 4.86693 5.011 5.38751 4.62736 5.77137C4.24372 6.15524 3.72363 6.37101 3.18125 6.37135ZM18.8638 4.3239C18.8638 3.91896 18.7438 3.52311 18.5191 3.18641C18.2944 2.84971 17.975 2.58728 17.6013 2.43232C17.2277 2.27735 16.8165 2.2368 16.4198 2.31581C16.0231 2.39481 15.6587 2.58981 15.3727 2.87615C15.0867 3.16249 14.892 3.5273 14.813 3.92447C14.7341 4.32163 14.7746 4.73331 14.9294 5.10743C15.0842 5.48155 15.3463 5.80131 15.6826 6.02629C16.0189 6.25127 16.4143 6.37135 16.8188 6.37135C17.3609 6.37068 17.8807 6.15476 18.2641 5.77093C18.6474 5.38711 18.8631 4.86672 18.8638 4.3239ZM12.5 2.50298C12.5 2.00794 12.3534 1.52401 12.0787 1.1124C11.804 0.700788 11.4135 0.379974 10.9567 0.190529C10.4999 0.0010845 9.99723 -0.0484829 9.51227 0.0480952C9.02732 0.144673 8.58186 0.383059 8.23223 0.733108C7.8826 1.08316 7.6445 1.52915 7.54804 2.01468C7.45157 2.50021 7.50108 3.00347 7.6903 3.46083C7.87952 3.9182 8.19995 4.30911 8.61107 4.58414C9.0222 4.85917 9.50555 5.00597 10 5.00597C10.663 5.00597 11.2989 4.74226 11.7678 4.27286C12.2366 3.80346 12.5 3.16682 12.5 2.50298ZM0 11.3773V19.5683C0.00610659 19.6848 0.0566416 19.7946 0.141184 19.8749C0.225726 19.9552 0.337829 20 0.454375 20C0.570921 20 0.683024 19.9552 0.767566 19.8749C0.852108 19.7946 0.902643 19.6848 0.90875 19.5683V17.2931H19.0913V19.5683C19.0974 19.6848 19.1479 19.7946 19.2324 19.8749C19.317 19.9552 19.4291 20 19.5456 20C19.6622 20 19.7743 19.9552 19.8588 19.8749C19.9434 19.7946 19.9939 19.6848 20 19.5683V11.3773H0ZM19.0913 7.73672C19.0908 7.53555 19.0457 7.33699 18.9592 7.1554C18.8728 6.97381 18.7471 6.81373 18.5912 6.68672C18.0818 7.07287 17.4603 7.28184 16.8212 7.28184C16.1822 7.28184 15.5607 7.07287 15.0513 6.68672C14.8954 6.81373 14.7697 6.97381 14.6833 7.1554C14.5968 7.33699 14.5517 7.53555 14.5512 7.73672V10.4675H19.0963L19.0913 7.73672ZM13.6363 6.82689C13.6356 6.41992 13.4986 6.02492 13.2473 5.70504C12.996 5.38516 12.6449 5.15885 12.25 5.06228C11.6299 5.61358 10.8293 5.91806 10 5.91806C9.17068 5.91806 8.37014 5.61358 7.75 5.06228C7.35512 5.15885 7.00397 5.38516 6.75268 5.70504C6.50138 6.02492 6.36444 6.41992 6.36375 6.82689V10.4675H13.6363V6.82689ZM5.455 7.73672C5.45455 7.53555 5.40946 7.33699 5.32299 7.1554C5.23652 6.97381 5.11083 6.81373 4.955 6.68672C4.44552 7.07287 3.824 7.28184 3.185 7.28184C2.546 7.28184 1.92448 7.07287 1.415 6.68672C1.25917 6.81373 1.13348 6.97381 1.04701 7.1554C0.960541 7.33699 0.91545 7.53555 0.915 7.73672V10.4675H5.455V7.73672Z" fill="black"/>
</svg>
