<svg width="24" height="24" viewBox="0 0 24 24" fill="none" xmlns="http://www.w3.org/2000/svg">
<path d="M3.3052 15.7054C3.11677 15.261 3.01247 14.7725 3.01247 14.2601C3.01247 12.2102 4.67897 10.5437 6.72736 10.5437H17.2726C19.321 10.5437 20.9874 12.2102 20.9874 14.2585V14.2601C20.9874 14.7725 20.8831 15.2611 20.6947 15.7056C21.8442 14.8752 22.5938 13.5239 22.5938 12.0007V11.9992C22.5938 9.48044 20.5446 7.43121 18.0257 7.43121H5.97427C3.45544 7.43121 1.40625 9.48044 1.40625 11.9992C1.40625 13.5233 2.15578 14.8749 3.3052 15.7054Z" fill="black" fill-opacity="0.5"/>
<path d="M6.72746 11.95C5.45448 11.95 4.41882 12.9863 4.41882 14.2601C4.41882 15.5331 5.45448 16.5687 6.72746 16.5687H17.2727C18.5457 16.5687 19.5813 15.5331 19.5813 14.2586C19.5813 12.9856 18.5456 11.95 17.2727 11.95H6.72746Z" fill="black" fill-opacity="0.5"/>
<path d="M4.41882 4.41877H7.4813C7.725 4.41877 7.95132 4.29258 8.07942 4.0853C8.20753 3.87802 8.21916 3.61917 8.11022 3.4012L7.5143 2.20941L8.11022 1.01761C8.21921 0.799641 8.20753 0.540797 8.07942 0.333516C7.95132 0.126188 7.725 0 7.4813 0H3.7157C3.32739 0 3.01257 0.314812 3.01257 0.703125V6.81234C3.44978 6.5617 3.92162 6.36506 4.41882 6.23086V4.41877Z" fill="black" fill-opacity="0.5"/>
<path d="M11.1969 4.41877H14.2594C14.5031 4.41877 14.7294 4.29258 14.8575 4.0853C14.9856 3.87802 14.9973 3.61917 14.8883 3.4012L14.2924 2.20941L14.8883 1.01761C14.9973 0.799641 14.9856 0.540797 14.8575 0.333516C14.7294 0.126188 14.5031 0 14.2594 0H10.4938C10.1055 0 9.79065 0.314812 9.79065 0.703125V6.02498H11.1969V4.41877Z" fill="black" fill-opacity="0.5"/>
<path d="M17.975 4.41877H21.0375C21.2812 4.41877 21.5075 4.29258 21.6356 4.0853C21.7637 3.87802 21.7753 3.61917 21.6664 3.4012L21.0705 2.20941L21.6664 1.01761C21.7754 0.799641 21.7637 0.540797 21.6356 0.333516C21.5075 0.126188 21.2812 0 21.0375 0H17.2719C16.8835 0 16.5687 0.314812 16.5687 0.703125V6.02498H17.975V4.41877Z" fill="black" fill-opacity="0.5"/>
<path d="M10.4437 20.9874H13.5562V24H10.4437V20.9874Z" fill="black" fill-opacity="0.5"/>
<path d="M18.0257 17.975H5.97427C2.68003 17.975 0 15.2949 0 12.0007V17.2719C0 20.9931 3.01181 24 6.72811 24H9.0375V20.2843C9.0375 19.896 9.35231 19.5812 9.74063 19.5812H14.2594C14.6477 19.5812 14.9625 19.896 14.9625 20.2843V24H17.2719C20.9932 24 24 20.9882 24 17.2719V12.0007C24 15.2949 21.32 17.975 18.0257 17.975Z" fill="black" fill-opacity="0.5"/>
</svg>
