<svg width="65" height="73" viewBox="0 0 65 73" fill="none" xmlns="http://www.w3.org/2000/svg">
<path d="M60.0771 15.0417V57.9403L56.3941 60.04L53.1487 61.9043L51.1977 63.0266L43.3576 67.5155L42.3366 68.1128H22.6452L14.2581 63.2981L13.784 63.0266L12.7083 62.4111L4.92285 57.9403V15.0417L14.331 9.64768L18.014 7.54801L21.4418 5.57503L22.6452 4.88721H42.3366L60.0771 15.0417Z" fill="#9AA3CC"/>
<path opacity="0.1" d="M32.3633 21.7754L30.6311 23.151L29.7013 23.8932L27.3675 25.7213L25.4895 27.1875L23.7027 28.5993L21.4053 30.4094L21.2959 30.4999L19.4909 31.9118L15.5891 34.9889L8.55119 40.5096L6.78261 41.9033L4.92286 43.3695L4.68583 43.5505L0.0546985 47.1887L0 47.0077V33.4684L4.68583 31.7851L4.92286 31.6946L9.97335 29.8664L10.7209 29.613L20.202 26.1739L21.2959 25.7937L23.7027 24.9068L26.547 23.8932L27.1487 23.676L28.9902 23.0062L30.6311 22.4089L32.3633 21.7754Z" fill="white"/>
<path opacity="0.1" d="M32.3633 21.7754L30.6311 22.8976L29.0813 23.8932L26.2188 25.7213L25.4895 26.1739L23.7027 27.3142L21.3324 28.8347L21.2959 28.8709L20.129 29.5949L15.9902 32.2557L4.92286 39.3149L4.68583 39.4597L0 42.4645V38.2651L4.68583 35.8758L4.92286 35.7491L17.1024 29.5587L21.2959 27.4228L23.7027 26.192L28.9902 23.5131L30.6311 22.6623L32.3633 21.7754Z" fill="white"/>
<path opacity="0.1" d="M43.3576 67.5157L42.3366 68.095L40.1122 69.3801L39.3281 69.8326L37.5049 70.1222L32.9467 70.8644L32.9102 68.095V67.8596L32.8555 63.0268L32.7279 52.2207L32.6914 48.5643L32.6732 47.243L32.6549 46.2837L32.6185 43.7858L32.582 41.1793L32.5455 38.6995L32.5273 36.3464L32.4908 33.7761L32.4726 32.6539L32.4544 31.2782V30.7895L32.4361 29.1604V28.9794L32.345 21.7935L32.3997 22.0469L32.4544 22.246L32.8555 23.875L33.2931 25.6851L33.676 27.3142L34.0589 28.907V28.9251L34.1136 29.1242L34.2959 29.8664L34.5147 30.7533L34.9705 32.6358L35.8457 36.3102L36.338 38.3556L36.4109 38.6633L36.9943 41.1431L37.5049 43.297L37.6143 43.7677L38.2159 46.2656L38.7629 48.5643L41.1514 58.5378L41.6619 60.6194L42.1178 62.5562L42.2272 63.0268L43.3576 67.5157Z" fill="white"/>
<path opacity="0.1" d="M40.1122 69.3801L39.3465 69.8327L37.5049 70.1223L37.2861 68.1131L37.0126 65.5066L36.7574 63.0268L35.3899 50.1391L35.2805 49.1074L35.2258 48.5644L34.9706 46.2837L34.8976 45.5235L34.7153 43.7858L34.4236 41.1793L34.1683 38.6995L33.9131 36.3464L33.7125 34.464L33.6031 33.396L33.3479 30.9705L33.3296 30.7895L33.1473 29.1605L33.1291 28.9252L32.965 27.3323L32.7826 25.7032L32.6003 23.8932L32.4362 22.3727L32.3633 21.7754L32.4362 22.1736L32.4544 22.246L32.7097 23.8932L33.0014 25.7032L33.2749 27.3323L33.5302 28.889L33.5666 29.1605L33.8219 30.6447L33.8401 30.7895L34.223 33.1426L34.6606 35.8577L34.7335 36.3464L35.1164 38.6995L35.5176 41.1793L35.9551 43.7858L36.0828 44.5641L36.3563 46.2837L36.7209 48.5644L39.073 63.0268L39.2735 64.2215L39.9117 68.1131L40.1122 69.3801Z" fill="white"/>
<path opacity="0.1" d="M61.627 57.0536L60.296 57.8138L60.059 57.9405L56.3942 60.0402L53.1488 61.9045L50.8879 57.5604L45.254 46.6819L42.8472 42.03L41.6986 39.8036L41.0239 38.4823L39.9117 36.3464L36.1922 29.1604L35.3353 27.5314L33.4573 23.8931L32.6186 22.2641L32.4363 21.9202L32.3816 21.7935L32.4363 21.8478L32.8556 22.246L34.0955 23.4587L34.5331 23.875L35.9735 25.2869L36.3563 25.667L37.2315 26.5177L39.4012 28.6536L41.0422 30.2646L42.8837 32.0746L44.5246 33.6856L45.3087 34.4458L60.0955 48.9807L60.3325 49.216L61.3171 50.1753L61.6453 56.5467L61.627 57.0536Z" fill="white"/>
<path opacity="0.1" d="M61.9004 56.8907L61.627 57.0536L60.296 57.8138L60.0772 57.9405L56.3941 60.0402L53.7868 55.8952L45.2721 42.3378L42.993 38.6995L42.8472 38.4823L38.0337 30.7895L37.5961 30.1198L37.0126 29.1605L35.9734 27.5314L33.6943 23.8932L32.655 22.246L32.4362 21.884L32.3633 21.7754L32.4362 21.8659L32.7644 22.246L34.0772 23.8208L34.1319 23.8932L35.9369 26.0291L36.3563 26.5178L37.195 27.5314L37.5961 28.002L38.5807 29.1605L39.3647 30.1017L39.9481 30.7895L42.8472 34.2468L43.6859 35.2423L43.8864 35.4957L45.2721 37.1429L45.5821 37.4868L52.3647 45.5778L52.4923 45.7045L53.7868 47.243L54.2244 47.7861L58.6915 53.0896L60.0772 54.7367L60.296 55.0082L61.6087 56.5649L61.9004 56.8907Z" fill="white"/>
<path opacity="0.1" d="M64.9999 34.1197V35.604L60.3141 33.6129L60.0771 33.5224L57.1963 32.2915L52.2552 30.1919L46.4572 27.7302L45.2903 27.2414L42.8653 26.2097L39.3828 24.7255L37.3408 23.8566L35.9551 23.2774L34.0953 22.481L33.4936 22.2276L32.4544 21.7931L32.3997 21.7569L32.4544 21.7388L34.0953 21.4673L40.8961 20.3813L41.0602 20.3632L42.8835 20.0736L45.3085 19.6935L46.4207 19.5125L49.1921 19.0599L52.4193 18.535L55.5553 18.0282L60.1318 17.2861L60.3688 17.2499L63.1766 16.7974C63.3225 16.906 63.4501 17.0146 63.5778 17.1413L63.8877 20.7976L64.9999 34.1197Z" fill="white"/>
<path opacity="0.1" d="M32.3633 21.7752L63.8331 20.8521L64.8177 32.1107L32.3633 21.7752Z" fill="white"/>
<path opacity="0.1" d="M32.3633 21.7755L31.3605 21.1058L30.3395 20.4179L27.9145 18.7889L27.1305 18.2639L25.4895 17.1598L23.7027 15.9652L21.296 14.318L18.871 12.707L14.3311 9.64803L18.0141 7.54835L21.4419 5.57538L22.6452 4.88755L24.7785 3.6748L25.289 4.88755L26.6929 8.21807L27.2034 9.44892L28.1698 11.7477L29.6831 15.3678L30.5947 17.5218L30.9776 18.445L31.4152 19.5129L31.9987 20.9066L32.3633 21.7755Z" fill="white"/>
<path opacity="0.1" d="M32.3633 21.7752L28.3885 22.1553L27.1487 22.2639L25.5077 22.4268L23.7209 22.5897L21.2959 22.825L10.8485 23.8206L9.69986 23.9292L4.92286 24.3998L4.68583 24.4179L0 24.8704V20.8158L1.0575 17.6482C1.1669 17.5034 1.29453 17.3767 1.42216 17.25C1.73212 16.9423 2.07854 16.6708 2.46143 16.4536L4.23001 15.4399L4.68583 15.5485L4.92286 15.6028L11.3043 17.0328L21.2959 19.2773L23.7209 19.8203L25.5077 20.2185L26.3282 20.3995L30.5582 21.3589L32.3633 21.7752Z" fill="white"/>
<path opacity="0.1" d="M32.4361 20.4177L31.415 19.5127L30.5946 18.7706L28.9536 17.3044L28.589 16.9967L26.7839 15.3677L23.976 12.8517L21.861 10.9873L21.4964 10.6434L18.0139 7.54817L21.4417 5.5752L24.3225 9.44874L24.3772 9.53924L26.0181 11.7475L28.6983 15.3677L30.5946 17.9199L30.9774 18.4448L32.4361 20.4177Z" fill="white"/>
<path opacity="0.1" d="M32.3633 21.7752L29.5189 21.7209L23.7027 21.6304L21.2777 21.5942L4.92286 21.3227H4.68583L0 21.2502V20.8158L1.0575 17.6482C1.1669 17.5034 1.29453 17.3767 1.42216 17.25L4.68583 17.7387L4.92286 17.7749L8.98878 18.3722L21.2777 20.1642L23.7027 20.5262L30.2482 21.4856L32.3633 21.7752Z" fill="white"/>
<path d="M21.223 51.6953C20.5302 52.4737 20.0014 53.1072 20.0014 53.1072L19.9832 53.1253L15.7532 58.5193L12.7083 62.4109L4.92288 57.9401L4.75879 57.8496L4.92288 57.6324L7.62134 53.8493L12.453 47.0435L13.8023 47.7675L19.892 51.0075L20.4755 51.3152L21.223 51.6953Z" fill="#2C8BFF"/>
<path d="M26.5103 54.5012C25.9816 54.465 25.471 54.4288 24.9788 54.3745L25.2887 53.8496L26.5103 54.5012Z" fill="#2C8BFF"/>
<path d="M20.8947 49.7767C21.3505 50.0482 21.7881 50.3197 22.2074 50.6094C21.8792 50.9714 21.5328 51.3334 21.2411 51.6773C20.5483 52.4556 20.0195 53.0891 20.0195 53.0891L20.0013 53.1073C16.7741 51.8221 14.7137 49.9034 13.5833 48.564C12.8358 47.677 12.4893 47.0435 12.4529 47.0073C12.9634 47.0616 13.4557 47.1159 13.948 47.2064C16.1724 47.5865 18.1415 48.3106 19.8007 49.1613C20.1836 49.3785 20.53 49.5776 20.8947 49.7767Z" fill="#284394"/>
<path d="M26.5103 54.5011C25.9816 54.4649 25.471 54.4287 24.9788 54.3744L25.2887 53.8495L25.5257 53.4331C25.5257 53.4331 25.5257 53.415 25.544 53.415C26.1821 54.0667 26.5103 54.5011 26.5103 54.5011Z" fill="#284394"/>
<path d="M43.6309 33.9205L43.7039 35.5314C43.7039 35.5314 45.8553 35.0789 45.9283 36.5994C46.0012 38.1198 43.321 38.4275 43.321 38.4275L38.9086 42.1744L33.1288 33.5766C32.0531 33.9386 30.7768 34.2463 29.5552 34.5721C26.4192 35.4047 25.5622 43.0251 25.5622 43.0251C25.5622 43.0251 24.8329 48.1838 23.5748 49.2698C23.1919 49.6138 22.6997 50.1025 22.2074 50.6274C21.8792 50.9894 21.5328 51.3514 21.241 51.6953C20.5482 52.4737 20.0194 53.1072 20.0194 53.1072L20.0012 53.1253C16.774 51.8401 14.7137 49.9215 13.5833 48.582L13.8203 47.7494L13.9661 47.2245L14.0391 46.8806L15.8806 32.6896C15.8806 32.6896 16.6464 28.9971 19.3448 26.7888C22.0433 24.5986 33.5664 18.8788 44.3967 18.7159C44.3967 18.7159 46.4753 18.4806 46.6211 20.3088C46.767 22.1369 43.084 22.8248 43.084 22.8248L43.321 25.5037C43.321 25.5037 46.4023 24.5443 46.6394 26.7888C46.8581 29.0152 43.1022 29.0152 43.1022 29.0152L43.0293 30.3184C43.0293 30.3184 46.5117 29.5582 46.6576 31.4588C46.7852 33.3775 43.6309 33.9205 43.6309 33.9205Z" fill="#FFB580"/>
<path d="M26.5106 54.5011L23.5751 62.9904L23.5569 63.0266L23.0646 64.4565L14.2764 63.2981L13.8023 63.0266L12.7266 62.4111L15.7714 58.5195L20.0015 53.1255C21.4236 53.7047 23.0828 54.1572 24.9973 54.3744C25.4713 54.4287 25.9818 54.483 26.5106 54.5011Z" fill="#2C76DF"/>
<path d="M38.9088 42.1745L35.4081 45.143C35.4081 45.143 30.5582 48.9622 27.805 50.7904C27.805 50.7904 26.474 51.6773 25.5442 53.415C25.5442 53.415 25.5442 53.4331 25.5259 53.4331L25.2889 53.8494L24.9789 54.3743C23.0827 54.139 21.4235 53.6865 19.9832 53.1254L20.0014 53.1073C20.0014 53.1073 20.5301 52.4738 21.223 51.6954C21.5329 51.3515 21.8611 50.9714 22.1893 50.6275C22.6816 50.1026 23.1739 49.6139 23.5568 49.2699C24.8331 48.1839 25.5442 43.0252 25.5442 43.0252C25.5442 43.0252 26.3829 35.4048 29.5372 34.5722C30.7588 34.2464 32.0351 33.9387 33.1108 33.5767L38.9088 42.1745Z" fill="#E48C79"/>
<path d="M25.5257 53.415C26.1639 54.0848 26.5103 54.5192 26.5103 54.5192C25.9816 54.483 25.471 54.4468 24.9788 54.3925L25.2887 53.8676L25.5257 53.415Z" fill="#284394"/>
<path d="M33.1289 33.5767C32.0532 33.9387 30.7769 34.2464 29.5553 34.5722C26.4192 35.4048 25.5623 43.0252 25.5623 43.0252C25.5623 43.0252 24.833 48.1839 23.5749 49.2699C23.192 49.6138 22.6998 50.1026 22.2075 50.6275C21.8793 50.9895 21.5329 51.3515 21.2411 51.6954C20.5483 52.4738 20.0195 53.1073 20.0195 53.1073L20.4936 51.3153L20.8947 49.7949L24.2131 37.3597L32.2537 32.2915L33.1289 33.5767Z" fill="#BD6D48"/>
<path d="M22.4708 58.0402C22.7502 57.1528 22.595 56.315 22.124 56.1688C21.653 56.0226 21.0447 56.6235 20.7653 57.5109C20.4858 58.3983 20.6411 59.2362 21.112 59.3823C21.583 59.5285 22.1913 58.9276 22.4708 58.0402Z" fill="#2A4596"/>
<path d="M21.6057 35.5676L19.1443 36.9251C19.1443 36.9251 18.8708 29.7392 21.2957 27.9834L21.6057 35.5676Z" fill="#E48C79"/>
<path d="M63.5231 17.1956C63.3955 17.0689 63.2679 16.9603 63.122 16.8517C62.9397 16.7069 62.7391 16.5802 62.5386 16.4535L60.3142 15.1684L60.0771 15.0417L42.3366 4.88718L34.9523 0.651624C34.1865 0.217208 33.3478 0 32.4909 0C31.6339 0 30.7952 0.217208 30.0295 0.651624L24.7784 3.67444L22.6452 4.88718L21.4418 5.57501L18.014 7.54798L14.331 9.64766L4.92286 15.0417L4.68583 15.1684L4.23001 15.4218L2.46143 16.4354C2.07854 16.6526 1.73212 16.9241 1.42216 17.2318C1.29453 17.3585 1.1669 17.5033 1.0575 17.6301C0.382889 18.517 0 19.5668 0 20.6891V52.2928C0 54.0305 0.929874 55.6596 2.46143 56.5284L4.68583 57.8135L4.75877 57.8497L4.92286 57.9402L12.7083 62.4111L13.784 63.0265L14.2581 63.298L22.6452 68.1128L30.0295 72.3484C30.7952 72.7828 31.6339 73 32.4909 73C33.3478 73 34.1865 72.7828 34.9523 72.3484L39.3282 69.8324L40.1122 69.3799L42.3366 68.0947L43.3576 67.5155L51.1978 63.0265L53.1487 61.9043L56.3941 60.0399L60.0589 57.9402L60.2959 57.8135L61.6269 57.0533L61.8822 56.9085L62.5203 56.5465C64.0519 55.6777 64.9818 54.0667 64.9818 52.3109V20.6891C65 19.3677 64.453 18.1007 63.5231 17.1956ZM53.7868 55.8949L50.8878 57.5601L42.1543 62.5559L41.352 63.0265L39.2735 64.2212L37.0126 65.5063L32.9102 67.8594L32.4909 68.0947L23.6297 63.0084L23.5568 62.9722L15.7532 58.5014L7.60309 53.8314L4.92286 52.2928V20.6891L8.98878 18.3541L11.3043 17.0327L18.871 12.6886L21.3142 11.2948L21.8794 10.969L24.3955 9.53905L24.5414 9.44855L26.6928 8.2177L32.4909 4.88718L40.4586 9.44855L45.2721 12.1999L55.5007 18.0645L60.0771 20.6891V52.2928L58.6914 53.0893L53.7868 55.8949Z" fill="#CBD4FF"/>
<path d="M43.1208 48.5819H23.4293C22.2442 48.5819 21.2778 47.6225 21.2778 46.446V11.5841C21.2778 10.4076 22.2442 9.44824 23.4293 9.44824H43.1208C44.3059 9.44824 45.2722 10.4076 45.2722 11.5841V46.4279C45.2722 47.6225 44.3059 48.5819 43.1208 48.5819Z" fill="#475264"/>
<path d="M40.6956 46.2832H25.8541C24.669 46.2832 23.7026 45.3238 23.7026 44.1473V13.8829C23.7026 12.7064 24.669 11.7471 25.8541 11.7471H40.6956C41.8808 11.7471 42.8471 12.7064 42.8471 13.8829V44.1292C42.8471 45.3238 41.8808 46.2832 40.6956 46.2832Z" fill="white"/>
<path d="M25.4895 15.3672V20.4173H30.5765V15.3672H25.4895ZM28.9537 18.7882H27.1487V16.9962H28.9537V18.7882Z" fill="#A9A8AE"/>
<path d="M25.4895 25.7212V30.7713H30.5765V25.7212H25.4895ZM28.9537 27.3503V29.1422H27.1487V27.3503H28.9537Z" fill="#A9A8AE"/>
<path d="M35.937 15.3672V20.4173H41.024V15.3672H35.937ZM37.578 16.9962H39.383V18.7882H37.578V16.9962Z" fill="#A9A8AE"/>
<path d="M34.0772 15.3672H32.4363V18.7158H34.0772V15.3672Z" fill="#A9A8AE"/>
<path d="M34.0772 20.4175H32.4363V23.8747H34.0772V20.4175Z" fill="#A9A8AE"/>
<path d="M41.0239 25.6665H39.3647V30.789H41.0239V25.6665Z" fill="#A9A8AE"/>
<path d="M30.6312 22.2456H28.9902V23.8928H30.6312V22.2456Z" fill="#A9A8AE"/>
<path d="M34.0955 25.7031H32.4363V27.3322H34.0955V25.7031Z" fill="#A9A8AE"/>
<path d="M39.3646 29.1602H37.6143V30.7892H39.3646V29.1602Z" fill="#A9A8AE"/>
<path d="M35.9552 22.2456H32.4363V23.8928H35.9552V22.2456Z" fill="#A9A8AE"/>
<path d="M41.0238 22.2456H37.5049V23.8928H41.0238V22.2456Z" fill="#A9A8AE"/>
<path d="M39.3646 23.8745H35.9551V25.6665H39.3646V23.8745Z" fill="#A9A8AE"/>
<path d="M35.9552 29.1602H32.4363V30.7892H35.9552V29.1602Z" fill="#A9A8AE"/>
<path d="M37.6144 27.5312H34.0955V29.1603H37.6144V27.5312Z" fill="#A9A8AE"/>
<path d="M27.1487 22.2456H25.4895V23.8928H27.1487V22.2456Z" fill="#A9A8AE"/>
<path d="M37.669 24.8159H35.9551V26.5174H37.669V24.8159Z" fill="#A9A8AE"/>
<path d="M39.9664 43.7851H26.547C25.9636 43.7851 25.4895 43.3145 25.4895 42.7352V37.3955C25.4895 36.8163 25.9636 36.3457 26.547 36.3457H39.9664C40.5498 36.3457 41.0239 36.8163 41.0239 37.3955V42.7352C41.0239 43.3145 40.5498 43.7851 39.9664 43.7851Z" fill="#1CAB36"/>
<path d="M37.7967 38.6992H28.6985V41.179H37.7967V38.6992Z" fill="#158028"/>
<path d="M33.129 33.5767C32.0533 33.9388 30.777 34.2465 29.5554 34.5723C26.4193 35.4049 25.5624 43.0253 25.5624 43.0253C25.5624 43.0253 24.8331 48.184 23.575 49.27C23.1921 49.6139 22.6998 50.1027 22.2076 50.6276C21.8794 50.9896 21.5329 51.3516 21.2412 51.6955C20.5484 52.4738 20.0196 53.1074 20.0196 53.1074L19.9102 50.9896L19.8191 49.1976L19.1809 36.9254C21.4782 32.9251 25.2889 29.8299 26.6199 29.5946C27.2034 29.486 28.6255 29.3412 30.0477 29.2145C31.9257 29.0335 33.8036 28.8887 33.8036 28.8887C33.8036 28.8887 34.1318 28.9249 34.5329 29.1964C34.9341 29.486 35.4081 30.029 35.6634 31.0427C35.9733 32.2735 34.8064 32.9975 33.129 33.5767Z" fill="#FFB580"/>
<path d="M34.5147 29.1783C34.4053 30.0652 33.9313 30.9884 32.4909 31.278C29.6101 31.8572 29.993 29.3593 30.0112 29.1964C31.8892 29.0154 33.7672 28.8706 33.7672 28.8706C33.7672 28.8706 34.1136 28.8887 34.5147 29.1783Z" fill="#CD957C"/>
<path d="M13.4922 26.9157C11.8148 27.3682 11.1402 28.0379 10.6844 29.7032C10.575 30.1195 9.99153 30.1195 9.88214 29.7032C9.42632 28.0379 8.7517 27.3682 7.07428 26.9157C6.65493 26.8071 6.65493 26.2279 7.07428 26.1193C8.7517 25.6668 9.42632 24.997 9.88214 23.3318C9.99153 22.9155 10.575 22.9155 10.6844 23.3318C11.1402 24.997 11.8148 25.6668 13.4922 26.1193C13.9116 26.2279 13.9116 26.8071 13.4922 26.9157Z" fill="white"/>
<path d="M53.3675 19.5127C52.31 19.8023 51.8725 20.2186 51.599 21.2685C51.526 21.5219 51.1614 21.5219 51.0884 21.2685C50.7967 20.2186 50.3774 19.7842 49.3199 19.5127C49.0646 19.4403 49.0646 19.0783 49.3199 19.0059C50.3774 18.7163 50.815 18.3 51.0884 17.2501C51.1614 16.9967 51.526 16.9967 51.599 17.2501C51.8907 18.3 52.31 18.7344 53.3675 19.0059C53.6228 19.0602 53.6228 19.4403 53.3675 19.5127Z" fill="white"/>
<path d="M35.864 49.9942C34.4236 50.3743 33.8584 50.9536 33.4573 52.3835C33.3661 52.7274 32.8556 52.7274 32.7644 52.3835C32.3816 50.9536 31.7981 50.3924 30.3577 49.9942C30.0113 49.9037 30.0113 49.3969 30.3577 49.3064C31.7981 48.9263 32.3633 48.3471 32.7644 46.9171C32.8556 46.5732 33.3661 46.5732 33.4573 46.9171C33.8402 48.3471 34.4236 48.9082 35.864 49.3064C36.2287 49.3969 36.2287 49.8856 35.864 49.9942Z" fill="white"/>
<path d="M58.4543 31.8572C56.394 32.4002 55.5735 33.2147 55.0083 35.2782C54.8807 35.785 54.1513 35.785 54.0237 35.2782C53.4767 33.2328 52.6563 32.4183 50.5777 31.8572C50.0672 31.7305 50.0672 31.0065 50.5777 30.8798C52.638 30.3367 53.4585 29.5222 54.0237 27.4587C54.1513 26.9519 54.8807 26.9519 55.0083 27.4587C55.5553 29.5041 56.3758 30.3186 58.4543 30.8798C58.9466 31.0065 58.9466 31.7124 58.4543 31.8572Z" fill="#FF6E75"/>
<path d="M44.5611 59.5872C43.3942 59.8949 42.9201 60.3655 42.6102 61.5239C42.5372 61.8136 42.1179 61.8136 42.045 61.5239C41.735 60.3655 41.2609 59.8949 40.094 59.5872C39.8023 59.5148 39.8023 59.0985 40.094 59.0261C41.2609 58.7183 41.735 58.2477 42.045 57.0893C42.1179 56.7997 42.5372 56.7997 42.6102 57.0893C42.9201 58.2477 43.3942 58.7183 44.5611 59.0261C44.8528 59.0985 44.8528 59.4967 44.5611 59.5872Z" fill="#FF6E75"/>
<path d="M54.1515 47.8221C53.1669 48.0936 52.7658 48.4737 52.5105 49.4511C52.4376 49.6864 52.1094 49.6864 52.0365 49.4511C51.763 48.4737 51.3801 48.0755 50.3955 47.8221C50.1585 47.7497 50.1585 47.4238 50.3955 47.3514C51.3801 47.0799 51.7812 46.6998 52.0365 45.7224C52.1094 45.4871 52.4376 45.4871 52.5105 45.7224C52.784 46.6998 53.1669 47.098 54.1515 47.3514C54.3885 47.4238 54.3885 47.7678 54.1515 47.8221Z" fill="#2C8BFF"/>
<path d="M9.51747 41.4143C8.5329 41.6858 8.13178 42.066 7.87652 43.0434C7.80359 43.2787 7.4754 43.2787 7.40246 43.0434C7.12897 42.066 6.74608 41.6677 5.76151 41.4143C5.52448 41.3419 5.52448 41.0161 5.76151 40.9437C6.74608 40.6722 7.1472 40.2921 7.40246 39.3147C7.4754 39.0794 7.80359 39.0794 7.87652 39.3147C8.15001 40.2921 8.5329 40.6903 9.51747 40.9437C9.77273 40.998 9.77273 41.3419 9.51747 41.4143Z" fill="#2C8BFF"/>
</svg>
