<svg width="65" height="73" viewBox="0 0 65 73" fill="none" xmlns="http://www.w3.org/2000/svg">
<path d="M31.0644 2.88236C31.9522 2.37255 33.0478 2.37255 33.9356 2.88236L61.0745 18.4663C61.9608 18.9752 62.5 19.9109 62.5 20.9161V52.0839C62.5 53.0891 61.9608 54.0248 61.0745 54.5337L33.9356 70.1177C33.0478 70.6275 31.9522 70.6275 31.0644 70.1176L3.92547 54.5337C3.03916 54.0248 2.5 53.0891 2.5 52.0839V20.9161C2.5 19.9109 3.03917 18.9752 3.92548 18.4663L31.0644 2.88236Z" fill="#FA5C43" stroke="#FF907E" stroke-width="5"/>
<path d="M31.0644 2.88236C31.9522 2.37255 33.0478 2.37255 33.9356 2.88236L61.0745 18.4663C61.9608 18.9752 62.5 19.9109 62.5 20.9161V52.0839C62.5 53.0891 61.9608 54.0248 61.0745 54.5337L33.9356 70.1177C33.0478 70.6275 31.9522 70.6275 31.0644 70.1176L3.92547 54.5337C3.03916 54.0248 2.5 53.0891 2.5 52.0839V20.9161C2.5 19.9109 3.03917 18.9752 3.92548 18.4663L31.0644 2.88236Z" fill="#1CAB36" stroke="#2AC145" stroke-width="5"/>
<g clip-path="url(#clip0)">
<path d="M13.4404 33.2739C14.2607 33.2739 15.0573 33.1818 15.736 32.9227L15.2934 31.4832C14.78 31.6675 14.2076 31.7481 13.641 31.7481C12.868 31.7481 12.4018 31.5408 12.2366 30.9132H16.391C16.4972 30.6484 16.5917 30.2396 16.5917 29.8999C16.5917 28.3798 15.2934 27.2398 13.3401 27.2398C11.4399 27.234 10 28.4201 10 30.2511C10 32.1108 11.5815 33.2739 13.4404 33.2739ZM13.3342 28.7195C13.9892 28.7195 14.3433 29.0707 14.479 29.658H12.1893C12.3546 29.0707 12.7146 28.7195 13.3342 28.7195Z" fill="white"/>
<path d="M20.3449 33.2738C21.177 33.2738 21.8084 32.888 22.1802 32.4274V33.1241H24.3105V27.3836H22.1802V28.0918C21.8084 27.6369 21.1711 27.2339 20.3449 27.2339C18.6159 27.2339 17.2881 28.5812 17.2881 30.2279C17.2881 31.7998 18.6572 33.2738 20.3449 33.2738ZM20.9055 28.9439C21.6078 28.9439 22.1448 29.3873 22.2746 30.0725V30.4352C22.1448 31.1204 21.6078 31.5522 20.9055 31.5522C20.0145 31.5522 19.4892 30.9592 19.4892 30.2164C19.4892 29.4161 19.9672 28.9439 20.9055 28.9439Z" fill="white"/>
<path d="M27.5502 31.7192C27.0722 31.7192 26.2755 31.4889 25.7267 31.1837L25.0835 32.6347C25.8329 33.0435 26.6296 33.2738 27.7626 33.2738C29.2852 33.2738 30.4654 32.888 30.4654 31.437C30.4654 30.4007 29.7159 29.9861 28.6419 29.6349C27.7036 29.324 27.5207 29.2491 27.5207 29.0303C27.5207 28.8576 27.6505 28.777 28.2111 28.777C28.7481 28.777 29.2615 28.9036 29.7691 29.1858L30.4595 27.8269C29.7809 27.4297 29.0786 27.2339 28.0695 27.2339C26.6178 27.2339 25.355 27.6657 25.355 29.0361C25.355 30.0206 26.1398 30.4525 27.0191 30.7576C28.0046 31.0973 28.3056 31.224 28.3056 31.4774C28.2997 31.6386 28.1403 31.7192 27.5502 31.7192Z" fill="white"/>
<path d="M34.7379 30.3951L33.1918 27.3838H30.7959L33.658 32.4736L31.7401 36.3026H34.0239L38.3317 27.3838H36.048L34.7379 30.3951Z" fill="white"/>
<path d="M14.1663 40.9375C13.4168 40.9375 12.6556 41.3233 12.3192 41.7839V41.0872H10.2361V50.006H12.3664V45.607C12.6969 46.0849 13.3755 46.4419 14.1663 46.4419C15.8954 46.4419 17.0933 45.3019 17.0933 43.6897C17.0933 42.043 15.9426 40.9375 14.1663 40.9375ZM13.6175 44.7837C12.9624 44.7837 12.39 44.444 12.272 43.8567V43.5227C12.39 42.9297 12.9624 42.5842 13.6175 42.5842C14.4141 42.5842 14.8921 42.97 14.8921 43.6782C14.8921 44.3576 14.3669 44.7837 13.6175 44.7837Z" fill="white"/>
<path d="M22.6875 41.7895C22.3157 41.3347 21.6784 40.9316 20.8522 40.9316C19.1232 40.9316 17.7954 42.279 17.7954 43.9257C17.7954 45.5033 19.1645 46.9715 20.8522 46.9715C21.6843 46.9715 22.3157 46.5858 22.6875 46.1251V46.8218H24.812V41.0813H22.6875V41.7895ZM22.776 44.1445C22.6462 44.8296 22.1092 45.2615 21.407 45.2615C20.5159 45.2615 19.9907 44.6684 19.9907 43.9257C19.9907 43.1138 20.4687 42.6475 21.407 42.6475C22.1092 42.6475 22.6462 43.0908 22.776 43.776V44.1445Z" fill="white"/>
<path d="M29.7513 40.9375C29.1553 40.9375 28.3823 41.3808 28.0636 41.9221V41.0872H25.9805V46.8277H28.1167V44.6685C28.1167 43.4249 28.5711 42.9124 29.2615 42.9124C29.5802 42.9124 29.8222 42.993 30.0582 43.0967L30.9965 41.2945C30.6188 41.0469 30.2352 40.9375 29.7513 40.9375Z" fill="white"/>
<path d="M34.2126 40.9375C32.3183 40.9375 30.8784 42.1236 30.8784 43.9546C30.8784 45.8143 32.4599 46.9832 34.3188 46.9832C35.1391 46.9832 35.9358 46.891 36.6144 46.6319L36.1718 45.1925C35.6584 45.3767 35.086 45.4573 34.5195 45.4573C33.7464 45.4573 33.2802 45.2501 33.115 44.6225H37.2635C37.3698 44.3576 37.4642 43.9488 37.4642 43.6091C37.4642 42.0775 36.1659 40.9375 34.2126 40.9375ZM33.0619 43.3558C33.2271 42.7742 33.5871 42.4172 34.2067 42.4172C34.8617 42.4172 35.2158 42.7685 35.3515 43.3558H33.0619Z" fill="white"/>
<path d="M42.321 40.9375C41.4889 40.9375 40.8575 41.3233 40.4739 41.7839V41.0872H38.4026V46.8277H40.5329V43.7646C40.651 43.0794 41.0581 42.6476 41.6778 42.6476C42.3682 42.6476 42.557 42.9239 42.557 43.707V46.8219H44.6874V43.707C44.6815 41.9394 43.9792 40.9375 42.321 40.9375Z" fill="white"/>
<path d="M48.5586 38.8359H46.4282V41.0815H45.3955V42.7397H46.4282V46.8277H48.5586V42.7397H50.2522V41.0815H48.5586V38.8359Z" fill="white"/>
<path d="M54.1765 43.3326C53.2383 43.0217 53.0553 42.9469 53.0553 42.7281C53.0553 42.5553 53.1851 42.4747 53.7458 42.4747C54.2828 42.4747 54.7962 42.6014 55.3037 42.8835L55.9941 41.5247C55.3155 41.1274 54.6132 40.9316 53.6041 40.9316C52.1524 40.9316 50.8896 41.3635 50.8896 42.7338C50.8896 43.7184 51.6744 44.1502 52.5537 44.4554C53.5392 44.7951 53.8402 44.9218 53.8402 45.1751C53.8402 45.3363 53.6749 45.4169 53.0907 45.4169C52.6127 45.4169 51.8161 45.1866 51.2673 44.8815L50.624 46.3324C51.3735 46.7412 52.1701 46.9715 53.3032 46.9715C54.8257 46.9715 56.0059 46.5858 56.0059 45.1348C56 44.0984 55.2506 43.6839 54.1765 43.3326Z" fill="white"/>
<path d="M45.0353 32.6461C46.009 33.2967 47.1775 33.671 48.4108 33.671C48.7885 33.671 49.1721 33.6364 49.5557 33.5616C52.7954 32.9455 54.914 29.8881 54.2825 26.7214C53.7278 23.9346 51.2257 22 48.4167 22C48.0391 22 47.6555 22.0345 47.2719 22.1094C44.0321 22.7255 41.9136 25.7828 42.545 28.9496C42.7575 30.009 43.2532 30.9476 43.9377 31.7018L42.2559 33.2622L45.0353 32.6461ZM44.4865 25.2474C45.1947 24.2225 46.2687 23.5316 47.5079 23.2955C47.8089 23.2379 48.1158 23.2091 48.4167 23.2091C50.6769 23.2091 52.6302 24.781 53.061 26.9517C53.238 27.8269 53.1495 28.7193 52.819 29.5312C52.76 29.1396 52.4178 28.8345 51.9988 28.8345H49.774C49.3137 28.8345 48.9419 29.1972 48.9419 29.6463V32.4273C48.7649 32.4446 48.582 32.4561 48.4049 32.4561C48.3754 32.4561 48.3459 32.4561 48.3164 32.4561V29.4736C48.3164 28.9957 48.6233 28.5869 49.0541 28.4199C48.8357 28.109 48.5407 27.9017 48.0568 27.9017H45.9559C45.112 27.9017 44.4275 28.5696 44.4275 29.393V30.3315C44.1088 29.8536 43.8846 29.3066 43.7666 28.7193C43.5187 27.5044 43.7784 26.2723 44.4865 25.2474Z" fill="white"/>
<path d="M47.0064 27.4523C47.7169 27.4523 48.2929 26.8903 48.2929 26.1971C48.2929 25.5039 47.7169 24.9419 47.0064 24.9419C46.2959 24.9419 45.72 25.5039 45.72 26.1971C45.72 26.8903 46.2959 27.4523 47.0064 27.4523Z" fill="white"/>
<path d="M50.8837 28.3218C51.4084 28.3218 51.8338 27.9067 51.8338 27.3948C51.8338 26.8828 51.4084 26.4678 50.8837 26.4678C50.359 26.4678 49.9336 26.8828 49.9336 27.3948C49.9336 27.9067 50.359 28.3218 50.8837 28.3218Z" fill="white"/>
</g>
<defs>
<clipPath id="clip0">
<rect width="46" height="28" fill="white" transform="translate(10 22)"/>
</clipPath>
</defs>
</svg>
