<svg width="65" height="73" viewBox="0 0 65 73" fill="none" xmlns="http://www.w3.org/2000/svg">
<g clip-path="url(#clip0)">
<path d="M60.3084 15.1805V57.8107L42.3475 68.1044H22.6544L21.9852 67.7207L13.8345 63.0507L12.5271 62.3014L4.6936 57.8125V15.1786L6.2964 14.2609L22.6544 4.88672H42.3475L46.691 7.37553L60.3084 15.1805Z" fill="#FD9326"/>
<path d="M56.0105 32.6453C56.0105 33.1485 55.9989 33.6493 55.9758 34.1476C55.9308 35.113 55.8439 36.0627 55.7151 36.9966C55.2137 40.653 54.0741 44.1946 52.3472 47.4623C51.4505 49.163 50.4001 50.7794 49.209 52.2915C49.189 52.3205 49.1671 52.3476 49.1452 52.3748C47.8443 54.0203 46.3848 55.5359 44.7872 56.8999L44.3697 57.2492C44.1046 57.4689 43.8366 57.6824 43.5655 57.89C38.5782 61.751 32.5504 64.0588 26.2429 64.522C25.7816 64.5582 25.3202 64.5836 24.8552 64.5962C24.5051 64.6089 24.155 64.6143 23.8031 64.6143C20.4169 64.6175 17.0514 64.0904 13.8308 63.0523L12.527 62.3011L4.68623 57.8122L2.46164 56.5325C2.40329 56.4999 2.34676 56.4655 2.29024 56.4293C1.81006 56.0021 1.34448 55.5611 0.893483 55.1062C0.314165 54.2868 0.0022806 53.3106 0 52.3096L0 20.6917C0.000872182 19.8339 0.228714 18.9913 0.660723 18.2483C1.09273 17.5053 1.71375 16.8879 2.46164 16.458L4.69352 15.1783L6.29632 14.2606L22.6544 4.88642L29.2187 1.12695C32.3246 1.64941 35.3356 2.62534 38.1536 4.02303C38.7079 4.29695 39.2549 4.58656 39.7947 4.89185C44.1222 7.3534 47.8179 10.7748 50.593 14.8887C50.7243 15.0824 50.8538 15.2797 50.9796 15.4788C53.8296 19.9081 55.5287 24.9698 55.9248 30.2108C55.9819 31.0132 56.0105 31.8247 56.0105 32.6453Z" fill="#FABB3A"/>
<path d="M23.8078 55.7527C36.6638 55.7527 47.0857 45.4073 47.0857 32.6456C47.0857 19.884 36.6638 9.53857 23.8078 9.53857C10.9517 9.53857 0.529785 19.884 0.529785 32.6456C0.529785 45.4073 10.9517 55.7527 23.8078 55.7527Z" fill="#FCC43D"/>
<path d="M44.8311 18.882C45.6301 18.8813 46.3976 19.192 46.9682 19.7472C47.5086 17.8105 48.7364 16.1332 50.4251 15.0247C52.1138 13.9162 54.1493 13.4514 56.1562 13.7161C58.1631 13.9807 60.0058 14.957 61.3444 16.4646C62.6829 17.9723 63.427 19.9097 63.4393 21.9193H41.7732C41.773 21.5205 41.8519 21.1256 42.0054 20.7571C42.159 20.3886 42.3842 20.0538 42.6682 19.7717C42.9522 19.4897 43.2893 19.2659 43.6605 19.1132C44.0316 18.9606 44.4294 18.882 44.8311 18.882Z" fill="#FCA12E"/>
<path d="M23.8068 47.5326C32.0899 47.5326 38.8046 40.8672 38.8046 32.6449C38.8046 24.4227 32.0899 17.7573 23.8068 17.7573C15.5238 17.7573 8.80908 24.4227 8.80908 32.6449C8.80908 40.8672 15.5238 47.5326 23.8068 47.5326Z" fill="#FFD241"/>
<path d="M37.147 13.1201H35.7029V25.0863H37.147V13.1201Z" fill="#17144B"/>
<path d="M35.7029 13.1206C35.7029 13.1206 33.7919 15.0392 30.0502 13.564C26.3085 12.0888 24.3976 12.3495 23.0774 13.1206C23.0774 13.1206 26.2502 14.3876 26.6787 15.8356C26.6787 15.8356 23.639 17.8375 23.0774 19.7073C23.0774 19.7073 25.457 17.8375 28.9926 19.7073C32.5283 21.5771 35.6956 19.7073 35.6956 19.7073L35.7029 13.1206Z" fill="#E5283A"/>
<path d="M23.8068 42.9681C29.55 42.9681 34.2058 38.3465 34.2058 32.6454C34.2058 26.9444 29.55 22.3228 23.8068 22.3228C18.0635 22.3228 13.4077 26.9444 13.4077 32.6454C13.4077 38.3465 18.0635 42.9681 23.8068 42.9681Z" fill="white"/>
<path d="M60.3084 33.9072V57.8106L42.3475 68.1044H22.6544L21.9852 67.7206L13.8345 63.0507L12.5271 62.3014L4.6936 57.8124V43.7647L4.92336 43.5819L10.3645 39.254L14.0806 36.3001L19.3941 32.0754L23.9017 35.5634L32.7581 27.3928L35.7029 24.6759L36.1825 24.2343L36.3831 24.0479L37.1489 24.761L47.0465 33.9669V33.9687L47.8251 34.6927L53.8935 28.4988L55.9176 30.2056L60.0768 33.7117L60.3084 33.9072Z" fill="#15AAEC"/>
<path d="M60.3084 33.9072V57.8106L42.3475 68.1044H22.6544L21.9852 67.7206L13.8345 63.0507L12.5271 62.3014L4.6936 57.8124V52.261L4.92336 52.2176L10.0235 51.2709H10.0253L17.7129 49.841L15.5667 45.486L15.6634 45.1476L17.0036 40.4541L19.3941 32.0754L30.4059 40.6243L33.7956 43.2561L31.8099 39.2359L31.0714 37.7427L34.0035 34.6782L34.7766 33.871L34.184 31.9704L34.1822 31.9668L33.5075 29.8074L33.6917 29.4364L35.8652 25.0868L36.2445 24.3248V24.323L36.3831 24.0479L37.1489 24.761L47.0465 33.9669V33.9687L47.8251 34.6927L50.9797 37.6268L52.7174 34.7434L55.7151 36.9969L55.934 37.1616L57.885 36.0973L55.9759 34.1479L53.9008 32.0302L53.8935 28.4988L55.9176 30.2056L60.0768 33.7117L60.3084 33.9072Z" fill="#1256DD"/>
<path d="M60.3084 52.2374V57.8105L42.3476 68.1042H22.6545L21.9853 67.7205L13.8345 63.0506L12.5271 62.3012L16.7866 59.0993L16.8523 59.0504C16.8523 59.0504 19.0076 57.4123 23.1194 55.7452C23.8616 55.443 24.6621 55.1407 25.53 54.8402C25.995 54.6845 26.4782 54.5289 26.9778 54.3786C29.7657 53.542 32.6226 52.9515 35.5152 52.6139L35.8616 52.574C37.3623 52.4057 38.945 52.2935 40.6025 52.2518C40.9453 52.2518 41.29 52.2374 41.6401 52.2374C41.9573 52.2374 42.2783 52.2374 42.601 52.2374C44.0853 52.2518 45.4456 52.2627 46.6928 52.2718L48.2063 52.2826H49.1927C52.856 52.3025 55.3158 52.3025 56.9679 52.2826C58.8952 52.2718 59.7176 52.2482 60.0677 52.2319C60.2665 52.2428 60.3084 52.2374 60.3084 52.2374Z" fill="#232886"/>
<path d="M29.4048 50.0653C29.4048 52.4673 27.9971 53.1134 26.2593 53.1134C24.5216 53.1134 23.1157 52.4673 23.1157 50.0653C23.1157 47.6634 25.0613 44.418 26.2593 44.418C27.3078 44.418 29.4048 47.6652 29.4048 50.0653Z" fill="#232886"/>
<path d="M26.9832 52.3696H25.5354V55.4413H26.9832V52.3696Z" fill="#232886"/>
<path d="M41.8952 53.1134H35.7156L36.4468 50.5775H37.5882L36.7349 49.5765V49.5747L37.2929 47.6434L38.252 47.8262L37.6411 46.4397L38.8811 42.1372L41.8952 53.1134Z" fill="#232886"/>
<path d="M48.2061 52.3769L49.3275 46.0762H50.3395L49.6192 44.4363L50.4489 39.7754L52.8905 49.6619L54.4677 43.9114L55.394 46.9975L54.9819 47.8681L55.6128 47.7306L56.262 49.8918L55.5253 50.5977L56.541 50.8239L57.006 52.3769H48.2061Z" fill="#232886"/>
<path d="M60.3083 56.9072V57.8123L42.3474 68.106H22.6543L21.9851 67.7223C22.8729 66.6188 23.8329 65.5746 24.8588 64.5963C25.0412 64.4153 25.2418 64.2343 25.4405 64.0533C27.5612 62.1509 30.3346 60.2721 33.0989 60.1653C38.7826 59.9463 36.7166 56.9326 42.0429 56.9072H42.9546C43.3941 56.9072 43.8663 56.9072 44.366 56.9072C44.5027 56.9072 44.6431 56.9072 44.7835 56.9072C45.9396 56.9072 47.216 56.9072 48.527 56.9072H55.1935H60.3083Z" fill="#17144B"/>
<path d="M46.7273 52.6525C46.7273 54.991 45.3561 55.6209 43.664 55.6209C41.9718 55.6209 40.6006 54.991 40.6006 52.6525C40.6006 50.3139 42.497 47.1499 43.664 47.1499C44.6851 47.1499 46.7273 50.3193 46.7273 52.6525Z" fill="#17144B"/>
<path d="M44.368 54.8965H42.9585V57.8885H44.368V54.8965Z" fill="#17144B"/>
<path d="M51.864 60.202C53.7049 60.202 55.1972 58.7206 55.1972 56.8932C55.1972 55.0659 53.7049 53.5845 51.864 53.5845C50.0231 53.5845 48.5308 55.0659 48.5308 56.8932C48.5308 58.7206 50.0231 60.202 51.864 60.202Z" fill="#17144B"/>
<path d="M17.1989 24.1749C16.8568 24.1112 16.5072 24.0984 16.1613 24.1369C15.7721 24.1698 15.4027 24.3216 15.1037 24.5713C15.065 24.6058 15.0285 24.6427 14.9943 24.6817C14.9602 24.6427 14.9236 24.6058 14.8849 24.5713C14.5862 24.321 14.2168 24.1687 13.8273 24.135C13.4814 24.0985 13.132 24.1113 12.7898 24.1731C12.4575 24.2298 12.1335 24.3271 11.8252 24.4627C12.1607 24.4789 12.4853 24.4916 12.8044 24.5278C13.1128 24.5557 13.4179 24.6114 13.7161 24.6943C13.9762 24.7557 14.2153 24.8844 14.409 25.0672C14.4861 25.1535 14.5453 25.254 14.5831 25.363C14.621 25.4721 14.6368 25.5874 14.6296 25.7025C14.6282 25.7496 14.6362 25.7964 14.6534 25.8403C14.6705 25.8841 14.6963 25.9241 14.7293 25.9579C14.7623 25.9917 14.8018 26.0185 14.8454 26.0368C14.8891 26.0551 14.936 26.0646 14.9834 26.0645H15.0126C15.1061 26.0599 15.1942 26.0197 15.2587 25.9523C15.3232 25.8849 15.3591 25.7955 15.359 25.7025C15.3465 25.4717 15.4265 25.2452 15.5815 25.0726C15.7751 24.8892 16.0141 24.7599 16.2744 24.698C16.5726 24.6156 16.8778 24.5605 17.1861 24.5333C17.5034 24.4952 17.8279 24.4844 18.1635 24.4681C17.8556 24.3304 17.5315 24.2319 17.1989 24.1749Z" fill="#17144B"/>
<path d="M48.0402 17.8192C47.5921 17.7374 47.1345 17.7209 46.6817 17.7704C46.1713 17.813 45.687 18.0123 45.2959 18.3405C45.2452 18.3854 45.1971 18.4332 45.1518 18.4835C45.1071 18.4328 45.0589 18.385 45.0078 18.3405C44.6168 18.0119 44.1325 17.812 43.622 17.7686C43.1686 17.7191 42.7103 17.7356 42.2617 17.8174C41.8262 17.8914 41.4017 18.0191 40.998 18.1975C41.4375 18.2193 41.8624 18.2337 42.2745 18.2826C42.6783 18.3195 43.078 18.3922 43.4688 18.4998C43.8108 18.58 44.1254 18.7486 44.3805 18.9885C44.5845 19.215 44.69 19.5123 44.6741 19.8157V19.8284C44.6741 19.9505 44.7228 20.0676 44.8096 20.1541C44.8964 20.2406 45.0142 20.2895 45.1372 20.29H45.1755C45.299 20.2866 45.4162 20.2349 45.5013 20.146C45.5864 20.0571 45.6325 19.9383 45.6296 19.8157C45.6209 19.6656 45.6423 19.5152 45.6923 19.3732C45.7424 19.2313 45.8202 19.1006 45.9213 18.9885C46.1767 18.7485 46.4911 18.5794 46.833 18.498C47.2245 18.391 47.6248 18.3189 48.0292 18.2826C48.4468 18.2337 48.8716 18.2193 49.3056 18.1975C48.9013 18.0196 48.4762 17.8926 48.0402 17.8192Z" fill="#17144B"/>
<path d="M25.3202 26.6328C24.978 26.5706 24.6284 26.5584 24.2827 26.5966C23.8934 26.6296 23.524 26.7813 23.2251 27.031C23.1863 27.0655 23.1498 27.1024 23.1157 27.1414C23.0815 27.1024 23.045 27.0655 23.0063 27.031C22.7075 26.7807 22.3381 26.6284 21.9487 26.5948C21.6028 26.5572 21.2533 26.57 20.9111 26.6328C20.5788 26.6895 20.2548 26.7868 19.9465 26.9224C20.282 26.9387 20.6066 26.9495 20.9257 26.9875C21.2341 27.0154 21.5393 27.0711 21.8374 27.1541C22.0975 27.2154 22.3366 27.3441 22.5303 27.5269C22.6853 27.6995 22.7653 27.926 22.7528 28.1568V28.1659C22.7526 28.2121 22.7615 28.258 22.7792 28.3008C22.7969 28.3436 22.8229 28.3826 22.8558 28.4154C22.8886 28.4482 22.9277 28.4742 22.9708 28.4919C23.0138 28.5097 23.0599 28.5188 23.1065 28.5188H23.1357C23.2292 28.5142 23.3174 28.474 23.3819 28.4066C23.4464 28.3392 23.4823 28.2498 23.4822 28.1568C23.47 27.9254 23.5499 27.6986 23.7046 27.5251C23.8988 27.3429 24.1377 27.2143 24.3975 27.1523C24.6958 27.0699 25.0009 27.0148 25.3093 26.9875C25.6265 26.9495 25.9511 26.9387 26.2866 26.9224C25.9777 26.7866 25.6531 26.6894 25.3202 26.6328Z" fill="#17144B"/>
<path d="M14.3213 20.1493H0.0310059C0.116465 19.3881 0.380969 18.6575 0.803181 18.0164C1.22539 17.3753 1.79349 16.8417 2.46165 16.4586L4.69353 15.1789L6.29633 14.2612C7.15322 14.5199 7.94346 14.9599 8.61268 15.5507C9.2819 16.1416 9.8142 16.8694 10.173 17.684C10.2975 17.9622 10.3999 18.2497 10.4793 18.5438C10.7975 18.2349 11.2005 18.026 11.6378 17.9435C12.0751 17.8609 12.5272 17.9084 12.9375 18.0798C13.3478 18.2512 13.6979 18.5391 13.9441 18.9072C14.1902 19.2754 14.3214 19.7075 14.3213 20.1493Z" fill="#FCA12E"/>
<path d="M47.0847 9.53783H31.0603C31.0601 9.09597 31.1913 8.66389 31.4375 8.29575C31.6837 7.9276 32.0338 7.63977 32.4441 7.46833C32.8543 7.29689 33.3064 7.24947 33.7437 7.33201C34.181 7.41455 34.584 7.62338 34.9023 7.93232C35.0294 7.46091 35.213 7.00635 35.4493 6.57841C35.8057 5.93715 36.2744 5.36407 36.8333 4.88602C37.6955 4.14334 38.7484 3.65272 39.8748 3.46875L42.3474 4.88602L46.6908 7.37483C46.9516 8.06658 47.085 8.79923 47.0847 9.53783Z" fill="#FCA12E"/>
<path d="M62.5438 16.4583L60.3138 15.1804L46.6909 7.37545L42.3475 4.88664L39.8731 3.46937L34.9625 0.654751C34.2141 0.225816 33.3651 0 32.5009 0C31.6367 0 30.7877 0.225816 30.0393 0.654751L29.2151 1.12717L22.6544 4.88664L6.29632 14.2609L4.69352 15.1786L2.46164 16.4583C1.71375 16.8882 1.09273 17.5055 0.660723 18.2485C0.228714 18.9915 0.000872182 19.8341 0 20.692L0 52.3098C0.000128249 53.1339 0.210165 53.9445 0.610581 54.6664C1.011 55.3882 1.58879 55.9978 2.29023 56.4386C2.34676 56.4748 2.40329 56.5092 2.46164 56.5417L4.69352 57.8214L12.5343 62.3104L13.8417 63.0597L21.9925 67.7296L22.6617 68.1134L30.0466 72.3452C30.795 72.7742 31.644 73 32.5082 73C33.3724 73 34.2214 72.7742 34.9698 72.3452L42.3548 68.1134L60.3156 57.8196L62.5438 56.5327C63.2898 56.1039 63.9093 55.4881 64.3404 54.7471C64.7714 54.006 64.9989 53.1656 65 52.3098V20.692C65.0008 19.8344 64.7742 18.9917 64.3431 18.2486C63.912 17.5054 63.2914 16.888 62.5438 16.4583ZM32.5009 68.1043L26.2575 64.5204L25.4515 64.0589L16.7975 59.0993L4.92328 52.3098V20.692L5.87146 20.1489L10.1729 17.6837L24.372 9.53846L32.5009 4.88664L35.4531 6.57903L40.617 9.53846L50.2812 15.079L50.9687 15.4736L60.0731 20.692V52.3098L54.7961 55.3344L52.0609 56.9037L49.0285 58.6414L32.5009 68.1043Z" fill="#FF8000"/>
<path d="M29.8194 0.714369C31.4782 -0.238124 33.5218 -0.238122 35.1805 0.71437L62.3194 16.2983C63.9782 17.2508 65 19.0111 65 20.9161V52.0839C65 53.9889 63.9782 55.7492 62.3194 56.7017L35.1805 72.2856C33.5218 73.2381 31.4782 73.2381 29.8194 72.2856L2.68055 56.7017C1.02182 55.7492 0 53.9889 0 52.0839V20.9161C0 19.0111 1.02182 17.2508 2.68055 16.2983L29.8194 0.714369Z" fill="black" fill-opacity="0.4"/>
<path d="M16.5215 30.2227C16.4355 31.1328 16.0996 31.8438 15.5137 32.3555C14.9277 32.8633 14.1484 33.1172 13.1758 33.1172C12.4961 33.1172 11.8965 32.957 11.377 32.6367C10.8613 32.3125 10.4629 31.8535 10.1816 31.2598C9.90039 30.666 9.75391 29.9766 9.74219 29.1914V28.3945C9.74219 27.5898 9.88477 26.8809 10.1699 26.2676C10.4551 25.6543 10.8633 25.1816 11.3945 24.8496C11.9297 24.5176 12.5469 24.3516 13.2461 24.3516C14.1875 24.3516 14.9453 24.6074 15.5195 25.1191C16.0938 25.6309 16.4277 26.3535 16.5215 27.2871H15.0449C14.9746 26.6738 14.7949 26.2324 14.5059 25.9629C14.2207 25.6895 13.8008 25.5527 13.2461 25.5527C12.6016 25.5527 12.1055 25.7891 11.7578 26.2617C11.4141 26.7305 11.2383 27.4199 11.2305 28.3301V29.0859C11.2305 30.0078 11.3945 30.7109 11.7227 31.1953C12.0547 31.6797 12.5391 31.9219 13.1758 31.9219C13.7578 31.9219 14.1953 31.791 14.4883 31.5293C14.7812 31.2676 14.9668 30.832 15.0449 30.2227H16.5215ZM24.6602 28.957C24.6602 29.793 24.5156 30.5273 24.2266 31.1602C23.9375 31.7891 23.5234 32.2734 22.9844 32.6133C22.4492 32.9492 21.832 33.1172 21.1328 33.1172C20.4414 33.1172 19.8242 32.9492 19.2812 32.6133C18.7422 32.2734 18.3242 31.791 18.0273 31.166C17.7344 30.541 17.5859 29.8203 17.582 29.0039V28.5234C17.582 27.6914 17.7285 26.957 18.0215 26.3203C18.3184 25.6836 18.7344 25.1973 19.2695 24.8613C19.8086 24.5215 20.4258 24.3516 21.1211 24.3516C21.8164 24.3516 22.4316 24.5195 22.9668 24.8555C23.5059 25.1875 23.9219 25.668 24.2148 26.2969C24.5078 26.9219 24.6562 27.6504 24.6602 28.4824V28.957ZM23.1777 28.5117C23.1777 27.5664 22.998 26.8418 22.6387 26.3379C22.2832 25.834 21.7773 25.582 21.1211 25.582C20.4805 25.582 19.9785 25.834 19.6152 26.3379C19.2559 26.8379 19.0723 27.5469 19.0645 28.4648V28.957C19.0645 29.8945 19.2461 30.6191 19.6094 31.1309C19.9766 31.6426 20.4844 31.8984 21.1328 31.8984C21.7891 31.8984 22.293 31.6484 22.6445 31.1484C23 30.6484 23.1777 29.918 23.1777 28.957V28.5117ZM28.0586 24.4688L30.5195 31.0078L32.9746 24.4688H34.8906V33H33.4141V30.1875L33.5605 26.4258L31.041 33H29.9805L27.4668 26.4316L27.6133 30.1875V33H26.1367V24.4688H28.0586ZM38.2129 33H36.7363V24.4688H38.2129V33ZM46.8027 33H45.3203L41.5176 26.9473V33H40.0352V24.4688H41.5176L45.332 30.5449V24.4688H46.8027V33ZM55.0938 31.8926C54.7852 32.2949 54.3574 32.5996 53.8105 32.8066C53.2637 33.0137 52.6426 33.1172 51.9473 33.1172C51.2324 33.1172 50.5996 32.9551 50.0488 32.6309C49.498 32.3066 49.0723 31.8438 48.7715 31.2422C48.4746 30.6367 48.3203 29.9316 48.3086 29.127V28.459C48.3086 27.1699 48.6172 26.1641 49.2344 25.4414C49.8516 24.7148 50.7129 24.3516 51.8184 24.3516C52.7676 24.3516 53.5215 24.5859 54.0801 25.0547C54.6387 25.5234 54.9746 26.1992 55.0879 27.082H53.6348C53.4707 26.0547 52.875 25.541 51.8477 25.541C51.1836 25.541 50.6777 25.7812 50.3301 26.2617C49.9863 26.7383 49.8086 27.4395 49.7969 28.3652V29.0215C49.7969 29.9434 49.9902 30.6602 50.377 31.1719C50.7676 31.6797 51.3086 31.9336 52 31.9336C52.7578 31.9336 53.2969 31.7617 53.6172 31.418V29.748H51.8594V28.623H55.0938V31.8926ZM21.6602 44.8027C21.6602 44.4277 21.5273 44.1387 21.2617 43.9355C21 43.7324 20.5254 43.5273 19.8379 43.3203C19.1504 43.1133 18.6035 42.8828 18.1973 42.6289C17.4199 42.1406 17.0312 41.5039 17.0312 40.7188C17.0312 40.0312 17.3105 39.4648 17.8691 39.0195C18.4316 38.5742 19.1602 38.3516 20.0547 38.3516C20.6484 38.3516 21.1777 38.4609 21.6426 38.6797C22.1074 38.8984 22.4727 39.2109 22.7383 39.6172C23.0039 40.0195 23.1367 40.4668 23.1367 40.959H21.6602C21.6602 40.5137 21.5195 40.166 21.2383 39.916C20.9609 39.6621 20.5625 39.5352 20.043 39.5352C19.5586 39.5352 19.1816 39.6387 18.9121 39.8457C18.6465 40.0527 18.5137 40.3418 18.5137 40.7129C18.5137 41.0254 18.6582 41.2871 18.9473 41.498C19.2363 41.7051 19.7129 41.9082 20.377 42.1074C21.041 42.3027 21.5742 42.5273 21.9766 42.7812C22.3789 43.0312 22.6738 43.3203 22.8613 43.6484C23.0488 43.9727 23.1426 44.3535 23.1426 44.791C23.1426 45.502 22.8691 46.0684 22.3223 46.4902C21.7793 46.9082 21.041 47.1172 20.1074 47.1172C19.4902 47.1172 18.9219 47.0039 18.4023 46.7773C17.8867 46.5469 17.4844 46.2305 17.1953 45.8281C16.9102 45.4258 16.7676 44.957 16.7676 44.4219H18.25C18.25 44.9062 18.4102 45.2812 18.7305 45.5469C19.0508 45.8125 19.5098 45.9453 20.1074 45.9453C20.623 45.9453 21.0098 45.8418 21.2676 45.6348C21.5293 45.4238 21.6602 45.1465 21.6602 44.8027ZM31.252 42.957C31.252 43.793 31.1074 44.5273 30.8184 45.1602C30.5293 45.7891 30.1152 46.2734 29.5762 46.6133C29.041 46.9492 28.4238 47.1172 27.7246 47.1172C27.0332 47.1172 26.416 46.9492 25.873 46.6133C25.334 46.2734 24.916 45.791 24.6191 45.166C24.3262 44.541 24.1777 43.8203 24.1738 43.0039V42.5234C24.1738 41.6914 24.3203 40.957 24.6133 40.3203C24.9102 39.6836 25.3262 39.1973 25.8613 38.8613C26.4004 38.5215 27.0176 38.3516 27.7129 38.3516C28.4082 38.3516 29.0234 38.5195 29.5586 38.8555C30.0977 39.1875 30.5137 39.668 30.8066 40.2969C31.0996 40.9219 31.248 41.6504 31.252 42.4824V42.957ZM29.7695 42.5117C29.7695 41.5664 29.5898 40.8418 29.2305 40.3379C28.875 39.834 28.3691 39.582 27.7129 39.582C27.0723 39.582 26.5703 39.834 26.207 40.3379C25.8477 40.8379 25.6641 41.5469 25.6562 42.4648V42.957C25.6562 43.8945 25.8379 44.6191 26.2012 45.1309C26.5684 45.6426 27.0762 45.8984 27.7246 45.8984C28.3809 45.8984 28.8848 45.6484 29.2363 45.1484C29.5918 44.6484 29.7695 43.918 29.7695 42.957V42.5117ZM39.5371 42.957C39.5371 43.793 39.3926 44.5273 39.1035 45.1602C38.8145 45.7891 38.4004 46.2734 37.8613 46.6133C37.3262 46.9492 36.709 47.1172 36.0098 47.1172C35.3184 47.1172 34.7012 46.9492 34.1582 46.6133C33.6191 46.2734 33.2012 45.791 32.9043 45.166C32.6113 44.541 32.4629 43.8203 32.459 43.0039V42.5234C32.459 41.6914 32.6055 40.957 32.8984 40.3203C33.1953 39.6836 33.6113 39.1973 34.1465 38.8613C34.6855 38.5215 35.3027 38.3516 35.998 38.3516C36.6934 38.3516 37.3086 38.5195 37.8438 38.8555C38.3828 39.1875 38.7988 39.668 39.0918 40.2969C39.3848 40.9219 39.5332 41.6504 39.5371 42.4824V42.957ZM38.0547 42.5117C38.0547 41.5664 37.875 40.8418 37.5156 40.3379C37.1602 39.834 36.6543 39.582 35.998 39.582C35.3574 39.582 34.8555 39.834 34.4922 40.3379C34.1328 40.8379 33.9492 41.5469 33.9414 42.4648V42.957C33.9414 43.8945 34.123 44.6191 34.4863 45.1309C34.8535 45.6426 35.3613 45.8984 36.0098 45.8984C36.666 45.8984 37.1699 45.6484 37.5215 45.1484C37.877 44.6484 38.0547 43.918 38.0547 42.957V42.5117ZM47.7812 47H46.2988L42.4961 40.9473V47H41.0137V38.4688H42.4961L46.3105 44.5449V38.4688H47.7812V47Z" fill="white"/>
</g>
<defs>
<clipPath id="clip0">
<rect width="65" height="73" fill="white"/>
</clipPath>
</defs>
</svg>
