<svg id="Component_6_6" data-name="Component 6 – 6" xmlns="http://www.w3.org/2000/svg" width="26.172" height="26.427" viewBox="0 0 26.172 26.427">
  <path id="Path_2904" data-name="Path 2904" d="M272.529,1026.084a2.568,2.568,0,0,0-1.966-.868H251.752l-.19-1.419c-.2-1.529-1.268-2.727-2.423-2.727h-1.382a.774.774,0,1,0,0,1.549h1.382c.248,0,.774.525.888,1.383l2.217,16.622a3.127,3.127,0,0,0,1.059,1.931,3.191,3.191,0,0,0,1.486.74,2.848,2.848,0,1,0,5.036.057h4.057a2.847,2.847,0,1,0,5.066,0h2.029a.774.774,0,0,0,0-1.549H255.358a1.661,1.661,0,0,1-1.579-1.383l-.162-1.215H268.9a3.213,3.213,0,0,0,3.114-2.727l1.111-8.33A2.567,2.567,0,0,0,272.529,1026.084Zm-13.937,18.565a1.3,1.3,0,1,1-1.3-1.3A1.3,1.3,0,0,1,258.592,1044.65Zm9.123,0a1.3,1.3,0,1,1-1.3-1.3A1.3,1.3,0,0,1,267.715,1044.65Zm3.648-17.546a1.044,1.044,0,0,1,.231.839l-.466,3.493H265.86l.311-4.672h4.391A1.043,1.043,0,0,1,271.363,1027.1Zm-11,10.552-.312-4.671H264.2l-.312,4.671Zm-.415-6.22-.311-4.672h4.977l-.312,4.672Zm-1.863-4.672.312,4.672h-5.821l-.622-4.672Zm-5.3,6.22H258.5l.312,4.671H253.41Zm16.117,4.671h-3.458l.312-4.671h5.164l-.438,3.288A1.661,1.661,0,0,1,268.9,1037.656Z" transform="translate(-246.982 -1021.07)" fill="#b3b3b3"/>
</svg>
