<svg width="33" height="40" viewBox="0 0 33 40" fill="none" xmlns="http://www.w3.org/2000/svg">
<path d="M10.5152 39.1794C9.21902 39.1092 7.99931 38.544 7.10783 37.6004C6.0413 36.5744 5.08955 35.4353 4.2694 34.2034C2.98825 32.3688 1.97555 30.3608 1.26195 28.24C0.45433 25.9584 0.0294673 23.559 0.00454347 21.1388C-0.0581979 18.7641 0.529889 16.4174 1.70513 14.3529C2.56588 12.8649 3.79363 11.6222 5.2712 10.7436C6.73244 9.86867 8.3999 9.39774 10.1029 9.37898C11.3867 9.45493 12.6483 9.74837 13.8339 10.2468C14.78 10.6632 15.7736 10.9559 16.7939 11.1167C17.9195 10.8809 19.0192 10.5357 20.0776 10.086C21.3302 9.59693 22.6564 9.32304 24.0003 9.27591C24.1796 9.27591 24.3569 9.27591 24.528 9.29653C27.4757 9.38104 30.2172 10.8281 31.9487 13.213C30.5974 13.9358 29.4729 15.0191 28.7004 16.3426C27.9278 17.6661 27.5374 19.1779 27.5726 20.71C27.5591 21.8815 27.7941 23.0426 28.262 24.1167C28.7299 25.1908 29.4202 26.1535 30.2873 26.9414C31.0768 27.6938 31.9961 28.2957 33 28.7203C32.7939 29.3387 32.5568 29.9365 32.3053 30.5384C31.7344 31.8684 31.0299 33.1372 30.2028 34.325C29.4207 35.5149 28.5103 36.6154 27.488 37.6066C26.5556 38.5319 25.3126 39.0777 24.0003 39.1382C22.8879 39.0889 21.7952 38.8279 20.7805 38.3693C19.6864 37.8927 18.5106 37.6316 17.3175 37.6004C16.0908 37.6246 14.8802 37.8842 13.7514 38.3652C12.7765 38.805 11.735 39.0788 10.6698 39.1753L10.5152 39.1794ZM17.0083 9.27591C16.8537 9.27591 16.6991 9.27591 16.5445 9.25736C16.512 9.012 16.4948 8.76485 16.493 8.51735C16.5604 6.45837 17.3651 4.49209 18.7604 2.97654C19.5409 2.10554 20.4869 1.39852 21.5432 0.896672C22.5276 0.389907 23.6034 0.0850427 24.7073 0C24.7383 0.270032 24.7383 0.533881 24.7383 0.785361C24.7093 2.81198 23.9478 4.75962 22.5945 6.26846C21.9393 7.14703 21.0996 7.87153 20.1346 8.39108C19.1696 8.91064 18.1025 9.21265 17.0083 9.27591Z" fill="white"/>
</svg>
