<svg width="31" height="32" viewBox="0 0 31 32" fill="none" xmlns="http://www.w3.org/2000/svg">
<path d="M30.6947 12.8512C30.8923 13.9101 31 15.0172 31 16.1724C31 25.2091 24.952 31.6347 15.8173 31.6347C13.74 31.6353 11.6829 31.2266 9.76356 30.4319C7.84422 29.6373 6.10028 28.4722 4.63138 27.0033C3.16248 25.5344 1.99741 23.7905 1.20273 21.8711C0.408063 19.9518 -0.000632633 17.8947 7.35034e-07 15.8173C-0.000632633 13.74 0.408063 11.6829 1.20273 9.76356C1.99741 7.84422 3.16248 6.10028 4.63138 4.63138C6.10028 3.16248 7.84422 1.99741 9.76356 1.20273C11.6829 0.408063 13.74 -0.000632633 15.8173 7.35034e-07C20.0882 7.35034e-07 23.6569 1.57145 26.3949 4.12305L21.936 8.58192V8.57067C20.2762 6.98958 18.1697 6.17815 15.8173 6.17815C10.5985 6.17815 6.3565 10.5872 6.3565 15.8077C6.3565 21.0266 10.5985 25.4453 15.8173 25.4453C20.5526 25.4453 23.7758 22.7378 24.4378 19.0197H15.8173L15.8173 12.8512H30.6963H30.6947Z" fill="white"/>
</svg>
