<svg width="65" height="73" viewBox="0 0 65 73" fill="none" xmlns="http://www.w3.org/2000/svg">
<path d="M60.0771 15.0417V57.9403L56.3941 60.04L53.1487 61.9043L51.1977 63.0266L43.3576 67.5155L42.3366 68.1128H22.6452L14.2581 63.2981L13.784 63.0266L12.7083 62.4111L4.92285 57.9403V15.0417L14.331 9.64768L18.014 7.54801L21.4418 5.57503L22.6452 4.88721H42.3366L60.0771 15.0417Z" fill="#9AA3CC"/>
<path opacity="0.1" d="M32.3633 21.7753L30.6311 23.1509L29.7013 23.893L27.3675 25.7212L25.4895 27.1874L23.7027 28.5992L21.4053 30.4093L21.2959 30.4998L19.4909 31.9116L15.5891 34.9888L8.55119 40.5095L6.78261 41.9032L4.92286 43.3694L4.68583 43.5504L0.0546985 47.1886L0 47.0076V33.4683L4.68583 31.7849L4.92286 31.6944L9.97335 29.8663L10.7209 29.6129L20.202 26.1737L21.2959 25.7936L23.7027 24.9067L26.547 23.893L27.1487 23.6758L28.9902 23.0061L30.6311 22.4088L32.3633 21.7753Z" fill="white"/>
<path opacity="0.1" d="M32.3633 21.7753L30.6311 22.8975L29.0813 23.893L26.2188 25.7212L25.4895 26.1737L23.7027 27.3141L21.3324 28.8345L21.2959 28.8707L20.129 29.5948L15.9902 32.2556L4.92286 39.3148L4.68583 39.4596L0 42.4643V38.265L4.68583 35.8757L4.92286 35.749L17.1024 29.5586L21.2959 27.4227L23.7027 26.1918L28.9902 23.5129L30.6311 22.6622L32.3633 21.7753Z" fill="white"/>
<path opacity="0.1" d="M43.3576 67.5156L42.3366 68.0948L40.1122 69.3799L39.3281 69.8324L37.5049 70.1221L32.9467 70.8642L32.9102 68.0948V67.8595L32.8555 63.0266L32.7279 52.2205L32.6914 48.5642L32.6732 47.2428L32.6549 46.2835L32.6185 43.7856L32.582 41.1791L32.5455 38.6993L32.5273 36.3462L32.4908 33.7759L32.4726 32.6537L32.4544 31.278V30.7893L32.4361 29.1602V28.9792L32.345 21.7933L32.3997 22.0467L32.4544 22.2458L32.8555 23.8748L33.2931 25.6849L33.676 27.314L34.0589 28.9068V28.9249L34.1136 29.124L34.2959 29.8662L34.5147 30.7531L34.9705 32.6356L35.8457 36.31L36.338 38.3554L36.4109 38.6631L36.9943 41.1429L37.5049 43.2969L37.6143 43.7675L38.2159 46.2654L38.7629 48.5642L41.1514 58.5376L41.6619 60.6192L42.1178 62.556L42.2272 63.0266L43.3576 67.5156Z" fill="white"/>
<path opacity="0.1" d="M40.1122 69.38L39.3465 69.8325L37.5049 70.1222L37.2861 68.113L37.0126 65.5065L36.7574 63.0267L35.3899 50.139L35.2805 49.1073L35.2258 48.5643L34.9706 46.2836L34.8976 45.5233L34.7153 43.7857L34.4236 41.1792L34.1683 38.6994L33.9131 36.3463L33.7125 34.4638L33.6031 33.3959L33.3479 30.9704L33.3296 30.7894L33.1473 29.1603L33.1291 28.925L32.965 27.3322L32.7826 25.7031L32.6003 23.893L32.4362 22.3726L32.3633 21.7753L32.4362 22.1735L32.4544 22.2459L32.7097 23.893L33.0014 25.7031L33.2749 27.3322L33.5302 28.8888L33.5666 29.1603L33.8219 30.6446L33.8401 30.7894L34.223 33.1425L34.6606 35.8576L34.7335 36.3463L35.1164 38.6994L35.5176 41.1792L35.9551 43.7857L36.0828 44.564L36.3563 46.2836L36.7209 48.5643L39.073 63.0267L39.2735 64.2213L39.9117 68.113L40.1122 69.38Z" fill="white"/>
<path opacity="0.1" d="M61.627 57.0534L60.296 57.8136L60.0589 57.9403L56.3941 60.04L53.1487 61.9043L50.8878 57.5602L45.2539 46.6817L42.8472 42.0298L41.6985 39.8034L41.0239 38.4821L39.9117 36.3462L36.1922 29.1602L35.3352 27.5312L33.4573 23.893L32.6186 22.2639L32.4362 21.92L32.3815 21.7933L32.4362 21.8476L32.8556 22.2458L34.0954 23.4585L34.533 23.8748L35.9734 25.2867L36.3563 25.6668L37.2315 26.5175L39.4012 28.6534L41.0421 30.2644L42.8836 32.0744L44.5246 33.6854L45.3086 34.4456L60.0954 48.9805L60.3324 49.2158L61.317 50.1751L61.6452 56.5465L61.627 57.0534Z" fill="white"/>
<path opacity="0.1" d="M61.9004 56.8906L61.627 57.0535L60.296 57.8137L60.0772 57.9404L56.3941 60.0401L53.7868 55.895L45.2721 42.3376L42.993 38.6994L42.8472 38.4822L38.0337 30.7894L37.5961 30.1197L37.0126 29.1603L35.9734 27.5313L33.6943 23.893L32.655 22.2459L32.4362 21.8839L32.3633 21.7753L32.4362 21.8658L32.7644 22.2459L34.0772 23.8206L34.1319 23.893L35.9369 26.0289L36.3563 26.5176L37.195 27.5313L37.5961 28.0019L38.5807 29.1603L39.3647 30.1016L39.9481 30.7894L42.8472 34.2466L43.6859 35.2422L43.8864 35.4956L45.2721 37.1427L45.5821 37.4867L52.3647 45.5777L52.4923 45.7044L53.7868 47.2429L54.2244 47.7859L58.6915 53.0894L60.0772 54.7366L60.296 55.0081L61.6087 56.5648L61.9004 56.8906Z" fill="white"/>
<path opacity="0.1" d="M65 34.1199V35.6042L60.3142 33.6131L60.0772 33.5226L57.1964 32.2918L52.2553 30.1921L46.4573 27.7304L45.2904 27.2417L42.8654 26.21L39.3829 24.7257L37.3409 23.8569L35.9552 23.2776L34.0954 22.4812L33.4937 22.2278L32.4545 21.7934L32.3998 21.7572L32.4545 21.7391L34.0954 21.4676L40.8963 20.3815L41.0604 20.3634L42.8836 20.0738L45.3086 19.6937L46.4208 19.5127L49.1922 19.0602L52.4194 18.5353L55.5555 18.0285L60.1319 17.2863L60.3689 17.2501L63.1768 16.7976C63.3226 16.9062 63.4503 17.0148 63.5779 17.1415L63.8878 20.7979L65 34.1199Z" fill="white"/>
<path opacity="0.1" d="M32.3633 21.7754L63.8331 20.8522L64.8177 32.1108L32.3633 21.7754Z" fill="white"/>
<path opacity="0.1" d="M32.3633 21.7753L31.3605 21.1056L30.3394 20.4177L27.9144 18.7887L27.1304 18.2638L25.4895 17.1596L23.7027 15.965L21.2959 14.3178L18.871 12.7069L14.331 9.64784L18.014 7.54817L21.4418 5.57519L22.6452 4.88737L24.7784 3.67462L25.2889 4.88737L26.6928 8.21789L27.2034 9.44874L28.1697 11.7475L29.683 15.3677L30.5947 17.5216L30.9776 18.4448L31.4151 19.5127L31.9986 20.9065L32.3633 21.7753Z" fill="white"/>
<path opacity="0.1" d="M32.3633 21.7752L28.3885 22.1554L27.1487 22.264L25.5077 22.4269L23.7209 22.5898L21.2959 22.8251L10.8485 23.8206L9.69986 23.9292L4.92286 24.3998L4.68583 24.4179L0 24.8705V20.8159L1.0575 17.6483C1.1669 17.5035 1.29453 17.3768 1.42216 17.2501C1.73212 16.9424 2.07854 16.6708 2.46143 16.4536L4.23001 15.44L4.68583 15.5486L4.92286 15.6029L11.3043 17.0329L21.2959 19.2773L23.7209 19.8204L25.5077 20.2186L26.3282 20.3996L30.5582 21.3589L32.3633 21.7752Z" fill="white"/>
<path opacity="0.1" d="M32.4361 20.4177L31.4151 19.5127L30.5946 18.7706L28.9537 17.3044L28.589 16.9967L26.784 15.3677L23.9761 12.8517L21.8611 10.9873L21.4964 10.6434L18.014 7.54817L21.4417 5.5752L24.3225 9.44874L24.3772 9.53924L26.0182 11.7475L28.6984 15.3677L30.5946 17.9199L30.9775 18.4448L32.4361 20.4177Z" fill="white"/>
<path opacity="0.1" d="M32.3633 21.7753L29.5189 21.721L23.7027 21.6305L21.2777 21.5943L4.92286 21.3228H4.68583L0 21.2504V20.816L1.0575 17.6483C1.1669 17.5035 1.29453 17.3768 1.42216 17.2501L4.68583 17.7388L4.92286 17.775L8.98878 18.3724L21.2777 20.1643L23.7027 20.5263L30.2482 21.4857L32.3633 21.7753Z" fill="white"/>
<path d="M21.2229 51.6952C20.5301 52.4735 20.0013 53.1071 20.0013 53.1071L19.9831 53.1252L15.7531 58.5192L12.7082 62.4108L4.92276 57.9399L4.75867 57.8494L4.92276 57.6322L7.62122 53.8492L12.4529 47.0433L13.8021 47.7674L19.8919 51.0074L20.4754 51.3151L21.2229 51.6952Z" fill="#2C8BFF"/>
<path d="M26.5104 54.5011C25.9817 54.4649 25.4712 54.4287 24.9789 54.3744L25.2888 53.8495L26.5104 54.5011Z" fill="#2C8BFF"/>
<path d="M20.8948 49.7767C21.3506 50.0482 21.7882 50.3197 22.2076 50.6093C21.8794 50.9713 21.5329 51.3333 21.2412 51.6772C20.5484 52.4556 20.0196 53.0891 20.0196 53.0891L20.0014 53.1072C16.7742 51.822 14.7139 49.9034 13.5834 48.5639C12.8359 47.677 12.4895 47.0435 12.453 47.0073C12.9635 47.0616 13.4558 47.1159 13.9481 47.2064C16.1725 47.5865 18.1416 48.3105 19.8008 49.1612C20.1837 49.3785 20.5301 49.5776 20.8948 49.7767Z" fill="#284394"/>
<path d="M26.5104 54.501C25.9817 54.4648 25.4712 54.4286 24.9789 54.3743L25.2888 53.8494L25.5259 53.4331C25.5259 53.4331 25.5259 53.415 25.5441 53.415C26.1822 54.0666 26.5104 54.501 26.5104 54.501Z" fill="#284394"/>
<path d="M43.6311 33.9205L43.704 35.5314C43.704 35.5314 45.8555 35.0789 45.9284 36.5994C46.0013 38.1198 43.3211 38.4275 43.3211 38.4275L38.9088 42.1744L33.129 33.5766C32.0532 33.9386 30.7769 34.2463 29.5553 34.5721C26.4193 35.4047 25.5623 43.0251 25.5623 43.0251C25.5623 43.0251 24.833 48.1838 23.575 49.2698C23.1921 49.6138 22.6998 50.1025 22.2075 50.6274C21.8793 50.9894 21.5329 51.3514 21.2412 51.6953C20.5483 52.4737 20.0196 53.1072 20.0196 53.1072L20.0013 53.1253C16.7741 51.8401 14.7138 49.9215 13.5834 48.582L13.8204 47.7494L13.9663 47.2245L14.0392 46.8806L15.8807 32.6896C15.8807 32.6896 16.6465 28.9971 19.3449 26.7888C22.0434 24.5986 33.5665 18.8788 44.3968 18.7159C44.3968 18.7159 46.4754 18.4806 46.6212 20.3088C46.7671 22.1369 43.0841 22.8248 43.0841 22.8248L43.3211 25.5037C43.3211 25.5037 46.4024 24.5443 46.6395 26.7888C46.8583 29.0152 43.1023 29.0152 43.1023 29.0152L43.0294 30.3184C43.0294 30.3184 46.5118 29.5582 46.6577 31.4588C46.7853 33.3775 43.6311 33.9205 43.6311 33.9205Z" fill="#FFB580"/>
<path d="M26.5105 54.5011L23.575 62.9904L23.5568 63.0266L23.0645 64.4565L14.2763 63.2981L13.8022 63.0266L12.7265 62.4111L15.7714 58.5195L20.0014 53.1255C21.4236 53.7047 23.0827 54.1572 24.9972 54.3744C25.4712 54.4287 25.9818 54.483 26.5105 54.5011Z" fill="#2C76DF"/>
<path d="M38.9088 42.1745L35.4081 45.143C35.4081 45.143 30.5581 48.9623 27.805 50.7905C27.805 50.7905 26.474 51.6774 25.5441 53.4151C25.5441 53.4151 25.5441 53.4332 25.5259 53.4332L25.2888 53.8495L24.9789 54.3744C23.0827 54.1391 21.4235 53.6866 19.9831 53.1254L20.0013 53.1073C20.0013 53.1073 20.5301 52.4738 21.2229 51.6955C21.5329 51.3516 21.8611 50.9715 22.1893 50.6276C22.6816 50.1026 23.1738 49.6139 23.5567 49.27C24.833 48.184 25.5441 43.0253 25.5441 43.0253C25.5441 43.0253 26.3828 35.4049 29.5371 34.5723C30.7587 34.2464 32.035 33.9387 33.1107 33.5767L38.9088 42.1745Z" fill="#E48C79"/>
<path d="M25.5259 53.415C26.164 54.0847 26.5104 54.5191 26.5104 54.5191C25.9817 54.4829 25.4712 54.4467 24.9789 54.3924L25.2888 53.8675L25.5259 53.415Z" fill="#284394"/>
<path d="M33.129 33.5764C32.0532 33.9384 30.777 34.2461 29.5554 34.5719C26.4193 35.4046 25.5624 43.025 25.5624 43.025C25.5624 43.025 24.8331 48.1837 23.575 49.2697C23.1921 49.6136 22.6998 50.1023 22.2075 50.6272C21.8793 50.9893 21.5329 51.3513 21.2412 51.6952C20.5483 52.4735 20.0196 53.107 20.0196 53.107L20.4936 51.3151L20.8948 49.7946L24.2131 37.3594L32.2538 32.2913L33.129 33.5764Z" fill="#BD6D48"/>
<path d="M22.4707 58.0404C22.7501 57.153 22.5948 56.3151 22.1239 56.1689C21.6529 56.0228 21.0446 56.6236 20.7651 57.511C20.4857 58.3984 20.641 59.2363 21.1119 59.3825C21.5829 59.5286 22.1912 58.9277 22.4707 58.0404Z" fill="#2A4596"/>
<path d="M21.6058 35.5678L19.1443 36.9253C19.1443 36.9253 18.8708 29.7393 21.2958 27.9836L21.6058 35.5678Z" fill="#E48C79"/>
<path d="M63.5231 17.1956C63.3955 17.0689 63.2679 16.9603 63.122 16.8517C62.9397 16.7069 62.7391 16.5802 62.5386 16.4535L60.3142 15.1684L60.0771 15.0417L42.3366 4.88718L34.9523 0.651624C34.1865 0.217208 33.3478 0 32.4909 0C31.6339 0 30.7952 0.217208 30.0295 0.651624L24.7784 3.67444L22.6452 4.88718L21.4418 5.57501L18.014 7.54798L14.331 9.64766L4.92286 15.0417L4.68583 15.1684L4.23001 15.4218L2.46143 16.4354C2.07854 16.6526 1.73212 16.9241 1.42216 17.2318C1.29453 17.3585 1.1669 17.5033 1.0575 17.6301C0.382889 18.517 0 19.5668 0 20.6891V52.2928C0 54.0305 0.929874 55.6596 2.46143 56.5284L4.68583 57.8135L4.75877 57.8497L4.92286 57.9402L12.7083 62.4111L13.784 63.0265L14.2581 63.298L22.6452 68.1128L30.0295 72.3484C30.7952 72.7828 31.6339 73 32.4909 73C33.3478 73 34.1865 72.7828 34.9523 72.3484L39.3282 69.8324L40.1122 69.3799L42.3366 68.0947L43.3576 67.5155L51.1978 63.0265L53.1487 61.9043L56.3941 60.0399L60.0589 57.9402L60.2959 57.8135L61.6269 57.0533L61.8822 56.9085L62.5203 56.5465C64.0519 55.6777 64.9818 54.0667 64.9818 52.3109V20.6891C65 19.3677 64.453 18.1007 63.5231 17.1956ZM53.7868 55.8949L50.8878 57.5601L42.1543 62.5559L41.352 63.0265L39.2735 64.2212L37.0126 65.5063L32.9102 67.8594L32.4909 68.0947L23.6297 63.0084L23.5568 62.9722L15.7532 58.5014L7.60309 53.8314L4.92286 52.2928V20.6891L8.98878 18.3541L11.3043 17.0327L18.871 12.6886L21.3142 11.2948L21.8794 10.969L24.3955 9.53905L24.5414 9.44855L26.6928 8.2177L32.4909 4.88718L40.4586 9.44855L45.2721 12.1999L55.5007 18.0645L60.0771 20.6891V52.2928L58.6914 53.0893L53.7868 55.8949Z" fill="#CBD4FF"/>
<path d="M43.1206 48.582H23.4292C22.244 48.582 21.2777 47.6227 21.2777 46.4461V11.5842C21.2777 10.4077 22.244 9.44836 23.4292 9.44836H43.1206C44.3058 9.44836 45.2721 10.4077 45.2721 11.5842V46.428C45.2721 47.6227 44.3058 48.582 43.1206 48.582Z" fill="#475264"/>
<path d="M40.6956 46.2831H25.8541C24.669 46.2831 23.7026 45.3238 23.7026 44.1472V13.8829C23.7026 12.7063 24.669 11.747 25.8541 11.747H40.6956C41.8808 11.747 42.8471 12.7063 42.8471 13.8829V44.1291C42.8471 45.3238 41.8808 46.2831 40.6956 46.2831Z" fill="white"/>
<path d="M25.4896 15.3671V20.4172H30.5765V15.3671H25.4896ZM28.9538 18.7882H27.1487V16.9962H28.9538V18.7882Z" fill="#A9A8AE"/>
<path d="M25.4896 25.721V30.7711H30.5765V25.721H25.4896ZM28.9538 27.3501V29.142H27.1487V27.3501H28.9538Z" fill="#A9A8AE"/>
<path d="M35.9369 15.3671V20.4172H41.0238V15.3671H35.9369ZM37.5778 16.9962H39.3829V18.7882H37.5778V16.9962Z" fill="#A9A8AE"/>
<path d="M34.0772 15.3671H32.4363V18.7157H34.0772V15.3671Z" fill="#A9A8AE"/>
<path d="M34.0772 20.4173H32.4363V23.8745H34.0772V20.4173Z" fill="#A9A8AE"/>
<path d="M41.0239 25.6665H39.3647V30.789H41.0239V25.6665Z" fill="#A9A8AE"/>
<path d="M30.6311 22.2454H28.9902V23.8926H30.6311V22.2454Z" fill="#A9A8AE"/>
<path d="M34.0955 25.7029H32.4363V27.332H34.0955V25.7029Z" fill="#A9A8AE"/>
<path d="M39.3647 29.1601H37.6144V30.7892H39.3647V29.1601Z" fill="#A9A8AE"/>
<path d="M35.9552 22.2454H32.4363V23.8926H35.9552V22.2454Z" fill="#A9A8AE"/>
<path d="M41.0239 22.2454H37.5049V23.8926H41.0239V22.2454Z" fill="#A9A8AE"/>
<path d="M39.3647 23.8745H35.9551V25.6664H39.3647V23.8745Z" fill="#A9A8AE"/>
<path d="M35.9552 29.1601H32.4363V30.7892H35.9552V29.1601Z" fill="#A9A8AE"/>
<path d="M37.6143 27.5311H34.0954V29.1601H37.6143V27.5311Z" fill="#A9A8AE"/>
<path d="M27.1487 22.2454H25.4896V23.8926H27.1487V22.2454Z" fill="#A9A8AE"/>
<path d="M37.669 24.8159H35.9551V26.5174H37.669V24.8159Z" fill="#A9A8AE"/>
<path d="M39.9664 43.7853H26.5471C25.9636 43.7853 25.4896 43.3146 25.4896 42.7354V37.3957C25.4896 36.8165 25.9636 36.3459 26.5471 36.3459H39.9664C40.5499 36.3459 41.0239 36.8165 41.0239 37.3957V42.7354C41.0239 43.3146 40.5499 43.7853 39.9664 43.7853Z" fill="#1CAB36"/>
<path d="M37.7967 38.699H28.6985V41.1788H37.7967V38.699Z" fill="#158028"/>
<path d="M33.1291 33.5767C32.0533 33.9387 30.777 34.2464 29.5554 34.5722C26.4194 35.4049 25.5625 43.0252 25.5625 43.0252C25.5625 43.0252 24.8331 48.1839 23.5751 49.27C23.1922 49.6139 22.6999 50.1026 22.2076 50.6275C21.8794 50.9895 21.533 51.3515 21.2413 51.6955C20.5484 52.4738 20.0197 53.1073 20.0197 53.1073L19.9103 50.9895L19.8191 49.1976L19.181 36.9253C21.4783 32.9251 25.289 29.8298 26.62 29.5945C27.2034 29.4859 28.6256 29.3411 30.0477 29.2144C31.9257 29.0334 33.8037 28.8886 33.8037 28.8886C33.8037 28.8886 34.1319 28.9248 34.533 29.1963C34.9341 29.4859 35.4082 30.029 35.6634 31.0426C35.9734 32.2734 34.8065 32.9975 33.1291 33.5767Z" fill="#FFB580"/>
<path d="M34.5148 29.1783C34.4054 30.0652 33.9313 30.9883 32.4909 31.2779C29.6102 31.8572 29.9931 29.3593 30.0113 29.1964C31.8893 29.0154 33.7672 28.8705 33.7672 28.8705C33.7672 28.8705 34.1137 28.8886 34.5148 29.1783Z" fill="#CD957C"/>
<path d="M13.4924 26.9158C11.8149 27.3683 11.1403 28.0381 10.6845 29.7033C10.5751 30.1196 9.99166 30.1196 9.88226 29.7033C9.42644 28.0381 8.75182 27.3683 7.0744 26.9158C6.65505 26.8072 6.65505 26.228 7.0744 26.1194C8.75182 25.6669 9.42644 24.9971 9.88226 23.3319C9.99166 22.9156 10.5751 22.9156 10.6845 23.3319C11.1403 24.9971 11.8149 25.6669 13.4924 26.1194C13.9117 26.228 13.9117 26.8072 13.4924 26.9158Z" fill="white"/>
<path d="M53.3675 19.5125C52.31 19.8021 51.8724 20.2184 51.5989 21.2683C51.526 21.5217 51.1613 21.5217 51.0884 21.2683C50.7967 20.2184 50.3773 19.784 49.3198 19.5125C49.0645 19.4401 49.0645 19.0781 49.3198 19.0057C50.3773 18.7161 50.8149 18.2998 51.0884 17.2499C51.1613 16.9965 51.526 16.9965 51.5989 17.2499C51.8906 18.2998 52.31 18.7342 53.3675 19.0057C53.6227 19.06 53.6227 19.4401 53.3675 19.5125Z" fill="white"/>
<path d="M35.864 49.9942C34.4236 50.3743 33.8584 50.9535 33.4572 52.3835C33.3661 52.7274 32.8556 52.7274 32.7644 52.3835C32.3815 50.9535 31.798 50.3924 30.3577 49.9942C30.0112 49.9037 30.0112 49.3968 30.3577 49.3063C31.798 48.9262 32.3633 48.347 32.7644 46.9171C32.8556 46.5731 33.3661 46.5731 33.4572 46.9171C33.8401 48.347 34.4236 48.9081 35.864 49.3063C36.2286 49.3968 36.2286 49.8856 35.864 49.9942Z" fill="white"/>
<path d="M58.4544 31.8571C56.394 32.4001 55.5736 33.2146 55.0084 35.2781C54.8807 35.7849 54.1514 35.7849 54.0238 35.2781C53.4768 33.2327 52.6563 32.4182 50.5778 31.8571C50.0673 31.7304 50.0673 31.0063 50.5778 30.8796C52.6381 30.3366 53.4586 29.5221 54.0238 27.4586C54.1514 26.9518 54.8807 26.9518 55.0084 27.4586C55.5553 29.504 56.3758 30.3185 58.4544 30.8796C58.9466 31.0063 58.9466 31.7123 58.4544 31.8571Z" fill="#FF6E75"/>
<path d="M44.5611 59.5872C43.3942 59.8949 42.9201 60.3656 42.6102 61.524C42.5372 61.8136 42.1179 61.8136 42.045 61.524C41.735 60.3656 41.2609 59.8949 40.094 59.5872C39.8023 59.5148 39.8023 59.0985 40.094 59.0261C41.2609 58.7184 41.735 58.2478 42.045 57.0893C42.1179 56.7997 42.5372 56.7997 42.6102 57.0893C42.9201 58.2478 43.3942 58.7184 44.5611 59.0261C44.8528 59.0985 44.8528 59.4967 44.5611 59.5872Z" fill="#FF6E75"/>
<path d="M54.1514 47.822C53.1669 48.0935 52.7657 48.4736 52.5105 49.451C52.4376 49.6864 52.1094 49.6864 52.0364 49.451C51.7629 48.4736 51.3801 48.0754 50.3955 47.822C50.1585 47.7496 50.1585 47.4238 50.3955 47.3514C51.3801 47.0799 51.7812 46.6998 52.0364 45.7223C52.1094 45.487 52.4376 45.487 52.5105 45.7223C52.784 46.6998 53.1669 47.098 54.1514 47.3514C54.3885 47.4238 54.3885 47.7677 54.1514 47.822Z" fill="#2C8BFF"/>
<path d="M9.51753 41.4142C8.53296 41.6857 8.13184 42.0658 7.87658 43.0433C7.80365 43.2786 7.47546 43.2786 7.40253 43.0433C7.12903 42.0658 6.74614 41.6676 5.76157 41.4142C5.52454 41.3418 5.52454 41.016 5.76157 40.9436C6.74614 40.6721 7.14727 40.292 7.40253 39.3145C7.47546 39.0792 7.80365 39.0792 7.87658 39.3145C8.15007 40.292 8.53296 40.6902 9.51753 40.9436C9.77279 40.9979 9.77279 41.3418 9.51753 41.4142Z" fill="#2C8BFF"/>
</svg>
