<svg width="65" height="73" viewBox="0 0 65 73" fill="none" xmlns="http://www.w3.org/2000/svg">
<path d="M31.0644 2.88236C31.9522 2.37255 33.0478 2.37255 33.9356 2.88236L61.0745 18.4663C61.9608 18.9752 62.5 19.9109 62.5 20.9161V52.0839C62.5 53.0891 61.9608 54.0248 61.0745 54.5337L33.9356 70.1177C33.0478 70.6275 31.9522 70.6275 31.0644 70.1176L3.92547 54.5337C3.03916 54.0248 2.5 53.0891 2.5 52.0839V20.9161C2.5 19.9109 3.03917 18.9752 3.92548 18.4663L31.0644 2.88236Z" fill="#FA5C43" stroke="#FF907E" stroke-width="5"/>
<path d="M31.0644 2.88236C31.9522 2.37255 33.0478 2.37255 33.9356 2.88236L61.0745 18.4663C61.9608 18.9752 62.5 19.9109 62.5 20.9161V52.0839C62.5 53.0891 61.9608 54.0248 61.0745 54.5337L33.9356 70.1177C33.0478 70.6275 31.9522 70.6275 31.0644 70.1176L3.92547 54.5337C3.03916 54.0248 2.5 53.0891 2.5 52.0839V20.9161C2.5 19.9109 3.03917 18.9752 3.92548 18.4663L31.0644 2.88236Z" fill="#1CAB36" stroke="#2AC145" stroke-width="5"/>
<g clip-path="url(#clip0_3121_8775)">
<path d="M13.4404 33.2737C14.2607 33.2737 15.0573 33.1815 15.736 32.9224L15.2934 31.483C14.78 31.6672 14.2076 31.7479 13.641 31.7479C12.868 31.7479 12.4018 31.5406 12.2366 30.913H16.391C16.4972 30.6481 16.5917 30.2393 16.5917 29.8996C16.5917 28.3796 15.2934 27.2395 13.3401 27.2395C11.4399 27.2338 10 28.4199 10 30.2508C10 32.1106 11.5815 33.2737 13.4404 33.2737ZM13.3342 28.7193C13.9892 28.7193 14.3433 29.0705 14.479 29.6578H12.1893C12.3546 29.0705 12.7146 28.7193 13.3342 28.7193Z" fill="white"/>
<path d="M20.3449 33.2738C21.1769 33.2738 21.8084 32.888 22.1801 32.4274V33.1241H24.3105V27.3836H22.1801V28.0918C21.8084 27.6369 21.171 27.2339 20.3449 27.2339C18.6158 27.2339 17.288 28.5812 17.288 30.2279C17.288 31.7998 18.6571 33.2738 20.3449 33.2738ZM20.9055 28.9439C21.6077 28.9439 22.1447 29.3873 22.2746 30.0725V30.4352C22.1447 31.1204 21.6077 31.5522 20.9055 31.5522C20.0144 31.5522 19.4892 30.9592 19.4892 30.2164C19.4892 29.4161 19.9672 28.9439 20.9055 28.9439Z" fill="white"/>
<path d="M27.5502 31.7192C27.0722 31.7192 26.2755 31.4889 25.7267 31.1837L25.0835 32.6347C25.8329 33.0435 26.6296 33.2738 27.7626 33.2738C29.2852 33.2738 30.4654 32.888 30.4654 31.437C30.4654 30.4007 29.7159 29.9861 28.6419 29.6349C27.7036 29.324 27.5207 29.2491 27.5207 29.0303C27.5207 28.8576 27.6505 28.777 28.2111 28.777C28.7481 28.777 29.2615 28.9036 29.7691 29.1858L30.4595 27.8269C29.7809 27.4297 29.0786 27.2339 28.0695 27.2339C26.6178 27.2339 25.355 27.6657 25.355 29.0361C25.355 30.0206 26.1398 30.4525 27.0191 30.7576C28.0046 31.0973 28.3056 31.224 28.3056 31.4774C28.2997 31.6386 28.1403 31.7192 27.5502 31.7192Z" fill="white"/>
<path d="M34.738 30.3949L33.1918 27.3835H30.796L33.658 32.4734L31.7402 36.3023H34.0239L38.3318 27.3835H36.048L34.738 30.3949Z" fill="white"/>
<path d="M14.1663 40.9374C13.4168 40.9374 12.6556 41.3231 12.3192 41.7838V41.0871H10.2361V50.0058H12.3664V45.6069C12.6969 46.0848 13.3755 46.4418 14.1663 46.4418C15.8954 46.4418 17.0933 45.3018 17.0933 43.6896C17.0933 42.0429 15.9426 40.9374 14.1663 40.9374ZM13.6175 44.7836C12.9624 44.7836 12.39 44.4438 12.272 43.8566V43.5226C12.39 42.9296 12.9624 42.5841 13.6175 42.5841C14.4141 42.5841 14.8921 42.9699 14.8921 43.6781C14.8921 44.3575 14.3669 44.7836 13.6175 44.7836Z" fill="white"/>
<path d="M22.6876 41.7895C22.3158 41.3347 21.6785 40.9316 20.8523 40.9316C19.1232 40.9316 17.7955 42.279 17.7955 43.9257C17.7955 45.5033 19.1646 46.9715 20.8523 46.9715C21.6844 46.9715 22.3158 46.5858 22.6876 46.1251V46.8218H24.812V41.0813H22.6876V41.7895ZM22.7761 44.1445C22.6463 44.8296 22.1093 45.2615 21.407 45.2615C20.5159 45.2615 19.9907 44.6684 19.9907 43.9257C19.9907 43.1138 20.4687 42.6475 21.407 42.6475C22.1093 42.6475 22.6463 43.0908 22.7761 43.776V44.1445Z" fill="white"/>
<path d="M29.7513 40.9374C29.1553 40.9374 28.3822 41.3807 28.0635 41.922V41.0871H25.9804V46.8276H28.1166V44.6684C28.1166 43.4247 28.571 42.9123 29.2615 42.9123C29.5802 42.9123 29.8221 42.9929 30.0581 43.0965L30.9964 41.2944C30.6188 41.0468 30.2352 40.9374 29.7513 40.9374Z" fill="white"/>
<path d="M34.2126 40.9374C32.3183 40.9374 30.8784 42.1235 30.8784 43.9544C30.8784 45.8142 32.4599 46.983 34.3188 46.983C35.1391 46.983 35.9358 46.8909 36.6144 46.6318L36.1718 45.1924C35.6584 45.3766 35.086 45.4572 34.5195 45.4572C33.7464 45.4572 33.2802 45.2499 33.115 44.6223H37.2635C37.3698 44.3575 37.4642 43.9487 37.4642 43.609C37.4642 42.0774 36.1659 40.9374 34.2126 40.9374ZM33.0619 43.3556C33.2271 42.7741 33.5871 42.4171 34.2067 42.4171C34.8617 42.4171 35.2158 42.7683 35.3515 43.3556H33.0619Z" fill="white"/>
<path d="M42.3209 40.9374C41.4889 40.9374 40.8574 41.3231 40.4739 41.7838V41.0871H38.4025V46.8276H40.5329V43.7644C40.6509 43.0793 41.0581 42.6474 41.6777 42.6474C42.3681 42.6474 42.557 42.9238 42.557 43.7069V46.8218H44.6873V43.7069C44.6814 41.9392 43.9792 40.9374 42.3209 40.9374Z" fill="white"/>
<path d="M48.5586 38.8358H46.4282V41.0813H45.3955V42.7396H46.4282V46.8276H48.5586V42.7396H50.2522V41.0813H48.5586V38.8358Z" fill="white"/>
<path d="M54.1765 43.3326C53.2382 43.0217 53.0553 42.9469 53.0553 42.7281C53.0553 42.5553 53.1851 42.4747 53.7457 42.4747C54.2827 42.4747 54.7961 42.6014 55.3036 42.8835L55.9941 41.5247C55.3154 41.1274 54.6132 40.9316 53.6041 40.9316C52.1524 40.9316 50.8895 41.3635 50.8895 42.7338C50.8895 43.7184 51.6744 44.1502 52.5537 44.4554C53.5392 44.7951 53.8401 44.9218 53.8401 45.1751C53.8401 45.3363 53.6749 45.4169 53.0907 45.4169C52.6127 45.4169 51.816 45.1866 51.2672 44.8815L50.624 46.3324C51.3734 46.7412 52.1701 46.9715 53.3031 46.9715C54.8256 46.9715 56.0059 46.5858 56.0059 45.1348C56 44.0984 55.2505 43.6839 54.1765 43.3326Z" fill="white"/>
<path d="M45.0353 32.6461C46.009 33.2967 47.1775 33.671 48.4108 33.671C48.7885 33.671 49.1721 33.6364 49.5557 33.5616C52.7954 32.9455 54.914 29.8881 54.2825 26.7214C53.7278 23.9346 51.2257 22 48.4167 22C48.0391 22 47.6555 22.0345 47.2719 22.1094C44.0321 22.7255 41.9136 25.7828 42.545 28.9496C42.7575 30.009 43.2532 30.9476 43.9377 31.7018L42.2559 33.2622L45.0353 32.6461ZM44.4865 25.2474C45.1947 24.2225 46.2687 23.5316 47.5079 23.2955C47.8089 23.2379 48.1158 23.2091 48.4167 23.2091C50.6769 23.2091 52.6302 24.781 53.061 26.9517C53.238 27.8269 53.1495 28.7193 52.819 29.5312C52.76 29.1396 52.4178 28.8345 51.9988 28.8345H49.774C49.3137 28.8345 48.9419 29.1972 48.9419 29.6463V32.4273C48.7649 32.4446 48.582 32.4561 48.4049 32.4561C48.3754 32.4561 48.3459 32.4561 48.3164 32.4561V29.4736C48.3164 28.9957 48.6233 28.5869 49.0541 28.4199C48.8357 28.109 48.5407 27.9017 48.0568 27.9017H45.9559C45.112 27.9017 44.4275 28.5696 44.4275 29.393V30.3315C44.1088 29.8536 43.8846 29.3066 43.7666 28.7193C43.5187 27.5044 43.7784 26.2723 44.4865 25.2474Z" fill="white"/>
<path d="M47.0065 27.4525C47.717 27.4525 48.293 26.8906 48.293 26.1973C48.293 25.5041 47.717 24.9421 47.0065 24.9421C46.296 24.9421 45.72 25.5041 45.72 26.1973C45.72 26.8906 46.296 27.4525 47.0065 27.4525Z" fill="white"/>
<path d="M50.8837 28.3218C51.4084 28.3218 51.8338 27.9067 51.8338 27.3948C51.8338 26.8828 51.4084 26.4678 50.8837 26.4678C50.359 26.4678 49.9336 26.8828 49.9336 27.3948C49.9336 27.9067 50.359 28.3218 50.8837 28.3218Z" fill="white"/>
</g>
<defs>
<clipPath id="clip0_3121_8775">
<rect width="46" height="28" fill="white" transform="translate(10 22)"/>
</clipPath>
</defs>
</svg>
