<svg width="65" height="73" viewBox="0 0 65 73" fill="none" xmlns="http://www.w3.org/2000/svg">
<path d="M60.0771 15.0417V57.9403L42.3366 68.1128H22.6452L4.92285 57.9403V15.0417L22.6452 4.88721H42.3366L60.0771 15.0417Z" fill="#3B94E5"/>
<path d="M32.4545 58.3205C49.2004 58.3205 62.7757 54.6575 62.7757 50.139C62.7757 45.6205 49.2004 41.9575 32.4545 41.9575C15.7086 41.9575 2.1333 45.6205 2.1333 50.139C2.1333 54.6575 15.7086 58.3205 32.4545 58.3205Z" fill="#307CC0"/>
<path d="M53.6775 35.8937C53.7139 35.1878 53.0393 34.4818 51.6536 33.9388C48.9552 32.889 44.5793 32.889 41.8808 33.9388C40.5316 34.4637 39.857 35.1516 39.857 35.8394V39.1156C39.857 39.8034 40.5316 40.4913 41.8808 41.0162C44.5793 42.066 48.9552 42.066 51.6536 41.0162C53.0393 40.4732 53.7139 39.7672 53.6775 39.0613V35.8937Z" fill="#C64500"/>
<path d="M53.6775 35.8937C53.7139 35.1878 53.0393 34.4818 51.6536 33.9388C48.9552 32.889 44.5793 32.889 41.8808 33.9388C40.5316 34.4637 39.857 35.1516 39.857 35.8394V39.1156C39.857 39.8034 40.5316 40.4913 41.8808 41.0162C44.5793 42.066 48.9552 42.066 51.6536 41.0162C53.0393 40.4732 53.7139 39.7672 53.6775 39.0613V35.8937Z" fill="#C64500"/>
<path d="M46.7672 41.9032C44.9804 41.9032 43.1936 41.6316 41.8443 41.1067C40.4951 40.5818 39.7658 39.8759 39.7658 39.1157V35.8394C39.7658 35.0792 40.5134 34.3733 41.8443 33.8484C44.561 32.7985 48.9734 32.7985 51.6901 33.8484C53.0758 34.3914 53.8051 35.0973 53.7686 35.8756V39.0613C53.8051 39.8397 53.0575 40.5637 51.6901 41.0886C50.3408 41.6497 48.554 41.9032 46.7672 41.9032ZM46.7672 33.251C45.0169 33.251 43.2483 33.5044 41.9173 34.0294C40.641 34.5181 39.9481 35.1697 39.9481 35.8394V39.1157C39.9481 39.7854 40.641 40.437 41.9173 40.9257C44.5975 41.9575 48.9552 41.9575 51.6354 40.9257C52.9117 40.437 53.641 39.7492 53.6045 39.0613V35.8756C53.641 35.1878 52.9117 34.5181 51.6354 34.0113C50.2861 33.5225 48.5358 33.251 46.7672 33.251Z" fill="black"/>
<path d="M44.1964 38.3373V41.6317C44.1964 41.6317 45.2174 41.8127 46.2202 41.8127V38.3373H44.1964Z" fill="white"/>
<path d="M47.059 38.5363V41.8125C47.059 41.8125 50.8514 41.2876 52.2371 40.7989V37.4865L47.059 38.5363Z" fill="white"/>
<path d="M46.7672 38.5365C50.5836 38.5365 53.6775 37.3371 53.6775 35.8576C53.6775 34.3781 50.5836 33.1787 46.7672 33.1787C42.9508 33.1787 39.857 34.3781 39.857 35.8576C39.857 37.3371 42.9508 38.5365 46.7672 38.5365Z" fill="#FFBB00"/>
<path d="M42.6101 36.0746C42.6101 36.0746 41.2609 33.7578 46.749 33.7578C52.237 33.7578 50.906 36.0746 50.906 36.0746" fill="#E48000"/>
<path d="M50.9061 36.0745C50.9061 36.0745 51.9453 34.0653 46.7125 34.0653C41.6803 34.0653 42.6101 36.0745 42.6101 36.0745L45.5821 37.1605L46.4937 37.3596C46.4937 37.3596 48.5723 37.0881 48.6087 37.0881C48.6452 37.0881 50.0491 36.7442 50.0856 36.6899C50.1221 36.6356 50.9061 36.0745 50.9061 36.0745Z" fill="#8D1500"/>
<path d="M44.9257 34.9344C44.9257 34.9344 46.366 34.2104 47.8064 34.8801L47.6788 34.5181L46.7672 34.2647H45.4362L44.9257 34.5905V34.9344Z" fill="black"/>
<path d="M50.6689 35.8756L49.9761 35.9299L49.6844 35.948C49.6661 36.1109 49.575 36.2557 49.4291 36.4005C49.0645 36.7625 48.2987 37.034 47.3506 37.1064C45.7826 37.2332 44.2692 36.7987 43.9593 36.129L44.5792 36.0747L48.4263 35.7489L49.028 35.6946L49.6479 35.6403L49.9579 35.6222L50.6325 35.5679L50.8877 35.5498C50.8148 35.3326 50.6325 35.1335 50.3772 34.9344C49.812 34.518 48.9186 34.2284 47.8429 34.1017C46.7671 33.975 45.6549 34.0474 44.6886 34.2827C43.7223 34.518 43.0476 34.9163 42.7559 35.3688C42.4642 35.8213 42.6283 36.31 43.1753 36.7263C43.7405 37.1426 44.6339 37.4323 45.7096 37.559C46.0561 37.5952 46.4207 37.6133 46.7854 37.6133C47.5147 37.6133 48.2258 37.5228 48.8639 37.378C49.8302 37.1426 50.5049 36.7625 50.7966 36.2919C50.8877 36.1471 50.9242 36.0023 50.9424 35.8394L50.6689 35.8756ZM45.1444 34.6629C45.345 34.518 45.6914 34.4094 46.0925 34.3732C46.5119 34.337 46.913 34.3913 47.223 34.4818C47.5147 34.5724 47.7152 34.6991 47.7882 34.862C47.8064 34.8982 47.8064 34.9344 47.8064 34.9887C47.8064 35.2783 47.3141 35.5317 46.6213 35.6041C45.9284 35.6584 45.2538 35.4955 44.9986 35.224C44.9621 35.1878 44.9439 35.1516 44.9256 35.1154C44.8709 34.9525 44.9621 34.7896 45.1444 34.6629Z" fill="#FEBB00"/>
<path d="M46.7672 41.9032C44.9804 41.9032 43.1936 41.6316 41.8443 41.1067C40.4951 40.5818 39.7658 39.8759 39.7658 39.1157V35.8394C39.7658 35.0792 40.5134 34.3733 41.8443 33.8484C44.561 32.7985 48.9734 32.7985 51.6901 33.8484C53.0758 34.3914 53.8051 35.0973 53.7686 35.8756V39.0613C53.8051 39.8397 53.0575 40.5637 51.6901 41.0886C50.3408 41.6497 48.554 41.9032 46.7672 41.9032ZM46.7672 33.251C45.0169 33.251 43.2483 33.5044 41.9173 34.0294C40.641 34.5181 39.9481 35.1697 39.9481 35.8394V39.1157C39.9481 39.7854 40.641 40.437 41.9173 40.9257C44.5975 41.9575 48.9552 41.9575 51.6354 40.9257C52.9117 40.437 53.641 39.7492 53.6045 39.0613V35.8756C53.641 35.1878 52.9117 34.5181 51.6354 34.0113C50.2861 33.5225 48.5358 33.251 46.7672 33.251Z" fill="black"/>
<path d="M43.0476 34.2103C43.0476 34.2103 38.4894 37.1607 46.2202 37.7761C46.2202 37.7761 43.3211 38.0476 41.6802 37.3417C40.2945 36.7444 40.2945 35.3144 43.0476 34.2103Z" fill="#FDE251"/>
<path d="M47.5148 33.5587C47.5148 33.5587 51.1249 33.7035 51.3619 35.1154C51.6719 36.9797 49.411 37.74 48.317 37.9391C48.317 37.9391 52.4376 38.2468 52.62 35.5317C52.6382 35.5317 53.0576 33.6492 47.5148 33.5587Z" fill="#FDE251"/>
<path d="M54.7532 31.6036C54.7896 30.8977 54.115 30.1917 52.7293 29.6487C50.0309 28.5989 45.655 28.5989 42.9565 29.6487C41.6073 30.1736 40.9327 30.8615 40.9327 31.5493V34.8255C40.9327 35.5133 41.6073 36.2011 42.9565 36.7261C45.655 37.7759 50.0309 37.7759 52.7293 36.7261C54.115 36.183 54.7896 35.4771 54.7532 34.7712V31.6036Z" fill="#C64500"/>
<path d="M54.7532 31.6036C54.7896 30.8977 54.115 30.1917 52.7293 29.6487C50.0309 28.5989 45.655 28.5989 42.9565 29.6487C41.6073 30.1736 40.9327 30.8615 40.9327 31.5493V34.8255C40.9327 35.5133 41.6073 36.2011 42.9565 36.7261C45.655 37.7759 50.0309 37.7759 52.7293 36.7261C54.115 36.183 54.7896 35.4771 54.7532 34.7712V31.6036Z" fill="#C64500"/>
<path d="M47.8429 37.613C46.0561 37.613 44.2693 37.3415 42.92 36.8166C41.5708 36.2917 40.8415 35.5858 40.8415 34.8255V31.5493C40.8415 30.7891 41.589 30.0832 42.92 29.5583C45.6367 28.5084 50.0491 28.5084 52.7658 29.5583C54.1515 30.1013 54.8808 30.8072 54.8443 31.5855V34.7712C54.8808 35.5496 54.1332 36.2736 52.7658 36.7985C51.3983 37.3596 49.6115 37.613 47.8429 37.613ZM47.8429 28.9609C46.0925 28.9609 44.324 29.2143 42.993 29.7393C41.7167 30.228 41.0238 30.8796 41.0238 31.5493V34.8255C41.0238 35.4953 41.7167 36.1469 42.993 36.6356C45.6732 37.6673 50.0308 37.6673 52.7111 36.6356C53.9874 36.1469 54.7167 35.4591 54.6802 34.7712V31.5855C54.7167 30.8977 53.9874 30.228 52.7111 29.7212C51.3618 29.2324 49.5932 28.9609 47.8429 28.9609Z" fill="black"/>
<path d="M45.2539 34.0473V37.3236C45.2539 37.3236 46.2749 37.5046 47.2778 37.5046V34.0292H45.2539V34.0473Z" fill="white"/>
<path d="M48.1346 34.2466V37.5228C48.1346 37.5228 51.9271 36.9979 53.3128 36.5091V33.1967L48.1346 34.2466Z" fill="white"/>
<path d="M47.8429 34.2464C51.6593 34.2464 54.7532 33.047 54.7532 31.5675C54.7532 30.088 51.6593 28.8886 47.8429 28.8886C44.0265 28.8886 40.9327 30.088 40.9327 31.5675C40.9327 33.047 44.0265 34.2464 47.8429 34.2464Z" fill="#FFBB00"/>
<path d="M43.6675 31.785C43.6675 31.785 42.3183 29.4681 47.8064 29.4681C53.2945 29.4681 51.9635 31.785 51.9635 31.785" fill="#E48000"/>
<path d="M51.9635 31.7847C51.9635 31.7847 53.0028 29.7756 47.77 29.7756C42.7377 29.7756 43.6676 31.7847 43.6676 31.7847L46.6395 32.8708L47.5512 33.0699C47.5512 33.0699 49.6297 32.7984 49.6662 32.7984C49.7026 32.7984 51.1066 32.4545 51.143 32.4002C51.1977 32.3459 51.9635 31.7847 51.9635 31.7847Z" fill="#8D1500"/>
<path d="M46.0013 30.6443C46.0013 30.6443 47.4417 29.9203 48.8821 30.59L48.7545 30.228L47.8428 29.9746H46.5119L46.0013 30.3004V30.6443Z" fill="black"/>
<path d="M51.7266 31.5855L51.0337 31.6398L50.742 31.6579C50.7238 31.8208 50.6326 31.9656 50.4867 32.1104C50.1221 32.4724 49.3563 32.7439 48.4082 32.8163C46.8402 32.943 45.3269 32.5086 45.0169 31.8389L45.6368 31.7846L49.4839 31.4588L50.0856 31.4045L50.7055 31.3502L51.0155 31.3321L51.6901 31.2778L51.9454 31.2597C51.8724 31.0425 51.6901 30.8434 51.4349 30.6443C50.8696 30.2279 49.9762 29.9383 48.9005 29.8116C47.8248 29.6849 46.7126 29.7573 45.7462 29.9926C44.7799 30.2279 44.1053 30.6262 43.8135 31.0787C43.5218 31.5312 43.6859 32.0199 44.2329 32.4362C44.7981 32.8525 45.6915 33.1422 46.7673 33.2689C47.1137 33.3051 47.4783 33.3232 47.843 33.3232C48.5723 33.3232 49.2834 33.2327 49.9215 33.0879C50.8879 32.8525 51.5625 32.4724 51.8542 32.0018C51.9454 31.857 51.9818 31.7122 52.0001 31.5493L51.7266 31.5855ZM46.2203 30.3728C46.4208 30.2279 46.7673 30.1193 47.1684 30.0831C47.5877 30.0469 47.9889 30.1012 48.2988 30.1917C48.5905 30.2823 48.7911 30.409 48.864 30.5719C48.8823 30.6081 48.8823 30.6443 48.8823 30.6986C48.8823 30.9882 48.39 31.2416 47.6971 31.314C47.0043 31.3683 46.3297 31.2054 46.0744 30.9339C46.0379 30.8977 46.0197 30.8615 46.0015 30.8253C45.9468 30.6624 46.0197 30.4995 46.2203 30.3728Z" fill="#FEBB00"/>
<path d="M47.8429 37.613C46.0561 37.613 44.2693 37.3415 42.92 36.8166C41.5708 36.2917 40.8415 35.5858 40.8415 34.8255V31.5493C40.8415 30.7891 41.589 30.0832 42.92 29.5583C45.6367 28.5084 50.0491 28.5084 52.7658 29.5583C54.1515 30.1013 54.8808 30.8072 54.8443 31.5855V34.7712C54.8808 35.5496 54.1332 36.2736 52.7658 36.7985C51.3983 37.3596 49.6115 37.613 47.8429 37.613ZM47.8429 28.9609C46.0925 28.9609 44.324 29.2143 42.993 29.7393C41.7167 30.228 41.0238 30.8796 41.0238 31.5493V34.8255C41.0238 35.4953 41.7167 36.1469 42.993 36.6356C45.6732 37.6673 50.0308 37.6673 52.7111 36.6356C53.9874 36.1469 54.7167 35.4591 54.6802 34.7712V31.5855C54.7167 30.8977 53.9874 30.228 52.7111 29.7212C51.3618 29.2324 49.5932 28.9609 47.8429 28.9609Z" fill="black"/>
<path d="M44.1052 29.9206C44.1052 29.9206 39.547 32.871 47.2777 33.4864C47.2777 33.4864 44.3786 33.7579 42.7377 33.052C41.3702 32.4547 41.3702 31.0247 44.1052 29.9206Z" fill="#FDE251"/>
<path d="M48.5722 29.2686C48.5722 29.2686 52.1823 29.4134 52.4193 30.8253C52.7293 32.6896 50.4684 33.4499 49.3744 33.649C49.3744 33.649 53.4951 33.9567 53.6774 31.2416C53.6956 31.2416 54.1332 29.3591 48.5722 29.2686Z" fill="#FDE251"/>
<path d="M56.5218 26.807C56.5582 26.101 55.8836 25.3951 54.4979 24.8521C51.7995 23.8022 47.4236 23.8022 44.7251 24.8521C43.3759 25.377 42.7013 26.0648 42.7013 26.7526V30.0289C42.7013 30.7167 43.3759 31.4045 44.7251 31.9294C47.4236 32.9793 51.7995 32.9793 54.4979 31.9294C55.8836 31.3864 56.5582 30.6805 56.5218 29.9746V26.807Z" fill="#C64500"/>
<path d="M56.5218 26.807C56.5582 26.101 55.8836 25.3951 54.4979 24.8521C51.7995 23.8022 47.4236 23.8022 44.7251 24.8521C43.3759 25.377 42.7013 26.0648 42.7013 26.7526V30.0289C42.7013 30.7167 43.3759 31.4045 44.7251 31.9294C47.4236 32.9793 51.7995 32.9793 54.4979 31.9294C55.8836 31.3864 56.5582 30.6805 56.5218 29.9746V26.807Z" fill="#C64500"/>
<path d="M49.6116 32.8164C47.8247 32.8164 46.0379 32.5448 44.6887 32.0199C43.3395 31.495 42.6102 30.7891 42.6102 30.0289V26.7526C42.6102 25.9924 43.3577 25.2865 44.6887 24.7616C47.4054 23.7117 51.8177 23.7117 54.5344 24.7616C55.9201 25.3046 56.6494 26.0105 56.613 26.7888V29.9746C56.6494 30.7529 55.9019 31.4769 54.5344 32.0018C53.167 32.5448 51.3984 32.8164 49.6116 32.8164ZM49.6116 24.1642C47.8612 24.1642 46.0926 24.4176 44.7616 24.9426C43.4853 25.4313 42.7925 26.0829 42.7925 26.7526V30.0289C42.7925 30.6986 43.4853 31.3502 44.7616 31.8389C47.4419 32.8707 51.7995 32.8707 54.4797 31.8389C55.756 31.3502 56.4853 30.6624 56.4489 29.9746V26.7888C56.4853 26.101 55.756 25.4313 54.4797 24.9245C53.1305 24.4176 51.3619 24.1642 49.6116 24.1642Z" fill="black"/>
<path d="M47.0406 29.2507V32.5269C47.0406 32.5269 48.0617 32.7079 49.0645 32.7079V29.2326H47.0406V29.2507Z" fill="#EF740D"/>
<path d="M49.9033 29.4319V32.7081C49.9033 32.7081 53.6957 32.1832 55.0814 31.6944V28.382L49.9033 29.4319Z" fill="#EF740D"/>
<path d="M49.6115 29.4317C53.428 29.4317 56.5218 28.2323 56.5218 26.7528C56.5218 25.2733 53.428 24.0739 49.6115 24.0739C45.7951 24.0739 42.7013 25.2733 42.7013 26.7528C42.7013 28.2323 45.7951 29.4317 49.6115 29.4317Z" fill="#FFBB00"/>
<path d="M45.4361 26.9698C45.4361 26.9698 44.0869 24.653 49.575 24.653C55.0631 24.653 53.7321 26.9698 53.7321 26.9698" fill="#E48000"/>
<path d="M53.7322 26.9701C53.7322 26.9701 54.7715 24.9609 49.5386 24.9609C44.5064 24.9609 45.4362 26.9701 45.4362 26.9701L48.4082 28.0561L49.3198 28.2552C49.3198 28.2552 51.3984 27.9837 51.4348 27.9837C51.4713 27.9837 52.8752 27.6398 52.9117 27.5855C52.9664 27.5493 53.7322 26.9701 53.7322 26.9701Z" fill="#8D1500"/>
<path d="M47.77 25.8296C47.77 25.8296 49.2104 25.1056 50.6508 25.7753L50.5232 25.4133L49.6115 25.1599H48.2805L47.77 25.4857V25.8296Z" fill="black"/>
<path d="M53.4951 26.7888L52.8022 26.8431L52.5105 26.8612C52.4923 27.0241 52.4011 27.1689 52.2553 27.3137C51.8906 27.6757 51.1248 27.9472 50.1767 28.0197C48.6087 28.1464 47.0954 27.7119 46.7854 27.0422L47.4053 26.9879L51.2524 26.6621L51.8541 26.6078L52.474 26.5535L52.784 26.5354L53.4586 26.4811L53.7139 26.463C53.641 26.2458 53.4586 26.0467 53.2034 25.8476C52.6381 25.4313 51.7447 25.1416 50.669 25.0149C49.5933 24.8882 48.4811 24.9606 47.5147 25.1959C46.5484 25.4313 45.8738 25.8295 45.582 26.282C45.2903 26.7345 45.4544 27.2232 46.0014 27.6395C46.5666 28.0559 47.46 28.3455 48.5358 28.4722C48.8822 28.5084 49.2468 28.5265 49.6115 28.5265C50.3408 28.5265 51.0519 28.436 51.69 28.2912C52.6564 28.0559 53.331 27.6757 53.6227 27.2051C53.7139 27.0603 53.7503 26.9155 53.7686 26.7526L53.4951 26.7888ZM47.9888 25.558C48.1893 25.4132 48.5358 25.3046 48.9369 25.2684C49.3562 25.2321 49.7574 25.2864 50.0673 25.377C50.359 25.4675 50.5596 25.5942 50.6325 25.7571C50.6508 25.7933 50.6508 25.8295 50.6508 25.8838C50.6508 26.1734 50.1585 26.4268 49.4656 26.4992C48.7728 26.5535 48.0982 26.3906 47.8429 26.1191C47.8064 26.0829 47.7882 26.0467 47.77 26.0105C47.7153 25.8476 47.8064 25.6847 47.9888 25.558Z" fill="#FEBB00"/>
<path d="M49.6116 32.8164C47.8247 32.8164 46.0379 32.5448 44.6887 32.0199C43.3395 31.495 42.6102 30.7891 42.6102 30.0289V26.7526C42.6102 25.9924 43.3577 25.2865 44.6887 24.7616C47.4054 23.7117 51.8177 23.7117 54.5344 24.7616C55.9201 25.3046 56.6494 26.0105 56.613 26.7888V29.9746C56.6494 30.7529 55.9019 31.4769 54.5344 32.0018C53.167 32.5448 51.3984 32.8164 49.6116 32.8164ZM49.6116 24.1642C47.8612 24.1642 46.0926 24.4176 44.7616 24.9426C43.4853 25.4313 42.7925 26.0829 42.7925 26.7526V30.0289C42.7925 30.6986 43.4853 31.3502 44.7616 31.8389C47.4419 32.8707 51.7995 32.8707 54.4797 31.8389C55.756 31.3502 56.4853 30.6624 56.4489 29.9746V26.7888C56.4853 26.101 55.756 25.4313 54.4797 24.9245C53.1305 24.4176 51.3619 24.1642 49.6116 24.1642Z" fill="black"/>
<path d="M45.892 25.1055C45.892 25.1055 41.3338 28.0559 49.0645 28.6713C49.0645 28.6713 46.1655 28.9428 44.5245 28.2369C43.1388 27.6396 43.1388 26.2096 45.892 25.1055Z" fill="#FDE251"/>
<path d="M50.3408 24.4539C50.3408 24.4539 53.9509 24.5987 54.1879 26.0106C54.4979 27.8749 52.237 28.6352 51.1431 28.8343C51.1431 28.8343 55.2637 29.142 55.446 26.4269C55.4642 26.4269 55.9018 24.5444 50.3408 24.4539Z" fill="#FDE251"/>
<path d="M41.2973 33.9567C41.3338 33.2507 40.6592 32.5448 39.2735 32.0018C36.575 30.952 32.1992 30.952 29.5007 32.0018C28.1515 32.5267 27.4769 33.2145 27.4769 33.9024V37.1786C27.4769 37.8664 28.1515 38.5542 29.5007 39.0792C32.1992 40.129 36.575 40.129 39.2735 39.0792C40.6592 38.5361 41.3338 37.8302 41.2973 37.1243V33.9567Z" fill="#C64500"/>
<path d="M41.2973 33.9567C41.3338 33.2507 40.6592 32.5448 39.2735 32.0018C36.575 30.952 32.1992 30.952 29.5007 32.0018C28.1515 32.5267 27.4769 33.2145 27.4769 33.9024V37.1786C27.4769 37.8664 28.1515 38.5542 29.5007 39.0792C32.1992 40.129 36.575 40.129 39.2735 39.0792C40.6592 38.5361 41.3338 37.8302 41.2973 37.1243V33.9567Z" fill="#C64500"/>
<path d="M34.3871 39.9661C32.6003 39.9661 30.8135 39.6946 29.4643 39.1697C28.1151 38.6448 27.3857 37.9389 27.3857 37.1786V33.9024C27.3857 33.1422 28.1333 32.4363 29.4643 31.9113C32.181 30.8615 36.5933 30.8615 39.31 31.9113C40.6957 32.4544 41.425 33.1603 41.3885 33.9386V37.1243C41.425 37.9027 40.6775 38.6267 39.31 39.1516C37.9425 39.6946 36.1557 39.9661 34.3871 39.9661ZM34.3871 31.314C32.6368 31.314 30.8682 31.5674 29.5372 32.0923C28.2609 32.5811 27.5681 33.2327 27.5681 33.9024V37.1786C27.5681 37.8484 28.2609 38.5 29.5372 38.9887C32.2174 40.0204 36.5751 40.0204 39.2553 38.9887C40.5316 38.5 41.2609 37.8122 41.2244 37.1243V33.9386C41.2609 33.2508 40.5316 32.5811 39.2553 32.0742C37.9061 31.5674 36.1375 31.314 34.3871 31.314Z" fill="black"/>
<path d="M31.798 36.4004V39.6766C31.798 39.6766 32.8191 39.8577 33.8219 39.8577V36.3823H31.798V36.4004Z" fill="white"/>
<path d="M34.6788 36.5996V39.8759C34.6788 39.8759 38.4713 39.3509 39.857 38.8622V35.5498L34.6788 36.5996Z" fill="white"/>
<path d="M34.3871 36.5814C38.2035 36.5814 41.2973 35.3821 41.2973 33.9025C41.2973 32.423 38.2035 31.2236 34.3871 31.2236C30.5707 31.2236 27.4769 32.423 27.4769 33.9025C27.4769 35.3821 30.5707 36.5814 34.3871 36.5814Z" fill="#FFBB00"/>
<path d="M30.2118 34.1196C30.2118 34.1196 28.8626 31.8027 34.3506 31.8027C39.8387 31.8027 38.5077 34.1196 38.5077 34.1196" fill="#E48000"/>
<path d="M38.5078 34.1198C38.5078 34.1198 39.547 32.1107 34.3142 32.1107C29.2819 32.1107 30.2118 34.1198 30.2118 34.1198L33.1838 35.2059L34.0954 35.405C34.0954 35.405 36.174 35.1335 36.2104 35.1335C36.2469 35.1335 37.6508 34.7896 37.6873 34.7353C37.742 34.6991 38.5078 34.1198 38.5078 34.1198Z" fill="#8D1500"/>
<path d="M32.5456 32.9974C32.5456 32.9974 33.986 32.2734 35.4264 32.9431L35.2988 32.5811L34.3871 32.3277H33.0561L32.5456 32.6535V32.9974Z" fill="black"/>
<path d="M38.2706 33.9386L37.5778 33.9929L37.2861 34.011C37.2678 34.1739 37.1767 34.3187 37.0308 34.4635C36.6662 34.8255 35.9004 35.097 34.9523 35.1694C33.3843 35.2961 31.8709 34.8617 31.561 34.192L32.1809 34.1377L36.028 33.8119L36.6297 33.7576L37.2496 33.7033L37.5596 33.6852L38.2342 33.6309L38.4894 33.6128C38.4165 33.3956 38.2342 33.1965 37.9789 32.9974C37.4137 32.581 36.5203 32.2914 35.4446 32.1647C34.3688 32.038 33.2566 32.1104 32.2903 32.3457C31.3239 32.581 30.6493 32.9793 30.3576 33.4318C30.0659 33.8843 30.23 34.373 30.777 34.7893C31.3422 35.2056 32.2356 35.4952 33.3113 35.622C33.6577 35.6582 34.0224 35.6763 34.3871 35.6763C35.1164 35.6763 35.8275 35.5858 36.4656 35.4409C37.4319 35.2056 38.1066 34.8255 38.3983 34.3549C38.4894 34.2101 38.5259 34.0653 38.5441 33.9024L38.2706 33.9386ZM32.7643 32.7258C32.9649 32.581 33.3113 32.4724 33.7124 32.4362C34.1318 32.4 34.5329 32.4543 34.8429 32.5448C35.1346 32.6353 35.3352 32.762 35.4081 32.9249C35.4263 32.9611 35.4263 32.9974 35.4263 33.0517C35.4263 33.3413 34.934 33.5947 34.2412 33.6671C33.5483 33.7214 32.8737 33.5585 32.6185 33.287C32.582 33.2508 32.5638 33.2146 32.5455 33.1784C32.4908 33.0155 32.5638 32.8525 32.7643 32.7258Z" fill="#FEBB00"/>
<path d="M34.3871 39.9661C32.6003 39.9661 30.8135 39.6946 29.4643 39.1697C28.1151 38.6448 27.3857 37.9389 27.3857 37.1786V33.9024C27.3857 33.1422 28.1333 32.4363 29.4643 31.9113C32.181 30.8615 36.5933 30.8615 39.31 31.9113C40.6957 32.4544 41.425 33.1603 41.3885 33.9386V37.1243C41.425 37.9027 40.6775 38.6267 39.31 39.1516C37.9425 39.6946 36.1557 39.9661 34.3871 39.9661ZM34.3871 31.314C32.6368 31.314 30.8682 31.5674 29.5372 32.0923C28.2609 32.5811 27.5681 33.2327 27.5681 33.9024V37.1786C27.5681 37.8484 28.2609 38.5 29.5372 38.9887C32.2174 40.0204 36.5751 40.0204 39.2553 38.9887C40.5316 38.5 41.2609 37.8122 41.2244 37.1243V33.9386C41.2609 33.2508 40.5316 32.5811 39.2553 32.0742C37.9061 31.5674 36.1375 31.314 34.3871 31.314Z" fill="black"/>
<path d="M30.6494 32.2552C30.6494 32.2552 26.0911 35.2057 33.8219 35.8211C33.8219 35.8211 30.9228 36.0926 29.2819 35.3867C27.9144 34.7893 27.9144 33.3594 30.6494 32.2552Z" fill="#FDE251"/>
<path d="M35.1165 31.6217C35.1165 31.6217 38.7266 31.7665 38.9636 33.1784C39.2735 35.0427 37.0127 35.803 35.9187 36.0021C35.9187 36.0021 40.0393 36.3098 40.2216 33.5947C40.2399 33.5947 40.6775 31.6941 35.1165 31.6217Z" fill="#FDE251"/>
<path d="M41.9355 29.3774C41.972 28.6715 41.2974 27.9656 39.9117 27.4226C37.2132 26.3727 32.8374 26.3727 30.1389 27.4226C28.7897 27.9475 28.1151 28.6353 28.1151 29.3231V32.5994C28.1151 33.2872 28.7897 33.975 30.1389 34.4999C32.8374 35.5498 37.2132 35.5498 39.9117 34.4999C41.2974 33.9569 41.972 33.251 41.9355 32.5451V29.3774Z" fill="#C64500"/>
<path d="M41.9355 29.3774C41.972 28.6715 41.2974 27.9656 39.9117 27.4226C37.2132 26.3727 32.8374 26.3727 30.1389 27.4226C28.7897 27.9475 28.1151 28.6353 28.1151 29.3231V32.5994C28.1151 33.2872 28.7897 33.975 30.1389 34.4999C32.8374 35.5498 37.2132 35.5498 39.9117 34.4999C41.2974 33.9569 41.972 33.251 41.9355 32.5451V29.3774Z" fill="#C64500"/>
<path d="M35.0253 35.3869C33.2385 35.3869 31.4516 35.1153 30.1024 34.5904C28.7532 34.0655 28.0239 33.3596 28.0239 32.5994V29.3231C28.0239 28.5629 28.7714 27.857 30.1024 27.3321C32.8191 26.2822 37.2314 26.2822 39.9481 27.3321C41.3338 27.8751 42.0631 28.581 42.0267 29.3593V32.5451C42.0631 33.3234 41.3156 34.0474 39.9481 34.5723C38.5807 35.1153 36.7939 35.3869 35.0253 35.3869ZM35.0253 26.7347C33.2749 26.7347 31.5063 26.9881 30.1753 27.5131C28.899 28.0018 28.2062 28.6534 28.2062 29.3231V32.5994C28.2062 33.2691 28.899 33.9207 30.1753 34.4094C32.8556 35.4412 37.2132 35.4412 39.8934 34.4094C41.1697 33.9207 41.899 33.2329 41.8626 32.5451V29.3593C41.899 28.6715 41.1697 28.0018 39.8934 27.495C38.5442 26.9881 36.7756 26.7347 35.0253 26.7347Z" fill="black"/>
<path d="M32.4362 31.8208V35.0971C32.4362 35.0971 33.4572 35.2781 34.46 35.2781V31.8027H32.4362V31.8208Z" fill="#EF740D"/>
<path d="M35.317 32.02V35.2962C35.317 35.2962 39.1094 34.7713 40.4951 34.2826V30.9702L35.317 32.02Z" fill="white"/>
<path d="M35.0253 32.0018C38.8417 32.0018 41.9355 30.8025 41.9355 29.3229C41.9355 27.8434 38.8417 26.644 35.0253 26.644C31.2089 26.644 28.1151 27.8434 28.1151 29.3229C28.1151 30.8025 31.2089 32.0018 35.0253 32.0018Z" fill="#FFBB00"/>
<path d="M30.8499 29.5404C30.8499 29.5404 29.5007 27.2235 34.9887 27.2235C40.4768 27.2235 39.1458 29.5404 39.1458 29.5404" fill="#E48000"/>
<path d="M39.1459 29.5402C39.1459 29.5402 40.1851 27.5311 34.9523 27.5311C29.9201 27.5311 30.8499 29.5402 30.8499 29.5402L33.8219 30.6263L34.7335 30.8254C34.7335 30.8254 36.8121 30.5539 36.8485 30.5539C36.885 30.5539 38.2889 30.21 38.3254 30.1557C38.3801 30.1195 39.1459 29.5402 39.1459 29.5402Z" fill="#8D1500"/>
<path d="M33.1837 28.4182C33.1837 28.4182 34.6241 27.6942 36.0645 28.3639L35.9369 28.0019L35.0252 27.7485H33.6942L33.1837 28.0743V28.4182Z" fill="black"/>
<path d="M38.9088 29.3594L38.216 29.4137L37.9243 29.4318C37.906 29.5947 37.8149 29.7395 37.669 29.8843C37.3043 30.2463 36.5386 30.5178 35.5905 30.5902C34.0224 30.7169 32.5091 30.2825 32.1992 29.6128L32.8191 29.5585L36.6662 29.2327L37.2679 29.1784L37.8878 29.1241L38.1978 29.106L38.8724 29.0517L39.1276 29.0336C39.0547 28.8163 38.8724 28.6172 38.6171 28.4181C38.0519 28.0018 37.1585 27.7122 36.0827 27.5855C35.007 27.4588 33.8948 27.5312 32.9285 27.7665C31.9621 28.0018 31.2875 28.4 30.9958 28.8525C30.7041 29.3051 30.8682 29.7938 31.4151 30.2101C31.9804 30.6264 32.8738 30.916 33.9495 31.0427C34.2959 31.0789 34.6606 31.097 35.0252 31.097C35.7546 31.097 36.4656 31.0065 37.1038 30.8617C38.0701 30.6264 38.7447 30.2463 39.0365 29.7757C39.1276 29.6309 39.1641 29.4861 39.1823 29.3232L38.9088 29.3594ZM33.4025 28.1466C33.6031 28.0018 33.9495 27.8932 34.3506 27.857C34.77 27.8208 35.1711 27.8751 35.4811 27.9656C35.7728 28.0561 35.9733 28.1828 36.0463 28.3457C36.0645 28.3819 36.0645 28.4181 36.0645 28.4724C36.0645 28.762 35.5722 29.0155 34.8794 29.0879C34.1865 29.1422 33.5119 28.9793 33.2567 28.7077C33.2202 28.6715 33.202 28.6353 33.1837 28.5991C33.129 28.4362 33.202 28.2733 33.4025 28.1466Z" fill="#FEBB00"/>
<path d="M35.0253 35.3869C33.2385 35.3869 31.4516 35.1153 30.1024 34.5904C28.7532 34.0655 28.0239 33.3596 28.0239 32.5994V29.3231C28.0239 28.5629 28.7714 27.857 30.1024 27.3321C32.8191 26.2822 37.2314 26.2822 39.9481 27.3321C41.3338 27.8751 42.0631 28.581 42.0267 29.3593V32.5451C42.0631 33.3234 41.3156 34.0474 39.9481 34.5723C38.5807 35.1153 36.7939 35.3869 35.0253 35.3869ZM35.0253 26.7347C33.2749 26.7347 31.5063 26.9881 30.1753 27.5131C28.899 28.0018 28.2062 28.6534 28.2062 29.3231V32.5994C28.2062 33.2691 28.899 33.9207 30.1753 34.4094C32.8556 35.4412 37.2132 35.4412 39.8934 34.4094C41.1697 33.9207 41.899 33.2329 41.8626 32.5451V29.3593C41.899 28.6715 41.1697 28.0018 39.8934 27.495C38.5442 26.9881 36.7756 26.7347 35.0253 26.7347Z" fill="black"/>
<path d="M31.2875 27.676C31.2875 27.676 26.7293 30.6264 34.46 31.2419C34.46 31.2419 31.561 31.5134 29.9201 30.8074C28.5526 30.2101 28.5526 28.7802 31.2875 27.676Z" fill="#FDE251"/>
<path d="M35.7546 27.0425C35.7546 27.0425 39.3647 27.1873 39.6017 28.5991C39.9117 30.4635 37.6508 31.2237 36.5568 31.4228C36.5568 31.4228 40.6774 31.7306 40.8598 29.0155C40.878 29.0155 41.3156 27.1149 35.7546 27.0425Z" fill="#FDE251"/>
<path d="M40.7504 25.0513C40.7869 24.3454 40.1123 23.6395 38.7266 23.0965C36.0281 22.0466 31.6522 22.0466 28.9538 23.0965C27.6045 23.6214 26.9299 24.3092 26.9299 24.997V28.2733C26.9299 28.9611 27.6045 29.6489 28.9538 30.1738C31.6522 31.2237 36.0281 31.2237 38.7266 30.1738C40.1123 29.6308 40.7869 28.9249 40.7504 28.2189V25.0513Z" fill="#C64500"/>
<path d="M40.7504 25.0513C40.7869 24.3454 40.1123 23.6395 38.7266 23.0965C36.0281 22.0466 31.6522 22.0466 28.9538 23.0965C27.6045 23.6214 26.9299 24.3092 26.9299 24.997V28.2733C26.9299 28.9611 27.6045 29.6489 28.9538 30.1738C31.6522 31.2237 36.0281 31.2237 38.7266 30.1738C40.1123 29.6308 40.7869 28.9249 40.7504 28.2189V25.0513Z" fill="#C64500"/>
<path d="M33.8402 31.0607C32.0533 31.0607 30.2665 30.7892 28.9173 30.2643C27.5681 29.7394 26.8387 29.0335 26.8387 28.2732V24.997C26.8387 24.2368 27.5863 23.5309 28.9173 23.0059C31.634 21.9561 36.0463 21.9561 38.763 23.0059C40.1487 23.549 40.878 24.2549 40.8416 25.0332V28.237C40.878 29.0154 40.1305 29.7394 38.763 30.2643C37.3956 30.7892 35.6087 31.0607 33.8402 31.0607ZM33.8402 22.4086C32.0898 22.4086 30.3212 22.662 28.9902 23.187C27.7139 23.6757 27.0211 24.3273 27.0211 24.997V28.2732C27.0211 28.943 27.7139 29.5946 28.9902 30.0833C31.6704 31.115 36.0281 31.115 38.7083 30.0833C39.9846 29.5946 40.7139 28.9068 40.6775 28.2189V25.0332C40.7139 24.3454 39.9846 23.6757 38.7083 23.1689C37.3409 22.662 35.5905 22.4086 33.8402 22.4086Z" fill="black"/>
<path d="M31.251 27.4951V30.7713C31.251 30.7713 32.2721 30.9523 33.2749 30.9523V27.477H31.251V27.4951Z" fill="#EF740D"/>
<path d="M34.1319 27.6939V30.9701C34.1319 30.9701 37.9243 30.4452 39.31 29.9565V26.644L34.1319 27.6939Z" fill="#EF740D"/>
<path d="M33.8219 27.6761C37.6383 27.6761 40.7321 26.4767 40.7321 24.9972C40.7321 23.5177 37.6383 22.3183 33.8219 22.3183C30.0055 22.3183 26.9117 23.5177 26.9117 24.9972C26.9117 26.4767 30.0055 27.6761 33.8219 27.6761Z" fill="#FFBB00"/>
<path d="M29.6648 25.2142C29.6648 25.2142 28.3156 22.8973 33.8036 22.8973C39.2917 22.8973 37.9607 25.2142 37.9607 25.2142" fill="#E48000"/>
<path d="M37.9607 25.2141C37.9607 25.2141 39 23.2049 33.7672 23.2049C28.7349 23.2049 29.6648 25.2141 29.6648 25.2141L32.6368 26.3001L33.5484 26.4992C33.5484 26.4992 35.627 26.2277 35.6634 26.2277C35.6999 26.2277 37.1038 25.8838 37.1403 25.8295C37.195 25.7933 37.9607 25.2141 37.9607 25.2141Z" fill="#8D1500"/>
<path d="M31.9986 24.0921C31.9986 24.0921 33.439 23.3681 34.8794 24.0378L34.7518 23.6758L33.8401 23.4224H32.5091L31.9986 23.7482V24.0921Z" fill="black"/>
<path d="M37.7237 25.0332L37.0309 25.0875L36.7391 25.1056C36.7209 25.2685 36.6297 25.4133 36.4839 25.5581C36.1192 25.9201 35.3534 26.1916 34.4053 26.264C32.8373 26.3907 31.324 25.9563 31.014 25.2866L31.6339 25.2323L35.4811 24.9065L36.0828 24.8522L36.7027 24.7979L37.0126 24.7798L37.6872 24.7255L37.9425 24.7074C37.8696 24.4902 37.6872 24.2911 37.432 24.092C36.8668 23.6756 35.9734 23.386 34.8976 23.2593C33.8219 23.1326 32.7097 23.205 31.7433 23.4403C30.777 23.6756 30.1024 24.0739 29.8107 24.5264C29.5189 24.9789 29.683 25.4676 30.23 25.8839C30.7952 26.3002 31.6886 26.5899 32.7644 26.7166C33.1108 26.7528 33.4755 26.7709 33.8401 26.7709C34.5694 26.7709 35.2805 26.6804 35.9187 26.5355C36.885 26.3002 37.5596 25.9201 37.8513 25.4495C37.9425 25.3047 37.979 25.1599 37.9972 24.997L37.7237 25.0332ZM32.2174 23.8204C32.418 23.6756 32.7644 23.567 33.1655 23.5308C33.5849 23.4946 33.986 23.5489 34.2959 23.6394C34.5877 23.7299 34.7882 23.8566 34.8612 24.0196C34.8794 24.0558 34.8794 24.092 34.8794 24.1463C34.8794 24.4359 34.3871 24.6893 33.6943 24.7617C33.0014 24.816 32.3268 24.6531 32.0715 24.3816C32.0351 24.3454 32.0168 24.3092 31.9986 24.273C31.9439 24.1101 32.0168 23.9472 32.2174 23.8204Z" fill="#FEBB00"/>
<path d="M33.8402 31.0607C32.0533 31.0607 30.2665 30.7892 28.9173 30.2643C27.5681 29.7394 26.8387 29.0335 26.8387 28.2732V24.997C26.8387 24.2368 27.5863 23.5309 28.9173 23.0059C31.634 21.9561 36.0463 21.9561 38.763 23.0059C40.1487 23.549 40.878 24.2549 40.8416 25.0332V28.237C40.878 29.0154 40.1305 29.7394 38.763 30.2643C37.3956 30.7892 35.6087 31.0607 33.8402 31.0607ZM33.8402 22.4086C32.0898 22.4086 30.3212 22.662 28.9902 23.187C27.7139 23.6757 27.0211 24.3273 27.0211 24.997V28.2732C27.0211 28.943 27.7139 29.5946 28.9902 30.0833C31.6704 31.115 36.0281 31.115 38.7083 30.0833C39.9846 29.5946 40.7139 28.9068 40.6775 28.2189V25.0332C40.7139 24.3454 39.9846 23.6757 38.7083 23.1689C37.3409 22.662 35.5905 22.4086 33.8402 22.4086Z" fill="black"/>
<path d="M30.1024 23.3499C30.1024 23.3499 25.5442 26.3003 33.2749 26.9157C33.2749 26.9157 30.3759 27.1872 28.735 26.4813C27.3675 25.8839 27.3675 24.454 30.1024 23.3499Z" fill="#FDE251"/>
<path d="M34.5695 22.7164C34.5695 22.7164 38.1796 22.8612 38.4166 24.273C38.7265 26.1374 36.4657 26.8976 35.3717 27.0967C35.3717 27.0967 39.4923 27.4044 39.6746 24.6893C39.6929 24.6893 40.1305 22.7888 34.5695 22.7164Z" fill="#FDE251"/>
<path d="M42.0266 20.7252C42.0631 20.0192 41.3885 19.3133 40.0028 18.7703C37.3043 17.7205 32.9285 17.7205 30.23 18.7703C28.8808 19.2952 28.2062 19.983 28.2062 20.6709V23.9471C28.2062 24.6349 28.8808 25.3227 30.23 25.8476C32.9285 26.8975 37.3043 26.8975 40.0028 25.8476C41.3885 25.3046 42.0631 24.5987 42.0266 23.8928V20.7252Z" fill="#C64500"/>
<path d="M42.0266 20.7252C42.0631 20.0192 41.3885 19.3133 40.0028 18.7703C37.3043 17.7205 32.9285 17.7205 30.23 18.7703C28.8808 19.2952 28.2062 19.983 28.2062 20.6709V23.9471C28.2062 24.6349 28.8808 25.3227 30.23 25.8476C32.9285 26.8975 37.3043 26.8975 40.0028 25.8476C41.3885 25.3046 42.0631 24.5987 42.0266 23.8928V20.7252Z" fill="#C64500"/>
<path d="M35.1165 26.7346C33.3296 26.7346 31.5428 26.4631 30.1936 25.9382C28.8444 25.4133 28.1151 24.7074 28.1151 23.9471V20.6709C28.1151 19.9107 28.8626 19.2048 30.1936 18.6798C32.9103 17.63 37.3226 17.63 40.0393 18.6798C41.425 19.2229 42.1543 19.9288 42.1179 20.7071V23.8928C42.1543 24.6712 41.4068 25.3952 40.0393 25.9201C38.6901 26.4631 36.9033 26.7346 35.1165 26.7346ZM35.1165 18.0825C33.3661 18.0825 31.5975 18.3359 30.2665 18.8608C28.9902 19.3496 28.2974 20.0012 28.2974 20.6709V23.9471C28.2974 24.6169 28.9902 25.2685 30.2665 25.7572C32.9467 26.7889 37.3044 26.7889 39.9846 25.7572C41.2609 25.2685 41.9902 24.5807 41.9538 23.8928V20.7071C41.9902 20.0193 41.2609 19.3496 39.9846 18.8427C38.6354 18.3359 36.885 18.0825 35.1165 18.0825Z" fill="black"/>
<path d="M32.5456 23.1689V26.4451C32.5456 26.4451 33.5666 26.6261 34.5694 26.6261V23.1689H32.5456Z" fill="#EF740D"/>
<path d="M35.4081 23.3497V26.6259C35.4081 26.6259 39.2006 26.101 40.5863 25.6123V22.2999L35.4081 23.3497Z" fill="#EF740D"/>
<path d="M35.1164 23.3499C38.9328 23.3499 42.0266 22.1505 42.0266 20.671C42.0266 19.1915 38.9328 17.9921 35.1164 17.9921C31.3 17.9921 28.2062 19.1915 28.2062 20.671C28.2062 22.1505 31.3 23.3499 35.1164 23.3499Z" fill="#FFBB00"/>
<path d="M30.9593 20.8881C30.9593 20.8881 29.6101 18.5712 35.0982 18.5712C40.5863 18.5712 39.2553 20.8881 39.2553 20.8881" fill="#E48000"/>
<path d="M39.2552 20.8883C39.2552 20.8883 40.2945 18.8792 35.0616 18.8792C30.0294 18.8792 30.9592 20.8883 30.9592 20.8883L33.9312 21.9744L34.8428 22.1735C34.8428 22.1735 36.9214 21.902 36.9578 21.902C36.9943 21.902 38.3982 21.558 38.4347 21.5037C38.4712 21.4675 39.2552 20.8883 39.2552 20.8883Z" fill="#8D1500"/>
<path d="M33.2932 19.7659C33.2932 19.7659 34.7335 19.0419 36.1739 19.7116L36.0463 19.3496L35.1347 19.0962H33.8037L33.2932 19.422V19.7659Z" fill="black"/>
<path d="M39.0182 20.7071L38.3254 20.7614L38.0336 20.7795C38.0154 20.9424 37.9242 21.0872 37.7784 21.232C37.4137 21.594 36.6479 21.8655 35.6998 21.9379C34.1318 22.0646 32.6185 21.6302 32.3085 20.9605L32.9284 20.9062L36.7756 20.5804L37.3772 20.5261L37.9972 20.4718L38.3071 20.4537L38.9817 20.3994L39.237 20.3813C39.1641 20.1641 38.9817 19.965 38.7265 19.7658C38.1613 19.3495 37.2679 19.0599 36.1921 18.9332C35.1164 18.8065 34.0042 18.8789 33.0378 19.1142C32.0715 19.3495 31.3969 19.7477 31.1052 20.2003C30.8134 20.6528 30.9775 21.1415 31.5245 21.5578C32.0897 21.9741 32.9831 22.2637 34.0589 22.3904C34.4053 22.4266 34.77 22.4447 35.1346 22.4447C35.8639 22.4447 36.575 22.3542 37.2132 22.2094C38.1795 21.9741 38.8541 21.594 39.1458 21.1234C39.237 20.9786 39.2735 20.8338 39.2917 20.6709L39.0182 20.7071ZM33.4937 19.4943C33.6942 19.3495 34.0406 19.2409 34.4418 19.2047C34.8611 19.1685 35.2622 19.2228 35.5722 19.3133C35.8639 19.4038 36.0645 19.5305 36.1374 19.6934C36.1556 19.7296 36.1556 19.7658 36.1556 19.8201C36.1556 20.1098 35.6634 20.3632 34.9705 20.4356C34.2777 20.4899 33.6031 20.327 33.3478 20.0555C33.3113 20.0193 33.2931 19.9831 33.2749 19.9469C33.2384 19.7658 33.3113 19.621 33.4937 19.4943Z" fill="#FEBB00"/>
<path d="M35.1165 26.7346C33.3296 26.7346 31.5428 26.4631 30.1936 25.9382C28.8444 25.4133 28.1151 24.7074 28.1151 23.9471V20.6709C28.1151 19.9107 28.8626 19.2048 30.1936 18.6798C32.9103 17.63 37.3226 17.63 40.0393 18.6798C41.425 19.2229 42.1543 19.9288 42.1179 20.7071V23.8928C42.1543 24.6712 41.4068 25.3952 40.0393 25.9201C38.6901 26.4631 36.9033 26.7346 35.1165 26.7346ZM35.1165 18.0825C33.3661 18.0825 31.5975 18.3359 30.2665 18.8608C28.9902 19.3496 28.2974 20.0012 28.2974 20.6709V23.9471C28.2974 24.6169 28.9902 25.2685 30.2665 25.7572C32.9467 26.7889 37.3044 26.7889 39.9846 25.7572C41.2609 25.2685 41.9902 24.5807 41.9538 23.8928V20.7071C41.9902 20.0193 41.2609 19.3496 39.9846 18.8427C38.6354 18.3359 36.885 18.0825 35.1165 18.0825Z" fill="black"/>
<path d="M31.3969 19.0237C31.3969 19.0237 26.8387 21.9742 34.5694 22.5896C34.5694 22.5896 31.6704 22.8611 30.0294 22.1552C28.6437 21.5578 28.662 20.1279 31.3969 19.0237Z" fill="#FDE251"/>
<path d="M35.864 18.3722C35.864 18.3722 39.4741 18.517 39.7111 19.9289C40.021 21.7932 37.7602 22.5535 36.6662 22.7526C36.6662 22.7526 40.7868 23.0603 40.9692 20.3452C40.9874 20.3633 41.425 18.4627 35.864 18.3722Z" fill="#FDE251"/>
<path d="M43.6494 16.1459C43.6859 15.44 43.0112 14.7341 41.6256 14.1911C38.9271 13.1412 34.5512 13.1412 31.8528 14.1911C30.5035 14.716 29.8289 15.4038 29.8289 16.0916V19.3679C29.8289 20.0557 30.5035 20.7435 31.8528 21.2684C34.5512 22.3183 38.9271 22.3183 41.6256 21.2684C43.0112 20.7254 43.6859 20.0195 43.6494 19.3135V16.1459Z" fill="#C64500"/>
<path d="M43.6494 16.1459C43.6859 15.44 43.0112 14.7341 41.6256 14.1911C38.9271 13.1412 34.5512 13.1412 31.8528 14.1911C30.5035 14.716 29.8289 15.4038 29.8289 16.0916V19.3679C29.8289 20.0557 30.5035 20.7435 31.8528 21.2684C34.5512 22.3183 38.9271 22.3183 41.6256 21.2684C43.0112 20.7254 43.6859 20.0195 43.6494 19.3135V16.1459Z" fill="#C64500"/>
<path d="M36.7209 22.1554C34.9341 22.1554 33.1472 21.8839 31.798 21.359C30.4488 20.8341 29.7195 20.1281 29.7195 19.3679V16.0917C29.7195 15.3315 30.467 14.6255 31.798 14.1006C34.5147 13.0508 38.9271 13.0508 41.6437 14.1006C43.0294 14.6436 43.7587 15.3496 43.7223 16.1279V19.3136C43.7587 20.0919 43.0112 20.816 41.6437 21.3409C40.2945 21.8839 38.5077 22.1554 36.7209 22.1554ZM36.7209 13.5033C34.9523 13.5033 33.2019 13.7567 31.871 14.2816C30.5947 14.7703 29.9018 15.422 29.9018 16.0917V19.3679C29.9018 20.0376 30.5947 20.6893 31.871 21.178C34.5512 22.2097 38.9088 22.2097 41.589 21.178C42.8653 20.6893 43.5947 20.0014 43.5582 19.3136V16.1279C43.5947 15.4401 42.8653 14.7703 41.589 14.2635C40.2398 13.7567 38.4895 13.5033 36.7209 13.5033Z" fill="black"/>
<path d="M34.15 18.5893V21.8655C34.15 21.8655 35.1711 22.0466 36.1739 22.0466V18.5712H34.15V18.5893Z" fill="#EF740D"/>
<path d="M37.0126 18.7704V22.0466C37.0126 22.0466 40.8051 21.5217 42.1908 21.033V17.7386L37.0126 18.7704Z" fill="#EF740D"/>
<path d="M36.7209 18.7703C40.5373 18.7703 43.6311 17.571 43.6311 16.0914C43.6311 14.6119 40.5373 13.4125 36.7209 13.4125C32.9045 13.4125 29.8107 14.6119 29.8107 16.0914C29.8107 17.571 32.9045 18.7703 36.7209 18.7703Z" fill="#FFBB00"/>
<path d="M32.5638 16.3089C32.5638 16.3089 31.2145 13.992 36.7026 13.992C42.1907 13.992 40.8597 16.3089 40.8597 16.3089" fill="#E48000"/>
<path d="M40.8597 16.3087C40.8597 16.3087 41.899 14.2995 36.6662 14.2995C31.6339 14.2995 32.5638 16.3087 32.5638 16.3087L35.5358 17.3947L36.4474 17.5938C36.4474 17.5938 38.5259 17.3223 38.5624 17.3223C38.5989 17.3223 40.0028 16.9784 40.0393 16.9241C40.0757 16.8698 40.8597 16.3087 40.8597 16.3087Z" fill="#8D1500"/>
<path d="M34.8976 15.1863C34.8976 15.1863 36.338 14.4623 37.7784 15.132L37.6507 14.77L36.7391 14.5166H35.4081L34.8976 14.8424V15.1863Z" fill="black"/>
<path d="M40.6227 16.1279L39.9299 16.1822L39.6381 16.2003C39.6199 16.3632 39.5287 16.508 39.3829 16.6528C39.0182 17.0148 38.2524 17.2863 37.3043 17.3587C35.7363 17.4854 34.223 17.051 33.913 16.3813L34.5329 16.327L38.3801 16.0012L38.9817 15.9468L39.6017 15.8925L39.9116 15.8744L40.5862 15.8201L40.8415 15.802C40.7686 15.5848 40.5862 15.3857 40.331 15.1866C39.7658 14.7703 38.8724 14.4807 37.7966 14.354C36.7209 14.2273 35.6087 14.2997 34.6423 14.535C33.676 14.7703 33.0014 15.1685 32.7097 15.621C32.4179 16.0736 32.582 16.5623 33.129 16.9786C33.6942 17.3949 34.5876 17.6845 35.6634 17.8112C36.0098 17.8474 36.3745 17.8655 36.7391 17.8655C37.4684 17.8655 38.1795 17.775 38.8177 17.6302C39.784 17.3949 40.4586 17.0148 40.7503 16.5442C40.8415 16.3994 40.878 16.2546 40.8962 16.0917L40.6227 16.1279ZM35.0982 14.9151C35.2987 14.7703 35.6451 14.6617 36.0463 14.6255C36.4656 14.5893 36.8667 14.6436 37.1767 14.7341C37.4684 14.8246 37.669 14.9513 37.7419 15.1142C37.7601 15.1504 37.7601 15.1866 37.7601 15.2409C37.7601 15.5305 37.2679 15.7839 36.575 15.8563C35.8822 15.9106 35.2076 15.7477 34.9523 15.4762C34.9158 15.44 34.8976 15.4038 34.8794 15.3676C34.8429 15.1866 34.9158 15.0418 35.0982 14.9151Z" fill="#FEBB00"/>
<path d="M36.7209 22.1554C34.9341 22.1554 33.1472 21.8839 31.798 21.359C30.4488 20.8341 29.7195 20.1281 29.7195 19.3679V16.0917C29.7195 15.3315 30.467 14.6255 31.798 14.1006C34.5147 13.0508 38.9271 13.0508 41.6437 14.1006C43.0294 14.6436 43.7587 15.3496 43.7223 16.1279V19.3136C43.7587 20.0919 43.0112 20.816 41.6437 21.3409C40.2945 21.8839 38.5077 22.1554 36.7209 22.1554ZM36.7209 13.5033C34.9523 13.5033 33.2019 13.7567 31.871 14.2816C30.5947 14.7703 29.9018 15.422 29.9018 16.0917V19.3679C29.9018 20.0376 30.5947 20.6893 31.871 21.178C34.5512 22.2097 38.9088 22.2097 41.589 21.178C42.8653 20.6893 43.5947 20.0014 43.5582 19.3136V16.1279C43.5947 15.4401 42.8653 14.7703 41.589 14.2635C40.2398 13.7567 38.4895 13.5033 36.7209 13.5033Z" fill="black"/>
<path d="M33.0014 14.4445C33.0014 14.4445 28.4432 17.3949 36.1739 18.0104C36.1739 18.0104 33.2749 18.2819 31.6339 17.5759C30.2482 16.9786 30.2664 15.5487 33.0014 14.4445Z" fill="#FDE251"/>
<path d="M37.4684 13.7925C37.4684 13.7925 41.0785 13.9373 41.3156 15.3492C41.6255 17.2136 39.3647 17.9738 38.2707 18.1729C38.2707 18.1729 42.3913 18.4806 42.5736 15.7655C42.5919 15.7836 43.0295 13.883 37.4684 13.7925Z" fill="#FDE251"/>
<path d="M40.5498 39.3148C40.5863 38.6089 39.9117 37.903 38.526 37.3599C35.8275 36.3101 31.4517 36.3101 28.7532 37.3599C27.404 37.8849 26.7294 38.5727 26.7294 39.2605V42.5367C26.7294 43.2246 27.404 43.9124 28.7532 44.4373C31.4517 45.4871 35.8275 45.4871 38.526 44.4373C39.9117 43.8943 40.5863 43.1884 40.5498 42.4824V39.3148Z" fill="#C64500"/>
<path d="M40.5498 39.3148C40.5863 38.6089 39.9117 37.903 38.526 37.3599C35.8275 36.3101 31.4517 36.3101 28.7532 37.3599C27.404 37.8849 26.7294 38.5727 26.7294 39.2605V42.5367C26.7294 43.2246 27.404 43.9124 28.7532 44.4373C31.4517 45.4871 35.8275 45.4871 38.526 44.4373C39.9117 43.8943 40.5863 43.1884 40.5498 42.4824V39.3148Z" fill="#C64500"/>
<path d="M33.6396 45.3058C31.8528 45.3058 30.066 45.0343 28.7167 44.5094C27.3675 43.9845 26.6382 43.2785 26.6382 42.5183V39.2421C26.6382 38.4818 27.3857 37.7759 28.7167 37.251C31.4334 36.2012 35.8458 36.2012 38.5624 37.251C39.9481 37.794 40.6774 38.4999 40.641 39.2783V42.464C40.6774 43.2423 39.9299 43.9664 38.5624 44.4913C37.2132 45.0524 35.4264 45.3058 33.6396 45.3058ZM33.6396 36.6718C31.8892 36.6718 30.1206 36.9252 28.7897 37.4501C27.5134 37.9388 26.8205 38.5905 26.8205 39.2602V42.5364C26.8205 43.2061 27.5134 43.8578 28.7897 44.3465C31.4699 45.3782 35.8275 45.3782 38.5077 44.3465C39.784 43.8578 40.5134 43.1699 40.4769 42.4821V39.2964C40.5134 38.6086 39.784 37.9388 38.5077 37.432C37.1585 36.9252 35.3899 36.6718 33.6396 36.6718Z" fill="black"/>
<path d="M31.0687 41.7582V45.0344C31.0687 45.0344 32.0898 45.2154 33.0926 45.2154V41.7401H31.0687V41.7582Z" fill="white"/>
<path d="M33.9313 41.9393V45.2155C33.9313 45.2155 37.7237 44.6906 39.1094 44.2018V40.9075L33.9313 41.9393Z" fill="white"/>
<path d="M33.6396 41.9392C37.456 41.9392 40.5498 40.7398 40.5498 39.2603C40.5498 37.7807 37.456 36.5814 33.6396 36.5814C29.8232 36.5814 26.7294 37.7807 26.7294 39.2603C26.7294 40.7398 29.8232 41.9392 33.6396 41.9392Z" fill="#FFBB00"/>
<path d="M29.4825 39.4777C29.4825 39.4777 28.1332 37.1608 33.6213 37.1608C39.1094 37.1608 37.7784 39.4777 37.7784 39.4777" fill="#E48000"/>
<path d="M37.7602 39.4776C37.7602 39.4776 38.7995 37.4684 33.5666 37.4684C28.5344 37.4684 29.4643 39.4776 29.4643 39.4776L32.4362 40.5636L33.3478 40.7627C33.3478 40.7627 35.4264 40.4912 35.4629 40.4912C35.4993 40.4912 36.9032 40.1473 36.9397 40.093C36.9944 40.0568 37.7602 39.4776 37.7602 39.4776Z" fill="#8D1500"/>
<path d="M31.798 38.3371C31.798 38.3371 33.2384 37.6131 34.6788 38.2828L34.5512 37.9208L33.6395 37.6674H32.3086L31.798 37.9932V38.3371Z" fill="black"/>
<path d="M37.5413 39.2967L36.8485 39.351L36.5568 39.3691C36.5385 39.532 36.4474 39.6768 36.3015 39.8216C35.9369 40.1836 35.1711 40.4551 34.223 40.5275C32.6549 40.6542 31.1416 40.2198 30.8317 39.5501L31.4516 39.4958L35.2987 39.17L35.9004 39.1157L36.5203 39.0614L36.8303 39.0433L37.5049 38.989L37.7601 38.9709C37.6872 38.7537 37.5049 38.5545 37.2496 38.3554C36.6844 37.9391 35.791 37.6495 34.7153 37.5228C33.6395 37.3961 32.5273 37.4685 31.561 37.7038C30.5946 37.9391 29.92 38.3373 29.6283 38.7899C29.3366 39.2424 29.5007 39.7311 30.0476 40.1474C30.6129 40.5637 31.5063 40.8533 32.582 40.98C32.9284 41.0162 33.2931 41.0343 33.6577 41.0343C34.3871 41.0343 35.0981 40.9438 35.7363 40.799C36.7026 40.5637 37.3772 40.1836 37.669 39.713C37.7601 39.5682 37.7966 39.4234 37.8148 39.2605L37.5413 39.2967ZM32.0168 38.0658C32.2174 37.921 32.5638 37.8124 32.9649 37.7762C33.3843 37.74 33.7854 37.7943 34.0953 37.8848C34.3871 37.9753 34.5876 38.102 34.6606 38.2649C34.6788 38.3011 34.6788 38.3373 34.6788 38.3916C34.6788 38.6813 34.1865 38.9347 33.4937 39.0071C32.8008 39.0614 32.1262 38.8985 31.8709 38.6269C31.8345 38.5907 31.8162 38.5545 31.798 38.5183C31.7433 38.3554 31.8345 38.1925 32.0168 38.0658Z" fill="#FEBB00"/>
<path d="M33.6396 45.3058C31.8528 45.3058 30.066 45.0343 28.7167 44.5094C27.3675 43.9845 26.6382 43.2785 26.6382 42.5183V39.2421C26.6382 38.4818 27.3857 37.7759 28.7167 37.251C31.4334 36.2012 35.8458 36.2012 38.5624 37.251C39.9481 37.794 40.6774 38.4999 40.641 39.2783V42.464C40.6774 43.2423 39.9299 43.9664 38.5624 44.4913C37.2132 45.0524 35.4264 45.3058 33.6396 45.3058ZM33.6396 36.6718C31.8892 36.6718 30.1206 36.9252 28.7897 37.4501C27.5134 37.9388 26.8205 38.5905 26.8205 39.2602V42.5364C26.8205 43.2061 27.5134 43.8578 28.7897 44.3465C31.4699 45.3782 35.8275 45.3782 38.5077 44.3465C39.784 43.8578 40.5134 43.1699 40.4769 42.4821V39.2964C40.5134 38.6086 39.784 37.9388 38.5077 37.432C37.1585 36.9252 35.3899 36.6718 33.6396 36.6718Z" fill="black"/>
<path d="M29.92 37.6133C29.92 37.6133 25.3618 40.5638 33.0925 41.1792C33.0925 41.1792 30.1935 41.4507 28.5526 40.7448C27.1669 40.1474 27.1669 38.7175 29.92 37.6133Z" fill="#FDE251"/>
<path d="M34.3871 36.9614C34.3871 36.9614 37.9972 37.1062 38.2343 38.5181C38.5442 40.3824 36.2834 41.1427 35.1894 41.3418C35.1894 41.3418 39.31 41.6495 39.4923 38.9344C39.4923 38.9344 39.9299 37.0519 34.3871 36.9614Z" fill="#FDE251"/>
<path d="M60.8977 37.8303C60.9341 37.1244 60.2595 36.4185 58.8738 35.8755C56.1754 34.8256 51.7995 34.8256 49.101 35.8755C47.7518 36.4004 47.0772 37.0882 47.0772 37.776V41.0522C47.0772 41.7401 47.7518 42.4279 49.101 42.9528C51.7995 44.0027 56.1754 44.0027 58.8738 42.9528C60.2595 42.4098 60.9341 41.7039 60.8977 40.9979V37.8303Z" fill="#C64500"/>
<path d="M60.8977 37.8303C60.9341 37.1244 60.2595 36.4185 58.8738 35.8755C56.1754 34.8256 51.7995 34.8256 49.101 35.8755C47.7518 36.4004 47.0772 37.0882 47.0772 37.776V41.0522C47.0772 41.7401 47.7518 42.4279 49.101 42.9528C51.7995 44.0027 56.1754 44.0027 58.8738 42.9528C60.2595 42.4098 60.9341 41.7039 60.8977 40.9979V37.8303Z" fill="#C64500"/>
<path d="M53.9874 43.8397C52.2006 43.8397 50.4138 43.5682 49.0646 43.0433C47.7153 42.5184 46.986 41.8125 46.986 41.0522V37.776C46.986 37.0158 47.7336 36.3099 49.0646 35.7849C51.7813 34.7351 56.1936 34.7351 58.9103 35.7849C60.296 36.328 61.0253 37.0339 60.9888 37.8122V40.9979C61.0253 41.7762 60.2778 42.5003 58.9103 43.0252C57.5611 43.5863 55.7742 43.8397 53.9874 43.8397ZM53.9874 35.1876C52.2371 35.1876 50.4685 35.441 49.1375 35.9659C47.8612 36.4547 47.1684 37.1063 47.1684 37.776V41.0522C47.1684 41.7219 47.8612 42.3736 49.1375 42.8623C51.8177 43.894 56.1754 43.894 58.8556 42.8623C60.1319 42.3736 60.8612 41.6857 60.8247 40.9979V37.8122C60.8612 37.1244 60.1319 36.4547 58.8556 35.9478C57.5064 35.4591 55.7378 35.1876 53.9874 35.1876Z" fill="black"/>
<path d="M51.4166 40.2741V43.5503C51.4166 43.5503 52.4376 43.7313 53.4404 43.7313V40.256H51.4166V40.2741Z" fill="white"/>
<path d="M54.2792 40.4732V43.7495C54.2792 43.7495 58.0716 43.2245 59.4573 42.7358V39.4234L54.2792 40.4732Z" fill="white"/>
<path d="M53.9874 40.4731C57.8039 40.4731 60.8977 39.2737 60.8977 37.7942C60.8977 36.3147 57.8039 35.1153 53.9874 35.1153C50.171 35.1153 47.0772 36.3147 47.0772 37.7942C47.0772 39.2737 50.171 40.4731 53.9874 40.4731Z" fill="#FFBB00"/>
<path d="M49.8303 38.0112C49.8303 38.0112 48.4811 35.6943 53.9692 35.6943C59.4572 35.6943 58.1262 38.0112 58.1262 38.0112" fill="#E48000"/>
<path d="M58.108 38.0115C58.108 38.0115 59.1473 36.0023 53.9145 36.0023C48.8822 36.0023 49.8121 38.0115 49.8121 38.0115L52.784 39.0975L53.6957 39.2966C53.6957 39.2966 55.7742 39.0251 55.8107 39.0251C55.8472 39.0251 57.2511 38.6812 57.2875 38.6269C57.3422 38.5726 58.108 38.0115 58.108 38.0115Z" fill="#8D1500"/>
<path d="M52.1459 36.8711C52.1459 36.8711 53.5863 36.1471 55.0267 36.8168L54.899 36.4548L53.9874 36.2014H52.6564L52.1459 36.5272V36.8711Z" fill="black"/>
<path d="M57.8892 37.8122L57.1963 37.8665L56.9046 37.8846C56.8864 38.0476 56.7952 38.1924 56.6493 38.3372C56.2847 38.6992 55.5189 38.9707 54.5708 39.0431C53.0028 39.1698 51.4895 38.7354 51.1795 38.0657L51.7994 38.0113L55.6465 37.6855L56.2482 37.6312L56.8681 37.5769L57.1781 37.5588L57.8527 37.5045L58.108 37.4864C58.035 37.2692 57.8527 37.0701 57.5974 36.871C57.0322 36.4547 56.1388 36.1651 55.0631 36.0384C53.9874 35.9117 52.8752 35.9841 51.9088 36.2194C50.9425 36.4547 50.2679 36.8529 49.9761 37.3054C49.6844 37.7579 49.8485 38.2467 50.3955 38.663C50.9607 39.0793 51.8541 39.3689 52.9298 39.4956C53.2763 39.5318 53.6409 39.5499 54.0056 39.5499C54.7349 39.5499 55.446 39.4594 56.0841 39.3146C57.0505 39.0793 57.7251 38.6992 58.0168 38.2286C58.108 38.0838 58.1444 37.9389 58.1627 37.776L57.8892 37.8122ZM52.3646 36.5995C52.5652 36.4547 52.9116 36.3461 53.3127 36.3099C53.7321 36.2737 54.1332 36.328 54.4432 36.4185C54.7349 36.509 54.9355 36.6357 55.0084 36.7986C55.0266 36.8348 55.0266 36.871 55.0266 36.9253C55.0266 37.2149 54.5343 37.4683 53.8415 37.5407C53.1486 37.595 52.474 37.4321 52.2188 37.1606C52.1823 37.1244 52.1641 37.0882 52.1458 37.052C52.0911 36.8891 52.1823 36.7262 52.3646 36.5995Z" fill="#FEBB00"/>
<path d="M53.9874 43.8397C52.2006 43.8397 50.4138 43.5682 49.0646 43.0433C47.7153 42.5184 46.986 41.8125 46.986 41.0522V37.776C46.986 37.0158 47.7336 36.3099 49.0646 35.7849C51.7813 34.7351 56.1936 34.7351 58.9103 35.7849C60.296 36.328 61.0253 37.0339 60.9888 37.8122V40.9979C61.0253 41.7762 60.2778 42.5003 58.9103 43.0252C57.5611 43.5863 55.7742 43.8397 53.9874 43.8397ZM53.9874 35.1876C52.2371 35.1876 50.4685 35.441 49.1375 35.9659C47.8612 36.4547 47.1684 37.1063 47.1684 37.776V41.0522C47.1684 41.7219 47.8612 42.3736 49.1375 42.8623C51.8177 43.894 56.1754 43.894 58.8556 42.8623C60.1319 42.3736 60.8612 41.6857 60.8247 40.9979V37.8122C60.8612 37.1244 60.1319 36.4547 58.8556 35.9478C57.5064 35.4591 55.7378 35.1876 53.9874 35.1876Z" fill="black"/>
<path d="M50.2679 36.1469C50.2679 36.1469 45.7097 39.0973 53.4404 39.7127C53.4404 39.7127 50.5414 39.9842 48.9005 39.2783C47.5148 38.6809 47.5148 37.251 50.2679 36.1469Z" fill="#FDE251"/>
<path d="M54.735 35.4954C54.735 35.4954 58.3451 35.6402 58.5821 37.052C58.8921 38.9164 56.6312 39.6766 55.5372 39.8757C55.5372 39.8757 59.6579 40.1834 59.8402 37.4683C59.8402 37.4683 60.2778 35.5859 54.735 35.4954Z" fill="#FDE251"/>
<path d="M47.46 40.7809C47.4965 40.075 46.8218 39.369 45.4362 38.826C42.7377 37.7762 38.3618 37.7762 35.6634 38.826C34.3141 39.3509 33.6395 40.0388 33.6395 40.7266V44.0028C33.6395 44.6906 34.3141 45.3785 35.6634 45.9034C38.3618 46.9532 42.7377 46.9532 45.4362 45.9034C46.8218 45.3604 47.4965 44.6544 47.46 43.9485V40.7809Z" fill="#C64500"/>
<path d="M47.46 40.7809C47.4965 40.075 46.8218 39.369 45.4362 38.826C42.7377 37.7762 38.3618 37.7762 35.6634 38.826C34.3141 39.3509 33.6395 40.0388 33.6395 40.7266V44.0028C33.6395 44.6906 34.3141 45.3785 35.6634 45.9034C38.3618 46.9532 42.7377 46.9532 45.4362 45.9034C46.8218 45.3604 47.4965 44.6544 47.46 43.9485V40.7809Z" fill="#C64500"/>
<path d="M40.5498 46.7903C38.763 46.7903 36.9762 46.5188 35.6269 45.9939C34.2777 45.469 33.5484 44.763 33.5484 44.0028V40.7266C33.5484 39.9663 34.2959 39.2604 35.6269 38.7355C38.3436 37.6857 42.756 37.6857 45.4727 38.7355C46.8584 39.2785 47.5877 39.9844 47.5512 40.7628V43.9485C47.5877 44.7268 46.8401 45.4508 45.4727 45.9758C44.1234 46.5188 42.3366 46.7903 40.5498 46.7903ZM40.5498 38.1382C38.7812 38.1382 37.0309 38.3916 35.6999 38.9165C34.4236 39.4052 33.7307 40.0568 33.7307 40.7266V44.0028C33.7307 44.6725 34.4236 45.3241 35.6999 45.8129C38.3801 46.8446 42.7377 46.8446 45.418 45.8129C46.6943 45.3241 47.4236 44.6363 47.3871 43.9485V40.7628C47.4236 40.0749 46.6943 39.4052 45.418 38.8984C44.0687 38.3916 42.3184 38.1382 40.5498 38.1382Z" fill="black"/>
<path d="M37.9789 43.2242V46.5005C37.9789 46.5005 39 46.6815 40.0028 46.6815V43.2061H37.9789V43.2242Z" fill="#EF740D"/>
<path d="M40.8415 43.4234V46.6997C40.8415 46.6997 44.6339 46.1747 46.0196 45.686V42.3736L40.8415 43.4234Z" fill="#EF740D"/>
<path d="M40.5498 43.4052C44.3662 43.4052 47.46 42.2058 47.46 40.7263C47.46 39.2468 44.3662 38.0474 40.5498 38.0474C36.7333 38.0474 33.6395 39.2468 33.6395 40.7263C33.6395 42.2058 36.7333 43.4052 40.5498 43.4052Z" fill="#FFBB00"/>
<path d="M36.3927 40.9438C36.3927 40.9438 35.0435 38.6269 40.5315 38.6269C46.0196 38.6269 44.6886 40.9438 44.6886 40.9438" fill="#E48000"/>
<path d="M44.6886 40.9436C44.6886 40.9436 45.7279 38.9344 40.4951 38.9344C35.4628 38.9344 36.3927 40.9436 36.3927 40.9436L39.3647 42.0297L40.2763 42.2288C40.2763 42.2288 42.3548 41.9573 42.3913 41.9573C42.4278 41.9573 43.8317 41.6133 43.8682 41.559C43.9046 41.5228 44.6886 40.9436 44.6886 40.9436Z" fill="#8D1500"/>
<path d="M38.7265 39.8216C38.7265 39.8216 40.1669 39.0976 41.6073 39.7673L41.4796 39.4053L40.568 39.1519H39.237L38.7265 39.4777V39.8216Z" fill="black"/>
<path d="M44.4515 40.7627L43.7587 40.817L43.467 40.8351C43.4487 40.9981 43.3576 41.1429 43.2117 41.2877C42.8471 41.6497 42.0813 41.9212 41.1332 41.9936C39.5652 42.1203 38.0518 41.6859 37.7419 41.0162L38.3618 40.9619L42.2089 40.636L42.8106 40.5817L43.4305 40.5274L43.7405 40.5093L44.4151 40.455L44.6703 40.4369C44.5974 40.2197 44.4151 40.0206 44.1598 39.8215C43.5946 39.4052 42.7012 39.1156 41.6255 38.9889C40.5497 38.8622 39.4375 38.9346 38.4712 39.1699C37.5048 39.4052 36.8302 39.8034 36.5385 40.2559C36.2468 40.7084 36.4109 41.1972 36.9579 41.6135C37.5231 42.0298 38.4165 42.3194 39.4922 42.4461C39.8386 42.4823 40.2033 42.5004 40.568 42.5004C41.2973 42.5004 42.0083 42.4099 42.6465 42.2651C43.6128 42.0298 44.2874 41.6497 44.5792 41.1791C44.6703 41.0343 44.7068 40.8894 44.725 40.7265L44.4515 40.7627ZM38.927 39.55C39.1276 39.4052 39.474 39.2966 39.8751 39.2604C40.2945 39.2242 40.6956 39.2785 41.0055 39.369C41.2973 39.4595 41.4978 39.5862 41.5708 39.7491C41.589 39.7853 41.589 39.8215 41.589 39.8758C41.589 40.1654 41.0967 40.4188 40.4039 40.4912C39.711 40.5455 39.0364 40.3826 38.7811 40.1111C38.7447 40.0749 38.7264 40.0387 38.7082 40.0025C38.6717 39.8396 38.7447 39.6767 38.927 39.55Z" fill="#FEBB00"/>
<path d="M40.5498 46.7903C38.763 46.7903 36.9762 46.5188 35.6269 45.9939C34.2777 45.469 33.5484 44.763 33.5484 44.0028V40.7266C33.5484 39.9663 34.2959 39.2604 35.6269 38.7355C38.3436 37.6857 42.756 37.6857 45.4727 38.7355C46.8584 39.2785 47.5877 39.9844 47.5512 40.7628V43.9485C47.5877 44.7268 46.8401 45.4508 45.4727 45.9758C44.1234 46.5188 42.3366 46.7903 40.5498 46.7903ZM40.5498 38.1382C38.7812 38.1382 37.0309 38.3916 35.6999 38.9165C34.4236 39.4052 33.7307 40.0568 33.7307 40.7266V44.0028C33.7307 44.6725 34.4236 45.3241 35.6999 45.8129C38.3801 46.8446 42.7377 46.8446 45.418 45.8129C46.6943 45.3241 47.4236 44.6363 47.3871 43.9485V40.7628C47.4236 40.0749 46.6943 39.4052 45.418 38.8984C44.0687 38.3916 42.3184 38.1382 40.5498 38.1382Z" fill="black"/>
<path d="M36.8303 39.0975C36.8303 39.0975 32.2721 42.0479 40.0028 42.6633C40.0028 42.6633 37.1038 42.9348 35.4628 42.2289C34.0771 41.6316 34.0954 40.1835 36.8303 39.0975Z" fill="#FDE251"/>
<path d="M41.2974 38.4459C41.2974 38.4459 44.9075 38.5907 45.1445 40.0026C45.4544 41.8669 43.1936 42.6272 42.0996 42.8263C42.0996 42.8263 46.2202 43.134 46.4026 40.4189C46.4208 40.4189 46.8584 38.5183 41.2974 38.4459Z" fill="#FDE251"/>
<path d="M46.3114 36.4548C46.3478 35.7488 45.6732 35.0429 44.2875 34.4999C41.5891 33.4501 37.2132 33.4501 34.5147 34.4999C33.1655 35.0248 32.4909 35.7126 32.4909 36.4005V39.6767C32.4909 40.3645 33.1655 41.0523 34.5147 41.5773C37.2132 42.6271 41.5891 42.6271 44.2875 41.5773C45.6732 41.0342 46.3478 40.3283 46.3114 39.6224V36.4548Z" fill="#C64500"/>
<path d="M46.3114 36.4548C46.3478 35.7488 45.6732 35.0429 44.2875 34.4999C41.5891 33.4501 37.2132 33.4501 34.5147 34.4999C33.1655 35.0248 32.4909 35.7126 32.4909 36.4005V39.6767C32.4909 40.3645 33.1655 41.0523 34.5147 41.5773C37.2132 42.6271 41.5891 42.6271 44.2875 41.5773C45.6732 41.0342 46.3478 40.3283 46.3114 39.6224V36.4548Z" fill="#C64500"/>
<path d="M39.3829 42.4642C37.5961 42.4642 35.8093 42.1927 34.4601 41.6678C33.1108 41.1428 32.3815 40.4369 32.3815 39.6767V36.4005C32.3815 35.6402 33.1291 34.9343 34.4601 34.4094C37.1768 33.3595 41.5891 33.3595 44.3058 34.4094C45.6915 34.9524 46.4208 35.6583 46.3843 36.4367V39.6405C46.4208 40.4188 45.6733 41.1428 44.3058 41.6678C42.9566 42.1927 41.1698 42.4642 39.3829 42.4642ZM39.3829 33.8121C37.6326 33.8121 35.864 34.0655 34.533 34.5904C33.2567 35.0791 32.5639 35.7307 32.5639 36.4005V39.6767C32.5639 40.3464 33.2567 40.998 34.533 41.4868C37.2132 42.5185 41.5709 42.5185 44.2511 41.4868C45.5274 40.998 46.2567 40.3102 46.2202 39.6224V36.4367C46.2567 35.7488 45.5274 35.0791 44.2511 34.5723C42.9019 34.0655 41.1515 33.8121 39.3829 33.8121Z" fill="black"/>
<path d="M36.812 38.8985V42.1747C36.812 42.1747 37.8331 42.3557 38.8359 42.3557V38.8804H36.812V38.8985Z" fill="#EF740D"/>
<path d="M39.6929 39.0973V42.3735C39.6929 42.3735 43.4853 41.8486 44.871 41.3598V38.0474L39.6929 39.0973Z" fill="#EF740D"/>
<path d="M39.3829 39.0795C43.1993 39.0795 46.2931 37.8801 46.2931 36.4006C46.2931 34.9211 43.1993 33.7217 39.3829 33.7217C35.5665 33.7217 32.4727 34.9211 32.4727 36.4006C32.4727 37.8801 35.5665 39.0795 39.3829 39.0795Z" fill="#FFBB00"/>
<path d="M35.2258 36.6177C35.2258 36.6177 33.8765 34.3008 39.3646 34.3008C44.8527 34.3008 43.5217 36.6177 43.5217 36.6177" fill="#E48000"/>
<path d="M43.5218 36.6175C43.5218 36.6175 44.561 34.6083 39.3282 34.6083C34.296 34.6083 35.2259 36.6175 35.2259 36.6175L38.1978 37.7036L39.1094 37.9027C39.1094 37.9027 41.188 37.6311 41.2244 37.6311C41.2609 37.6311 42.6648 37.2872 42.7013 37.2329C42.756 37.1967 43.5218 36.6175 43.5218 36.6175Z" fill="#8D1500"/>
<path d="M37.5596 35.4955C37.5596 35.4955 39 34.7714 40.4404 35.4412L40.3128 35.0792L39.4011 34.8257H38.0701L37.5596 35.1516V35.4955Z" fill="black"/>
<path d="M43.2847 36.4366L42.5918 36.4909L42.3001 36.509C42.2819 36.6719 42.1907 36.8167 42.0449 36.9615C41.6802 37.3236 40.9144 37.5951 39.9663 37.6675C38.3983 37.7942 36.885 37.3598 36.575 36.69L37.1949 36.6357L41.0421 36.3099L41.6437 36.2556L42.2636 36.2013L42.5736 36.1832L43.2482 36.1289L43.5035 36.1108C43.4306 35.8936 43.2482 35.6945 42.993 35.4954C42.4277 35.0791 41.5343 34.7895 40.4586 34.6628C39.3829 34.5361 38.2707 34.6085 37.3043 34.8438C36.338 35.0791 35.6634 35.4773 35.3716 35.9298C35.0799 36.3823 35.244 36.871 35.791 37.2874C36.3562 37.7037 37.2496 37.9933 38.3254 38.12C38.6718 38.1562 39.0364 38.1743 39.4011 38.1743C40.1304 38.1743 40.8415 38.0838 41.4796 37.939C42.446 37.7037 43.1206 37.3236 43.4123 36.8529C43.5035 36.7081 43.5399 36.5633 43.5582 36.4004L43.2847 36.4366ZM37.7601 35.2239C37.7784 35.2239 37.7784 35.2239 37.7601 35.2239C37.9607 35.0791 38.3071 34.9705 38.7082 34.9343C39.1276 34.8981 39.5287 34.9524 39.8387 35.0429C40.1304 35.1334 40.331 35.2601 40.4039 35.423C40.4221 35.4592 40.4221 35.4954 40.4221 35.5497C40.4221 35.8393 39.9298 36.0927 39.237 36.1651C38.5442 36.2194 37.8695 36.0565 37.6143 35.785C37.5778 35.7488 37.5596 35.7126 37.5413 35.6764C37.5049 35.5135 37.5778 35.3506 37.7601 35.2239Z" fill="#FEBB00"/>
<path d="M39.3829 42.4642C37.5961 42.4642 35.8093 42.1927 34.4601 41.6678C33.1108 41.1428 32.3815 40.4369 32.3815 39.6767V36.4005C32.3815 35.6402 33.1291 34.9343 34.4601 34.4094C37.1768 33.3595 41.5891 33.3595 44.3058 34.4094C45.6915 34.9524 46.4208 35.6583 46.3843 36.4367V39.6405C46.4208 40.4188 45.6733 41.1428 44.3058 41.6678C42.9566 42.1927 41.1698 42.4642 39.3829 42.4642ZM39.3829 33.8121C37.6326 33.8121 35.864 34.0655 34.533 34.5904C33.2567 35.0791 32.5639 35.7307 32.5639 36.4005V39.6767C32.5639 40.3464 33.2567 40.998 34.533 41.4868C37.2132 42.5185 41.5709 42.5185 44.2511 41.4868C45.5274 40.998 46.2567 40.3102 46.2202 39.6224V36.4367C46.2567 35.7488 45.5274 35.0791 44.2511 34.5723C42.9019 34.0655 41.1515 33.8121 39.3829 33.8121Z" fill="black"/>
<path d="M35.6634 34.7533C35.6634 34.7533 31.1052 37.7037 38.8359 38.3191C38.8359 38.3191 35.9369 38.5907 34.2959 37.8847C32.9285 37.2874 32.9285 35.8574 35.6634 34.7533Z" fill="#FDE251"/>
<path d="M40.1304 34.1198C40.1304 34.1198 43.7405 34.2646 43.9776 35.6764C44.2875 37.5408 42.0266 38.301 40.9327 38.5001C40.9327 38.5001 45.0533 38.8078 45.2356 36.0927C45.2539 36.0927 45.6914 34.1922 40.1304 34.1198Z" fill="#FDE251"/>
<path d="M48.2076 32.2736C48.2441 31.5676 47.5695 30.8617 46.1838 30.3187C43.4853 29.2689 39.1094 29.2689 36.411 30.3187C35.0618 30.8436 34.3871 31.5314 34.3871 32.2193V35.4955C34.3871 36.1833 35.0618 36.8711 36.411 37.3961C39.1094 38.4459 43.4853 38.4459 46.1838 37.3961C47.5695 36.853 48.2441 36.1471 48.2076 35.4412V32.2736Z" fill="#C64500"/>
<path d="M48.2076 32.2736C48.2441 31.5676 47.5695 30.8617 46.1838 30.3187C43.4853 29.2689 39.1094 29.2689 36.411 30.3187C35.0618 30.8436 34.3871 31.5314 34.3871 32.2193V35.4955C34.3871 36.1833 35.0618 36.8711 36.411 37.3961C39.1094 38.4459 43.4853 38.4459 46.1838 37.3961C47.5695 36.853 48.2441 36.1471 48.2076 35.4412V32.2736Z" fill="#C64500"/>
<path d="M41.2974 38.283C39.5105 38.283 37.7237 38.0115 36.3745 37.4865C35.0253 36.9616 34.296 36.2557 34.296 35.4955V32.2192C34.296 31.459 35.0435 30.7531 36.3745 30.2282C39.0912 29.1783 43.5035 29.1783 46.2202 30.2282C47.6059 30.7712 48.3352 31.4771 48.2988 32.2555V35.4412C48.3352 36.2195 47.5877 36.9435 46.2202 37.4684C44.871 38.0115 43.0842 38.283 41.2974 38.283ZM41.2974 29.6309C39.547 29.6309 37.7784 29.8843 36.4474 30.4092C35.1711 30.8979 34.4783 31.5495 34.4783 32.2192V35.4955C34.4783 36.1652 35.1711 36.8168 36.4474 37.3055C39.1277 38.3373 43.4853 38.3373 46.1655 37.3055C47.4418 36.8168 48.1711 36.129 48.1347 35.4412V32.2555C48.1711 31.5676 47.4418 30.8979 46.1655 30.3911C44.8163 29.8843 43.0477 29.6309 41.2974 29.6309Z" fill="black"/>
<path d="M38.7265 34.717V37.9932C38.7265 37.9932 39.7475 38.1742 40.7503 38.1742V34.6989H38.7265V34.717Z" fill="#EF740D"/>
<path d="M41.5891 34.898V38.1923C41.5891 38.1923 45.3815 37.6674 46.7672 37.1787V33.8663L41.5891 34.898Z" fill="#EF740D"/>
<path d="M41.2974 34.898C45.1138 34.898 48.2076 33.6986 48.2076 32.2191C48.2076 30.7395 45.1138 29.5402 41.2974 29.5402C37.481 29.5402 34.3871 30.7395 34.3871 32.2191C34.3871 33.6986 37.481 34.898 41.2974 34.898Z" fill="#FFBB00"/>
<path d="M37.1402 32.4365C37.1402 32.4365 35.791 30.1196 41.2791 30.1196C46.7672 30.1196 45.4362 32.4365 45.4362 32.4365" fill="#E48000"/>
<path d="M45.418 32.4363C45.418 32.4363 46.4572 30.4271 41.2244 30.4271C36.1922 30.4271 37.122 32.4363 37.122 32.4363L40.094 33.5223L41.0056 33.7214C41.0056 33.7214 43.0842 33.4499 43.1206 33.4499C43.1571 33.4499 44.561 33.106 44.5975 33.0517C44.6522 33.0155 45.418 32.4363 45.418 32.4363Z" fill="#8D1500"/>
<path d="M39.4558 31.2959C39.4558 31.2959 40.8962 30.5719 42.3366 31.2416L42.209 30.8796L41.2973 30.6262H39.9663L39.4558 30.952V31.2959Z" fill="black"/>
<path d="M45.1809 32.2555L44.4881 32.3098L44.1963 32.3279C44.1781 32.4908 44.0869 32.6356 43.9411 32.7804C43.5764 33.1424 42.8107 33.4139 41.8625 33.4863C40.2945 33.613 38.7812 33.1786 38.4712 32.5089L39.0912 32.4546L42.9383 32.1288L43.54 32.0745L44.1599 32.0202L44.4698 32.0021L45.1445 31.9478L45.3997 31.9297C45.3268 31.7125 45.1444 31.5134 44.8892 31.3142C44.324 30.8979 43.4306 30.6083 42.3548 30.4816C41.2791 30.3549 40.1669 30.4273 39.2006 30.6626C38.2342 30.8979 37.5596 31.2961 37.2679 31.7487C36.9762 32.2012 37.1403 32.6899 37.6872 33.1062C38.2525 33.5225 39.1459 33.8121 40.2216 33.9388C40.568 33.975 40.9327 33.9931 41.2973 33.9931C42.0266 33.9931 42.7377 33.9026 43.3759 33.7578C44.3422 33.5225 45.0168 33.1424 45.3085 32.6718C45.3997 32.527 45.4362 32.3822 45.4544 32.2193L45.1809 32.2555ZM39.6746 31.0246C39.8752 30.8798 40.2216 30.7712 40.6227 30.735C41.0421 30.6988 41.4432 30.7531 41.7531 30.8436C42.0449 30.9341 42.2454 31.0608 42.3184 31.2237C42.3366 31.2599 42.3366 31.2961 42.3366 31.3504C42.3366 31.6401 41.8443 31.8935 41.1515 31.9659C40.4586 32.0202 39.784 31.8573 39.5287 31.5858C39.4923 31.5496 39.474 31.5134 39.4558 31.4772C39.4011 31.3142 39.4923 31.1513 39.6746 31.0246Z" fill="#FEBB00"/>
<path d="M41.2974 38.283C39.5105 38.283 37.7237 38.0115 36.3745 37.4865C35.0253 36.9616 34.296 36.2557 34.296 35.4955V32.2192C34.296 31.459 35.0435 30.7531 36.3745 30.2282C39.0912 29.1783 43.5035 29.1783 46.2202 30.2282C47.6059 30.7712 48.3352 31.4771 48.2988 32.2555V35.4412C48.3352 36.2195 47.5877 36.9435 46.2202 37.4684C44.871 38.0115 43.0842 38.283 41.2974 38.283ZM41.2974 29.6309C39.547 29.6309 37.7784 29.8843 36.4474 30.4092C35.1711 30.8979 34.4783 31.5495 34.4783 32.2192V35.4955C34.4783 36.1652 35.1711 36.8168 36.4474 37.3055C39.1277 38.3373 43.4853 38.3373 46.1655 37.3055C47.4418 36.8168 48.1711 36.129 48.1347 35.4412V32.2555C48.1711 31.5676 47.4418 30.8979 46.1655 30.3911C44.8163 29.8843 43.0477 29.6309 41.2974 29.6309Z" fill="black"/>
<path d="M37.5778 30.5721C37.5778 30.5721 33.0196 33.5225 40.7503 34.1379C40.7503 34.1379 37.8513 34.4094 36.2103 33.7035C34.8246 33.1062 34.8246 31.6762 37.5778 30.5721Z" fill="#FDE251"/>
<path d="M42.0449 29.9206C42.0449 29.9206 45.655 30.0654 45.892 31.4772C46.202 33.3416 43.9411 34.1018 42.8472 34.301C42.8472 34.301 46.9678 34.6087 47.1501 31.8936C47.1501 31.8936 47.5877 30.0111 42.0449 29.9206Z" fill="#FDE251"/>
<path d="M62.5204 33.0336C62.5568 32.3277 61.8822 31.6218 60.4965 31.0788C57.7981 30.0289 53.4222 30.0289 50.7237 31.0788C49.3745 31.6037 48.6999 32.2915 48.6999 32.9793V36.2556C48.6999 36.9434 49.3745 37.6312 50.7237 38.1561C53.4222 39.206 57.7981 39.206 60.4965 38.1561C61.8822 37.6131 62.5568 36.9072 62.5204 36.2013V33.0336Z" fill="#C64500"/>
<path d="M62.5204 33.0336C62.5568 32.3277 61.8822 31.6218 60.4965 31.0788C57.7981 30.0289 53.4222 30.0289 50.7237 31.0788C49.3745 31.6037 48.6999 32.2915 48.6999 32.9793V36.2556C48.6999 36.9434 49.3745 37.6312 50.7237 38.1561C53.4222 39.206 57.7981 39.206 60.4965 38.1561C61.8822 37.6131 62.5568 36.9072 62.5204 36.2013V33.0336Z" fill="#C64500"/>
<path d="M55.6101 39.043C53.8233 39.043 52.0365 38.7715 50.6872 38.2466C49.338 37.7217 48.6087 37.0158 48.6087 36.2555V32.9793C48.6087 32.2191 49.3562 31.5132 50.6872 30.9882C53.4039 29.9384 57.8163 29.9384 60.533 30.9882C61.9187 31.5313 62.648 32.2372 62.6115 33.0155V36.2012C62.648 36.9796 61.9004 37.7036 60.533 38.2285C59.1655 38.7715 57.3787 39.043 55.6101 39.043ZM55.6101 30.3909C53.8598 30.3909 52.0912 30.6443 50.7602 31.1693C49.4839 31.658 48.791 32.3096 48.791 32.9793V36.2555C48.791 36.9253 49.4839 37.5769 50.7602 38.0656C53.4404 39.0973 57.798 39.0973 60.4783 38.0656C61.7546 37.5769 62.4839 36.8891 62.4474 36.2012V33.0155C62.4839 32.3277 61.7546 31.658 60.4783 31.1512C59.129 30.6443 57.3605 30.3909 55.6101 30.3909Z" fill="black"/>
<path d="M53.021 35.4773V38.7535C53.021 38.7535 54.042 38.9345 55.0448 38.9345V35.4773H53.021Z" fill="#EF740D"/>
<path d="M55.9019 35.6582V38.9344C55.9019 38.9344 59.6943 38.4095 61.08 37.9207V34.6083L55.9019 35.6582Z" fill="#EF740D"/>
<path d="M55.6101 35.6584C59.4265 35.6584 62.5204 34.459 62.5204 32.9795C62.5204 31.5 59.4265 30.3006 55.6101 30.3006C51.7937 30.3006 48.6999 31.5 48.6999 32.9795C48.6999 34.459 51.7937 35.6584 55.6101 35.6584Z" fill="#FFBB00"/>
<path d="M51.4347 33.1965C51.4347 33.1965 50.0855 30.8796 55.5736 30.8796C61.0617 30.8796 59.7307 33.1965 59.7307 33.1965" fill="#E48000"/>
<path d="M59.7308 33.1968C59.7308 33.1968 60.77 31.1876 55.5372 31.1876C50.505 31.1876 51.4348 33.1968 51.4348 33.1968L54.4068 34.2828L55.3184 34.4819C55.3184 34.4819 57.397 34.2104 57.4334 34.2104C57.4699 34.2104 58.8738 33.8665 58.9103 33.8122C58.965 33.776 59.7308 33.1968 59.7308 33.1968Z" fill="#8D1500"/>
<path d="M53.7686 32.0744C53.7686 32.0744 55.2089 31.3504 56.6493 32.0201L56.5217 31.6581L55.6101 31.4047H54.2791L53.7686 31.7305V32.0744Z" fill="black"/>
<path d="M59.4936 33.0155L58.8008 33.0699L58.509 33.088C58.4908 33.2509 58.3997 33.3957 58.2538 33.5405C57.8891 33.9025 57.1234 34.174 56.1752 34.2464C54.6072 34.3731 53.0939 33.9387 52.7839 33.269L53.4038 33.2147L57.251 32.8888L57.8527 32.8345L58.4726 32.7802L58.7825 32.7621L59.4572 32.7078L59.7124 32.6897C59.6395 32.4725 59.4572 32.2734 59.2019 32.0743C58.6367 31.658 57.7433 31.3684 56.6675 31.2417C55.5918 31.115 54.4796 31.1874 53.5132 31.4227C52.5469 31.658 51.8723 32.0562 51.5806 32.5087C51.2888 32.9612 51.4529 33.45 51.9999 33.8663C52.5651 34.2826 53.4585 34.5722 54.5343 34.6989C54.8807 34.7351 55.2454 34.7532 55.61 34.7532C56.3393 34.7532 57.0504 34.6627 57.6886 34.5179C58.6549 34.2826 59.3295 33.9025 59.6213 33.4319C59.7124 33.2871 59.7489 33.1423 59.7671 32.9793L59.4936 33.0155ZM53.9873 31.8028C54.1879 31.658 54.5343 31.5494 54.9354 31.5132C55.3548 31.477 55.7559 31.5313 56.0658 31.6218C56.3576 31.7123 56.5581 31.839 56.6311 32.0019C56.6493 32.0381 56.6493 32.0743 56.6493 32.1286C56.6493 32.4182 56.157 32.6716 55.4642 32.744C54.7713 32.7983 54.0967 32.6354 53.8414 32.3639C53.805 32.3277 53.7867 32.2915 53.7685 32.2553C53.7138 32.0743 53.7867 31.9295 53.9873 31.8028Z" fill="#FEBB00"/>
<path d="M55.6101 39.043C53.8233 39.043 52.0365 38.7715 50.6872 38.2466C49.338 37.7217 48.6087 37.0158 48.6087 36.2555V32.9793C48.6087 32.2191 49.3562 31.5132 50.6872 30.9882C53.4039 29.9384 57.8163 29.9384 60.533 30.9882C61.9187 31.5313 62.648 32.2372 62.6115 33.0155V36.2012C62.648 36.9796 61.9004 37.7036 60.533 38.2285C59.1655 38.7715 57.3787 39.043 55.6101 39.043ZM55.6101 30.3909C53.8598 30.3909 52.0912 30.6443 50.7602 31.1693C49.4839 31.658 48.791 32.3096 48.791 32.9793V36.2555C48.791 36.9253 49.4839 37.5769 50.7602 38.0656C53.4404 39.0973 57.798 39.0973 60.4783 38.0656C61.7546 37.5769 62.4839 36.8891 62.4474 36.2012V33.0155C62.4839 32.3277 61.7546 31.658 60.4783 31.1512C59.129 30.6443 57.3605 30.3909 55.6101 30.3909Z" fill="black"/>
<path d="M51.8724 31.3322C51.8724 31.3322 47.3142 34.2826 55.0449 34.898C55.0449 34.898 52.1459 35.1696 50.5049 34.4636C49.1375 33.8663 49.1375 32.4364 51.8724 31.3322Z" fill="#FDE251"/>
<path d="M56.3394 30.6807C56.3394 30.6807 59.9495 30.8255 60.1865 32.2373C60.4965 34.1017 58.2356 34.8619 57.1417 35.061C57.1417 35.061 61.2623 35.3687 61.4446 32.6536C61.4628 32.6717 61.9004 30.7712 56.3394 30.6807Z" fill="#FDE251"/>
<path d="M59.9495 44.1115C59.986 43.4055 59.3114 42.6996 57.9257 42.1566C55.2272 41.1067 50.8513 41.1067 48.1529 42.1566C46.8036 42.6815 46.129 43.3693 46.129 44.0572V47.3334C46.129 48.0212 46.8036 48.709 48.1529 49.2339C50.8513 50.2838 55.2272 50.2838 57.9257 49.2339C59.3114 48.6909 59.986 47.985 59.9495 47.2791V44.1115Z" fill="#C64500"/>
<path d="M59.9495 44.1115C59.986 43.4055 59.3114 42.6996 57.9257 42.1566C55.2272 41.1067 50.8513 41.1067 48.1529 42.1566C46.8036 42.6815 46.129 43.3693 46.129 44.0572V47.3334C46.129 48.0212 46.8036 48.709 48.1529 49.2339C50.8513 50.2838 55.2272 50.2838 57.9257 49.2339C59.3114 48.6909 59.986 47.985 59.9495 47.2791V44.1115Z" fill="#C64500"/>
<path d="M53.021 50.1025C51.2342 50.1025 49.4474 49.831 48.0981 49.3061C46.7489 48.7812 46.0196 48.0752 46.0196 47.315V44.0388C46.0196 43.2785 46.7671 42.5726 48.0981 42.0477C50.8148 40.9979 55.2272 40.9979 57.9439 42.0477C59.3296 42.5907 60.0589 43.2966 60.0224 44.075V47.2607C60.0589 48.039 59.3113 48.7631 57.9439 49.288C56.5946 49.8491 54.8078 50.1025 53.021 50.1025ZM53.021 41.4685C51.2706 41.4685 49.5021 41.7219 48.1711 42.2468C46.8948 42.7355 46.2019 43.3871 46.2019 44.0569V47.3331C46.2019 48.0028 46.8948 48.6545 48.1711 49.1432C50.8513 50.1749 55.2089 50.1749 57.8892 49.1432C59.1655 48.6545 59.8948 47.9666 59.8583 47.2788V44.0931C59.8948 43.4052 59.1655 42.7355 57.8892 42.2287C56.5399 41.7219 54.7896 41.4685 53.021 41.4685Z" fill="black"/>
<path d="M50.4503 46.5548V49.8311C50.4503 49.8311 51.4713 50.0121 52.4741 50.0121V46.5367H50.4503V46.5548Z" fill="#EF740D"/>
<path d="M53.3127 46.736V50.0122C53.3127 50.0122 57.1052 49.4873 58.4909 48.9986V45.6862L53.3127 46.736Z" fill="#EF740D"/>
<path d="M53.021 46.7359C56.8374 46.7359 59.9312 45.5365 59.9312 44.0569C59.9312 42.5774 56.8374 41.3781 53.021 41.3781C49.2046 41.3781 46.1108 42.5774 46.1108 44.0569C46.1108 45.5365 49.2046 46.7359 53.021 46.7359Z" fill="#FFBB00"/>
<path d="M48.8639 44.2744C48.8639 44.2744 47.5147 41.9575 53.0027 41.9575C58.4908 41.9575 57.1598 44.2744 57.1598 44.2744" fill="#E48000"/>
<path d="M57.1599 44.2742C57.1599 44.2742 58.1992 42.2651 52.9664 42.2651C47.9341 42.2651 48.864 44.2742 48.864 44.2742L51.8359 45.3603L52.7476 45.5594C52.7476 45.5594 54.8261 45.2879 54.8626 45.2879C54.899 45.2879 56.303 44.944 56.3394 44.8897C56.3941 44.8535 57.1599 44.2742 57.1599 44.2742Z" fill="#8D1500"/>
<path d="M51.1977 43.1339C51.1977 43.1339 52.6381 42.4098 54.0785 43.0795L53.9508 42.7175L53.0392 42.4641H51.7082L51.1977 42.7899V43.1339Z" fill="black"/>
<path d="M56.9229 44.0934L56.23 44.1477L55.9383 44.1658C55.9201 44.3287 55.8289 44.4735 55.683 44.6183C55.3184 44.9803 54.5526 45.2518 53.6045 45.3242C52.0365 45.4509 50.5232 45.0165 50.2132 44.3468L50.8331 44.2925L54.6802 43.9667L55.2819 43.9124L55.9018 43.8581L56.2118 43.84L56.8864 43.7857L57.1417 43.7676C57.0687 43.5504 56.8864 43.3512 56.6312 43.1521C56.0659 42.7358 55.1725 42.4462 54.0968 42.3195C53.0211 42.1928 51.9088 42.2652 50.9425 42.5005C49.9762 42.7358 49.3015 43.134 49.0098 43.5866C48.7181 44.0391 48.8822 44.5278 49.4292 44.9441C49.9944 45.3604 50.8878 45.65 51.9635 45.7767C52.31 45.8129 52.6746 45.831 53.0393 45.831C53.7686 45.831 54.4797 45.7405 55.1178 45.5957C56.0842 45.3604 56.7588 44.9803 57.0505 44.5097C57.1417 44.3649 57.1781 44.2201 57.1964 44.0572L56.9229 44.0934ZM51.3983 42.8625C51.4166 42.8625 51.4166 42.8625 51.3983 42.8625C51.5989 42.7177 51.9453 42.6091 52.3464 42.5729C52.7658 42.5367 53.1669 42.591 53.4769 42.6815C53.7686 42.772 53.9692 42.8987 54.0421 43.0616C54.0603 43.0978 54.0603 43.134 54.0603 43.1883C54.0603 43.478 53.568 43.7314 52.8752 43.8038C52.1823 43.8581 51.5077 43.6952 51.2525 43.4236C51.216 43.3874 51.1978 43.3512 51.1795 43.315C51.1431 43.1521 51.216 42.9892 51.3983 42.8625Z" fill="#FEBB00"/>
<path d="M53.021 50.1025C51.2342 50.1025 49.4474 49.831 48.0981 49.3061C46.7489 48.7812 46.0196 48.0752 46.0196 47.315V44.0388C46.0196 43.2785 46.7671 42.5726 48.0981 42.0477C50.8148 40.9979 55.2272 40.9979 57.9439 42.0477C59.3296 42.5907 60.0589 43.2966 60.0224 44.075V47.2607C60.0589 48.039 59.3113 48.7631 57.9439 49.288C56.5946 49.8491 54.8078 50.1025 53.021 50.1025ZM53.021 41.4685C51.2706 41.4685 49.5021 41.7219 48.1711 42.2468C46.8948 42.7355 46.2019 43.3871 46.2019 44.0569V47.3331C46.2019 48.0028 46.8948 48.6545 48.1711 49.1432C50.8513 50.1749 55.2089 50.1749 57.8892 49.1432C59.1655 48.6545 59.8948 47.9666 59.8583 47.2788V44.0931C59.8948 43.4052 59.1655 42.7355 57.8892 42.2287C56.5399 41.7219 54.7896 41.4685 53.021 41.4685Z" fill="black"/>
<path d="M49.3015 42.41C49.3015 42.41 44.7433 45.3604 52.474 45.9759C52.474 45.9759 49.575 46.2474 47.934 45.5414C46.5666 44.9441 46.5666 43.5142 49.3015 42.41Z" fill="#FDE251"/>
<path d="M53.7686 41.7581C53.7686 41.7581 57.3787 41.9029 57.6157 43.3147C57.9256 45.1791 55.6648 45.9393 54.5708 46.1384C54.5708 46.1384 58.6914 46.4461 58.8737 43.731C58.892 43.731 59.3296 41.8486 53.7686 41.7581Z" fill="#FDE251"/>
<path d="M59.9495 39.9483C59.986 39.2424 59.3114 38.5365 57.9257 37.9934C55.2272 36.9436 50.8513 36.9436 48.1529 37.9934C46.8036 38.5184 46.129 39.2062 46.129 39.894V43.1702C46.129 43.8581 46.8036 44.5459 48.1529 45.0708C50.8513 46.1206 55.2272 46.1206 57.9257 45.0708C59.3114 44.5278 59.986 43.8219 59.9495 43.1159V39.9483Z" fill="#C64500"/>
<path d="M59.9495 39.9483C59.986 39.2424 59.3114 38.5365 57.9257 37.9934C55.2272 36.9436 50.8513 36.9436 48.1529 37.9934C46.8036 38.5184 46.129 39.2062 46.129 39.894V43.1702C46.129 43.8581 46.8036 44.5459 48.1529 45.0708C50.8513 46.1206 55.2272 46.1206 57.9257 45.0708C59.3114 44.5278 59.986 43.8219 59.9495 43.1159V39.9483Z" fill="#C64500"/>
<path d="M53.021 45.9577C51.2342 45.9577 49.4474 45.6862 48.0981 45.1613C46.7489 44.6364 46.0196 43.9305 46.0196 43.1702V39.894C46.0196 39.1338 46.7671 38.4278 48.0981 37.9029C50.8148 36.8531 55.2272 36.8531 57.9439 37.9029C59.3296 38.4459 60.0589 39.1519 60.0224 39.9302V43.1159C60.0589 43.8943 59.3113 44.6183 57.9439 45.1432C56.5946 45.6862 54.8078 45.9577 53.021 45.9577ZM53.021 37.3056C51.2706 37.3056 49.5021 37.559 48.1711 38.0839C46.8948 38.5726 46.2019 39.2243 46.2019 39.894V43.1702C46.2019 43.8399 46.8948 44.4916 48.1711 44.9803C50.8513 46.012 55.2089 46.012 57.8892 44.9803C59.1655 44.4916 59.8948 43.8037 59.8583 43.1159V39.9302C59.8948 39.2424 59.1655 38.5726 57.8892 38.0658C56.5399 37.559 54.7896 37.3056 53.021 37.3056Z" fill="black"/>
<path d="M50.4503 42.3917V45.6679C50.4503 45.6679 51.4713 45.8489 52.4741 45.8489V42.3736H50.4503V42.3917Z" fill="#EF740D"/>
<path d="M53.3127 42.5909V45.8671C53.3127 45.8671 57.1052 45.3422 58.4909 44.8534V41.541L53.3127 42.5909Z" fill="#EF740D"/>
<path d="M53.021 42.5727C56.8374 42.5727 59.9312 41.3733 59.9312 39.8938C59.9312 38.4143 56.8374 37.2149 53.021 37.2149C49.2046 37.2149 46.1108 38.4143 46.1108 39.8938C46.1108 41.3733 49.2046 42.5727 53.021 42.5727Z" fill="#FFBB00"/>
<path d="M48.8639 40.1293C48.8639 40.1293 47.5147 37.8124 53.0027 37.8124C58.4908 37.8124 57.1598 40.1293 57.1598 40.1293" fill="#E48000"/>
<path d="M57.1599 40.1291C57.1599 40.1291 58.1992 38.1199 52.9664 38.1199C47.9341 38.1199 48.864 40.1291 48.864 40.1291L51.8359 41.2151L52.7476 41.4143C52.7476 41.4143 54.8261 41.1427 54.8626 41.1427C54.899 41.1427 56.303 40.7988 56.3394 40.7445C56.3941 40.6902 57.1599 40.1291 57.1599 40.1291Z" fill="#8D1500"/>
<path d="M51.1977 38.9887C51.1977 38.9887 52.6381 38.2647 54.0785 38.9344L53.9508 38.5724L53.0392 38.319H51.7082L51.1977 38.6448V38.9887Z" fill="black"/>
<path d="M56.9229 39.9302L56.23 39.9845L55.9383 40.0026C55.9201 40.1655 55.8289 40.3103 55.683 40.4552C55.3184 40.8172 54.5526 41.0887 53.6045 41.1611C52.0365 41.2878 50.5232 40.8534 50.2132 40.1836L50.8331 40.1293L54.6802 39.8035L55.2819 39.7492L55.9018 39.6949L56.2118 39.6768L56.8864 39.6225L57.1417 39.6044C57.0687 39.3872 56.8864 39.1881 56.6312 38.989C56.0659 38.5727 55.1725 38.2831 54.0968 38.1564C53.0211 38.0297 51.9088 38.1021 50.9425 38.3374C49.9762 38.5727 49.3015 38.9709 49.0098 39.4234C48.7181 39.8759 48.8822 40.3647 49.4292 40.781C49.9944 41.1973 50.8878 41.4869 51.9635 41.6136C52.31 41.6498 52.6746 41.6679 53.0393 41.6679C53.7686 41.6679 54.4797 41.5774 55.1178 41.4326C56.0842 41.1973 56.7588 40.8172 57.0505 40.3465C57.1417 40.2017 57.1781 40.0569 57.1964 39.894L56.9229 39.9302ZM51.3983 38.7175C51.4166 38.7175 51.4166 38.7175 51.3983 38.7175C51.5989 38.5727 51.9453 38.4641 52.3464 38.4279C52.7658 38.3917 53.1669 38.446 53.4769 38.5365C53.7686 38.627 53.9692 38.7537 54.0421 38.9166C54.0603 38.9528 54.0603 38.989 54.0603 39.0433C54.0603 39.3329 53.568 39.5863 52.8752 39.6587C52.1823 39.713 51.5077 39.5501 51.2525 39.2786C51.216 39.2424 51.1978 39.2062 51.1795 39.17C51.1431 39.0071 51.216 38.8442 51.3983 38.7175Z" fill="#FEBB00"/>
<path d="M53.021 45.9577C51.2342 45.9577 49.4474 45.6862 48.0981 45.1613C46.7489 44.6364 46.0196 43.9305 46.0196 43.1702V39.894C46.0196 39.1338 46.7671 38.4278 48.0981 37.9029C50.8148 36.8531 55.2272 36.8531 57.9439 37.9029C59.3296 38.4459 60.0589 39.1519 60.0224 39.9302V43.1159C60.0589 43.8943 59.3113 44.6183 57.9439 45.1432C56.5946 45.6862 54.8078 45.9577 53.021 45.9577ZM53.021 37.3056C51.2706 37.3056 49.5021 37.559 48.1711 38.0839C46.8948 38.5726 46.2019 39.2243 46.2019 39.894V43.1702C46.2019 43.8399 46.8948 44.4916 48.1711 44.9803C50.8513 46.012 55.2089 46.012 57.8892 44.9803C59.1655 44.4916 59.8948 43.8037 59.8583 43.1159V39.9302C59.8948 39.2424 59.1655 38.5726 57.8892 38.0658C56.5399 37.559 54.7896 37.3056 53.021 37.3056Z" fill="black"/>
<path d="M49.3015 38.2649C49.3015 38.2649 44.7433 41.2153 52.474 41.8307C52.474 41.8307 49.575 42.1022 47.934 41.3963C46.5666 40.799 46.5666 39.3509 49.3015 38.2649Z" fill="#FDE251"/>
<path d="M53.7686 37.6133C53.7686 37.6133 57.3787 37.7581 57.6157 39.17C57.9256 41.0344 55.6648 41.7946 54.5708 41.9937C54.5708 41.9937 58.6914 42.3014 58.8737 39.5863C58.892 39.5863 59.3296 37.6857 53.7686 37.6133Z" fill="#FDE251"/>
<path d="M29.5737 20.9788C29.6831 20.7616 29.756 20.5263 29.756 20.2728C29.756 20.0194 29.7013 19.7841 29.5737 19.5669L29.8471 19.2954C30.0295 19.1144 30.0295 18.8067 29.8471 18.6257C29.6648 18.4447 29.3549 18.4447 29.1725 18.6257L28.899 18.8972C28.6802 18.7886 28.4432 18.7162 28.188 18.7162C27.9327 18.7162 27.6957 18.7705 27.4769 18.8972L27.2034 18.6257C27.0211 18.4447 26.7111 18.4447 26.5288 18.6257C26.3464 18.8067 26.3464 19.1144 26.5288 19.2954L26.8023 19.5669C26.6929 19.7841 26.6199 20.0194 26.6199 20.2728C26.6199 20.5263 26.6746 20.7616 26.8023 20.9788L26.5288 21.2503C26.3464 21.4313 26.3464 21.739 26.5288 21.92C26.7111 22.101 27.0211 22.101 27.2034 21.92L27.4769 21.6485C27.6957 21.7571 27.9327 21.8295 28.188 21.8295C28.4432 21.8295 28.6802 21.7752 28.899 21.6485L29.1725 21.92C29.3549 22.101 29.6648 22.101 29.8471 21.92C30.0295 21.739 30.0295 21.4313 29.8471 21.2503L29.5737 20.9788Z" fill="white"/>
<path d="M38.5259 29.6126C38.5259 29.6307 38.5077 29.6669 38.5077 29.685H38.5624C38.5259 29.6669 38.5259 29.6307 38.5259 29.6126ZM42.3001 24.8159C42.7924 24.8159 43.2665 24.8702 43.7223 24.9607C44.1781 24.8702 44.6522 24.8159 45.1444 24.8159H42.3001ZM31.9074 24.8159C32.1262 24.8159 32.345 24.834 32.5638 24.8521C32.7826 24.834 33.0014 24.8159 33.2202 24.8159H31.9074Z" fill="white"/>
<path d="M43.7222 24.9607C42.2089 25.2684 40.8779 26.0649 39.8933 27.1871C39.2734 27.893 38.8176 28.7076 38.5259 29.6126C38.5259 29.6307 38.5077 29.6669 38.5077 29.685C38.3071 30.3185 38.1977 31.0063 38.1977 31.6942V38.0475H11.8148V31.6942C11.8148 30.9882 11.9242 30.3185 12.1248 29.685C13 26.8613 15.6437 24.8159 18.7615 24.8159H22.8457C19.7279 24.8159 17.0841 26.8613 16.2089 29.685C16.0084 30.3185 15.899 31.0063 15.899 31.6942V35.9297H23.5567V31.6942C23.5567 30.9882 23.6661 30.3185 23.8667 29.685C24.4319 27.8749 25.7082 26.3726 27.3856 25.5399C28.3155 25.0693 29.373 24.8159 30.5035 24.8159H31.9256C32.1444 24.8159 32.3632 24.834 32.582 24.8521C31.1234 24.9788 29.8106 25.558 28.7531 26.445C27.7503 27.2957 27.0027 28.3998 26.6016 29.685C26.4011 30.3185 26.2917 31.0063 26.2917 31.6942V35.9297H33.9494V31.6942C33.9494 30.9882 34.0588 30.3185 34.2594 29.685C34.6605 28.3998 35.4081 27.2776 36.4109 26.445C36.8302 26.083 37.2861 25.7934 37.7783 25.5399C38.7082 25.0693 39.7657 24.8159 40.8962 24.8159H42.3183C42.7924 24.8159 43.2664 24.8702 43.7222 24.9607Z" fill="white"/>
<path d="M38.5442 29.685H38.4895C38.4895 29.6669 38.5077 29.6307 38.5077 29.6126C38.526 29.6307 38.526 29.6669 38.5442 29.685Z" fill="white"/>
<path d="M38.5442 29.685H38.4895C38.4895 29.6669 38.5077 29.6307 38.5077 29.6126C38.526 29.6307 38.526 29.6669 38.5442 29.685Z" fill="#233B77"/>
<path d="M38.526 29.6126C38.526 29.6307 38.5078 29.6669 38.5078 29.685H38.5625C38.526 29.6669 38.526 29.6307 38.526 29.6126Z" fill="white"/>
<path d="M23.5386 40.2379V47.8221H15.899V38.8079L23.5386 40.2379Z" fill="#232C55"/>
<path d="M33.9313 42.1564V47.8219H26.2917V40.7445L33.9313 42.1564Z" fill="#232C55"/>
<path d="M38.1977 42.9349V51.2974H11.8148V38.0659L15.899 38.808V47.8221H23.5385V40.2379L26.2917 40.7448V47.8221H33.9312V42.1566L38.1977 42.9349Z" fill="white"/>
<path d="M46.5483 24.8159H45.1262C44.6521 24.8159 44.1598 24.8702 43.704 24.9607C42.1907 25.2684 40.8597 26.0649 39.8751 27.1871C39.2552 27.893 38.7994 28.7076 38.5077 29.6126C38.5077 29.6307 38.5259 29.6669 38.5259 29.685H38.4712C38.2707 30.3185 38.1613 31.0063 38.1613 31.6942V38.0475H53.4586V31.6942C53.495 27.893 50.3955 24.8159 46.5483 24.8159ZM49.2468 34.5722H42.446V33.0517C42.446 31.1873 43.9593 29.685 45.8373 29.685C46.7671 29.685 47.6241 30.0651 48.244 30.6805C48.8639 31.296 49.2468 32.1286 49.2468 33.0698V34.5722Z" fill="#D3E4FE"/>
<path d="M38.5442 29.685H38.4895C38.4895 29.6669 38.5077 29.6307 38.5077 29.6126C38.526 29.6307 38.526 29.6669 38.5442 29.685Z" fill="#D3E4FE"/>
<path d="M53.4951 42.9346V51.2972H38.1978V42.9346H42.446V47.8218H49.2469V42.9346H53.4951Z" fill="#D3E4FE"/>
<path d="M40.878 24.8159C39.7658 24.8159 38.7083 25.0874 37.7602 25.5399C37.2679 25.7934 36.8121 26.083 36.3927 26.445C35.3899 27.2776 34.6424 28.3998 34.2412 29.685C34.0407 30.3185 33.9313 31.0063 33.9313 31.6942V35.9297H26.2735V31.6942C26.2735 30.9882 26.3829 30.3185 26.5835 29.685C26.9846 28.3998 27.7321 27.2957 28.7349 26.445C29.7924 25.558 31.1052 24.9788 32.5638 24.8521C32.7826 24.834 33.0014 24.8159 33.2202 24.8159H40.878Z" fill="#233B77"/>
<path d="M30.4853 24.8159C29.3731 24.8159 28.3156 25.0874 27.3675 25.5399C25.69 26.3726 24.3955 27.8749 23.8485 29.685H16.1907C17.0659 26.8613 19.7097 24.8159 22.8275 24.8159H30.4853Z" fill="#233B77"/>
<path d="M49.2468 33.0698V35.9479H42.446V33.0698C42.446 31.2055 43.9593 29.7031 45.8373 29.7031C46.7672 29.7031 47.6241 30.0832 48.244 30.6987C48.864 31.2779 49.2468 32.1286 49.2468 33.0698Z" fill="#232C55"/>
<path d="M23.5386 38.0659V40.2379L15.899 38.808V38.0659H23.5386Z" fill="#233B77"/>
<path d="M15.899 38.0659V38.808L11.8148 38.0659H15.899Z" fill="#B0CEFF"/>
<path d="M26.2917 38.0659V40.7447L23.5386 40.2379V38.0659H26.2917Z" fill="#B0CEFF"/>
<path d="M33.9313 38.0659V42.1566L26.2917 40.7448V38.0659H33.9313Z" fill="#233B77"/>
<path d="M38.1978 38.0659V42.9349L33.9313 42.1566V38.0659H38.1978Z" fill="#B0CEFF"/>
<path d="M42.446 38.0659H38.1978V42.953H42.446V38.0659Z" fill="#B0CEFF"/>
<path d="M53.4951 38.0659H49.2469V42.953H53.4951V38.0659Z" fill="#B0CEFF"/>
<path d="M49.2468 38.0659H42.446V47.8221H49.2468V38.0659Z" fill="#232C55"/>
<path d="M23.8485 29.6851C23.648 30.3186 23.5386 31.0065 23.5386 31.6943V35.9298H15.8808V31.6943C15.8808 30.9884 15.9902 30.3186 16.1908 29.6851H23.8485Z" fill="#232C55"/>
<path d="M34.2413 29.6851C34.0407 30.3186 33.9313 31.0065 33.9313 31.6943V35.9298H26.2735V31.6943C26.2735 30.9884 26.3829 30.3186 26.5835 29.6851H34.2413Z" fill="#232C55"/>
<path d="M28.4979 34.5723H21.9888V41.0342H28.4979V34.5723Z" fill="#D3E4FE"/>
<path d="M27.8415 34.5723H21.3324V41.0342H27.8415V34.5723Z" fill="white"/>
<path d="M25.5442 36.7988C25.5442 37.1608 25.3436 37.4866 25.0336 37.6496C25.5989 39.7854 25.5989 39.7854 25.5989 39.7854C25.5989 39.7854 23.6844 39.7854 23.6115 39.7854C24.1949 37.6858 23.6115 39.7854 24.1949 37.6858C23.8303 37.5409 23.575 37.197 23.575 36.7807C23.575 36.2377 24.0126 35.8033 24.5596 35.8033C25.1066 35.8214 25.5442 36.2739 25.5442 36.7988Z" fill="black"/>
<path d="M13.1641 56.0398C16.7993 56.0398 19.7462 53.1142 19.7462 49.5054C19.7462 45.8966 16.7993 42.9711 13.1641 42.9711C9.52898 42.9711 6.58209 45.8966 6.58209 49.5054C6.58209 53.1142 9.52898 56.0398 13.1641 56.0398Z" fill="#FFBB00"/>
<path d="M13.1642 56.1121C11.4503 56.1121 9.75462 55.4605 8.44186 54.1753C5.83457 51.5869 5.83457 47.3876 8.44186 44.8173C11.0492 42.2289 15.2792 42.2289 17.8682 44.8173C20.4573 47.4057 20.4755 51.605 17.8682 54.1753C16.5737 55.4786 14.8598 56.1121 13.1642 56.1121ZM13.1642 43.0615C11.505 43.0615 9.84579 43.695 8.56949 44.944C6.03513 47.46 6.03513 51.5507 8.56949 54.0486C11.1039 56.5646 15.2245 56.5646 17.7406 54.0486C20.275 51.5326 20.275 47.4419 17.7406 44.944C16.4825 43.695 14.8233 43.0615 13.1642 43.0615Z" fill="black"/>
<path d="M17.2414 53.5436C18.8577 51.939 18.344 48.8275 16.094 46.5938C13.844 44.3601 10.7097 43.8501 9.09339 45.4547C7.47708 47.0593 7.9908 50.1708 10.2408 52.4045C12.4908 54.6382 15.6251 55.1482 17.2414 53.5436Z" fill="#FDE34C"/>
<path d="M13.1641 54.121C15.7319 54.121 17.8135 52.0545 17.8135 49.5053C17.8135 46.9562 15.7319 44.8896 13.1641 44.8896C10.5964 44.8896 8.51477 46.9562 8.51477 49.5053C8.51477 52.0545 10.5964 54.121 13.1641 54.121Z" fill="#8D1500"/>
<path d="M16.8653 49.5596L16.209 49.6863L15.9355 49.7406C15.9172 50.0846 15.8443 50.4285 15.6984 50.7362C15.352 51.5145 14.6227 52.1299 13.7111 52.2928C12.216 52.5824 10.7756 51.605 10.4839 50.1389L11.0673 50.0302L14.7321 49.3243L15.2973 49.2157L15.8808 49.1071L16.1725 49.0528L16.8106 48.9261L17.0659 48.8718C16.993 48.4012 16.8289 47.9306 16.5736 47.5143C16.0449 46.6092 15.1879 45.9576 14.1669 45.6861C13.1458 45.4146 12.0701 45.5594 11.1585 46.0843C10.2468 46.6092 9.59044 47.46 9.31695 48.4736C9.04346 49.4872 9.18932 50.5552 9.71807 51.4602C10.2468 52.3652 11.1038 53.0169 12.1248 53.2884C12.453 53.3789 12.7994 53.4151 13.1458 53.4151C13.8387 53.4151 14.5133 53.2341 15.1332 52.8721C16.0449 52.3471 16.7012 51.4964 16.9747 50.4828C17.0659 50.157 17.1024 49.8311 17.1024 49.5053L16.8653 49.5596ZM11.6143 46.8807C11.8148 46.573 12.143 46.3377 12.5259 46.2653C12.9088 46.1929 13.3099 46.2834 13.6017 46.5006C13.8752 46.6997 14.0757 46.9893 14.1487 47.3514C14.1669 47.4419 14.1669 47.5324 14.1669 47.6229C14.1669 48.2745 13.7111 48.8356 13.0547 48.9623C12.3983 49.089 11.7601 48.727 11.5049 48.1297C11.4684 48.0573 11.4502 47.9668 11.432 47.8763C11.359 47.5143 11.432 47.1703 11.6143 46.8807Z" fill="#FEBB00"/>
<path d="M10.8864 48.2852C11.197 47.657 11.2509 47.0513 11.0068 46.9324C10.7628 46.8135 10.3132 47.2263 10.0026 47.8545C9.69201 48.4827 9.63811 49.0884 9.88217 49.2073C10.1262 49.3262 10.5759 48.9134 10.8864 48.2852Z" fill="white"/>
<path d="M48.5723 56.8903C49.0556 56.8903 49.4474 56.5013 49.4474 56.0214C49.4474 55.5416 49.0556 55.1526 48.5723 55.1526C48.0889 55.1526 47.6971 55.5416 47.6971 56.0214C47.6971 56.5013 48.0889 56.8903 48.5723 56.8903Z" fill="white"/>
<path d="M52 20.6168C52.4833 20.6168 52.8752 20.2278 52.8752 19.748C52.8752 19.2681 52.4833 18.8792 52 18.8792C51.5166 18.8792 51.1248 19.2681 51.1248 19.748C51.1248 20.2278 51.5166 20.6168 52 20.6168Z" fill="white"/>
<path d="M9.44457 38.337C9.92792 38.337 10.3197 37.948 10.3197 37.4682C10.3197 36.9884 9.92792 36.5994 9.44457 36.5994C8.96123 36.5994 8.5694 36.9884 8.5694 37.4682C8.5694 37.948 8.96123 38.337 9.44457 38.337Z" fill="white"/>
<path d="M35.8275 57.7956C35.0617 57.9947 34.77 58.3024 34.5512 59.0626C34.4965 59.2436 34.2412 59.2436 34.1865 59.0626C33.986 58.3024 33.676 58.0128 32.9102 57.7956C32.7279 57.7413 32.7279 57.4879 32.9102 57.4336C33.676 57.2345 33.9677 56.9267 34.1865 56.1665C34.2412 55.9855 34.4965 55.9855 34.5512 56.1665C34.7518 56.9267 35.0617 57.2164 35.8275 57.4336C36.0098 57.4879 36.0098 57.7413 35.8275 57.7956Z" fill="white"/>
<path d="M62.5386 16.4535L60.0771 15.0417L42.3366 4.88718L34.9523 0.651624C34.1865 0.217208 33.3478 0 32.4909 0C31.6339 0 30.7952 0.217208 30.0295 0.651624L22.6452 4.88718L4.92286 15.0417L2.46143 16.4535C0.929874 17.3404 0 18.9514 0 20.6891V52.2928C0 54.0305 0.929874 55.6596 2.46143 56.5284L4.92286 57.9402L22.6452 68.1128L30.0295 72.3484C30.7952 72.7828 31.6339 73 32.4909 73C33.3478 73 34.1865 72.7828 34.9523 72.3484L42.3366 68.1128L60.0589 57.9402L62.5203 56.5284C64.0519 55.6596 64.9818 54.0486 64.9818 52.2928V20.6891C65 18.9514 64.0519 17.3404 62.5386 16.4535ZM53.6227 55.9854L32.4909 68.0947L11.4502 56.0397L4.92286 52.2928V20.6891L32.4909 4.88718L60.0589 20.6891V52.2928L53.6227 55.9854Z" fill="#8AC7FF"/>
<path d="M18.5428 16.1818C17.1753 16.5438 16.6283 17.0869 16.2637 18.4444C16.1725 18.7702 15.6984 18.7702 15.6073 18.4444C15.2426 17.0869 14.6956 16.5438 13.3282 16.1818C13 16.0913 13 15.6207 13.3282 15.5302C14.6956 15.1682 15.2426 14.6252 15.6073 13.2676C15.6984 12.9418 16.1725 12.9418 16.2637 13.2676C16.6283 14.6252 17.1753 15.1682 18.5428 15.5302C18.8892 15.6207 18.8892 16.0913 18.5428 16.1818Z" fill="white"/>
<path d="M9.77285 51.0982C8.49655 51.4421 8.00426 51.9308 7.65784 53.1979C7.56668 53.5056 7.12909 53.5056 7.05616 53.1979C6.70973 51.9308 6.21745 51.4421 4.94115 51.0982C4.63119 51.0077 4.63119 50.5733 4.94115 50.5009C6.21745 50.157 6.70973 49.6682 7.05616 48.4012C7.14732 48.0935 7.58491 48.0935 7.65784 48.4012C8.00426 49.6682 8.49655 50.157 9.77285 50.5009C10.0828 50.5733 10.0828 51.0077 9.77285 51.0982Z" fill="white"/>
</svg>
