<svg width="65" height="73" viewBox="0 0 65 73" fill="none" xmlns="http://www.w3.org/2000/svg">
<path d="M60.9523 15.4943V57.5059L54.4432 61.2347L43.1936 67.6785L42.5737 68.0405H22.4264L4.02948 57.5059V15.4943L13.9846 9.79256L26.2006 2.7876H38.7995L42.7742 5.06828L44.2693 5.93711L51.0155 9.79256L60.9523 15.4943Z" fill="#FF593E"/>
<path opacity="0.1" d="M20.7672 44.727C20.7672 44.727 21.1683 37.1428 14.4222 35.0613C7.69425 32.9797 7.69425 32.9797 7.69425 32.9797C7.69425 32.9797 6.27209 40.4553 13.5288 42.5911L20.7672 44.727Z" fill="black"/>
<path opacity="0.1" d="M21.4417 52.2025C21.4417 52.2025 21.7152 46.8809 16.9929 45.4148C12.2706 43.9486 12.2706 43.9486 12.2706 43.9486C12.2706 43.9486 11.286 49.1978 16.3548 50.6821L21.4417 52.2025Z" fill="black"/>
<path opacity="0.1" d="M10.5933 31.2238C12.0634 31.2238 13.2553 30.0406 13.2553 28.5811C13.2553 27.1216 12.0634 25.9384 10.5933 25.9384C9.12309 25.9384 7.93127 27.1216 7.93127 28.5811C7.93127 30.0406 9.12309 31.2238 10.5933 31.2238Z" fill="black"/>
<path opacity="0.1" d="M20.1108 57.9947C21.1983 57.9947 22.08 57.1195 22.08 56.0398C22.08 54.9602 21.1983 54.085 20.1108 54.085C19.0233 54.085 18.1417 54.9602 18.1417 56.0398C18.1417 57.1195 19.0233 57.9947 20.1108 57.9947Z" fill="black"/>
<path opacity="0.1" d="M44.2327 44.727C44.2327 44.727 43.8316 37.1428 50.5778 35.0613C57.3057 32.9797 57.3057 32.9797 57.3057 32.9797C57.3057 32.9797 58.7278 40.4553 51.4712 42.5911L44.2327 44.727Z" fill="black"/>
<path opacity="0.1" d="M43.5399 52.2025C43.5399 52.2025 43.2664 46.8809 47.9887 45.4148C52.711 43.9486 52.711 43.9486 52.711 43.9486C52.711 43.9486 53.6956 49.1978 48.6269 50.6821L43.5399 52.2025Z" fill="black"/>
<path opacity="0.1" d="M54.4067 31.2238C55.8769 31.2238 57.0687 30.0406 57.0687 28.5811C57.0687 27.1216 55.8769 25.9384 54.4067 25.9384C52.9365 25.9384 51.7447 27.1216 51.7447 28.5811C51.7447 30.0406 52.9365 31.2238 54.4067 31.2238Z" fill="black"/>
<path opacity="0.1" d="M44.8892 57.9947C45.9767 57.9947 46.8583 57.1195 46.8583 56.0398C46.8583 54.9602 45.9767 54.085 44.8892 54.085C43.8017 54.085 42.92 54.9602 42.92 56.0398C42.92 57.1195 43.8017 57.9947 44.8892 57.9947Z" fill="black"/>
<path d="M54.4432 61.2347L43.1936 67.6786L43.1389 67.6424L38.7448 64.511L38.6901 64.4748L35.1894 61.995C37.4502 56.5829 37.9608 49.6322 37.9608 49.6322L36.8668 49.5055L33.8766 61.6329H31.634L30.9776 58.9359L30.8682 58.4653L29.7195 58.2843L29.0267 58.1757L29.1725 59.0446L29.3731 60.3116L27.0211 58.411L29.2455 56.2208L29.4643 56.0036L29.9383 55.533L30.4124 55.0805L32.1627 53.3609L36.3563 49.234L37.0126 48.5824L38.0519 47.5687L42.519 54.3384C42.5554 54.3565 42.8289 54.5556 43.3212 54.8633C44.0505 55.3339 45.2357 56.1122 46.6213 56.963C47.4236 57.4517 48.2805 57.9766 49.1557 58.4834C49.1739 58.5015 49.1922 58.5015 49.2104 58.5196C50.9972 59.5514 52.857 60.5469 54.3885 61.1985C54.4068 61.2166 54.425 61.2166 54.4432 61.2347Z" fill="#FFBC97"/>
<path d="M62.5386 16.4535L60.9523 15.5485L50.9972 9.82866L44.2693 5.97322L42.7195 5.08629L38.69 2.7694L34.9523 0.651624C34.1865 0.217208 33.3478 0 32.4909 0C31.6339 0 30.7952 0.217208 30.0295 0.651624L26.31 2.7875L14.0028 9.84676L4.02945 15.5485L2.46143 16.4535C0.929874 17.3404 0 18.9514 0 20.6891V52.2928C0 54.0486 0.929874 55.6596 2.46143 56.5284L4.02945 57.4334L22.5175 68.0404L30.0112 72.3484C30.777 72.7828 31.6157 73 32.4727 73C33.3296 73 34.1683 72.7828 34.9341 72.3484L42.4278 68.0404L43.1206 67.6422L54.352 61.1984L60.9341 57.4334L62.5203 56.5284C64.0337 55.6596 64.9818 54.0486 64.9818 52.2928V20.6891C65 18.9514 64.0519 17.3404 62.5386 16.4535ZM60.0771 52.2928L49.2104 58.5195L38.763 64.5108L32.6185 68.0223L32.5091 68.0947L32.3997 68.0223L4.92286 52.2928V20.6891L15.4979 14.6253L28.5708 7.13166L30.0295 6.29903L32.4909 4.88718L37.9607 8.0186L42.8471 10.8242L47.8065 13.666L49.4839 14.6253L50.0126 14.9331L60.0771 20.6891V52.2928Z" fill="#FF9686"/>
<path opacity="0.1" d="M51.0155 9.79246L50.9972 9.84676L50.1767 12.4714L50.0673 12.8515L49.5021 14.6253L48.1529 18.9152L44.0688 31.9839L43.54 33.6672L43.4853 33.8302H21.5148L21.4783 33.7215L20.9495 32.002L15.4979 14.6253L14.9327 12.8515L13.9846 9.84676L13.9664 9.79246L26.1824 2.7875H26.2918L30.0113 0.651624C30.777 0.217208 31.6157 0 32.4727 0C33.3296 0 34.1683 0.217208 34.9341 0.651624L38.6536 2.7875H38.763L42.7742 5.06819L44.2875 5.93702L51.0155 9.79246Z" fill="black"/>
<path d="M28.8808 11.6207L24.0673 20.3271C23.3016 21.7208 22.8275 23.2413 22.6816 24.798C22.2987 28.8163 23.0828 35.6041 32.5821 35.6041C41.2426 35.6041 42.9201 30.4816 43.0112 26.8252C43.0477 25.0333 42.6466 23.2594 41.8626 21.6484L34.46 6.19047C34.223 5.70175 33.4937 5.77415 33.3661 6.29907L31.7798 13.0506C31.7069 13.3583 31.2875 13.4488 31.1052 13.1954L29.8836 11.5483C29.5919 11.2044 29.0814 11.2406 28.8808 11.6207Z" fill="#FFD754"/>
<path opacity="0.2" d="M50.9242 12.9782L50.7784 13.2859L50.0126 14.933L48.1528 18.9333L44.7615 26.1735L42.0813 31.9115L41.2973 33.5948L41.1697 33.8482L41.1332 33.9387C41.0967 33.993 41.0603 34.0473 41.0056 34.1016C40.5862 34.4275 38.5806 35.966 35.8821 36.9796C35.4081 37.1607 34.9158 37.3236 34.3871 37.4503C32.1991 38.0295 29.7012 38.12 27.3127 36.9796C26 36.3461 24.7237 35.3506 23.5568 33.8663C23.5021 33.812 23.4474 33.7396 23.4109 33.6672C23.2286 33.4319 23.0645 33.1966 22.8821 32.9432C22.6634 32.6174 22.4628 32.2916 22.2622 31.9658C16.5918 22.3362 25.143 15.9648 25.5259 15.6752C25.5441 15.6752 25.5441 15.6571 25.5624 15.6571L27.2216 14.6434L30.5946 12.5619L32.0897 11.6387L35.9186 9.28563L37.9607 8.01858L39.7293 6.93254L42.7195 5.10438L42.7742 5.06818L44.2875 5.93701L44.2692 5.99131L43.3941 9.03222L42.8653 10.8242L42.2272 12.9963L41.7896 14.4986L41.4796 15.5666L41.2426 16.3992C41.1697 16.6526 41.4432 16.8698 41.6802 16.7612L45.7096 14.7158L47.8246 13.6479L49.7755 12.6705L50.1767 12.4713L50.3408 12.3989C50.7054 12.1998 51.1065 12.5981 50.9242 12.9782Z" fill="#FFD754"/>
<path opacity="0.2" d="M40.9509 12.9603L26.5652 16.4538C26.5652 16.4538 17.7405 21.3772 23.2651 31.8756C28.7896 42.3739 43.0112 36.8532 44.6157 28.1468L45.8373 13.3405C45.8738 12.8879 45.3815 12.5621 44.9804 12.7793L41.3703 14.7523C41.2062 14.8428 41.0239 14.6799 41.0968 14.517L41.4797 13.5215C41.5708 13.1957 41.2791 12.8698 40.9509 12.9603Z" fill="#FFD754"/>
<path d="M29.9747 18.119C29.7377 18.0104 25.4348 26.5539 25.4348 26.5539L27.4039 32.1832L37.5231 32.4004C37.5231 32.4004 40.5133 28.7803 39 24.9792C37.4867 21.178 34.5876 15.422 34.5876 15.422C34.5876 15.422 34.0589 20.1644 29.9747 18.119Z" fill="#F7C556"/>
<path d="M32.1991 25.6306L30.777 23.6576C30.777 23.6576 28.8078 27.8389 30.9958 30.0834C30.9958 30.0834 32.7097 28.3638 34.4053 29.9205C34.4053 29.9205 36.1739 26.9882 33.3478 22.6078L32.1991 25.6306Z" fill="#F0AD45"/>
<path d="M36.9944 22.2458C37.4576 22.2458 37.8331 21.5975 37.8331 20.7978C37.8331 19.998 37.4576 19.3497 36.9944 19.3497C36.5311 19.3497 36.1556 19.998 36.1556 20.7978C36.1556 21.5975 36.5311 22.2458 36.9944 22.2458Z" fill="#FEFEFC"/>
<path d="M26.0364 27.3865C26.5298 27.3865 26.9298 26.7381 26.9298 25.9384C26.9298 25.1387 26.5298 24.4904 26.0364 24.4904C25.543 24.4904 25.143 25.1387 25.143 25.9384C25.143 26.7381 25.543 27.3865 26.0364 27.3865Z" fill="#FEFEFC"/>
<path d="M23.8121 15.7114C24.2149 15.7114 24.5414 15.0712 24.5414 14.2815C24.5414 13.4917 24.2149 12.8515 23.8121 12.8515C23.4093 12.8515 23.0828 13.4917 23.0828 14.2815C23.0828 15.0712 23.4093 15.7114 23.8121 15.7114Z" fill="#FFD654"/>
<path d="M29.1907 7.53003C29.664 7.53003 30.0477 6.93034 30.0477 6.19059C30.0477 5.45083 29.664 4.85114 29.1907 4.85114C28.7175 4.85114 28.3338 5.45083 28.3338 6.19059C28.3338 6.93034 28.7175 7.53003 29.1907 7.53003Z" fill="#FF646C"/>
<path d="M41.0603 15.7295C41.735 15.7295 42.2819 14.7813 42.2819 13.6117C42.2819 12.4421 41.735 11.4939 41.0603 11.4939C40.3856 11.4939 39.8387 12.4421 39.8387 13.6117C39.8387 14.7813 40.3856 15.7295 41.0603 15.7295Z" fill="white"/>
<path d="M34.1683 13.9918C34.6114 13.9918 34.9706 13.3921 34.9706 12.6524C34.9706 11.9126 34.6114 11.3129 34.1683 11.3129C33.7253 11.3129 33.3661 11.9126 33.3661 12.6524C33.3661 13.3921 33.7253 13.9918 34.1683 13.9918Z" fill="#FF646C"/>
<path d="M31.6522 61.6328H30.9958L29.3731 60.3295L29.0267 58.1937L30.8864 58.4652L31.6522 61.6328Z" fill="#F09E78"/>
<path d="M37.9789 49.632C37.9789 49.632 37.4684 56.5827 35.2076 61.9948L34.697 61.6328H33.913L36.9032 49.5053L37.9789 49.632Z" fill="#F09E78"/>
<path d="M37.8148 36.9614C37.8148 36.9614 37.7966 38.3552 37.669 40.5453C36.6844 40.6539 35.5904 40.7082 34.4053 40.7082C31.4516 40.7082 29.136 40.3643 27.331 39.8575C27.2398 38.0837 27.2216 36.9795 27.2216 36.9795H37.8148V36.9614Z" fill="#3A404C"/>
<path d="M46.1837 32.5991V33.2508C46.1837 33.4499 46.1655 33.649 46.1473 33.8481C33.8948 32.9793 19.1627 33.8481 19.1627 33.8481C19.1262 33.649 19.1262 33.4499 19.1262 33.2508V32.5991C19.1262 32.3095 19.345 32.0742 19.6367 32.0561C21.6241 31.9656 28.8261 31.6217 32.655 31.6217C36.4656 31.6217 43.6858 31.9475 45.6732 32.0561C45.9649 32.0742 46.1837 32.3095 46.1837 32.5991Z" fill="#E23B4C"/>
<path d="M37.669 40.5274C37.3591 46.2653 36.411 57.4153 33.6943 62.8093C33.2202 63.7505 31.8345 63.7505 31.3605 62.8093C28.5161 57.18 27.6227 45.306 27.3492 39.8215C29.1543 40.3283 31.4699 40.6722 34.4236 40.6722C35.5905 40.6903 36.6662 40.636 37.669 40.5274Z" fill="#475264"/>
<path d="M42.5007 54.3561L43.23 50.6455C43.23 50.6455 43.9958 47.0797 41.0785 46.0117C38.1613 44.9438 36.1557 44.9981 36.1557 44.9981C36.1557 44.9981 34.3689 44.9619 34.4053 47.134C34.4418 49.3241 36.4839 49.2336 36.4839 49.2336L38.9818 49.5413L38.5989 53.0891L42.5007 54.3561Z" fill="#FFBC97"/>
<path d="M31.9622 57.7232C31.6887 58.6282 30.8682 59.2075 29.9565 59.2075C29.756 59.2075 29.5554 59.1712 29.3549 59.1169L27.0028 58.4291C25.8906 58.1033 25.2707 56.9449 25.5989 55.8407C25.7083 55.5149 25.8724 55.2072 26.1094 54.99C26.237 55.0624 26.3829 55.1348 26.5288 55.171L29.8107 56.1484C30.0112 56.2027 30.2118 56.2389 30.4124 56.2389C30.85 56.2389 31.2511 56.1122 31.5975 55.8769C32.0169 56.3656 32.1627 57.0535 31.9622 57.7232Z" fill="#FFBC97"/>
<path d="M31.7616 52.2747C31.2875 52.5643 30.6858 52.6548 30.1024 52.4738L25.8906 51.2249C25.6901 51.1706 25.5077 51.0801 25.3436 50.9715C25.7265 50.6275 26.237 50.4103 26.7658 50.4103C26.9663 50.4103 27.1669 50.4465 27.3675 50.5008L30.6494 51.4783C31.1234 51.6412 31.4881 51.9127 31.7616 52.2747Z" fill="#F09E78"/>
<path d="M32.2903 50.0123L32.1444 50.5191C31.8162 51.6233 30.6493 52.2387 29.5371 51.9129L25.3253 50.664C24.2131 50.3381 23.5932 49.1797 23.9214 48.0756L24.0673 47.5687C24.2678 46.9171 24.7601 46.4284 25.3618 46.2112C25.6171 46.6456 26.0364 46.9895 26.5652 47.1343L29.7924 48.0937C29.9929 48.148 30.1935 48.1842 30.3941 48.1842C30.8316 48.1842 31.251 48.0394 31.5974 47.804C32.2538 48.3109 32.5455 49.1797 32.2903 50.0123Z" fill="#FFBC97"/>
<path d="M31.6156 55.8588C31.2692 56.0941 30.8681 56.2208 30.4305 56.2208C30.2299 56.2208 30.0294 56.1846 29.8288 56.1303L26.5469 55.1529C26.4011 55.1167 26.2552 55.0443 26.1276 54.9719C26.5105 54.5737 27.0574 54.3564 27.6227 54.3564C27.8232 54.3564 28.0238 54.3926 28.2243 54.4469L30.5764 55.1348C30.9957 55.2796 31.3604 55.533 31.6156 55.8588Z" fill="#F09E78"/>
<path d="M32.0533 54.0846C31.7798 54.9897 30.9593 55.5689 30.0477 55.5689C29.8471 55.5689 29.6465 55.5327 29.446 55.4784L26.1641 54.501C25.0519 54.1752 24.432 53.0167 24.7602 51.9126C24.8695 51.5325 25.0883 51.2247 25.3436 50.9894C25.5077 51.098 25.69 51.1885 25.8906 51.2428L30.1024 52.4918C30.6858 52.6547 31.2875 52.5642 31.7616 52.2927C32.108 52.7814 32.2538 53.433 32.0533 54.0846Z" fill="#FFBC97"/>
<path d="M31.5975 47.8039C31.2511 48.0573 30.8317 48.1841 30.3941 48.1841C30.1936 48.1841 29.993 48.1479 29.7924 48.0936L26.5652 47.1342C26.0365 46.9713 25.6354 46.6455 25.3619 46.2111C25.763 46.0663 26.2188 46.0482 26.6564 46.1749L30.8682 47.4238C31.1599 47.4962 31.3969 47.641 31.5975 47.8039Z" fill="#F09E78"/>
<path d="M29.5372 47.5685L26.1823 46.573C25.1066 46.2652 24.5049 45.143 24.8149 44.0751L24.8513 43.9484C25.1613 42.8804 26.2917 42.2831 27.3674 42.5908L30.7223 43.5863C31.798 43.8941 32.3997 45.0163 32.0898 46.0842L32.0533 46.2109C31.7433 47.2789 30.6129 47.8762 29.5372 47.5685Z" fill="#FFBC97"/>
<path d="M46.1473 33.83C46.0379 34.5721 45.7644 35.26 45.2903 35.8573C43.9229 37.5769 40.5863 40.0386 32.655 40.0386C24.7237 40.0386 21.3871 37.5769 20.0197 35.8573C19.5638 35.2781 19.2721 34.5721 19.1627 33.8481C19.181 33.83 33.8948 32.9793 46.1473 33.83Z" fill="#475264"/>
</svg>
