<svg width="65" height="73" viewBox="0 0 65 73" fill="none" xmlns="http://www.w3.org/2000/svg">
<path d="M60.3083 15.1805V57.8107L42.3474 68.1044H22.6543L21.9851 67.7207L13.8344 63.0507L12.527 62.3014L4.69348 57.8125V15.1786L6.29628 14.2609L22.6543 4.88672H42.3474L46.6908 7.37553L60.3083 15.1805Z" fill="#FD9326"/>
<path d="M56.0105 32.6452C56.0105 33.1484 55.9989 33.6491 55.9758 34.1475C55.9308 35.1129 55.8439 36.0625 55.7151 36.9965C55.2137 40.6529 54.0741 44.1945 52.3472 47.4622C51.4505 49.1629 50.4001 50.7792 49.209 52.2914C49.189 52.3204 49.1671 52.3475 49.1452 52.3747C47.8443 54.0202 46.3848 55.5358 44.7872 56.8998L44.3697 57.2491C44.1046 57.4687 43.8366 57.6823 43.5655 57.8899C38.5782 61.7509 32.5504 64.0586 26.2429 64.5219C25.7816 64.5581 25.3202 64.5834 24.8552 64.5961C24.5051 64.6088 24.155 64.6142 23.8031 64.6142C20.4169 64.6174 17.0514 64.0902 13.8308 63.0521L12.527 62.301L4.68623 57.812L2.46164 56.5323C2.40329 56.4998 2.34676 56.4654 2.29024 56.4292C1.81006 56.002 1.34448 55.561 0.893483 55.106C0.314165 54.2867 0.0022806 53.3105 0 52.3095L0 20.6916C0.000872182 19.8337 0.228714 18.9911 0.660723 18.2481C1.09273 17.5051 1.71375 16.8878 2.46164 16.4579L4.69352 15.1782L6.29632 14.2605L22.6544 4.8863L29.2187 1.12683C32.3246 1.64929 35.3356 2.62522 38.1536 4.02291C38.7079 4.29683 39.2549 4.58643 39.7947 4.89173C44.1222 7.35328 47.8179 10.7747 50.593 14.8886C50.7243 15.0823 50.8538 15.2796 50.9796 15.4787C53.8296 19.908 55.5287 24.9697 55.9248 30.2107C55.9819 31.0131 56.0105 31.8246 56.0105 32.6452Z" fill="#FABB3A"/>
<path d="M23.8076 55.7527C36.6637 55.7527 47.0856 45.4073 47.0856 32.6457C47.0856 19.884 36.6637 9.53864 23.8076 9.53864C10.9516 9.53864 0.529663 19.884 0.529663 32.6457C0.529663 45.4073 10.9516 55.7527 23.8076 55.7527Z" fill="#FCC43D"/>
<path d="M44.831 18.882C45.63 18.8813 46.3974 19.192 46.968 19.7472C47.5085 17.8105 48.7363 16.1332 50.425 15.0247C52.1136 13.9162 54.1492 13.4514 56.1561 13.7161C58.1629 13.9807 60.0057 14.957 61.3442 16.4646C62.6828 17.9723 63.4269 19.9097 63.4391 21.9193H41.7731C41.7728 21.5205 41.8518 21.1256 42.0053 20.7571C42.1589 20.3886 42.3841 20.0538 42.6681 19.7717C42.952 19.4897 43.2892 19.2659 43.6603 19.1132C44.0315 18.9606 44.4293 18.882 44.831 18.882Z" fill="#FCA12E"/>
<path d="M23.8069 47.5326C32.0899 47.5326 38.8047 40.8672 38.8047 32.6449C38.8047 24.4227 32.0899 17.7573 23.8069 17.7573C15.5239 17.7573 8.80914 24.4227 8.80914 32.6449C8.80914 40.8672 15.5239 47.5326 23.8069 47.5326Z" fill="#FFD241"/>
<path d="M37.1469 13.1201H35.7028V25.0863H37.1469V13.1201Z" fill="#17144B"/>
<path d="M35.7029 13.1206C35.7029 13.1206 33.792 15.0392 30.0503 13.564C26.3086 12.0888 24.3976 12.3495 23.0775 13.1206C23.0775 13.1206 26.2502 14.3876 26.6787 15.8356C26.6787 15.8356 23.6391 17.8375 23.0775 19.7073C23.0775 19.7073 25.457 17.8375 28.9927 19.7073C32.5283 21.5771 35.6956 19.7073 35.6956 19.7073L35.7029 13.1206Z" fill="#E5283A"/>
<path d="M23.8068 42.9681C29.55 42.9681 34.2058 38.3465 34.2058 32.6454C34.2058 26.9444 29.55 22.3228 23.8068 22.3228C18.0635 22.3228 13.4077 26.9444 13.4077 32.6454C13.4077 38.3465 18.0635 42.9681 23.8068 42.9681Z" fill="white"/>
<path d="M60.3083 33.9072V57.8106L42.3474 68.1044H22.6543L21.9851 67.7206L13.8344 63.0507L12.527 62.3014L4.69348 57.8124V43.7647L4.92323 43.5819L10.3644 39.254L14.0805 36.3001L19.394 32.0754L23.9016 35.5634L32.758 27.3928L35.7028 24.6759L36.1824 24.2343L36.383 24.0479L37.1488 24.761L47.0464 33.9669V33.9687L47.825 34.6927L53.8934 28.4988L55.9174 30.2056L60.0767 33.7117L60.3083 33.9072Z" fill="#15AAEC"/>
<path d="M60.3083 33.9072V57.8106L42.3474 68.1044H22.6543L21.9851 67.7206L13.8344 63.0507L12.527 62.3014L4.69348 57.8124V52.261L4.92323 52.2176L10.0234 51.2709H10.0252L17.7128 49.841L15.5666 45.486L15.6633 45.1476L17.0035 40.4541L19.394 32.0754L30.4057 40.6243L33.7955 43.2561L31.8098 39.2359L31.0713 37.7427L34.0034 34.6782L34.7765 33.871L34.1839 31.9704L34.1821 31.9668L33.5074 29.8074L33.6916 29.4364L35.8651 25.0868L36.2444 24.3248V24.323L36.383 24.0479L37.1488 24.761L47.0464 33.9669V33.9687L47.825 34.6927L50.9796 37.6268L52.7173 34.7434L55.715 36.9969L55.9338 37.1616L57.8849 36.0973L55.9758 34.1479L53.9007 32.0302L53.8934 28.4988L55.9174 30.2056L60.0767 33.7117L60.3083 33.9072Z" fill="#1256DD"/>
<path d="M60.3083 52.2374V57.8105L42.3475 68.1042H22.6544L21.9852 67.7205L13.8344 63.0506L12.527 62.3012L16.7866 59.0993L16.8522 59.0504C16.8522 59.0504 19.0075 57.4123 23.1194 55.7452C23.8615 55.443 24.662 55.1407 25.53 54.8402C25.9949 54.6845 26.4781 54.5289 26.9778 54.3786C29.7656 53.542 32.6225 52.9515 35.5151 52.6139L35.8615 52.574C37.3622 52.4057 38.945 52.2935 40.6025 52.2518C40.9453 52.2518 41.2899 52.2374 41.64 52.2374C41.9573 52.2374 42.2782 52.2374 42.601 52.2374C44.0852 52.2518 45.4455 52.2627 46.6927 52.2718L48.2062 52.2826H49.1927C52.856 52.3025 55.3158 52.3025 56.9678 52.2826C58.8952 52.2718 59.7175 52.2482 60.0676 52.2319C60.2664 52.2428 60.3083 52.2374 60.3083 52.2374Z" fill="#232886"/>
<path d="M29.4049 50.0653C29.4049 52.4673 27.9972 53.1134 26.2595 53.1134C24.5217 53.1134 23.1158 52.4673 23.1158 50.0653C23.1158 47.6634 25.0615 44.418 26.2595 44.418C27.3079 44.418 29.4049 47.6652 29.4049 50.0653Z" fill="#232886"/>
<path d="M26.9832 52.3696H25.5354V55.4413H26.9832V52.3696Z" fill="#232886"/>
<path d="M41.8952 53.1134H35.7156L36.4468 50.5775H37.5882L36.7349 49.5765V49.5747L37.2929 47.6434L38.252 47.8262L37.6411 46.4397L38.8811 42.1372L41.8952 53.1134Z" fill="#232886"/>
<path d="M48.2062 52.3769L49.3276 46.0762H50.3396L49.6193 44.4363L50.449 39.7754L52.8906 49.6619L54.4679 43.9114L55.3942 46.9975L54.9821 47.8681L55.613 47.7306L56.2621 49.8918L55.5255 50.5977L56.5411 50.8239L57.0061 52.3769H48.2062Z" fill="#232886"/>
<path d="M60.3082 56.9072V57.8123L42.3474 68.106H22.6542L21.985 67.7223C22.8728 66.6188 23.8328 65.5746 24.8588 64.5963C25.0411 64.4153 25.2417 64.2343 25.4405 64.0533C27.5611 62.1509 30.3346 60.2721 33.0989 60.1653C38.7825 59.9463 36.7166 56.9326 42.0428 56.9072H42.9546C43.394 56.9072 43.8663 56.9072 44.3659 56.9072C44.5027 56.9072 44.6431 56.9072 44.7835 56.9072C45.9395 56.9072 47.2159 56.9072 48.527 56.9072H55.1935H60.3082Z" fill="#17144B"/>
<path d="M46.7274 52.6525C46.7274 54.991 45.3562 55.6209 43.664 55.6209C41.9719 55.6209 40.6006 54.991 40.6006 52.6525C40.6006 50.3139 42.497 47.1499 43.664 47.1499C44.6851 47.1499 46.7274 50.3193 46.7274 52.6525Z" fill="#17144B"/>
<path d="M44.368 54.8965H42.9584V57.8885H44.368V54.8965Z" fill="#17144B"/>
<path d="M51.8639 60.202C53.7048 60.202 55.1971 58.7206 55.1971 56.8932C55.1971 55.0659 53.7048 53.5845 51.8639 53.5845C50.023 53.5845 48.5306 55.0659 48.5306 56.8932C48.5306 58.7206 50.023 60.202 51.8639 60.202Z" fill="#17144B"/>
<path d="M17.1987 24.1749C16.8567 24.1112 16.507 24.0984 16.1612 24.1369C15.772 24.1698 15.4025 24.3216 15.1036 24.5713C15.0649 24.6058 15.0283 24.6427 14.9942 24.6817C14.9601 24.6427 14.9235 24.6058 14.8848 24.5713C14.586 24.321 14.2166 24.1687 13.8272 24.135C13.4813 24.0985 13.1319 24.1113 12.7897 24.1731C12.4574 24.2298 12.1334 24.3271 11.8251 24.4627C12.1606 24.4789 12.4852 24.4916 12.8043 24.5278C13.1126 24.5557 13.4178 24.6114 13.716 24.6943C13.9761 24.7557 14.2151 24.8844 14.4089 25.0672C14.486 25.1535 14.5451 25.254 14.583 25.363C14.6209 25.4721 14.6367 25.5874 14.6295 25.7025C14.6281 25.7496 14.6361 25.7964 14.6532 25.8403C14.6704 25.8841 14.6962 25.9241 14.7292 25.9579C14.7622 25.9917 14.8017 26.0185 14.8453 26.0368C14.889 26.0551 14.9359 26.0646 14.9833 26.0645H15.0124C15.106 26.0599 15.1941 26.0197 15.2586 25.9523C15.3231 25.8849 15.359 25.7955 15.3589 25.7025C15.3464 25.4717 15.4264 25.2452 15.5813 25.0726C15.7749 24.8892 16.014 24.7599 16.2743 24.698C16.5725 24.6156 16.8776 24.5605 17.186 24.5333C17.5033 24.4952 17.8278 24.4844 18.1633 24.4681C17.8555 24.3304 17.5314 24.2319 17.1987 24.1749Z" fill="#17144B"/>
<path d="M48.0403 17.8192C47.5923 17.7374 47.1346 17.7209 46.6818 17.7704C46.1715 17.813 45.6871 18.0123 45.296 18.3405C45.2453 18.3854 45.1972 18.4332 45.152 18.4835C45.1072 18.4328 45.0591 18.385 45.0079 18.3405C44.6169 18.0119 44.1326 17.812 43.6221 17.7686C43.1687 17.7191 42.7104 17.7356 42.2618 17.8174C41.8263 17.8914 41.4018 18.0191 40.9982 18.1975C41.4376 18.2193 41.8625 18.2337 42.2746 18.2826C42.6784 18.3195 43.0781 18.3922 43.4689 18.4998C43.811 18.58 44.1255 18.7486 44.3806 18.9885C44.5846 19.215 44.6901 19.5123 44.6742 19.8157V19.8284C44.6742 19.9505 44.723 20.0676 44.8098 20.1541C44.8966 20.2406 45.0144 20.2895 45.1374 20.29H45.1757C45.2992 20.2866 45.4163 20.2349 45.5014 20.146C45.5865 20.0571 45.6326 19.9383 45.6297 19.8157C45.6211 19.6656 45.6424 19.5152 45.6925 19.3732C45.7425 19.2313 45.8203 19.1006 45.9214 18.9885C46.1768 18.7485 46.4912 18.5794 46.8332 18.498C47.2246 18.391 47.6249 18.3189 48.0293 18.2826C48.4469 18.2337 48.8718 18.2193 49.3057 18.1975C48.9014 18.0196 48.4763 17.8926 48.0403 17.8192Z" fill="#17144B"/>
<path d="M25.3202 26.6328C24.978 26.5706 24.6284 26.5584 24.2827 26.5966C23.8934 26.6296 23.524 26.7813 23.2251 27.031C23.1863 27.0655 23.1498 27.1024 23.1157 27.1414C23.0815 27.1024 23.045 27.0655 23.0063 27.031C22.7075 26.7807 22.3381 26.6284 21.9487 26.5948C21.6028 26.5572 21.2533 26.57 20.9111 26.6328C20.5788 26.6895 20.2548 26.7868 19.9465 26.9224C20.282 26.9387 20.6066 26.9495 20.9257 26.9875C21.2341 27.0154 21.5393 27.0711 21.8374 27.1541C22.0975 27.2154 22.3366 27.3441 22.5303 27.5269C22.6853 27.6995 22.7653 27.926 22.7528 28.1568V28.1659C22.7526 28.2121 22.7615 28.258 22.7792 28.3008C22.7969 28.3436 22.8229 28.3826 22.8558 28.4154C22.8886 28.4482 22.9277 28.4742 22.9708 28.4919C23.0138 28.5097 23.0599 28.5188 23.1065 28.5188H23.1357C23.2292 28.5142 23.3174 28.474 23.3819 28.4066C23.4464 28.3392 23.4823 28.2498 23.4822 28.1568C23.47 27.9254 23.5499 27.6986 23.7046 27.5251C23.8988 27.3429 24.1377 27.2143 24.3975 27.1523C24.6958 27.0699 25.0009 27.0148 25.3093 26.9875C25.6265 26.9495 25.9511 26.9387 26.2866 26.9224C25.9777 26.7866 25.6531 26.6894 25.3202 26.6328Z" fill="#17144B"/>
<path d="M14.3212 20.1493H0.0309448C0.116404 19.3881 0.380908 18.6575 0.80312 18.0164C1.22533 17.3753 1.79343 16.8417 2.46158 16.4586L4.69347 15.1789L6.29627 14.2612C7.15315 14.5199 7.9434 14.9599 8.61262 15.5507C9.28184 16.1416 9.81414 16.8694 10.1729 17.684C10.2975 17.9622 10.3999 18.2497 10.4792 18.5438C10.7975 18.2349 11.2005 18.026 11.6378 17.9435C12.0751 17.8609 12.5272 17.9084 12.9374 18.0798C13.3477 18.2512 13.6978 18.5391 13.944 18.9072C14.1902 19.2754 14.3214 19.7075 14.3212 20.1493Z" fill="#FCA12E"/>
<path d="M47.0847 9.53783H31.0604C31.0602 9.09597 31.1914 8.66389 31.4376 8.29575C31.6837 7.9276 32.0339 7.63977 32.4441 7.46833C32.8544 7.29689 33.3065 7.24947 33.7438 7.33201C34.1811 7.41455 34.5841 7.62338 34.9023 7.93232C35.0294 7.46091 35.2131 7.00635 35.4494 6.57841C35.8058 5.93715 36.2744 5.36407 36.8334 4.88602C37.6956 4.14334 38.7484 3.65272 39.8749 3.46875L42.3474 4.88602L46.6909 7.37483C46.9517 8.06658 47.0851 8.79923 47.0847 9.53783Z" fill="#FCA12E"/>
<path d="M62.5438 16.4583L60.3138 15.1804L46.6909 7.37545L42.3475 4.88664L39.8731 3.46937L34.9625 0.654751C34.2141 0.225816 33.3651 0 32.5009 0C31.6367 0 30.7877 0.225816 30.0393 0.654751L29.2151 1.12717L22.6544 4.88664L6.29632 14.2609L4.69352 15.1786L2.46164 16.4583C1.71375 16.8882 1.09273 17.5055 0.660723 18.2485C0.228714 18.9915 0.000872182 19.8341 0 20.692L0 52.3098C0.000128249 53.1339 0.210165 53.9445 0.610581 54.6664C1.011 55.3882 1.58879 55.9978 2.29023 56.4386C2.34676 56.4748 2.40329 56.5092 2.46164 56.5417L4.69352 57.8214L12.5343 62.3104L13.8417 63.0597L21.9925 67.7296L22.6617 68.1134L30.0466 72.3452C30.795 72.7742 31.644 73 32.5082 73C33.3724 73 34.2214 72.7742 34.9698 72.3452L42.3548 68.1134L60.3156 57.8196L62.5438 56.5327C63.2898 56.1039 63.9093 55.4881 64.3404 54.7471C64.7714 54.006 64.9989 53.1656 65 52.3098V20.692C65.0008 19.8344 64.7742 18.9917 64.3431 18.2486C63.912 17.5054 63.2914 16.888 62.5438 16.4583ZM32.5009 68.1043L26.2575 64.5204L25.4515 64.0589L16.7975 59.0993L4.92328 52.3098V20.692L5.87146 20.1489L10.1729 17.6837L24.372 9.53846L32.5009 4.88664L35.4531 6.57903L40.617 9.53846L50.2812 15.079L50.9687 15.4736L60.0731 20.692V52.3098L54.7961 55.3344L52.0609 56.9037L49.0285 58.6414L32.5009 68.1043Z" fill="#FF8000"/>
</svg>
