<svg width="65" height="73" viewBox="0 0 65 73" fill="none" xmlns="http://www.w3.org/2000/svg">
<path d="M60.3324 15.2046V57.7955L45.5091 66.2847L42.3366 68.1128H22.6452L19.5456 66.3209L4.72229 57.8317V15.1684L22.6452 4.88721H42.3366L60.3324 15.2046Z" fill="#1CAB36"/>
<path d="M32.5273 60.7276C46.0107 60.7276 56.9411 49.8764 56.9411 36.4908C56.9411 23.1052 46.0107 12.254 32.5273 12.254C19.044 12.254 8.11359 23.1052 8.11359 36.4908C8.11359 49.8764 19.044 60.7276 32.5273 60.7276Z" fill="#4FE86B"/>
<path d="M32.5274 52.7633C41.58 52.7633 48.9187 45.4778 48.9187 36.4908C48.9187 27.5037 41.58 20.2183 32.5274 20.2183C23.4747 20.2183 16.136 27.5037 16.136 36.4908C16.136 45.4778 23.4747 52.7633 32.5274 52.7633Z" fill="#73FF8C"/>
<path d="M44.6704 14.2996L43.1206 17.0328H17.1935C16.446 17.0328 15.826 16.4173 15.826 15.6752C15.826 15.2951 15.9901 14.9512 16.2272 14.6978C16.4642 14.4625 16.8106 14.2996 17.1935 14.2996H44.6704V14.2996Z" fill="#FCDF3B"/>
<path d="M38.5989 42.6813C38.5989 42.7175 38.5807 43.3329 38.0701 44.1112C37.5778 44.8715 36.5933 45.7946 34.6971 46.5548H27.9327C27.1851 46.5548 26.4741 46.2471 25.9453 45.7222L24.359 44.1112L22.9369 42.6813L22.1893 41.9029C20.4755 40.1653 19.5273 37.8303 19.5273 35.4048V18.8608H42.0814V37.1244C42.0996 37.1425 42.209 39.0792 38.5989 42.6813Z" fill="#FCDF3B"/>
<path d="M43.1388 17.0327L42.0995 18.8608H19.5638L18.2145 17.0327H43.1388Z" fill="#F9A84F"/>
<path d="M36.3198 53.958V54.0123H28.7349V46.5548H34.697V53.958H36.3198Z" fill="#FCA84E"/>
<path d="M38.5988 42.6812C38.5988 42.7174 38.5806 43.3328 38.0701 44.1111H24.3772L22.9551 42.6812H38.5988Z" fill="#F9A84F"/>
<path d="M38.8541 56.4559H22.5722L25.6171 53.958H36.3197V54.0123L38.8541 56.4559Z" fill="#FCDF3B"/>
<path d="M40.4951 58.0308H20.6396L22.5723 56.4561H38.8542L40.4951 58.0308Z" fill="#FCA84E"/>
<path d="M45.5091 58.0307V66.2846L42.3366 68.1128L38.6901 70.1943H26.31L22.6452 68.1128L19.5456 66.3208V58.0307H45.5091Z" fill="#1DAEE5"/>
<path d="M38.69 70.1942L36.2468 71.5879H28.7349L26.3099 70.1942H38.69Z" fill="#1E90CF"/>
<path d="M40.9873 67.8051H24.0673C23.4838 67.8051 23.028 67.3345 23.028 66.7734V61.488C23.028 60.9088 23.5021 60.4562 24.0673 60.4562H40.9873C41.5708 60.4562 42.0266 60.9269 42.0266 61.488V66.7734C42.0448 67.3345 41.5708 67.8051 40.9873 67.8051Z" fill="white"/>
<path d="M19.5456 33.9928C16.2455 33.9928 13.5835 32.9973 11.6325 31.0243C8.29594 27.6576 8.35064 22.698 8.35064 22.4989L8.36887 21.8473C8.36887 21.5034 8.6606 21.2319 9.00702 21.2319H19.5638V23.8022H11.0309C11.2314 25.214 11.7966 27.549 13.4923 29.2505C14.9327 30.6985 16.9748 31.4406 19.5456 31.4406V33.9928Z" fill="#FEC832"/>
<path d="M56.7223 22.499C56.7223 22.7162 56.777 27.6758 53.4404 31.0244C51.4895 32.9974 48.8275 33.9929 45.5274 33.9929V31.4226C48.0982 31.4226 50.1403 30.6986 51.5807 29.2325C53.2581 27.531 53.8416 25.2141 54.0421 23.7842H45.5274V21.2139H56.0842C56.4306 21.2139 56.7041 21.4854 56.7223 21.8293V22.499Z" fill="#FAA854"/>
<path d="M32.9284 24.273L34.2959 27.0243C34.3688 27.1511 34.4964 27.2416 34.6423 27.2778L37.6872 27.7122C38.0518 27.7665 38.1977 28.219 37.9424 28.4724L35.7363 30.6083C35.6269 30.7169 35.5904 30.8617 35.6086 31.0065L36.1374 34.0293C36.1921 34.3913 35.8092 34.6809 35.481 34.4999L32.7461 33.07C32.6185 32.9976 32.4544 32.9976 32.3267 33.07L29.5918 34.4999C29.2636 34.6809 28.8807 34.3913 28.9354 34.0293L29.4642 31.0065C29.4824 30.8617 29.4459 30.7169 29.3366 30.6083L27.1304 28.4724C26.8569 28.219 27.0028 27.7665 27.3856 27.7122L30.4305 27.2778C30.5764 27.2597 30.704 27.1692 30.7769 27.0243L32.1444 24.273C32.2903 23.9472 32.7643 23.9472 32.9284 24.273Z" fill="#FDC733"/>
<g opacity="0.4">
<path opacity="0.4" d="M23.9944 33.9929H22.8092C22.6816 33.9929 22.5722 33.8843 22.5722 33.7576V18.8608H24.2314V33.7576C24.2314 33.8843 24.122 33.9929 23.9944 33.9929Z" fill="white"/>
</g>
<g opacity="0.4">
<path opacity="0.4" d="M23.9944 37.6132H22.8092C22.6816 37.6132 22.5722 37.5046 22.5722 37.3779V34.9886C22.5722 34.8619 22.6816 34.7533 22.8092 34.7533H23.9944C24.122 34.7533 24.2314 34.8619 24.2314 34.9886V37.3779C24.2314 37.5227 24.122 37.6132 23.9944 37.6132Z" fill="white"/>
</g>
<path d="M25.3801 15.6751C24.1402 16.0009 23.6479 16.4896 23.3198 17.7205C23.2468 18.0282 22.8092 18.0282 22.7181 17.7205C22.3899 16.4896 21.8976 16.0009 20.6578 15.6751C20.3478 15.6027 20.3478 15.1683 20.6578 15.0778C21.8976 14.752 22.3899 14.2633 22.7181 13.0324C22.791 12.7247 23.2286 12.7247 23.3198 13.0324C23.6479 14.2633 24.1402 14.752 25.3801 15.0778C25.69 15.1683 25.69 15.6027 25.3801 15.6751Z" fill="white"/>
<path d="M49.2286 15.6752C49.2286 16.0553 49.0645 16.3992 48.8275 16.6526C48.5722 16.888 48.2258 17.0509 47.8429 17.0509H43.1206L44.6704 14.2996H47.8429C48.6269 14.2996 49.2286 14.915 49.2286 15.6752Z" fill="#FFC734"/>
<path d="M46.8401 17.0327L45.5091 18.8608H42.0995L43.1388 17.0327H46.8401Z" fill="#C8875D"/>
<path d="M45.5091 18.8788V35.4228C45.5091 37.8483 44.561 40.1833 42.8471 41.9209L42.0995 42.6993H38.6171C42.2089 39.1153 42.0995 37.1605 42.0995 37.1605V18.8788H45.5091Z" fill="#FFC734"/>
<path d="M42.0995 42.6812L40.6774 44.1111H38.0701C38.5988 43.3147 38.5988 42.7174 38.5988 42.6812H42.0995Z" fill="#C8875D"/>
<path d="M40.6774 44.1112L39.0911 45.7222C38.5806 46.2471 37.8513 46.5548 37.122 46.5548H34.697C36.5932 45.7946 37.5596 44.8714 38.0701 44.1112H40.6774Z" fill="#FFC734"/>
<path d="M36.3197 46.5548H34.697V53.958H36.3197V46.5548Z" fill="#C8875D"/>
<path d="M42.5008 56.4559H38.8542L36.3198 54.0123V53.958H39.4376L42.5008 56.4559Z" fill="#FFC734"/>
<path d="M44.4334 58.0308H40.4951L38.8542 56.4561H42.5007L44.4334 58.0308Z" fill="#C8875D"/>
<path d="M56.7223 22.499C56.7223 22.7162 56.777 27.6758 53.4404 31.0244C51.4895 32.9974 48.8275 33.9929 45.5274 33.9929V31.4226C48.0982 31.4226 50.1403 30.6986 51.5807 29.2325C53.2581 27.531 53.8416 25.2141 54.0421 23.7842H45.5274V21.2139H56.0842C56.4306 21.2139 56.7041 21.4854 56.7223 21.8293V22.499Z" fill="#FCA84E"/>
<path d="M62.5386 16.4535L60.3506 15.1865L42.3548 4.86908L34.9523 0.651624C34.1865 0.217208 33.3478 0 32.4909 0C31.6339 0 30.7952 0.217208 30.0295 0.651624L22.6452 4.88718L4.7223 15.1684L2.46143 16.4716C0.929874 17.3404 0 18.9514 0 20.6891V52.3109C0 54.0486 0.929874 55.6596 2.46143 56.5465L4.7223 57.8497L19.5456 66.339L22.6452 68.1128L26.2917 70.2125L28.7349 71.6063L30.0295 72.3484C30.7952 72.7828 31.6339 73 32.4909 73C33.3478 73 34.1865 72.7828 34.9523 72.3484L36.2468 71.6063L38.69 70.2125L42.3366 68.1128L45.5091 66.2847L60.3324 57.7954L62.5203 56.5284C64.0519 55.6596 64.9818 54.0486 64.9818 52.2928V20.6891C65 18.9514 64.0519 17.3404 62.5386 16.4535ZM60.0771 52.3109L45.5091 60.6372L42.0266 62.6283L33.0196 67.787L32.4909 68.0947L31.9621 67.787L23.0281 62.6645L19.5456 60.6734L4.92286 52.3109V20.6891L32.4909 4.88718L60.0589 20.6891V52.3109H60.0771Z" fill="#22F148"/>
</svg>
