<svg xmlns="http://www.w3.org/2000/svg" width="27.66" height="24.85" viewBox="0 0 27.66 24.85">
  <g id="chat" transform="translate(0 0)">
    <g id="Group_1986" data-name="Group 1986" transform="translate(-2984.178 -2232.06)">
      <path id="Path_10380" data-name="Path 10380" d="M3009.728,2245.33a7.554,7.554,0,0,0,2.11-5.17c0-4.69-4.69-8.1-9.51-8.1-4.4,0-8.08,2.75-8.97,6.4.19,0,.4.01.57.02a11.811,11.811,0,0,1,4.76,1.25,10.679,10.679,0,0,1,1.549.97h6.741a.544.544,0,0,1,.54.54.538.538,0,0,1-.54.54h-5.471a9.174,9.174,0,0,1,2.6,5.61s.03.34.03.74c.03,0,.05-.01.08-.01a11.05,11.05,0,0,0,1.87-.44,5.953,5.953,0,0,0,4.13,1.67.537.537,0,0,0,.539-.54.545.545,0,0,0-.159-.38A3.293,3.293,0,0,1,3009.728,2245.33Zm-11.721-6.79a.54.54,0,1,1,.541-.54A.538.538,0,0,1,2998.007,2238.54Zm8.971,0h-6.81a.54.54,0,0,1,0-1.08h6.81a.54.54,0,0,1,0,1.08Z" fill="#379c37"/>
      <path id="Path_10381" data-name="Path 10381" d="M3002.848,2247.17a7.761,7.761,0,0,0-2.92-5.39l-.04-.03a11.2,11.2,0,0,0-1.62-1.05,10.05,10.05,0,0,0-4.02-1.06c-.42-.03-1.08,0-1.08,0-4.63.23-8.99,3.57-8.99,8.09a7.549,7.549,0,0,0,2.11,5.16,3.286,3.286,0,0,1-.87,3.1.549.549,0,0,0,0,.77.536.536,0,0,0,.38.15,5.987,5.987,0,0,0,4.13-1.66,12.257,12.257,0,0,0,3.76.58c4.85,0,8.84-3.34,9.16-7.55v-.02A7.063,7.063,0,0,0,3002.848,2247.17Zm-13.81-1.06a.538.538,0,0,1,.54.54.54.54,0,1,1-1.08,0A.537.537,0,0,1,2989.038,2246.11Zm8.969,4.32h-8.969a.55.55,0,0,1-.54-.54.537.537,0,0,1,.54-.54h8.969a.536.536,0,0,1,.541.53A.547.547,0,0,1,2998.007,2250.43Zm0-3.24H2991.2a.536.536,0,0,1-.53-.54.523.523,0,0,1,.53-.54h6.809a.536.536,0,0,1,.541.53A.547.547,0,0,1,2998.007,2247.19Z" fill="#379c37"/>
    </g>
  </g>
</svg>
