<svg id="chat" xmlns="http://www.w3.org/2000/svg" width="27.659" height="24.85" viewBox="0 0 27.659 24.85">
  <path id="Path_9383" data-name="Path 9383" d="M246.54,100a.54.54,0,1,0,.54.54A.54.54,0,0,0,246.54,100Zm0,0" transform="translate(-232.711 -94.598)" fill="#b3b3b3"/>
  <path id="Path_9384" data-name="Path 9384" d="M80.54,261.08a.54.54,0,1,0-.54-.54A.54.54,0,0,0,80.54,261.08Zm0,0" transform="translate(-75.678 -245.954)" fill="#b3b3b3"/>
  <path id="Path_9385" data-name="Path 9385" d="M18.151,0C13.288,0,9.3,3.353,8.987,7.577,4.356,7.809,0,11.149,0,15.666a7.549,7.549,0,0,0,2.107,5.166,3.285,3.285,0,0,1-.868,3.1.54.54,0,0,0,.382.922,5.959,5.959,0,0,0,4.129-1.669,12.311,12.311,0,0,0,3.758.588c4.863,0,8.854-3.352,9.164-7.575a12.147,12.147,0,0,0,3.238-.576,5.959,5.959,0,0,0,4.129,1.669.54.54,0,0,0,.382-.922,3.285,3.285,0,0,1-.868-3.1A7.549,7.549,0,0,0,27.659,8.1C27.659,3.409,22.968,0,18.151,0ZM9.508,22.689a10.921,10.921,0,0,1-3.7-.637.54.54,0,0,0-.6.137,4.874,4.874,0,0,1-2.424,1.439,4.369,4.369,0,0,0,.329-3.215.539.539,0,0,0-.132-.228,6.492,6.492,0,0,1-1.9-4.518c0-3.807,3.859-7.023,8.427-7.023,4.314,0,8.1,3,8.1,7.023C17.611,19.539,13.976,22.689,9.508,22.689Zm15.17-10.068a.542.542,0,0,0-.132.228,4.369,4.369,0,0,0,.329,3.215,4.873,4.873,0,0,1-2.424-1.439.541.541,0,0,0-.6-.137,10.642,10.642,0,0,1-3.183.624,7.733,7.733,0,0,0-2.919-5.389H22.8a.54.54,0,0,0,0-1.08H14.091a10.075,10.075,0,0,0-4.02-1.065c.31-3.628,3.816-6.5,8.081-6.5,4.568,0,8.427,3.216,8.427,7.023A6.492,6.492,0,0,1,24.678,12.621Zm0,0" fill="#b3b3b3"/>
  <path id="Path_9386" data-name="Path 9386" d="M127.347,260H120.54a.54.54,0,0,0,0,1.08h6.807a.54.54,0,0,0,0-1.08Zm0,0" transform="translate(-113.517 -245.954)" fill="#b3b3b3"/>
  <path id="Path_9387" data-name="Path 9387" d="M89.508,320H80.54a.54.54,0,0,0,0,1.08h8.968a.54.54,0,0,0,0-1.08Zm0,0" transform="translate(-75.678 -302.713)" fill="#b3b3b3"/>
  <path id="Path_9388" data-name="Path 9388" d="M293.347,100H286.54a.54.54,0,1,0,0,1.08h6.807a.54.54,0,1,0,0-1.08Zm0,0" transform="translate(-270.55 -94.598)" fill="#b3b3b3"/>
</svg>
