<svg id="Component_4_8" data-name="Component 4 – 8" xmlns="http://www.w3.org/2000/svg" width="25.58" height="25.589" viewBox="0 0 25.58 25.589">
  <g id="Path_2903" data-name="Path 2903" transform="translate(-48.924 -1022.231)" fill="none">
    <path d="M69.356,1047.819h-4.6a.886.886,0,0,1-.6-.952c.012-1.905.007-3.81,0-5.715a1.263,1.263,0,0,0-1.371-1.365q-1.06,0-2.121,0a1.275,1.275,0,0,0-1.423,1.414c0,1.888-.007,3.776,0,5.665a.887.887,0,0,1-.594.954h-4.6c-.021-.012-.042-.032-.064-.035a2.8,2.8,0,0,1-2.349-2.878c.033-2.405.009-4.812.009-7.218v-.272a7.5,7.5,0,0,1-1-.123,2.347,2.347,0,0,1-1-3.992q5.153-5.162,10.316-10.314a2.829,2.829,0,0,1,.482-.393,2.352,2.352,0,0,1,3,.423q4.948,4.944,9.9,9.887a3.41,3.41,0,0,1,1.139,1.823v.6a.782.782,0,0,0-.044.114,2.335,2.335,0,0,1-2.325,1.938h-.376v.337c0,2.472.007,4.944-.006,7.415a2.726,2.726,0,0,1-1.922,2.558C69.675,1047.738,69.515,1047.777,69.356,1047.819Z" stroke="none"/>
    <path d="M 69.16120910644531 1046.319458007812 C 69.24314117431641 1046.2978515625 69.320068359375 1046.277221679688 69.38623809814453 1046.256713867188 C 69.89363098144531 1046.09912109375 70.24999237060547 1045.632934570312 70.25282287597656 1045.1240234375 C 70.26127624511719 1043.398193359375 70.26014709472656 1041.64111328125 70.25905609130859 1039.941772460938 C 70.25858306884766 1039.19970703125 70.25810241699219 1038.45751953125 70.25838470458984 1037.716064453125 L 70.25838470458984 1037.37939453125 L 70.25838470458984 1035.87939453125 L 71.75838470458984 1035.87939453125 L 71.89606475830078 1035.879638671875 L 72.01338195800781 1035.8798828125 C 72.04845428466797 1035.8798828125 72.08302307128906 1035.879760742188 72.11750793457031 1035.879516601562 C 72.58646392822266 1035.87353515625 72.89571380615234 1035.613891601562 72.9884033203125 1035.148193359375 L 72.99067687988281 1035.13671875 L 72.99312591552734 1035.125366210938 C 72.99636840820312 1035.110229492188 72.99976348876953 1035.095458984375 73.00328063964844 1035.0810546875 L 73.00328063964844 1034.889526367188 C 72.92214965820312 1034.618286132812 72.68914794921875 1034.348388671875 72.30571746826172 1033.9677734375 C 70.00290679931641 1031.675903320312 67.66815185546875 1029.34033203125 65.41027069091797 1027.081665039062 C 64.40955352783203 1026.080688476562 63.4088249206543 1025.07958984375 62.40717315673828 1024.078491210938 C 62.18283462524414 1023.854187011719 61.92844390869141 1023.730590820312 61.69087600708008 1023.730590820312 C 61.54823303222656 1023.730590820312 61.40637588500977 1023.774658203125 61.26663589477539 1023.863220214844 C 61.22210311889648 1023.891357421875 61.14749526977539 1023.946350097656 61.04440307617188 1024.049438476562 L 60.93595504760742 1024.15771484375 C 57.58889389038086 1027.500244140625 54.12788391113281 1030.956665039062 50.72984313964844 1034.361206054688 C 50.35748291015625 1034.734375 50.41225433349609 1035.125366210938 50.45309448242188 1035.276123046875 C 50.4978141784668 1035.441284179688 50.63447570800781 1035.734619140625 51.04546356201172 1035.8427734375 C 51.12682342529297 1035.864135742188 51.28081512451172 1035.876586914062 51.4438362121582 1035.889892578125 C 51.56078338623047 1035.8994140625 51.69333267211914 1035.91015625 51.83561325073242 1035.9267578125 L 53.16142272949219 1036.081787109375 L 53.16142272949219 1037.416625976562 L 53.16142272949219 1037.688232421875 C 53.16142272949219 1038.397705078125 53.16353607177734 1039.107055664062 53.16563415527344 1039.816528320312 C 53.17060470581055 1041.489624023438 53.17574310302734 1043.2197265625 53.15197372436523 1044.926879882812 C 53.14021301269531 1045.781127929688 53.74915313720703 1046.241455078125 54.18813323974609 1046.2958984375 C 54.23418426513672 1046.3017578125 54.27981567382812 1046.3095703125 54.324951171875 1046.319458007812 L 57.75336837768555 1046.319458007812 C 57.7477912902832 1045.01708984375 57.74914169311523 1043.704467773438 57.75045394897461 1042.429809570312 C 57.75087356567383 1042.019897460938 57.75129318237305 1041.60986328125 57.75149536132812 1041.199096679688 C 57.75325393676758 1039.458740234375 58.92742538452148 1038.288330078125 60.67256546020508 1038.286743164062 C 61.0272331237793 1038.286254882812 61.38179397583008 1038.285766601562 61.73646545410156 1038.285766601562 C 62.09130477905273 1038.285766601562 62.44625473022461 1038.286254882812 62.80032348632812 1038.28759765625 C 64.48601531982422 1038.293090820312 65.66460418701172 1039.470458984375 65.66644287109375 1041.150756835938 L 65.66763305664062 1042.140014648438 C 65.66944122314453 1043.509643554688 65.67130279541016 1044.92041015625 65.66481018066406 1046.319458007812 L 69.16120910644531 1046.319458007812 M 69.35579681396484 1047.819458007812 L 64.75895690917969 1047.819458007812 C 64.31620788574219 1047.65478515625 64.15901184082031 1047.330200195312 64.16179656982422 1046.867065429688 C 64.17388153076172 1044.962036132812 64.16831207275391 1043.057006835938 64.16644287109375 1041.152221679688 C 64.16551208496094 1040.302856445312 63.65020370483398 1039.790405273438 62.79539489746094 1039.78759765625 C 62.44245147705078 1039.786254882812 62.08940124511719 1039.785766601562 61.73645782470703 1039.785766601562 C 61.38248443603516 1039.785766601562 61.02861785888672 1039.786254882812 60.67464447021484 1039.786743164062 C 59.75006484985352 1039.78759765625 59.25242614746094 1040.282470703125 59.25149536132812 1041.200561523438 C 59.25056457519531 1043.088745117188 59.2449836730957 1044.97705078125 59.25615310668945 1046.865112304688 C 59.25893402099609 1047.326538085938 59.10546493530273 1047.653930664062 58.66177368164062 1047.819458007812 L 54.06494522094727 1047.819458007812 C 54.04355621337891 1047.807373046875 54.0230827331543 1047.786987304688 54.00076293945312 1047.7841796875 C 52.807373046875 1047.63623046875 51.62979507446289 1046.527587890625 51.65211486816406 1044.90625 C 51.68560409545898 1042.500854492188 51.66142272949219 1040.094604492188 51.66142272949219 1037.688232421875 C 51.66142272949219 1037.591430664062 51.66142272949219 1037.494750976562 51.66142272949219 1037.416625976562 C 51.30330276489258 1037.374755859375 50.97403335571289 1037.374755859375 50.66521453857422 1037.293823242188 C 48.87467575073242 1036.822265625 48.33052444458008 1034.641967773438 49.66809463500977 1033.301635742188 C 53.10316467285156 1029.859985351562 56.54380416870117 1026.424072265625 59.98445510864258 1022.988037109375 C 60.1304931640625 1022.842041015625 60.29233551025391 1022.704345703125 60.46628570556641 1022.594604492188 C 60.85179901123047 1022.350280761719 61.27114868164062 1022.230590820312 61.69087982177734 1022.230590820312 C 62.31929016113281 1022.230590820312 62.94869613647461 1022.498657226562 63.4678955078125 1023.017944335938 C 66.7662353515625 1026.314208984375 70.05899810791016 1029.615478515625 73.36383819580078 1032.904541015625 C 73.89215087890625 1033.429077148438 74.37212371826172 1033.9638671875 74.50328063964844 1034.7275390625 L 74.50328063964844 1035.32666015625 C 74.48838806152344 1035.36474609375 74.46793365478516 1035.401977539062 74.45955657958984 1035.44091796875 C 74.2288818359375 1036.599975585938 73.31174468994141 1037.365478515625 72.13417816162109 1037.37939453125 C 72.09417724609375 1037.379760742188 72.05406951904297 1037.3798828125 72.01338195800781 1037.3798828125 C 71.9320068359375 1037.3798828125 71.84829711914062 1037.37939453125 71.75838470458984 1037.37939453125 C 71.75838470458984 1037.51806640625 71.75838470458984 1037.616577148438 71.75838470458984 1037.716064453125 C 71.75745391845703 1040.187622070312 71.76490783691406 1042.659912109375 71.7528076171875 1045.13134765625 C 71.74628448486328 1046.303344726562 70.94821166992188 1047.34228515625 69.83110809326172 1047.689208984375 C 69.67483520507812 1047.737670898438 69.51484680175781 1047.776611328125 69.35579681396484 1047.819458007812 Z" stroke="none" fill="#b3b3b3"/>
  </g>
</svg>
