<svg id="Component_4_2" data-name="Component 4 – 2" xmlns="http://www.w3.org/2000/svg" width="25.58" height="25.589" viewBox="0 0 25.58 25.589">
  <path id="Path_2903" data-name="Path 2903" d="M69.356,1047.82h-4.6a.886.886,0,0,1-.6-.952c.012-1.905.007-3.81,0-5.715a1.263,1.263,0,0,0-1.371-1.365q-1.06,0-2.121,0a1.275,1.275,0,0,0-1.423,1.414c0,1.888-.007,3.776,0,5.665a.887.887,0,0,1-.594.954h-4.6a.21.21,0,0,0-.064-.035,2.8,2.8,0,0,1-2.349-2.878c.033-2.405.009-4.812.009-7.218v-.271a7.537,7.537,0,0,1-1-.123,2.347,2.347,0,0,1-1-3.992q5.153-5.162,10.316-10.314a2.829,2.829,0,0,1,.482-.393,2.352,2.352,0,0,1,3,.423q4.948,4.944,9.9,9.887a3.41,3.41,0,0,1,1.139,1.823v.6a.781.781,0,0,0-.044.114,2.335,2.335,0,0,1-2.325,1.938h-.376v.337c0,2.472.007,4.944-.006,7.415a2.725,2.725,0,0,1-1.922,2.558C69.675,1047.738,69.515,1047.777,69.356,1047.82Z" transform="translate(-48.924 -1022.231)" fill="#1cab36"/>
</svg>
