<svg width="36" height="36" viewBox="0 0 36 36" fill="none" xmlns="http://www.w3.org/2000/svg">
<path d="M24.9979 3.0155C27.1557 2.88064 29.2835 3.62987 30.8869 5.09835C32.3554 6.70169 33.1046 8.82949 32.9847 11.0022V24.9978C33.1196 27.1705 32.3554 29.2983 30.9019 30.9017C29.2985 32.3701 27.1557 33.1194 24.9979 32.9845H11.0023C8.82953 33.1194 6.70172 32.3701 5.09836 30.9017C3.62987 29.2983 2.88064 27.1705 3.0155 24.9978V11.0022C2.88064 8.82949 3.62987 6.70169 5.09836 5.09835C6.70172 3.62987 8.82953 2.88064 11.0023 3.0155H24.9979ZM24.6083 9.86342C23.6793 8.93438 22.1808 8.93438 21.2518 9.86342L20.2478 10.8824C20.098 11.0322 20.098 11.2869 20.2478 11.4368C20.2478 11.4368 20.2772 11.466 20.3296 11.5181L20.6982 11.8846C20.9114 12.0968 21.1775 12.3617 21.4447 12.6281L22.3508 13.5338C22.5399 13.7237 22.6653 13.851 22.6753 13.8643C22.8402 14.0441 22.945 14.2838 22.945 14.5536C22.945 15.093 22.5105 15.5425 21.9561 15.5425C21.7013 15.5425 21.4616 15.4377 21.2967 15.2728L18.7943 12.7854C18.6744 12.6655 18.4646 12.6655 18.3448 12.7854L11.1971 19.933C10.7026 20.4275 10.4179 21.0868 10.4029 21.7911L10.313 25.3424C10.313 25.5372 10.373 25.717 10.5078 25.8519C10.6427 25.9867 10.8225 26.0617 11.0173 26.0617H14.5387C15.2579 26.0617 15.9472 25.777 16.4717 25.2675L26.5563 15.1529C27.4704 14.2239 27.4704 12.7255 26.5563 11.8114L24.6083 9.86342Z" fill="black" fill-opacity="0.5"/>
</svg>
