<svg width="65" height="73" viewBox="0 0 65 73" fill="none" xmlns="http://www.w3.org/2000/svg">
<path d="M60.9524 15.4943V57.5059L54.4433 61.2347L43.1936 67.6785L42.5737 68.0405H22.4265L4.02954 57.5059V15.4943L13.9847 9.79256L26.2006 2.7876H38.7995L42.7743 5.06828L44.2694 5.93711L51.0155 9.79256L60.9524 15.4943Z" fill="#FF593E"/>
<path opacity="0.1" d="M20.7672 44.7268C20.7672 44.7268 21.1684 37.1426 14.4222 35.0611C7.69431 32.9795 7.69431 32.9795 7.69431 32.9795C7.69431 32.9795 6.27215 40.4551 13.5288 42.591L20.7672 44.7268Z" fill="black"/>
<path opacity="0.1" d="M21.4418 52.2027C21.4418 52.2027 21.7153 46.881 16.993 45.4149C12.2707 43.9487 12.2707 43.9487 12.2707 43.9487C12.2707 43.9487 11.2861 49.1979 16.3548 50.6822L21.4418 52.2027Z" fill="black"/>
<path opacity="0.1" d="M10.5934 31.2239C12.0636 31.2239 13.2554 30.0407 13.2554 28.5812C13.2554 27.1217 12.0636 25.9385 10.5934 25.9385C9.12321 25.9385 7.9314 27.1217 7.9314 28.5812C7.9314 30.0407 9.12321 31.2239 10.5934 31.2239Z" fill="black"/>
<path opacity="0.1" d="M20.1107 57.9947C21.1983 57.9947 22.0799 57.1195 22.0799 56.0398C22.0799 54.9602 21.1983 54.085 20.1107 54.085C19.0232 54.085 18.1416 54.9602 18.1416 56.0398C18.1416 57.1195 19.0232 57.9947 20.1107 57.9947Z" fill="black"/>
<path opacity="0.1" d="M44.2328 44.7268C44.2328 44.7268 43.8317 37.1426 50.5778 35.0611C57.3057 32.9795 57.3057 32.9795 57.3057 32.9795C57.3057 32.9795 58.7279 40.4551 51.4712 42.591L44.2328 44.7268Z" fill="black"/>
<path opacity="0.1" d="M43.5398 52.2027C43.5398 52.2027 43.2663 46.881 47.9886 45.4149C52.7109 43.9487 52.7109 43.9487 52.7109 43.9487C52.7109 43.9487 53.6955 49.1979 48.6268 50.6822L43.5398 52.2027Z" fill="black"/>
<path opacity="0.1" d="M54.4066 31.2239C55.8768 31.2239 57.0686 30.0407 57.0686 28.5812C57.0686 27.1217 55.8768 25.9385 54.4066 25.9385C52.9364 25.9385 51.7446 27.1217 51.7446 28.5812C51.7446 30.0407 52.9364 31.2239 54.4066 31.2239Z" fill="black"/>
<path opacity="0.1" d="M44.8891 57.9947C45.9766 57.9947 46.8582 57.1195 46.8582 56.0398C46.8582 54.9602 45.9766 54.085 44.8891 54.085C43.8015 54.085 42.9199 54.9602 42.9199 56.0398C42.9199 57.1195 43.8015 57.9947 44.8891 57.9947Z" fill="black"/>
<path d="M54.4432 61.2348L43.1935 67.6787L43.1388 67.6425L38.7447 64.5111L38.69 64.4749L35.1893 61.9951C37.4502 56.583 37.9607 49.6323 37.9607 49.6323L36.8667 49.5056L33.8765 61.6331H31.6339L30.9775 58.9361L30.8681 58.4655L29.7195 58.2844L29.0266 58.1758L29.1725 59.0447L29.373 60.3117L27.021 58.4112L29.2454 56.221L29.4642 56.0038L29.9382 55.5331L30.4123 55.0806L32.1627 53.3611L36.3562 49.2341L37.0126 48.5825L38.0519 47.5688L42.5189 54.3385C42.5554 54.3566 42.8289 54.5557 43.3211 54.8634C44.0505 55.334 45.2356 56.1124 46.6213 56.9631C47.4235 57.4518 48.2805 57.9767 49.1557 58.4836C49.1739 58.5017 49.1921 58.5016 49.2104 58.5198C50.9972 59.5515 52.8569 60.547 54.3885 61.1987C54.4067 61.2168 54.4249 61.2167 54.4432 61.2348Z" fill="#FFBC97"/>
<path d="M62.5386 16.4535L60.9523 15.5485L50.9972 9.82866L44.2693 5.97322L42.7195 5.08629L38.69 2.7694L34.9523 0.651624C34.1865 0.217208 33.3478 0 32.4909 0C31.6339 0 30.7952 0.217208 30.0295 0.651624L26.31 2.7875L14.0028 9.84676L4.02945 15.5485L2.46143 16.4535C0.929874 17.3404 0 18.9514 0 20.6891V52.2928C0 54.0486 0.929874 55.6596 2.46143 56.5284L4.02945 57.4334L22.5175 68.0404L30.0112 72.3484C30.777 72.7828 31.6157 73 32.4727 73C33.3296 73 34.1683 72.7828 34.9341 72.3484L42.4278 68.0404L43.1206 67.6422L54.352 61.1984L60.9341 57.4334L62.5203 56.5284C64.0337 55.6596 64.9818 54.0486 64.9818 52.2928V20.6891C65 18.9514 64.0519 17.3404 62.5386 16.4535ZM60.0771 52.2928L49.2104 58.5195L38.763 64.5108L32.6185 68.0223L32.5091 68.0947L32.3997 68.0223L4.92286 52.2928V20.6891L15.4979 14.6253L28.5708 7.13166L30.0295 6.29903L32.4909 4.88718L37.9607 8.0186L42.8471 10.8242L47.8065 13.666L49.4839 14.6253L50.0126 14.9331L60.0771 20.6891V52.2928Z" fill="#FF9686"/>
<path opacity="0.1" d="M51.0154 9.79246L50.9972 9.84676L50.1767 12.4714L50.0673 12.8515L49.5021 14.6253L48.1528 18.9152L44.0687 31.9839L43.5399 33.6672L43.4852 33.8302H21.5147L21.4782 33.7215L20.9495 32.002L15.4979 14.6253L14.9326 12.8515L13.9845 9.84676L13.9663 9.79246L26.1823 2.7875H26.2917L30.0112 0.651624C30.777 0.217208 31.6157 0 32.4726 0C33.3296 0 34.1683 0.217208 34.9341 0.651624L38.6535 2.7875H38.7629L42.7742 5.06819L44.2875 5.93702L51.0154 9.79246Z" fill="black"/>
<path d="M28.8807 11.6208L24.0673 20.3273C23.3015 21.721 22.8274 23.2415 22.6816 24.7981C22.2987 28.8165 23.0827 35.6042 32.582 35.6042C41.2426 35.6042 42.92 30.4817 43.0112 26.8254C43.0476 25.0334 42.6465 23.2596 41.8625 21.6486L34.46 6.19065C34.2229 5.70193 33.4936 5.77433 33.366 6.29925L31.7798 13.0508C31.7068 13.3585 31.2875 13.449 31.1051 13.1956L29.8835 11.5484C29.5918 11.2045 29.0813 11.2407 28.8807 11.6208Z" fill="#FFD754"/>
<path opacity="0.2" d="M50.9242 12.9783L50.7783 13.2861L50.0125 14.9332L48.1528 18.9335L44.7615 26.1737L42.0812 31.9116L41.2972 33.595L41.1696 33.8484L41.1331 33.9389C41.0967 33.9932 41.0602 34.0475 41.0055 34.1018C40.5861 34.4276 38.5805 35.9662 35.8821 36.9798C35.408 37.1608 34.9157 37.3237 34.387 37.4504C32.1991 38.0297 29.7012 38.1202 27.3127 36.9798C25.9999 36.3463 24.7236 35.3508 23.5567 33.8665C23.502 33.8122 23.4473 33.7398 23.4108 33.6674C23.2285 33.4321 23.0644 33.1968 22.8821 32.9434C22.6633 32.6176 22.4627 32.2918 22.2622 31.9659C16.5918 22.3364 25.143 15.965 25.5258 15.6753C25.5441 15.6753 25.5441 15.6572 25.5623 15.6572L27.2215 14.6436L30.5946 12.562L32.0897 11.6389L35.9185 9.28581L37.9606 8.01877L39.7292 6.93273L42.7194 5.10456L42.7741 5.06836L44.2874 5.93719L44.2692 5.99149L43.394 9.0324L42.8653 10.8244L42.2271 12.9964L41.7895 14.4988L41.4796 15.5667L41.2425 16.3994C41.1696 16.6528 41.4431 16.87 41.6801 16.7614L45.7096 14.716L47.8246 13.6481L49.7755 12.6706L50.1766 12.4715L50.3407 12.3991C50.7054 12.2 51.1065 12.5982 50.9242 12.9783Z" fill="#FFD754"/>
<path opacity="0.2" d="M40.9509 12.9604L26.5652 16.4538C26.5652 16.4538 17.7405 21.3772 23.2651 31.8756C28.7896 42.374 43.0112 36.8533 44.6157 28.1469L45.8373 13.3405C45.8738 12.888 45.3815 12.5622 44.9804 12.7794L41.3703 14.7524C41.2062 14.8429 41.0239 14.68 41.0968 14.5171L41.4797 13.5215C41.5708 13.1957 41.2791 12.8699 40.9509 12.9604Z" fill="#FFD754"/>
<path d="M29.9748 18.1189C29.7378 18.0103 25.4348 26.5538 25.4348 26.5538L27.404 32.1831L37.5232 32.4003C37.5232 32.4003 40.5134 28.7802 39 24.979C37.4867 21.1779 34.5877 15.4219 34.5877 15.4219C34.5877 15.4219 34.0589 20.1643 29.9748 18.1189Z" fill="#F7C556"/>
<path d="M32.1991 25.6307L30.7769 23.6577C30.7769 23.6577 28.8078 27.839 30.9957 30.0835C30.9957 30.0835 32.7096 28.3639 34.4052 29.9206C34.4052 29.9206 36.1738 26.9883 33.3477 22.6079L32.1991 25.6307Z" fill="#F0AD45"/>
<path d="M36.9942 22.2457C37.4574 22.2457 37.833 21.5974 37.833 20.7977C37.833 19.9979 37.4574 19.3496 36.9942 19.3496C36.531 19.3496 36.1555 19.9979 36.1555 20.7977C36.1555 21.5974 36.531 22.2457 36.9942 22.2457Z" fill="#FEFEFC"/>
<path d="M26.0365 27.3863C26.5299 27.3863 26.9299 26.738 26.9299 25.9383C26.9299 25.1385 26.5299 24.4902 26.0365 24.4902C25.5431 24.4902 25.1431 25.1385 25.1431 25.9383C25.1431 26.738 25.5431 27.3863 26.0365 27.3863Z" fill="#FEFEFC"/>
<path d="M23.8121 15.7115C24.2149 15.7115 24.5414 15.0713 24.5414 14.2815C24.5414 13.4918 24.2149 12.8516 23.8121 12.8516C23.4093 12.8516 23.0828 13.4918 23.0828 14.2815C23.0828 15.0713 23.4093 15.7115 23.8121 15.7115Z" fill="#FFD654"/>
<path d="M29.1907 7.52997C29.664 7.52997 30.0476 6.93028 30.0476 6.19052C30.0476 5.45077 29.664 4.85107 29.1907 4.85107C28.7174 4.85107 28.3337 5.45077 28.3337 6.19052C28.3337 6.93028 28.7174 7.52997 29.1907 7.52997Z" fill="#FF646C"/>
<path d="M41.0602 15.7297C41.7349 15.7297 42.2818 14.7815 42.2818 13.6119C42.2818 12.4423 41.7349 11.4941 41.0602 11.4941C40.3856 11.4941 39.8386 12.4423 39.8386 13.6119C39.8386 14.7815 40.3856 15.7297 41.0602 15.7297Z" fill="white"/>
<path d="M34.1682 13.9919C34.6113 13.9919 34.9704 13.3922 34.9704 12.6524C34.9704 11.9127 34.6113 11.313 34.1682 11.313C33.7251 11.313 33.366 11.9127 33.366 12.6524C33.366 13.3922 33.7251 13.9919 34.1682 13.9919Z" fill="#FF646C"/>
<path d="M31.6521 61.633H30.9958L29.373 60.3297L29.0266 58.1938L30.8864 58.4654L31.6521 61.633Z" fill="#F09E78"/>
<path d="M37.979 49.6321C37.979 49.6321 37.4685 56.5827 35.2076 61.9948L34.6971 61.6328H33.9131L36.9033 49.5054L37.979 49.6321Z" fill="#F09E78"/>
<path d="M37.8149 36.9614C37.8149 36.9614 37.7967 38.3552 37.6691 40.5453C36.6845 40.6539 35.5905 40.7082 34.4054 40.7082C31.4517 40.7082 29.1361 40.3643 27.3311 39.8575C27.2399 38.0837 27.2217 36.9795 27.2217 36.9795H37.8149V36.9614Z" fill="#3A404C"/>
<path d="M46.1837 32.599V33.2506C46.1837 33.4497 46.1655 33.6489 46.1473 33.848C33.8948 32.9791 19.1627 33.848 19.1627 33.848C19.1262 33.6489 19.1262 33.4497 19.1262 33.2506V32.599C19.1262 32.3094 19.345 32.0741 19.6367 32.056C21.6241 31.9655 28.8261 31.6216 32.655 31.6216C36.4656 31.6216 43.6858 31.9474 45.6732 32.056C45.9649 32.0741 46.1837 32.3094 46.1837 32.599Z" fill="#E23B4C"/>
<path d="M37.6689 40.5272C37.3589 46.2651 36.4108 57.4151 33.6941 62.8091C33.2201 63.7504 31.8344 63.7504 31.3603 62.8091C28.516 57.1798 27.6226 45.3058 27.3491 39.8213C29.1542 40.3281 31.4697 40.672 34.4235 40.672C35.5904 40.6901 36.6661 40.6358 37.6689 40.5272Z" fill="#475264"/>
<path d="M42.5007 54.3561L43.23 50.6454C43.23 50.6454 43.9958 47.0796 41.0785 46.0117C38.1613 44.9437 36.1557 44.998 36.1557 44.998C36.1557 44.998 34.3689 44.9618 34.4053 47.1339C34.4418 49.3241 36.4839 49.2336 36.4839 49.2336L38.9818 49.5413L38.5989 53.089L42.5007 54.3561Z" fill="#FFBC97"/>
<path d="M31.9622 57.7229C31.6887 58.628 30.8683 59.2072 29.9566 59.2072C29.756 59.2072 29.5555 59.171 29.3549 59.1167L27.0029 58.4289C25.8907 58.1031 25.2708 56.9446 25.599 55.8405C25.7084 55.5147 25.8725 55.207 26.1095 54.9897C26.2371 55.0621 26.383 55.1346 26.5288 55.1708L29.8107 56.1482C30.0113 56.2025 30.2119 56.2387 30.4124 56.2387C30.85 56.2387 31.2511 56.112 31.5976 55.8767C32.0169 56.3654 32.1628 57.0532 31.9622 57.7229Z" fill="#FFBC97"/>
<path d="M31.7615 52.2745C31.2874 52.5641 30.6857 52.6546 30.1023 52.4736L25.8905 51.2247C25.6899 51.1704 25.5076 51.0799 25.3435 50.9713C25.7264 50.6274 26.2369 50.4102 26.7657 50.4102C26.9662 50.4102 27.1668 50.4464 27.3673 50.5007L30.6493 51.4781C31.1233 51.641 31.488 51.9125 31.7615 52.2745Z" fill="#F09E78"/>
<path d="M32.2903 50.0121L32.1445 50.5189C31.8163 51.623 30.6494 52.2385 29.5372 51.9127L25.3254 50.6637C24.2132 50.3379 23.5933 49.1795 23.9215 48.0753L24.0673 47.5685C24.2679 46.9169 24.7602 46.4281 25.3619 46.2109C25.6171 46.6454 26.0365 46.9893 26.5652 47.1341L29.7924 48.0934C29.993 48.1477 30.1936 48.1839 30.3941 48.1839C30.8317 48.1839 31.2511 48.0391 31.5975 47.8038C32.2539 48.3106 32.5456 49.1795 32.2903 50.0121Z" fill="#FFBC97"/>
<path d="M31.6158 55.8588C31.2693 56.0941 30.8682 56.2208 30.4306 56.2208C30.2301 56.2208 30.0295 56.1846 29.8289 56.1303L26.547 55.1529C26.4012 55.1167 26.2553 55.0443 26.1277 54.9719C26.5106 54.5737 27.0576 54.3564 27.6228 54.3564C27.8233 54.3564 28.0239 54.3926 28.2245 54.4469L30.5765 55.1348C30.9958 55.2796 31.3605 55.533 31.6158 55.8588Z" fill="#F09E78"/>
<path d="M32.0532 54.0845C31.7797 54.9895 30.9593 55.5687 30.0476 55.5687C29.847 55.5687 29.6465 55.5325 29.4459 55.4782L26.164 54.5008C25.0518 54.175 24.4319 53.0165 24.7601 51.9124C24.8695 51.5323 25.0883 51.2246 25.3435 50.9893C25.5076 51.0979 25.69 51.1884 25.8905 51.2427L30.1023 52.4916C30.6858 52.6545 31.2874 52.564 31.7615 52.2925C32.1079 52.7812 32.2538 53.4328 32.0532 54.0845Z" fill="#FFBC97"/>
<path d="M31.5974 47.8041C31.251 48.0575 30.8317 48.1842 30.3941 48.1842C30.1935 48.1842 29.9929 48.148 29.7924 48.0937L26.5652 47.1344C26.0364 46.9715 25.6353 46.6457 25.3618 46.2113C25.7629 46.0665 26.2188 46.0484 26.6563 46.1751L30.8681 47.424C31.1599 47.4964 31.3969 47.6412 31.5974 47.8041Z" fill="#F09E78"/>
<path d="M29.5373 47.5687L26.1824 46.5731C25.1067 46.2654 24.505 45.1432 24.815 44.0753L24.8514 43.9485C25.1614 42.8806 26.2918 42.2833 27.3676 42.591L30.7224 43.5865C31.7982 43.8942 32.3998 45.0165 32.0899 46.0844L32.0534 46.2111C31.7435 47.2791 30.613 47.8764 29.5373 47.5687Z" fill="#FFBC97"/>
<path d="M46.1472 33.8301C46.0378 34.5722 45.7643 35.26 45.2902 35.8574C43.9228 37.5769 40.5862 40.0386 32.6549 40.0386C24.7236 40.0386 21.387 37.5769 20.0195 35.8574C19.5637 35.2781 19.272 34.5722 19.1626 33.8482C19.1808 33.8301 33.8947 32.9793 46.1472 33.8301Z" fill="#475264"/>
</svg>
