<svg xmlns="http://www.w3.org/2000/svg" width="22.239" height="23.332" viewBox="0 0 22.239 23.332">
  <g id="Group_1993" data-name="Group 1993" transform="translate(-2925.518 -2227.778)">
    <path id="Path_10383" data-name="Path 10383" d="M2940.518,2248.47a4.172,4.172,0,0,1-7.761,0Z" fill="#379c37"/>
    <path id="Path_10384" data-name="Path 10384" d="M2947.757,2245.83a1.623,1.623,0,0,1-.029.31,1.69,1.69,0,0,1-.21.62.224.224,0,0,1-.06.1.806.806,0,0,1-.13.19,1.9,1.9,0,0,1-1.1.68,1.558,1.558,0,0,1-.21.04,1.34,1.34,0,0,1-.2.01h-18.35a1.957,1.957,0,0,1-1.481-.68c-.009-.02-.029-.03-.039-.05a.8.8,0,0,1-.13-.19.217.217,0,0,1-.061-.1,1.833,1.833,0,0,1-.209-.62,1.624,1.624,0,0,1-.03-.31,1.473,1.473,0,0,1,.01-.21,1.378,1.378,0,0,1,.08-.35,1.543,1.543,0,0,1,.19-.44,1.585,1.585,0,0,1,.25-.33,1.033,1.033,0,0,1,.15-.15.615.615,0,0,0,.08-.06,6.9,6.9,0,0,0,1.27-1.43c.09-.13.18-.26.26-.39.11-.2.22-.4.32-.61a.161.161,0,0,0,.04-.07,7.459,7.459,0,0,0,.69-3.14v-3.1a7.739,7.739,0,0,1,5.77-7.51c.03-.01.07-.02.109-.03a.3.3,0,0,1,.091-.02,8.005,8.005,0,0,1,3.63,0,7.748,7.748,0,0,1,5.97,7.56v3.1a7.5,7.5,0,0,0,.71,3.18c0,.01.01.02.02.03a4.334,4.334,0,0,0,.36.68,5.379,5.379,0,0,0,.43.63,7.348,7.348,0,0,0,1.039,1.12.636.636,0,0,1,.091.06l.15.15a1.6,1.6,0,0,1,.25.33,1.925,1.925,0,0,1,.2.44,2.058,2.058,0,0,1,.07.35A1.631,1.631,0,0,1,2947.757,2245.83Z" fill="#379c37"/>
    <path id="Path_10385" data-name="Path 10385" d="M2938.808,2228.08a2.257,2.257,0,0,0-.35-.09" fill="none"/>
    <path id="Path_10386" data-name="Path 10386" d="M2934.628,2228.04a1.474,1.474,0,0,0-.16.04" fill="none"/>
  </g>
</svg>
