<svg width="65" height="73" viewBox="0 0 65 73" fill="none" xmlns="http://www.w3.org/2000/svg">
<path d="M60.3323 15.2046V57.7955L45.509 66.2847L42.3365 68.1128H22.645L19.5455 66.3209L4.72217 57.8317V15.1684L22.645 4.88721H42.3365L60.3323 15.2046Z" fill="#1CAB36"/>
<path d="M32.5273 60.7275C46.0106 60.7275 56.941 49.8763 56.941 36.4907C56.941 23.1051 46.0106 12.2539 32.5273 12.2539C19.0439 12.2539 8.11353 23.1051 8.11353 36.4907C8.11353 49.8763 19.0439 60.7275 32.5273 60.7275Z" fill="#4FE86B"/>
<path d="M32.5273 52.7633C41.58 52.7633 48.9186 45.4778 48.9186 36.4908C48.9186 27.5037 41.58 20.2183 32.5273 20.2183C23.4746 20.2183 16.136 27.5037 16.136 36.4908C16.136 45.4778 23.4746 52.7633 32.5273 52.7633Z" fill="#73FF8C"/>
<path d="M44.6702 14.2998L43.1205 17.033H17.1934C16.4458 17.033 15.8259 16.4176 15.8259 15.6755C15.8259 15.2953 15.99 14.9514 16.227 14.698C16.4641 14.4627 16.8105 14.2998 17.1934 14.2998H44.6702Z" fill="#FCDF3B"/>
<path d="M38.5989 42.6813C38.5989 42.7175 38.5807 43.333 38.0701 44.1113C37.5778 44.8715 36.5933 45.7946 34.6971 46.5549H27.9327C27.1851 46.5549 26.4741 46.2472 25.9453 45.7222L24.359 44.1113L22.9369 42.6813L22.1893 41.903C20.4755 40.1653 19.5273 37.8303 19.5273 35.4049V18.8608H42.0814V37.1244C42.0996 37.1425 42.209 39.0793 38.5989 42.6813Z" fill="#FCDF3B"/>
<path d="M43.1389 17.0327L42.0996 18.8609H19.5638L18.2146 17.0327H43.1389Z" fill="#F9A84F"/>
<path d="M36.3197 53.9579V54.0122H28.7349V46.5547H34.697V53.9579H36.3197Z" fill="#FCA84E"/>
<path d="M38.5988 42.6812C38.5988 42.7174 38.5806 43.3328 38.0701 44.1111H24.3772L22.9551 42.6812H38.5988Z" fill="#F9A84F"/>
<path d="M38.8542 56.4559H22.5723L25.6171 53.958H36.3198V54.0123L38.8542 56.4559Z" fill="#FCDF3B"/>
<path d="M40.4952 58.0308H20.6396L22.5723 56.4561H38.8542L40.4952 58.0308Z" fill="#FCA84E"/>
<path d="M45.5092 58.0308V66.2847L42.3367 68.1128L38.6901 70.1944H26.31L22.6452 68.1128L19.5457 66.3209V58.0308H45.5092Z" fill="#1DAEE5"/>
<path d="M38.6899 70.1943L36.2467 71.5881H28.7348L26.3098 70.1943H38.6899Z" fill="#1E90CF"/>
<path d="M40.9874 67.8054H24.0673C23.4839 67.8054 23.0281 67.3348 23.0281 66.7737V61.4883C23.0281 60.9091 23.5021 60.4565 24.0673 60.4565H40.9874C41.5709 60.4565 42.0267 60.9272 42.0267 61.4883V66.7737C42.0449 67.3348 41.5709 67.8054 40.9874 67.8054Z" fill="white"/>
<path d="M19.5456 33.9929C16.2455 33.9929 13.5835 32.9974 11.6325 31.0244C8.29594 27.6577 8.35064 22.6981 8.35064 22.499L8.36887 21.8474C8.36887 21.5034 8.6606 21.2319 9.00702 21.2319H19.5638V23.8022H11.0309C11.2314 25.2141 11.7966 27.5491 13.4923 29.2505C14.9327 30.6986 16.9748 31.4407 19.5456 31.4407V33.9929Z" fill="#FEC832"/>
<path d="M56.7223 22.499C56.7223 22.7162 56.777 27.6758 53.4404 31.0244C51.4895 32.9974 48.8275 33.9929 45.5273 33.9929V31.4226C48.0982 31.4226 50.1402 30.6986 51.5806 29.2325C53.258 27.531 53.8415 25.2141 54.0421 23.7842H45.5273V21.2139H56.0841C56.4306 21.2139 56.704 21.4854 56.7223 21.8293V22.499Z" fill="#FAA854"/>
<path d="M32.9284 24.2732L34.2959 27.0245C34.3688 27.1512 34.4964 27.2417 34.6423 27.2779L37.6872 27.7123C38.0518 27.7666 38.1977 28.2191 37.9424 28.4725L35.7363 30.6084C35.6269 30.717 35.5904 30.8618 35.6086 31.0066L36.1374 34.0294C36.1921 34.3914 35.8092 34.6811 35.481 34.5L32.7461 33.0701C32.6185 32.9977 32.4544 32.9977 32.3267 33.0701L29.5918 34.5C29.2636 34.6811 28.8807 34.3914 28.9354 34.0294L29.4642 31.0066C29.4824 30.8618 29.446 30.717 29.3366 30.6084L27.1304 28.4725C26.8569 28.2191 27.0028 27.7666 27.3856 27.7123L30.4305 27.2779C30.5764 27.2598 30.704 27.1693 30.7769 27.0245L32.1444 24.2732C32.2903 23.9474 32.7643 23.9474 32.9284 24.2732Z" fill="#FDC733"/>
<g opacity="0.4">
<path opacity="0.4" d="M23.9944 33.993H22.8093C22.6817 33.993 22.5723 33.8844 22.5723 33.7577V18.8608H24.2315V33.7577C24.2315 33.8844 24.1221 33.993 23.9944 33.993Z" fill="white"/>
</g>
<g opacity="0.4">
<path opacity="0.4" d="M23.9944 37.6133H22.8093C22.6817 37.6133 22.5723 37.5047 22.5723 37.378V34.9887C22.5723 34.862 22.6817 34.7534 22.8093 34.7534H23.9944C24.1221 34.7534 24.2315 34.862 24.2315 34.9887V37.378C24.2315 37.5228 24.1221 37.6133 23.9944 37.6133Z" fill="white"/>
</g>
<path d="M25.3801 15.6752C24.1402 16.0011 23.6479 16.4898 23.3198 17.7206C23.2468 18.0283 22.8092 18.0283 22.7181 17.7206C22.3899 16.4898 21.8976 16.0011 20.6578 15.6752C20.3478 15.6028 20.3478 15.1684 20.6578 15.0779C21.8976 14.7521 22.3899 14.2634 22.7181 13.0325C22.791 12.7248 23.2286 12.7248 23.3198 13.0325C23.6479 14.2634 24.1402 14.7521 25.3801 15.0779C25.69 15.1684 25.69 15.6028 25.3801 15.6752Z" fill="white"/>
<path d="M49.2286 15.6755C49.2286 16.0556 49.0645 16.3995 48.8275 16.6529C48.5722 16.8882 48.2258 17.0511 47.8429 17.0511H43.1206L44.6704 14.2998H47.8429C48.6269 14.2998 49.2286 14.9152 49.2286 15.6755Z" fill="#FFC734"/>
<path d="M46.8401 17.0327L45.5091 18.8609H42.0996L43.1389 17.0327H46.8401Z" fill="#C8875D"/>
<path d="M45.5092 18.8789V35.4229C45.5092 37.8484 44.5611 40.1834 42.8472 41.9211L42.0997 42.6994H38.6172C42.2091 39.1154 42.0997 37.1606 42.0997 37.1606V18.8789H45.5092Z" fill="#FFC734"/>
<path d="M42.0995 42.6812L40.6774 44.1111H38.0701C38.5988 43.3147 38.5988 42.7174 38.5988 42.6812H42.0995Z" fill="#C8875D"/>
<path d="M40.6774 44.1113L39.0911 45.7223C38.5806 46.2472 37.8513 46.5549 37.122 46.5549H34.697C36.5932 45.7947 37.5596 44.8716 38.0701 44.1113H40.6774Z" fill="#FFC734"/>
<path d="M36.3197 46.5547H34.697V53.9579H36.3197V46.5547Z" fill="#C8875D"/>
<path d="M42.5008 56.4559H38.8542L36.3198 54.0123V53.958H39.4376L42.5008 56.4559Z" fill="#FFC734"/>
<path d="M44.4335 58.0308H40.4952L38.8542 56.4561H42.5008L44.4335 58.0308Z" fill="#C8875D"/>
<path d="M56.7223 22.499C56.7223 22.7162 56.777 27.6758 53.4404 31.0244C51.4895 32.9974 48.8275 33.9929 45.5273 33.9929V31.4226C48.0982 31.4226 50.1402 30.6986 51.5806 29.2325C53.258 27.531 53.8415 25.2141 54.0421 23.7842H45.5273V21.2139H56.0841C56.4306 21.2139 56.704 21.4854 56.7223 21.8293V22.499Z" fill="#FCA84E"/>
<path d="M62.5386 16.4535L60.3506 15.1865L42.3548 4.86908L34.9523 0.651624C34.1865 0.217208 33.3478 0 32.4909 0C31.6339 0 30.7952 0.217208 30.0295 0.651624L22.6452 4.88718L4.7223 15.1684L2.46143 16.4716C0.929874 17.3404 0 18.9514 0 20.6891V52.3109C0 54.0486 0.929874 55.6596 2.46143 56.5465L4.7223 57.8497L19.5456 66.339L22.6452 68.1128L26.2917 70.2125L28.7349 71.6063L30.0295 72.3484C30.7952 72.7828 31.6339 73 32.4909 73C33.3478 73 34.1865 72.7828 34.9523 72.3484L36.2468 71.6063L38.69 70.2125L42.3366 68.1128L45.5091 66.2847L60.3324 57.7954L62.5203 56.5284C64.0519 55.6596 64.9818 54.0486 64.9818 52.2928V20.6891C65 18.9514 64.0519 17.3404 62.5386 16.4535ZM60.0771 52.3109L45.5091 60.6372L42.0266 62.6283L33.0196 67.787L32.4909 68.0947L31.9621 67.787L23.0281 62.6645L19.5456 60.6734L4.92286 52.3109V20.6891L32.4909 4.88718L60.0589 20.6891V52.3109H60.0771Z" fill="#22F148"/>
</svg>
