<svg id="Group_1960" data-name="Group 1960" xmlns="http://www.w3.org/2000/svg" width="26.668" height="26.943" viewBox="0 0 26.668 26.943">
  <path id="Path_10238" data-name="Path 10238" d="M251.96,1090.438a3.148,3.148,0,0,1,2.207,2.874c.068.432.117.867.179,1.336H260.7l.424,6.337H253.6q-.137-1.012-.273-2.023c-.248-1.866-.491-3.733-.752-5.6a2.547,2.547,0,0,0-.251-.74.928.928,0,0,0-1.018-.613,7.2,7.2,0,0,1-.945.007.807.807,0,0,1-.857-.625.8.8,0,0,1,.505-.9.29.29,0,0,0,.055-.048Z" transform="translate(-249.485 -1090.438)" fill="#1cab36"/>
  <path id="Path_10239" data-name="Path 10239" d="M272.151,1113.818c.484,1.776.177,2.916-.986,3.713a2.884,2.884,0,0,1-3.367-.073c-1.1-.829-1.4-2.014-.885-3.622h-4.05a2.887,2.887,0,0,1-1.228,3.829,2.814,2.814,0,0,1-3.243-.292,2.941,2.941,0,0,1-.762-3.547,10.809,10.809,0,0,1-1.284-.695,3.248,3.248,0,0,1-1.3-2.341c-.317-2.484-.655-4.967-.984-7.449,0-.017,0-.035,0-.072h7.406l.421,6.308h-5.4a5.192,5.192,0,0,0,.366,1.806,1.676,1.676,0,0,0,1.553.857q3.851-.005,7.7,0,3.944,0,7.887,0a1.558,1.558,0,0,1,.416.039.779.779,0,0,1,.553.75.763.763,0,0,1-.59.746,3.669,3.669,0,0,1-.68.041C273.186,1113.822,272.672,1113.818,272.151,1113.818Z" transform="translate(-249.724 -1091.108)" fill="#1cab36"/>
  <path id="Path_10240" data-name="Path 10240" d="M270.208,1094.905c.1-.006.18-.013.257-.013,1.34,0,2.681-.006,4.021,0a2.607,2.607,0,0,1,2.661,1.988,4.239,4.239,0,0,1-.033,1.591c-.124.91-.244,1.821-.367,2.747h-6.96Z" transform="translate(-250.545 -1090.67)" fill="#1cab36"/>
  <path id="Path_10241" data-name="Path 10241" d="M269.23,1109.58l.421-6.316H276.5c-.071.529-.138,1.045-.209,1.562-.1.728-.169,1.462-.309,2.183a3.2,3.2,0,0,1-3.053,2.567C271.717,1109.6,270.5,1109.58,269.23,1109.58Z" transform="translate(-250.516 -1091.108)" fill="#1cab36"/>
  <path id="Path_10242" data-name="Path 10242" d="M268.27,1094.911l-.42,6.306h-4.439l-.421-6.306Z" transform="translate(-250.19 -1090.672)" fill="#1cab36"/>
  <path id="Path_10243" data-name="Path 10243" d="M263.967,1109.567l-.419-6.293h4.222l-.418,6.293Z" transform="translate(-250.219 -1091.108)" fill="#1cab36"/>
</svg>
