<svg width="65" height="73" viewBox="0 0 65 73" fill="none" xmlns="http://www.w3.org/2000/svg">
<path d="M31.0644 2.88236C31.9522 2.37255 33.0478 2.37255 33.9356 2.88236L61.0745 18.4663C61.9608 18.9752 62.5 19.9109 62.5 20.9161V52.0839C62.5 53.0891 61.9608 54.0248 61.0745 54.5337L33.9356 70.1177C33.0478 70.6275 31.9522 70.6275 31.0644 70.1176L3.92547 54.5337C3.03916 54.0248 2.5 53.0891 2.5 52.0839V20.9161C2.5 19.9109 3.03917 18.9752 3.92548 18.4663L31.0644 2.88236Z" fill="#FA5C43" stroke="#FF907E" stroke-width="5"/>
<path d="M31.0644 2.88236C31.9522 2.37255 33.0478 2.37255 33.9356 2.88236L61.0745 18.4663C61.9608 18.9752 62.5 19.9109 62.5 20.9161V52.0839C62.5 53.0891 61.9608 54.0248 61.0745 54.5337L33.9356 70.1177C33.0478 70.6275 31.9522 70.6275 31.0644 70.1176L3.92547 54.5337C3.03916 54.0248 2.5 53.0891 2.5 52.0839V20.9161C2.5 19.9109 3.03917 18.9752 3.92548 18.4663L31.0644 2.88236Z" fill="white" stroke="#D3EFFE" stroke-width="5"/>
<circle cx="32.5" cy="36.5" r="24.5" fill="black" fill-opacity="0.05"/>
<circle cx="32.5" cy="36.5" r="18.5" fill="black" fill-opacity="0.05"/>
<circle cx="33.0132" cy="35.855" r="8.72368" fill="white"/>
<path d="M51.1842 26.3278C50.9639 25.4909 50.5294 24.727 49.9242 24.1127C49.3191 23.4984 48.5645 23.0552 47.736 22.8275C44.6956 22 32.5 22 32.5 22C32.5 22 20.3044 22 17.2624 22.8275C16.4343 23.0556 15.6801 23.499 15.0753 24.1132C14.4704 24.7275 14.0361 25.4912 13.8157 26.3278C13 29.4151 13 35.8553 13 35.8553C13 35.8553 13 42.2954 13.8157 45.3827C14.0361 46.2196 14.4706 46.9835 15.0758 47.5978C15.6809 48.2121 16.4355 48.6553 17.264 48.883C20.3044 49.7105 32.5 49.7105 32.5 49.7105C32.5 49.7105 44.6956 49.7105 47.7376 48.883C48.5662 48.6554 49.3208 48.2123 49.926 47.598C50.5312 46.9837 50.9657 46.2197 51.1859 45.3827C52 42.2954 52 35.8553 52 35.8553C52 35.8553 52 29.4151 51.1842 26.3278ZM28.5106 41.7022V30.0084L38.7043 35.8553L28.5106 41.7022Z" fill="#FA5C43"/>
</svg>
