<svg width="70" height="70" viewBox="0 0 70 70" fill="none" xmlns="http://www.w3.org/2000/svg">
<rect width="70" height="70" rx="10" fill="url(#paint0_linear)"/>
<path d="M5.234 38.4V40.776H8.618V51H11.102V40.776H14.504V38.4H5.234ZM22.8959 47.454C22.9499 47.112 22.9859 46.806 22.9859 46.5C22.9859 45.15 22.5539 44.034 21.6899 43.116C20.8439 42.198 19.7459 41.748 18.4319 41.748C17.0459 41.748 15.8939 42.198 15.0119 43.116C14.1299 44.016 13.6799 45.15 13.6799 46.5C13.6799 47.868 14.1299 49.002 15.0299 49.902C15.9299 50.802 17.1179 51.252 18.6119 51.252C20.3399 51.252 21.6539 50.604 22.5359 49.326L20.6639 48.246C20.2139 48.84 19.5299 49.146 18.6479 49.146C17.2619 49.146 16.4159 48.588 16.1099 47.454H22.8959ZM16.0739 45.654C16.3439 44.502 17.1899 43.836 18.4319 43.836C19.4939 43.836 20.3939 44.43 20.6639 45.654H16.0739ZM29.6109 41.748C28.3869 41.748 27.4869 42.162 26.9289 43.008V42H24.6069V51H26.9289V46.14C26.9289 44.646 27.7029 43.908 28.9089 43.908C29.9889 43.908 30.6909 44.556 30.6909 45.762V51H33.0129V45.474C33.0129 44.304 32.6889 43.404 32.0409 42.738C31.4109 42.072 30.6009 41.748 29.6109 41.748ZM37.1376 44.556C37.1376 44.106 37.5876 43.818 38.1816 43.818C38.8476 43.818 39.3336 44.124 39.6216 44.736L41.6016 43.656C40.8996 42.432 39.6396 41.748 38.1816 41.748C37.2096 41.748 36.3996 42 35.7336 42.522C35.0856 43.026 34.7616 43.728 34.7616 44.61C34.7616 46.482 36.4356 47.04 37.7676 47.382C38.6856 47.616 39.4056 47.886 39.4056 48.372C39.4056 48.894 38.9916 49.146 38.1636 49.146C37.2456 49.146 36.6696 48.75 36.3996 47.976L34.3836 49.11C35.0496 50.532 36.3096 51.252 38.1636 51.252C39.1896 51.252 40.0536 51 40.7376 50.514C41.4396 50.01 41.7816 49.29 41.7816 48.372C41.7996 46.446 40.0896 45.816 38.7756 45.546C37.8576 45.312 37.1376 45.042 37.1376 44.556ZM52.1108 47.454C52.1648 47.112 52.2008 46.806 52.2008 46.5C52.2008 45.15 51.7688 44.034 50.9048 43.116C50.0588 42.198 48.9608 41.748 47.6468 41.748C46.2608 41.748 45.1088 42.198 44.2268 43.116C43.3448 44.016 42.8948 45.15 42.8948 46.5C42.8948 47.868 43.3448 49.002 44.2448 49.902C45.1448 50.802 46.3328 51.252 47.8268 51.252C49.5548 51.252 50.8688 50.604 51.7508 49.326L49.8788 48.246C49.4288 48.84 48.7448 49.146 47.8628 49.146C46.4768 49.146 45.6308 48.588 45.3248 47.454H52.1108ZM45.2888 45.654C45.5588 44.502 46.4048 43.836 47.6468 43.836C48.7088 43.836 49.6088 44.43 49.8788 45.654H45.2888ZM55.6122 44.556C55.6122 44.106 56.0622 43.818 56.6562 43.818C57.3222 43.818 57.8082 44.124 58.0962 44.736L60.0762 43.656C59.3742 42.432 58.1142 41.748 56.6562 41.748C55.6842 41.748 54.8742 42 54.2082 42.522C53.5602 43.026 53.2362 43.728 53.2362 44.61C53.2362 46.482 54.9102 47.04 56.2422 47.382C57.1602 47.616 57.8802 47.886 57.8802 48.372C57.8802 48.894 57.4662 49.146 56.6382 49.146C55.7202 49.146 55.1442 48.75 54.8742 47.976L52.8582 49.11C53.5242 50.532 54.7842 51.252 56.6382 51.252C57.6642 51.252 58.5282 51 59.2122 50.514C59.9142 50.01 60.2562 49.29 60.2562 48.372C60.2742 46.446 58.5642 45.816 57.2502 45.546C56.3322 45.312 55.6122 45.042 55.6122 44.556Z" fill="white"/>
<path fill-rule="evenodd" clip-rule="evenodd" d="M59.9961 27.8394C59.9961 29.1353 52.9999 22.1531 52.9999 22.1531C52.9999 22.1531 45.9999 29.1365 46.0012 27.8394L46 0C52 6.12736e-05 57.5 -6.12736e-05 59.9999 0L59.9961 27.8394Z" fill="url(#paint1_linear)"/>
<defs>
<linearGradient id="paint0_linear" x1="35" y1="0" x2="35" y2="70" gradientUnits="userSpaceOnUse">
<stop stop-color="#3B94E5"/>
<stop offset="1" stop-color="#327EC4"/>
</linearGradient>
<linearGradient id="paint1_linear" x1="53" y1="6.36142e-08" x2="53" y2="28" gradientUnits="userSpaceOnUse">
<stop stop-color="#FFC700"/>
<stop offset="1" stop-color="#D5A600"/>
</linearGradient>
</defs>
</svg>
