<svg xmlns="http://www.w3.org/2000/svg" width="35" height="35" viewBox="0 0 35 35"><g transform="translate(-10 148)"><g transform="translate(10 -148)"><path class="a" d="M7.568,13.136a3.58,3.58,0,1,1,3.58-3.58A3.584,3.584,0,0,1,7.568,13.136Zm27.443-3.58a3.58,3.58,0,1,0-3.58,3.58A3.584,3.584,0,0,0,35.011,9.557ZM23.875,6.375A4.375,4.375,0,1,0,19.5,10.75,4.38,4.38,0,0,0,23.875,6.375ZM2,21.886V36.2a.8.8,0,0,0,1.591,0V32.227H35.409V36.2A.8.8,0,0,0,37,36.2V21.886Zm33.409-6.364a2.374,2.374,0,0,0-.88-1.836,5.131,5.131,0,0,1-6.2,0,2.374,2.374,0,0,0-.88,1.836V20.3h7.955Zm-9.545-1.591a3.18,3.18,0,0,0-2.431-3.082,5.931,5.931,0,0,1-7.865,0,3.18,3.18,0,0,0-2.431,3.082V20.3H25.864ZM11.545,15.523a2.374,2.374,0,0,0-.88-1.836,5.131,5.131,0,0,1-6.195,0,2.374,2.374,0,0,0-.88,1.836V20.3h7.955Z" transform="translate(-2 -2)"/></g></g></svg>