<svg width="24" height="24" viewBox="0 0 24 24" fill="none" xmlns="http://www.w3.org/2000/svg">
<path fill-rule="evenodd" clip-rule="evenodd" d="M23.0958 21.4929C23.1441 21.5532 23.1802 21.6014 23.2164 21.6496C23.9517 22.5899 22.6137 23.735 21.8904 22.7466C21.8543 22.6984 21.8181 22.6501 21.7699 22.6019L23.0958 21.4929ZM21.3962 22.1077C18.8769 18.7928 16.3334 15.4658 13.802 12.163C13.5007 11.295 13.1993 10.4271 12.8979 9.57129C13.6091 10.0776 14.3204 10.5838 15.0316 11.1022C17.587 14.405 20.1546 17.6958 22.7222 21.0108L21.3962 22.1077Z" fill="white"/>
<path fill-rule="evenodd" clip-rule="evenodd" d="M3.94174 5.44867C3.95379 5.14731 4.05023 4.90623 4.19488 4.71336C4.35158 4.52049 4.56856 4.35173 4.8217 4.20708C5.01457 4.0986 5.12305 3.92984 5.12305 3.71286C5.12305 3.56821 5.07484 3.44767 4.9784 3.35123C4.89402 3.2548 4.77348 3.20658 4.60472 3.20658C4.37569 3.20658 4.09844 3.32712 3.79709 3.58026C3.48368 3.8334 3.23054 4.18298 3.01356 4.60487C2.80864 5.03883 2.70015 5.49689 2.70015 5.99111C2.70015 6.53355 2.82069 6.95545 3.06178 7.24475C3.30286 7.53405 3.60422 7.67871 3.96585 7.67871C4.30337 7.67871 4.58061 7.57022 4.80964 7.3653C5.03867 7.16037 5.14716 6.89518 5.14716 6.58177C5.14716 6.2563 5.03867 5.97906 4.80964 5.76208C4.58061 5.5451 4.32747 5.44867 4.03817 5.44867H3.94174ZM7.2446 5.44867C7.26871 5.14731 7.35309 4.90623 7.49774 4.71336C7.64239 4.53255 7.84731 4.35173 8.11251 4.20708C8.30537 4.0986 8.41386 3.94189 8.41386 3.71286C8.41386 3.55615 8.36565 3.43561 8.28127 3.33918C8.18483 3.2548 8.06429 3.20658 7.89553 3.20658C7.72677 3.20658 7.52185 3.27891 7.29282 3.42356C7.06379 3.58026 6.85886 3.77313 6.65394 4.02627C6.46107 4.27941 6.30437 4.56871 6.17177 4.90623C6.05123 5.2558 5.99096 5.61743 5.99096 5.99111C5.99096 6.53355 6.1115 6.9434 6.35259 7.24475C6.59367 7.54611 6.89503 7.69076 7.25665 7.69076C7.59417 7.69076 7.87142 7.58227 8.10045 7.37735C8.32948 7.16037 8.43797 6.89518 8.43797 6.58177C8.43797 6.2563 8.32948 5.97906 8.10045 5.76208C7.87142 5.5451 7.61828 5.44867 7.34103 5.44867H7.2446ZM11.7891 8.13677C12.1627 9.523 12.5244 10.9213 12.898 12.3075C14.5374 14.4773 16.2009 16.6712 17.8523 18.8409H8.58262L2.77248 23.9881V18.8168C1.33802 18.6119 0 17.1533 0 15.6948V3.14631C0 1.57926 1.555 0.012207 3.10999 0.012207H17.2978V5.64154C17.2978 5.72592 17.3219 5.79824 17.3581 5.87057C17.4063 5.94289 17.4545 5.99111 17.5269 6.03933C17.5992 6.07549 17.6715 6.0996 17.7559 6.0996H23.1924V15.6948V15.8153V18.8289H22.0472C19.9136 16.0443 17.7318 13.2237 15.562 10.4271L11.7891 8.13677ZM18.214 5.18348V0.75957L22.5655 5.18348H18.214Z" fill="white"/>
</svg>
