<svg width="11" height="10" viewBox="0 0 11 10" fill="none" xmlns="http://www.w3.org/2000/svg">
<path d="M1.1 10H1.65V3.15789H1.1C0.808262 3.15789 0.528472 3.2688 0.322183 3.4662C0.115892 3.66361 0 3.93135 0 4.21053V8.94737C0 9.22654 0.115892 9.49428 0.322183 9.69169C0.528472 9.8891 0.808262 10 1.1 10ZM9.9 3.15789H6.05L6.6671 1.38526C6.72216 1.22706 6.73716 1.0586 6.71087 0.893766C6.68457 0.728929 6.61772 0.572428 6.51584 0.437155C6.41395 0.301882 6.27994 0.191706 6.12485 0.115703C5.96975 0.0396997 5.798 4.32173e-05 5.62375 0H5.5L2.75 2.86211V10H8.8L10.9516 5.47579L11 5.26316V4.21053C11 3.93135 10.8841 3.66361 10.6778 3.4662C10.4715 3.2688 10.1917 3.15789 9.9 3.15789Z" fill="#1CAB36"/>
</svg>
