<svg width="32" height="32" viewBox="0 0 32 32" fill="none" xmlns="http://www.w3.org/2000/svg">
<rect width="32" height="32" rx="10" fill="white" fill-opacity="0.2"/>
<path d="M13.3883 11.6002L12.7204 14.0526H14.0561L13.3883 11.6002Z" fill="white"/>
<path d="M21.8549 7H9.14506C8.84147 7.00031 8.5504 7.12105 8.33573 7.33573C8.12106 7.5504 8.00031 7.84146 8 8.14506V18.1456H23V8.14506C22.9997 7.84146 22.8789 7.5504 22.6643 7.33573C22.4496 7.12105 22.1585 7.00031 21.8549 7V7ZM15.7537 16.386C15.5673 16.4987 15.3539 16.5588 15.1362 16.5601C14.8737 16.5601 14.7182 16.4717 14.6696 16.2948L14.3582 15.151H12.4293L12.116 16.2954C12.0671 16.4723 11.9116 16.5607 11.6495 16.5607C11.4317 16.5595 11.2183 16.4993 11.032 16.3866C10.9495 16.3511 10.8783 16.2937 10.8262 16.2207C10.774 16.1476 10.7428 16.0617 10.7359 15.9722C10.7386 15.9381 10.7447 15.9044 10.7543 15.8715L12.4565 10.2895C12.4841 10.2105 12.5281 10.1383 12.5857 10.0776C12.6432 10.0169 12.713 9.96903 12.7904 9.93724C12.9797 9.85571 13.1837 9.81366 13.3899 9.81366C13.596 9.81366 13.8 9.85571 13.9893 9.93724C14.0667 9.96903 14.1365 10.0169 14.1941 10.0776C14.2516 10.1383 14.2957 10.2105 14.3233 10.2895L16.0343 15.8715C16.0438 15.9044 16.05 15.9381 16.0527 15.9722C16.0455 16.0619 16.0138 16.1479 15.9611 16.2209C15.9084 16.2939 15.8366 16.351 15.7537 16.386ZM20.1415 16.1208C20.1389 16.1854 20.1194 16.2481 20.0849 16.3028C20.0504 16.3574 20.0021 16.4021 19.9449 16.4322C19.7948 16.5226 19.6215 16.5671 19.4464 16.5601C19.286 16.5652 19.1284 16.5171 18.9982 16.4233C18.9429 16.3872 18.8972 16.338 18.8653 16.2801C18.8334 16.2221 18.8162 16.1573 18.8153 16.0912V15.8763C18.6587 16.1038 18.4518 16.2921 18.2106 16.4267C17.9694 16.5612 17.7004 16.6382 17.4245 16.6519C17.2704 16.6566 17.1169 16.6303 16.9731 16.5747C16.8293 16.5191 16.6981 16.4352 16.5873 16.328C16.4699 16.202 16.3797 16.0532 16.3222 15.8909C16.2648 15.7285 16.2413 15.5561 16.2534 15.3843C16.236 15.1772 16.2791 14.9696 16.3773 14.7865C16.4756 14.6035 16.6248 14.4528 16.807 14.3529C17.3043 14.1268 17.8488 14.024 18.3943 14.0533H18.7235V13.9568C18.7274 13.7767 18.6693 13.6007 18.5589 13.4583C18.4947 13.3846 18.414 13.327 18.3233 13.2904C18.2327 13.2538 18.1347 13.2391 18.0373 13.2475C17.7855 13.2375 17.5356 13.296 17.3144 13.4168C17.2087 13.492 17.0912 13.5493 16.9668 13.5861C16.8947 13.5859 16.824 13.5658 16.7627 13.5278C16.7013 13.4899 16.6517 13.4357 16.6193 13.3712C16.5326 13.2228 16.4883 13.0534 16.4914 12.8816C16.4914 12.6803 16.6607 12.508 16.9994 12.3647C17.3329 12.2231 17.6916 12.1504 18.0539 12.151C18.3364 12.1286 18.6205 12.1624 18.8899 12.2504C19.1593 12.3384 19.4086 12.4788 19.6234 12.6637C19.793 12.8303 19.9264 13.0301 20.0153 13.2505C20.1042 13.4709 20.1468 13.7073 20.1403 13.9449V16.1178L20.1415 16.1208Z" fill="white"/>
<path d="M18.6863 14.739C18.5198 14.7372 18.3533 14.7457 18.1878 14.7645C18.0615 14.7796 17.9408 14.8246 17.8355 14.8959C17.7856 14.9283 17.745 14.9731 17.7177 15.026C17.6904 15.0788 17.6773 15.1378 17.6798 15.1973C17.6731 15.2455 17.6777 15.2946 17.6932 15.3407C17.7086 15.3869 17.7346 15.4288 17.769 15.4632C17.8035 15.4977 17.8454 15.5236 17.8915 15.5391C17.9377 15.5546 17.9868 15.5592 18.035 15.5525C18.1234 15.5463 18.2096 15.522 18.2883 15.4813C18.367 15.4406 18.4365 15.3842 18.4927 15.3157C18.5649 15.2449 18.6222 15.1604 18.6615 15.0672C18.7007 14.974 18.721 14.8739 18.7212 14.7728V14.739H18.6863Z" fill="white"/>
<path d="M8 19.2576V24.8106C8.00031 25.1142 8.12106 25.4052 8.33573 25.6199C8.5504 25.8346 8.84147 25.9553 9.14506 25.9556H21.8549C22.1585 25.9553 22.4496 25.8346 22.6643 25.6199C22.8789 25.4052 22.9997 25.1142 23 24.8106V19.2576H8ZM11.1764 20.5749H14.0598C14.2072 20.5749 14.3487 20.6335 14.4529 20.7378C14.5572 20.842 14.6158 20.9834 14.6158 21.1309C14.6158 21.2783 14.5572 21.4197 14.4529 21.524C14.3487 21.6282 14.2072 21.6868 14.0598 21.6868H11.1764C11.029 21.6868 10.8876 21.6282 10.7833 21.524C10.6791 21.4197 10.6205 21.2783 10.6205 21.1309C10.6205 20.9834 10.6791 20.842 10.7833 20.7378C10.8876 20.6335 11.029 20.5749 11.1764 20.5749ZM16.296 23.4565H11.1764C11.029 23.4565 10.8876 23.3979 10.7833 23.2937C10.6791 23.1894 10.6205 23.048 10.6205 22.9006C10.6205 22.7531 10.6791 22.6117 10.7833 22.5074C10.8876 22.4032 11.029 22.3446 11.1764 22.3446H16.296C16.4435 22.3446 16.5849 22.4032 16.6891 22.5074C16.7934 22.6117 16.852 22.7531 16.852 22.9006C16.852 23.048 16.7934 23.1894 16.6891 23.2937C16.5849 23.3979 16.4435 23.4565 16.296 23.4565ZM19.7857 23.4565H18.4026C18.2552 23.4565 18.1138 23.3979 18.0095 23.2937C17.9052 23.1894 17.8467 23.048 17.8467 22.9006C17.8467 22.7531 17.9052 22.6117 18.0095 22.5074C18.1138 22.4032 18.2552 22.3446 18.4026 22.3446H19.7857C19.9331 22.3446 20.0745 22.4032 20.1788 22.5074C20.2831 22.6117 20.3416 22.7531 20.3416 22.9006C20.3416 23.048 20.2831 23.1894 20.1788 23.2937C20.0745 23.3979 19.9331 23.4565 19.7857 23.4565Z" fill="white"/>
</svg>
