<svg width="16" height="16" viewBox="0 0 16 16" fill="none" xmlns="http://www.w3.org/2000/svg">
<path d="M10.8933 1.33276C13.1533 1.33276 14.6666 2.91943 14.6666 5.27943V10.7268C14.6666 13.0801 13.1533 14.6661 10.8933 14.6661H5.11325C2.85325 14.6661 1.33325 13.0801 1.33325 10.7268V5.27943C1.33325 2.91943 2.85325 1.33276 5.11325 1.33276H10.8933ZM7.99325 6.98676C7.67325 6.98676 7.41325 7.25276 7.41325 7.57343V10.5201C7.41325 10.8401 7.67325 11.1001 7.99325 11.1001C8.31992 11.1001 8.57992 10.8401 8.57992 10.5201V7.57343C8.57992 7.25276 8.31992 6.98676 7.99325 6.98676ZM8.00659 4.87343C7.67992 4.87343 7.41992 5.13343 7.41992 5.4601C7.41992 5.77943 7.67992 6.0401 7.99325 6.0401C8.32658 6.0401 8.58659 5.77943 8.58659 5.4601C8.58659 5.13343 8.32658 4.87343 8.00659 4.87343Z" fill="black" fill-opacity="0.5"/>
</svg>
