<svg width="33" height="32" viewBox="0 0 33 32" fill="none" xmlns="http://www.w3.org/2000/svg">
<rect x="0.300705" width="32" height="32" rx="10" fill="white" fill-opacity="0.2"/>
<path d="M14.1282 13.0603V15.1692L15.5545 16.3929C16.069 16.8344 16.3642 17.4765 16.3642 18.1545C16.3642 19.373 15.4204 20.3752 14.2255 20.4685C14.4565 21.1124 15.0731 21.5743 15.7955 21.5743C16.4723 21.5743 17.0769 21.1703 17.3359 20.545L18.5526 17.6076C18.3706 15.1965 16.4931 13.3022 14.1282 13.0603Z" fill="white"/>
<path d="M19.7621 10.7911C20.3572 11.4023 21.1024 11.7961 21.905 11.9329C21.7897 11.1244 21.415 10.3668 20.8184 9.75412C20.2232 9.14297 19.4781 8.74917 18.6754 8.6123C18.7908 9.42087 19.1655 10.1784 19.7621 10.7911Z" fill="white"/>
<path d="M18.0825 6.00019C18.0669 6.00008 18.0511 6 18.0356 6C16.3166 6 14.7006 6.66567 13.4802 7.87755C12.2485 9.10058 11.5702 10.73 11.5702 12.4656V21.5036C11.5702 23.6583 13.3232 25.4113 15.4779 25.4113C17.1012 25.4113 18.5309 24.4341 19.1202 22.9219L19.1247 22.9107L20.8148 18.8303L22.6075 17.0376C23.7953 15.8499 24.4675 14.2718 24.5001 12.5942C24.5337 10.8708 23.877 9.22827 22.651 7.9693C21.4262 6.71162 19.8037 6.01228 18.0825 6.00019ZM23.0799 12.5665C23.0544 13.8752 22.53 15.1063 21.6032 16.0331L19.6106 18.0257L18.3867 20.9804C17.9511 22.0322 16.9339 22.7118 15.7955 22.7118C14.249 22.7118 12.9908 21.4536 12.9908 19.9071V19.3384H14.0431C14.6958 19.3384 15.2268 18.8074 15.2268 18.1547C15.2268 17.8089 15.0763 17.4814 14.8139 17.2563L12.9908 15.6921V12.4656C12.9908 9.68375 15.254 7.42055 18.0358 7.42055L18.0698 7.42063C19.411 7.43011 20.6756 7.97692 21.6334 8.96038C22.5923 9.94512 23.106 11.2258 23.0799 12.5665Z" fill="white"/>
<path d="M18.9472 11.5846C18.1356 10.7511 17.643 9.70563 17.5266 8.59119C15.7903 8.81775 14.4084 10.1897 14.1661 11.922C15.5215 12.0442 16.7917 12.6143 17.794 13.5614C18.6498 14.3701 19.2431 15.3889 19.5223 16.5056L20.7988 15.2291C21.3882 14.6397 21.7673 13.8916 21.8951 13.0819C20.7869 12.9358 19.7573 12.4165 18.9472 11.5846Z" fill="white"/>
<path d="M9.29543 13.7098V16.2071L8.15805 15.6384V19.976H9.29543V17.4788L10.4328 18.0475V13.7098H9.29543Z" fill="white"/>
</svg>
