<svg width="33" height="32" viewBox="0 0 33 32" fill="none" xmlns="http://www.w3.org/2000/svg">
<rect x="0.342651" width="32" height="32" rx="10" fill="white" fill-opacity="0.2"/>
<path d="M23.9483 13.3987H13.3657C13.227 13.3985 13.0897 13.4257 12.9615 13.4786C12.8333 13.5316 12.7169 13.6092 12.6187 13.7072C12.5206 13.8051 12.4427 13.9214 12.3895 14.0495C12.3363 14.1775 12.3088 14.3148 12.3087 14.4535V21.8365C12.309 22.1162 12.4202 22.3843 12.6179 22.582C12.8157 22.7798 13.0838 22.891 13.3635 22.8913H22.1122L24.1029 24.8496C24.1771 24.9221 24.2711 24.9712 24.373 24.9907C24.475 25.0101 24.5804 24.9991 24.6761 24.959C24.7719 24.9189 24.8537 24.8515 24.9113 24.7652C24.969 24.6789 24.9999 24.5776 25.0003 24.4738V14.454C25.0002 14.1747 24.8894 13.9069 24.6922 13.7091C24.4951 13.5113 24.2276 13.3997 23.9483 13.3987ZM22.3311 20.7465H14.9498C14.8099 20.7465 14.6758 20.6909 14.5769 20.592C14.4779 20.4931 14.4224 20.359 14.4224 20.2191C14.4224 20.0792 14.4779 19.9451 14.5769 19.8462C14.6758 19.7473 14.8099 19.6917 14.9498 19.6917H22.3328C22.4727 19.6917 22.6068 19.7473 22.7057 19.8462C22.8046 19.9451 22.8602 20.0792 22.8602 20.2191C22.8602 20.359 22.8046 20.4931 22.7057 20.592C22.6068 20.6909 22.4727 20.7465 22.3328 20.7465H22.3311ZM14.4205 18.1098C14.4205 17.97 14.476 17.8359 14.5748 17.737C14.6737 17.6382 14.8078 17.5827 14.9476 17.5827H20.221C20.3609 17.5827 20.495 17.6382 20.5939 17.7371C20.6928 17.836 20.7484 17.9702 20.7484 18.11C20.7484 18.2499 20.6928 18.3841 20.5939 18.483C20.495 18.5819 20.3609 18.6374 20.221 18.6374H14.9498C14.8803 18.6377 14.8115 18.6243 14.7473 18.5979C14.683 18.5715 14.6246 18.5327 14.5754 18.4836C14.5262 18.4346 14.4872 18.3763 14.4606 18.3122C14.434 18.248 14.4204 18.1792 14.4205 18.1098ZM22.3311 16.5279H14.9498C14.8099 16.5279 14.6758 16.4723 14.5769 16.3734C14.4779 16.2745 14.4224 16.1403 14.4224 16.0005C14.4224 15.8606 14.4779 15.7264 14.5769 15.6275C14.6758 15.5286 14.8099 15.4731 14.9498 15.4731H22.3328C22.4727 15.4731 22.6068 15.5286 22.7057 15.6275C22.8046 15.7264 22.8602 15.8606 22.8602 16.0005C22.8602 16.1403 22.8046 16.2745 22.7057 16.3734C22.6068 16.4723 22.4727 16.5279 22.3328 16.5279H22.3311Z" fill="white"/>
<path d="M19.6939 12.3439V8.05204C19.6928 7.77296 19.5814 7.50562 19.3838 7.30848C19.1863 7.11134 18.9187 7.00044 18.6396 7H8.057C7.91833 6.99986 7.781 7.02702 7.65284 7.07995C7.52468 7.13288 7.40819 7.21054 7.31004 7.30849C7.21189 7.40643 7.13399 7.52275 7.0808 7.65081C7.0276 7.77886 7.00014 7.91613 7 8.0548V18.0745C7.00013 18.1784 7.03093 18.28 7.08854 18.3665C7.14615 18.4529 7.22801 18.5205 7.32385 18.5606C7.41969 18.6007 7.52525 18.6117 7.62729 18.5921C7.72933 18.5725 7.8233 18.5231 7.89743 18.4503L9.88817 16.4926H11.256V14.4534C11.2566 13.8941 11.4791 13.3579 11.8746 12.9624C12.2701 12.5669 12.8063 12.3444 13.3656 12.3439H19.6939ZM17.0571 12.3086C16.9529 12.3086 16.851 12.2777 16.7643 12.2198C16.6776 12.1619 16.61 12.0796 16.5702 11.9832C16.5303 11.8869 16.5198 11.7809 16.5402 11.6787C16.5605 11.5764 16.6107 11.4825 16.6844 11.4088C16.7581 11.3351 16.8521 11.2849 16.9543 11.2645C17.0566 11.2442 17.1626 11.2546 17.2589 11.2945C17.3552 11.3344 17.4375 11.402 17.4954 11.4887C17.5534 11.5754 17.5843 11.6773 17.5843 11.7815C17.5843 11.8507 17.5706 11.9193 17.5441 11.9832C17.5177 12.0472 17.4788 12.1053 17.4299 12.1543C17.3809 12.2032 17.3228 12.242 17.2589 12.2685C17.1949 12.295 17.1264 12.3086 17.0571 12.3086ZM9.67413 9.14591H17.0571C17.197 9.14591 17.3312 9.20147 17.4301 9.30038C17.529 9.39928 17.5845 9.53343 17.5845 9.6733C17.5845 9.81318 17.529 9.94732 17.4301 10.0462C17.3312 10.1451 17.197 10.2007 17.0571 10.2007H9.67413C9.53426 10.2007 9.40011 10.1451 9.3012 10.0462C9.2023 9.94732 9.14673 9.81318 9.14673 9.6733C9.14673 9.53343 9.2023 9.39928 9.3012 9.30038C9.40011 9.20147 9.53426 9.14591 9.67413 9.14591ZM10.7289 14.4193H9.67413C9.53426 14.4193 9.40011 14.3638 9.3012 14.2649C9.2023 14.166 9.14673 14.0318 9.14673 13.8919C9.14673 13.7521 9.2023 13.6179 9.3012 13.519C9.40011 13.4201 9.53426 13.3645 9.67413 13.3645H10.7289C10.8688 13.3645 11.0029 13.4201 11.1019 13.519C11.2008 13.6179 11.2563 13.7521 11.2563 13.8919C11.2563 14.0318 11.2008 14.166 11.1019 14.2649C11.0029 14.3638 10.8688 14.4193 10.7289 14.4193ZM9.67413 12.3086C9.53426 12.3086 9.40011 12.2531 9.3012 12.1542C9.2023 12.0553 9.14673 11.9211 9.14673 11.7812C9.14673 11.6414 9.2023 11.5072 9.3012 11.4083C9.40011 11.3094 9.53426 11.2538 9.67413 11.2538H14.9476C15.0874 11.2538 15.2216 11.3094 15.3205 11.4083C15.4194 11.5072 15.475 11.6414 15.475 11.7812C15.475 11.9211 15.4194 12.0553 15.3205 12.1542C15.2216 12.2531 15.0874 12.3086 14.9476 12.3086H9.67413Z" fill="white"/>
</svg>
