<svg width="203" height="109" viewBox="0 0 203 109" fill="none" xmlns="http://www.w3.org/2000/svg">
<mask id="mask0_3121_7762" style="mask-type:alpha" maskUnits="userSpaceOnUse" x="0" y="0" width="203" height="109">
<path d="M0 0H203V109H0V0Z" fill="#C4C4C4"/>
</mask>
<g mask="url(#mask0_3121_7762)">
<path d="M2.28102 0H200.719C201.324 0 201.904 0.218741 202.332 0.608102C202.76 0.997463 203 1.52555 203 2.07619V109H0.00012207V2.07619C0.00012207 1.52555 0.24043 0.997463 0.668182 0.608102C1.09593 0.218741 1.67609 0 2.28102 0V0Z" fill="#1CAB36"/>
<path opacity="0.583" d="M171.71 93.764H30.8193V93.8322H171.71V93.764Z" fill="#EBEBEB"/>
<path opacity="0.583" d="M157.593 98.1284H151.485V98.1966H157.593V98.1284Z" fill="#EBEBEB"/>
<path opacity="0.583" d="M127.941 96.7211H118.33V96.7892H127.941V96.7211Z" fill="#EBEBEB"/>
<path opacity="0.583" d="M155.117 95.6101H142.571V95.6783H155.117V95.6101Z" fill="#EBEBEB"/>
<path opacity="0.583" d="M79.5724 96.9772H76.4338V97.0453H79.5724V96.9772Z" fill="#EBEBEB"/>
<path opacity="0.583" d="M73.9249 96.9772H63.1078V97.0453H73.9249V96.9772Z" fill="#EBEBEB"/>
<path opacity="0.583" d="M57.3075 95.8331H49.5034V95.9013H57.3075V95.8331Z" fill="#EBEBEB"/>
<path opacity="0.583" d="M97.6054 81.6723H43.1935C42.7536 81.6594 42.3373 81.4891 42.0359 81.1988C41.7345 80.9085 41.5725 80.5218 41.5854 80.1236V6.53203C41.5725 6.13377 41.7345 5.74712 42.0359 5.45682C42.3373 5.16651 42.7536 4.99622 43.1935 4.98328H97.6054C98.0453 4.99622 98.4615 5.16651 98.763 5.45682C99.0644 5.74712 99.2264 6.13377 99.2135 6.53203V80.1246C99.2261 80.5227 99.0639 80.9091 98.7625 81.1992C98.4612 81.4893 98.0451 81.6594 97.6054 81.6723ZM43.1935 5.05246C42.773 5.0646 42.3749 5.22714 42.0866 5.50447C41.7982 5.7818 41.643 6.1513 41.655 6.53203V80.1246C41.643 80.5053 41.7982 80.8749 42.0866 81.1522C42.3749 81.4295 42.773 81.5921 43.1935 81.6042H97.6054C98.0257 81.5918 98.4235 81.4291 98.7116 81.1518C98.9997 80.8745 99.1548 80.5052 99.1428 80.1246V6.53203C99.1548 6.15147 98.9997 5.78212 98.7116 5.50482C98.4235 5.22752 98.0257 5.06486 97.6054 5.05246H43.1935Z" fill="#EBEBEB"/>
<path opacity="0.583" d="M158.554 81.6723H104.142C103.702 81.6594 103.286 81.4891 102.985 81.1988C102.683 80.9085 102.521 80.5218 102.534 80.1236V6.53203C102.521 6.13377 102.683 5.74712 102.985 5.45682C103.286 5.16651 103.702 4.99622 104.142 4.98328H158.554C158.994 4.99595 159.411 5.16612 159.712 5.45646C160.014 5.74679 160.176 6.1336 160.163 6.53203V80.1246C160.176 80.5229 160.014 80.9094 159.712 81.1995C159.41 81.4896 158.994 81.6597 158.554 81.6723ZM104.142 5.05246C103.722 5.06486 103.324 5.22752 103.036 5.50482C102.748 5.78212 102.593 6.15147 102.605 6.53203V80.1246C102.593 80.5052 102.748 80.8745 103.036 81.1518C103.324 81.4291 103.722 81.5918 104.142 81.6042H158.554C158.975 81.5921 159.373 81.4295 159.661 81.1522C159.949 80.8749 160.105 80.5053 160.093 80.1246V6.53203C160.105 6.1513 159.949 5.7818 159.661 5.50447C159.373 5.22714 158.975 5.0646 158.554 5.05246H104.142Z" fill="#EBEBEB"/>
<path opacity="0.583" d="M63.2184 37.4307C64.8172 37.3478 66.3205 36.7144 67.4201 35.6603C68.5196 34.6061 69.1322 33.2111 69.1322 31.7613C69.1322 30.3114 68.5196 28.9164 67.4201 27.8623C66.3205 26.8082 64.8172 26.1747 63.2184 26.0918H62.4954V37.4307H63.2184Z" fill="#E0E0E0"/>
<path opacity="0.583" d="M62.4964 37.4307C65.7509 37.4307 68.3891 34.8924 68.3891 31.7613C68.3891 28.6301 65.7509 26.0918 62.4964 26.0918C59.242 26.0918 56.6037 28.6301 56.6037 31.7613C56.6037 34.8924 59.242 37.4307 62.4964 37.4307Z" fill="#F5F5F5"/>
<path opacity="0.583" d="M62.2262 32.4737C60.0702 32.4103 58.0298 31.5761 56.5515 30.1538C55.0733 28.7315 54.2777 26.8369 54.3389 24.8848V20.35C54.3333 20.2588 54.3483 20.1674 54.383 20.0816C54.4177 19.9958 54.4714 19.9172 54.5408 19.8508C54.6102 19.7844 54.6938 19.7316 54.7866 19.6954C54.8793 19.6593 54.9792 19.6406 55.0801 19.6406C55.1811 19.6406 55.281 19.6593 55.3737 19.6954C55.4665 19.7316 55.5501 19.7844 55.6195 19.8508C55.6889 19.9172 55.7426 19.9958 55.7773 20.0816C55.812 20.1674 55.827 20.2588 55.8214 20.35V24.8848C55.7716 26.4704 56.4178 28.0092 57.6184 29.1645C58.819 30.3197 60.4762 30.9973 62.2273 31.0488C62.4287 31.0586 62.6183 31.138 62.757 31.2705C62.8957 31.403 62.973 31.5787 62.973 31.7612C62.973 31.9438 62.8957 32.1194 62.757 32.252C62.6183 32.3845 62.4287 32.4638 62.2273 32.4737H62.2262Z" fill="#E0E0E0"/>
<path opacity="0.583" d="M48.5249 24.3428H61.6344C61.8509 24.3343 62.0625 24.2817 62.2534 24.1888C62.4443 24.0959 62.6096 23.9651 62.7368 23.8062C62.864 23.6474 62.9499 23.4645 62.9881 23.2714C63.0263 23.0782 63.0158 22.8797 62.9573 22.6908L61.8168 18.5608C61.7491 18.2871 61.5819 18.0418 61.3421 17.8642C61.1023 17.6866 60.8037 17.5868 60.4939 17.5809H49.6597C49.3499 17.5868 49.0512 17.6866 48.8114 17.8642C48.5716 18.0418 48.4045 18.2871 48.3367 18.5608L47.1963 22.6908C47.1377 22.8801 47.1273 23.079 47.1658 23.2726C47.2043 23.4661 47.2907 23.6492 47.4186 23.8082C47.5464 23.9671 47.7124 24.0978 47.904 24.1904C48.0956 24.283 48.3079 24.3351 48.5249 24.3428Z" fill="#F5F5F5"/>
<path opacity="0.583" d="M146.429 37.4307C148.028 37.3478 149.531 36.7144 150.631 35.6603C151.731 34.6061 152.343 33.2111 152.343 31.7613C152.343 30.3114 151.731 28.9164 150.631 27.8623C149.531 26.8082 148.028 26.1747 146.429 26.0918H145.706V37.4307H146.429Z" fill="#E0E0E0"/>
<path opacity="0.583" d="M145.707 37.4307C148.962 37.4307 151.6 34.8924 151.6 31.7613C151.6 28.6301 148.962 26.0918 145.707 26.0918C142.453 26.0918 139.815 28.6301 139.815 31.7613C139.815 34.8924 142.453 37.4307 145.707 37.4307Z" fill="#F5F5F5"/>
<path opacity="0.583" d="M145.437 32.4737C143.281 32.4103 141.24 31.5761 139.762 30.1538C138.284 28.7315 137.488 26.8369 137.549 24.8848V20.35C137.544 20.2588 137.559 20.1674 137.593 20.0816C137.628 19.9958 137.682 19.9172 137.751 19.8508C137.821 19.7844 137.904 19.7316 137.997 19.6954C138.09 19.6593 138.19 19.6406 138.291 19.6406C138.391 19.6406 138.491 19.6593 138.584 19.6954C138.677 19.7316 138.76 19.7844 138.83 19.8508C138.899 19.9172 138.953 19.9958 138.988 20.0816C139.022 20.1674 139.037 20.2588 139.032 20.35V24.8848C138.982 26.4704 139.628 28.0092 140.829 29.1645C142.029 30.3197 143.687 30.9973 145.438 31.0488C145.639 31.0586 145.829 31.138 145.967 31.2705C146.106 31.403 146.183 31.5787 146.183 31.7612C146.183 31.9438 146.106 32.1194 145.967 32.252C145.829 32.3845 145.639 32.4638 145.438 32.4737H145.437Z" fill="#E0E0E0"/>
<path opacity="0.583" d="M131.736 24.3428H144.844C145.06 24.3343 145.272 24.2817 145.463 24.1888C145.654 24.0959 145.819 23.9651 145.946 23.8062C146.074 23.6474 146.159 23.4645 146.198 23.2714C146.236 23.0782 146.225 22.8797 146.167 22.6908L145.026 18.5608C144.959 18.2871 144.791 18.0418 144.552 17.8642C144.312 17.6866 144.013 17.5868 143.703 17.5809H132.869C132.559 17.5868 132.261 17.6866 132.021 17.8642C131.781 18.0418 131.614 18.2871 131.546 18.5608L130.406 22.6908C130.347 22.8802 130.337 23.0792 130.375 23.2728C130.414 23.4664 130.501 23.6496 130.628 23.8086C130.756 23.9675 130.923 24.0982 131.114 24.1907C131.306 24.2833 131.518 24.3353 131.736 24.3428Z" fill="#F5F5F5"/>
<path opacity="0.583" d="M68.5739 75.722H72.8586V59.7441H68.5739V75.722Z" fill="#E6E6E6"/>
<path opacity="0.583" d="M56.9562 75.722H71.1776L73.3205 57.0214H59.1036L56.9562 75.722Z" fill="#F0F0F0"/>
<path opacity="0.583" d="M55.4153 75.722H70.1054L72.2529 57.0214H57.5628L55.4153 75.722Z" fill="#F5F5F5"/>
<path opacity="0.583" d="M69.0438 74.2487L70.8526 58.4958H58.6247L56.8159 74.2487H69.0438Z" fill="white"/>
<path opacity="0.583" d="M66.5178 70.4306L66.592 69.7884C67.0481 65.836 64.481 62.3141 61.1497 62.3141L61.0756 62.9563C60.6194 66.9087 63.1866 70.4306 66.5178 70.4306Z" fill="#F5F5F5"/>
<path opacity="0.583" d="M47.4687 93.764H60.1037V75.7221H47.4687V93.764Z" fill="#E6E6E6"/>
<path opacity="0.583" d="M48.7418 93.7639H47.4691V90.2854H50.0727L48.7418 93.7639Z" fill="#F0F0F0"/>
<path opacity="0.583" d="M82.8798 93.764H95.5148V75.7221H82.8798V93.764Z" fill="#E6E6E6"/>
<path opacity="0.583" d="M47.469 91.6298H83.9896V75.722H47.469V91.6298Z" fill="#F0F0F0"/>
<path opacity="0.583" d="M82.7191 93.7639H83.9896V90.2854H81.386L82.7191 93.7639Z" fill="#F0F0F0"/>
<path opacity="0.583" d="M48.4555 83.1365H83.0042V76.7174H48.4555V83.1365Z" fill="#E6E6E6"/>
<path opacity="0.583" d="M63.425 80.9011H68.0324C69.0353 80.8956 70.0255 80.6975 70.9377 80.32C71.8498 79.9425 72.6632 79.3942 73.3241 78.7112H58.1333C58.7941 79.3942 59.6074 79.9426 60.5196 80.3201C61.4318 80.6976 62.422 80.8956 63.425 80.9011Z" fill="#F0F0F0"/>
<path opacity="0.583" d="M48.4555 90.5922H83.0042V84.1731H48.4555V90.5922Z" fill="#E6E6E6"/>
<path opacity="0.583" d="M63.425 88.3547H68.0324C69.0353 88.3491 70.0255 88.151 70.9376 87.7735C71.8498 87.3961 72.6631 86.8478 73.3241 86.1648H58.1333C58.7941 86.8478 59.6075 87.3961 60.5197 87.7736C61.4318 88.1511 62.422 88.3492 63.425 88.3547Z" fill="#F0F0F0"/>
<path opacity="0.583" d="M81.6755 74.9859H82.0017C82.0017 74.3386 82.0017 72.6979 82.0359 68.9365C82.0952 62.122 82.207 61.709 82.207 61.709L81.4303 64.8561C80.9376 68.3356 81.5729 71.8378 81.6755 74.9859Z" fill="#E6E6E6"/>
<path opacity="0.583" d="M81.0301 64.3821C79.9113 63.0997 77.5221 62.7301 75.0747 62.4069C74.1144 62.282 77.5997 64.3945 79.3023 65.8937C80.6264 67.0594 81.4692 67.3815 81.8353 68.5431C82.169 67.1139 81.8806 65.6234 81.0301 64.3821Z" fill="#E6E6E6"/>
<path opacity="0.583" d="M82.5149 66.6773C83.6336 65.395 86.0229 65.0253 88.4703 64.7022C89.4305 64.5762 85.9453 66.6887 84.2426 68.1889C82.9197 69.3546 82.0758 69.6767 81.7097 70.8383C81.3759 69.4092 81.6643 67.9186 82.5149 66.6773Z" fill="#E6E6E6"/>
<path opacity="0.583" d="M82.0347 61.4024C82.6139 60.5217 83.3832 59.7557 84.2968 59.1503C85.2103 58.5448 86.2492 58.1123 87.3515 57.8784C88.2809 57.6637 85.1983 60.7096 84.0259 62.6744C83.1136 64.2005 81.9081 65.9929 81.7199 67.2804C81.4382 64.7281 81.1965 62.9356 82.0347 61.4024Z" fill="#E6E6E6"/>
<path opacity="0.583" d="M81.9365 75.7211C80.9375 75.7211 80.1118 75.2389 80.0548 74.6225L79.8883 73.5693H83.9859L83.8194 74.6225C83.7612 75.2399 82.9355 75.7211 81.9365 75.7211Z" fill="#F0F0F0"/>
<path opacity="0.583" d="M84.2539 73.9761H79.626L79.4937 72.8021H84.3874L84.2539 73.9761Z" fill="#F0F0F0"/>
<path opacity="0.583" d="M78.5942 51.5564L123.738 51.5564V11.9362L78.5942 11.9362V51.5564Z" fill="#E6E6E6"/>
<path opacity="0.583" d="M77.5777 51.5564L123.296 51.5564V11.9362L77.5777 11.9362V51.5564Z" fill="#F5F5F5"/>
<path opacity="0.583" d="M121.473 49.7815V13.7111L79.4025 13.7111V49.7815H121.473Z" fill="#FAFAFA"/>
<path opacity="0.583" d="M116.31 49.7815L99.7537 13.7111H94.1301L110.688 49.7815H116.31Z" fill="white"/>
<path opacity="0.583" d="M109.091 49.7815L92.5339 13.7111H88.6564L105.215 49.7815H109.091Z" fill="white"/>
<path opacity="0.583" d="M95.0235 49.7815V13.7111H92.8475V49.7815H95.0235Z" fill="#E6E6E6"/>
<path opacity="0.583" d="M109.484 49.7815V13.7111H107.308V49.7815H109.484Z" fill="#E6E6E6"/>
<path opacity="0.583" d="M94.6309 50.908V12.3916H91.8812V50.908H94.6309Z" fill="#F5F5F5"/>
<path opacity="0.583" d="M109.092 50.908V12.3916H106.342V50.908H109.092Z" fill="#F5F5F5"/>
<path opacity="0.583" d="M79.5954 49.7815V13.7111H79.4027V49.7815H79.5954Z" fill="#E6E6E6"/>
<path opacity="0.583" d="M76.8113 9.6532H125.719C125.784 9.65509 125.844 9.67995 125.888 9.72233C125.933 9.76471 125.956 9.82116 125.954 9.87932C125.956 9.9374 125.932 9.9937 125.888 10.036C125.844 10.0783 125.784 10.1033 125.719 10.1054H76.8113C76.7471 10.1033 76.6865 10.0783 76.6425 10.036C76.5986 9.9937 76.5748 9.9374 76.5763 9.87932C76.5745 9.82116 76.5982 9.76471 76.6422 9.72233C76.6862 9.67995 76.747 9.65509 76.8113 9.6532Z" fill="#E6E6E6"/>
<path opacity="0.583" d="M123.74 11.1463C123.783 11.145 123.826 11.1359 123.865 11.1196C123.904 11.1032 123.94 11.08 123.969 11.0512C123.999 11.0224 124.022 10.9886 124.037 10.9518C124.052 10.9149 124.059 10.8758 124.057 10.8365V10.1819C124.059 10.1427 124.052 10.1036 124.037 10.0667C124.022 10.0299 123.999 9.99606 123.969 9.96726C123.94 9.93847 123.904 9.91524 123.865 9.89892C123.826 9.8826 123.783 9.87352 123.74 9.87219C123.696 9.87339 123.653 9.88237 123.614 9.89863C123.574 9.91489 123.539 9.9381 123.509 9.96691C123.479 9.99572 123.457 10.0296 123.441 10.0665C123.426 10.1034 123.42 10.1426 123.421 10.1819V10.8376C123.42 10.8768 123.427 10.9159 123.442 10.9527C123.457 10.9895 123.48 11.0232 123.51 11.0519C123.539 11.0806 123.575 11.1038 123.614 11.12C123.654 11.1361 123.696 11.1451 123.74 11.1463Z" fill="#E6E6E6"/>
<path opacity="0.583" d="M80.3582 11.1463C80.4015 11.145 80.4442 11.1359 80.4836 11.1196C80.5231 11.1032 80.5585 11.08 80.588 11.0512C80.6175 11.0224 80.6404 10.9886 80.6553 10.9518C80.6703 10.9149 80.6771 10.8758 80.6752 10.8365V10.1819C80.6771 10.1427 80.6703 10.1036 80.6553 10.0667C80.6404 10.0299 80.6175 9.99606 80.588 9.96726C80.5585 9.93847 80.5231 9.91524 80.4836 9.89892C80.4442 9.8826 80.4015 9.87352 80.3582 9.87219C80.3149 9.87352 80.2722 9.8826 80.2328 9.89892C80.1934 9.91524 80.1579 9.93847 80.1284 9.96726C80.0989 9.99606 80.076 10.0299 80.0611 10.0667C80.0461 10.1036 80.0393 10.1427 80.0412 10.1819V10.8376C80.0395 10.8767 80.0464 10.9158 80.0614 10.9525C80.0765 10.9892 80.0994 11.0229 80.1288 11.0516C80.1583 11.0803 80.1937 11.1034 80.2331 11.1197C80.2724 11.1359 80.315 11.145 80.3582 11.1463Z" fill="#E6E6E6"/>
<path opacity="0.6" d="M76.8865 40.9071L122.571 40.9071V9.87939L76.8865 9.87939V40.9071Z" fill="#E0E0E0"/>
<path opacity="0.583" d="M124.675 60.5712H120.864C118.904 60.5712 117.315 62.0097 117.315 63.7843C117.315 65.5589 118.904 66.9975 120.864 66.9975H124.675C126.635 66.9975 128.224 65.5589 128.224 63.7843C128.224 62.0097 126.635 60.5712 124.675 60.5712Z" fill="#FAFAFA"/>
<path opacity="0.583" d="M127.465 59.3837H118.074C117.655 59.3837 117.315 59.6915 117.315 60.0713V60.0723C117.315 60.4521 117.655 60.76 118.074 60.76H127.465C127.884 60.76 128.224 60.4521 128.224 60.0723V60.0713C128.224 59.6915 127.884 59.3837 127.465 59.3837Z" fill="#E6E6E6"/>
<path opacity="0.583" d="M117.474 74.1228C117.637 75.3674 118.299 76.5146 119.334 77.3469C120.369 78.1793 121.705 78.6391 123.089 78.6391C124.474 78.6391 125.81 78.1793 126.845 77.3469C127.88 76.5146 128.541 75.3674 128.704 74.1228H117.474Z" fill="#F0F0F0"/>
<path opacity="0.583" d="M129.947 74.1228C130.11 75.3674 130.772 76.5146 131.807 77.3469C132.842 78.1793 134.178 78.6391 135.562 78.6391C136.947 78.6391 138.283 78.1793 139.318 77.3469C140.353 76.5146 141.014 75.3674 141.177 74.1228H129.947Z" fill="#F0F0F0"/>
<path opacity="0.583" d="M130.723 57.6606H135.399C136.076 57.6606 136.747 57.7814 137.372 58.016C137.998 58.2506 138.566 58.5944 139.045 59.0279C139.524 59.4613 139.903 59.9759 140.162 60.5422C140.422 61.1086 140.555 61.7156 140.555 62.3286C140.555 63.5662 140.013 64.7533 139.046 65.6289C138.08 66.5044 136.769 66.9967 135.402 66.9976H130.727C130.049 66.998 129.378 66.8775 128.752 66.643C128.126 66.4086 127.557 66.0647 127.078 65.6311C126.599 65.1975 126.219 64.6826 125.96 64.116C125.7 63.5493 125.567 62.9419 125.567 62.3286C125.567 61.0906 126.11 59.9033 127.077 59.0279C128.044 58.1524 129.356 57.6606 130.723 57.6606V57.6606Z" fill="#F0F0F0"/>
<path opacity="0.583" d="M139.515 56.0292H126.612C126.035 56.0292 125.567 56.4526 125.567 56.9749C125.567 57.4973 126.035 57.9207 126.612 57.9207H139.515C140.092 57.9207 140.559 57.4973 140.559 56.9749C140.559 56.4526 140.092 56.0292 139.515 56.0292Z" fill="#F5F5F5"/>
<path opacity="0.583" d="M113.353 93.765H114.772V71.3577H113.353V93.765Z" fill="#E6E6E6"/>
<path opacity="0.583" d="M154.359 66.9974H146.668V71.3577H154.359V66.9974Z" fill="#E6E6E6"/>
<path opacity="0.583" d="M108.436 71.3577H146.668V66.9974H108.436V71.3577Z" fill="#F5F5F5"/>
<path opacity="0.583" d="M154.359 78.642H146.668V83.0022H154.359V78.642Z" fill="#E6E6E6"/>
<path opacity="0.583" d="M108.436 83.0022H146.668V78.6419H108.436V83.0022Z" fill="#F5F5F5"/>
<path opacity="0.583" d="M151.585 93.765H153.005V71.3577H151.585V93.765Z" fill="#E6E6E6"/>
<path opacity="0.583" d="M145.249 93.765H146.668V71.3577H145.249V93.765Z" fill="#F5F5F5"/>
<path opacity="0.583" d="M108.436 93.765H109.856V71.3577H108.436V93.765Z" fill="#F5F5F5"/>
<g opacity="0.581">
<path opacity="0.581" d="M101.265 106.009C131.439 106.009 155.899 104.634 155.899 102.939C155.899 101.244 131.439 99.8693 101.265 99.8693C71.0913 99.8693 46.6307 101.244 46.6307 102.939C46.6307 104.634 71.0913 106.009 101.265 106.009Z" fill="#F5F5F5"/>
</g>
<path d="M104.199 89.1808H68.2511C67.6556 89.1594 67.0911 88.9344 66.6715 88.5512C66.2518 88.168 66.0082 87.6551 65.9896 87.1158L62.7724 27.0469C62.7471 26.7882 62.7806 26.5275 62.871 26.281C62.9614 26.0345 63.1068 25.8075 63.298 25.6139C63.4893 25.4203 63.7224 25.2644 63.9829 25.1556C64.2435 25.0469 64.5259 24.9878 64.8127 24.9819H100.762C101.357 25.0035 101.922 25.2286 102.341 25.6117C102.761 25.9948 103.005 26.5076 103.023 27.0469L106.241 87.1158C106.266 87.3746 106.232 87.6353 106.142 87.8819C106.051 88.1284 105.906 88.3555 105.715 88.5491C105.523 88.7427 105.29 88.8987 105.029 89.0073C104.769 89.116 104.486 89.175 104.199 89.1808Z" fill="#FA5C43"/>
<path opacity="0.8" d="M104.199 89.1808H68.2511C67.6556 89.1594 67.0911 88.9344 66.6715 88.5512C66.2518 88.168 66.0082 87.6551 65.9896 87.1158L62.7724 27.0469C62.7471 26.7882 62.7806 26.5275 62.871 26.281C62.9614 26.0345 63.1068 25.8075 63.298 25.6139C63.4893 25.4203 63.7224 25.2644 63.9829 25.1556C64.2435 25.0469 64.5259 24.9878 64.8127 24.9819H100.762C101.357 25.0035 101.922 25.2286 102.341 25.6117C102.761 25.9948 103.005 26.5076 103.023 27.0469L106.241 87.1158C106.266 87.3746 106.232 87.6353 106.142 87.8819C106.051 88.1284 105.906 88.3555 105.715 88.5491C105.523 88.7427 105.29 88.8987 105.029 89.0073C104.769 89.116 104.486 89.175 104.199 89.1808Z" fill="white"/>
<path d="M97.2139 23.0149H93.2372V23.2864H97.2139V23.0149Z" fill="#FA5C43"/>
<path d="M91.8594 23.0149H90.403V23.2864H91.8594V23.0149Z" fill="#FA5C43"/>
<path d="M105.746 85.3718H71.3645C70.7934 85.3521 70.252 85.1367 69.8497 84.7692C69.4474 84.4018 69.2143 83.9096 69.1977 83.3925L66.1184 25.9431C66.0935 25.6944 66.1254 25.4438 66.2122 25.2069C66.2991 24.97 66.439 24.7518 66.6232 24.566C66.8074 24.3803 67.032 24.2309 67.2828 24.1273C67.5337 24.0236 67.8055 23.968 68.0812 23.9637H102.462C103.033 23.9834 103.575 24.1988 103.977 24.5663C104.379 24.9338 104.612 25.4259 104.629 25.9431L107.708 83.3925C107.733 83.6411 107.701 83.8917 107.615 84.1286C107.528 84.3656 107.388 84.5837 107.204 84.7695C107.019 84.9552 106.795 85.1046 106.544 85.2083C106.293 85.3119 106.021 85.3675 105.746 85.3718Z" fill="#FA5C43"/>
<path d="M105.75 84.0492H71.3643C71.1576 84.0371 70.9629 83.9569 70.8171 83.8237C70.6712 83.6906 70.5843 83.5137 70.5728 83.3264L67.4936 25.876C67.4866 25.7999 67.4966 25.7234 67.5228 25.6508C67.5491 25.5783 67.5911 25.5113 67.6464 25.4537C67.6998 25.3994 67.7657 25.3564 67.8393 25.3275C67.913 25.2986 67.9927 25.2846 68.0729 25.2864H102.454C102.661 25.2985 102.855 25.3787 103.001 25.5119C103.147 25.645 103.234 25.8219 103.246 26.0092L106.325 83.4586C106.332 83.5346 106.322 83.6112 106.295 83.6837C106.269 83.7562 106.227 83.8232 106.172 83.8809C106.119 83.9348 106.054 83.9777 105.981 84.0067C105.908 84.0358 105.83 84.0503 105.75 84.0492ZM68.0752 25.3577C68.0047 25.356 67.9346 25.3683 67.8698 25.3936C67.805 25.4189 67.7471 25.4567 67.7 25.5043C67.6515 25.5551 67.6148 25.6141 67.5918 25.6779C67.5689 25.7418 67.5603 25.8091 67.5666 25.876L70.6458 83.3264C70.6557 83.4974 70.7346 83.6591 70.8674 83.7809C71.0003 83.9027 71.1779 83.9761 71.3665 83.9872H105.75C105.82 83.9891 105.89 83.977 105.955 83.9519C106.02 83.9267 106.078 83.8891 106.125 83.8417C106.174 83.7909 106.21 83.7319 106.233 83.668C106.256 83.6042 106.265 83.5368 106.259 83.4699L103.179 26.0205C103.169 25.8496 103.091 25.6879 102.958 25.5661C102.825 25.4443 102.647 25.3709 102.459 25.3597L68.0752 25.3577Z" fill="white"/>
<path opacity="0.3" d="M78.4253 31.8841C82.3355 28.025 88.9292 28.1075 93.1525 32.0685C95.1884 33.9357 96.3763 36.4267 96.4813 39.0487C96.5863 41.6707 95.6006 44.233 93.7193 46.2288C89.81 50.0871 83.2155 50.0054 78.9922 46.0444C76.9562 44.1772 75.7683 41.6862 75.6633 39.0642C75.5584 36.4421 76.544 33.8799 78.4253 31.8841Z" fill="white"/>
<path d="M94.4948 39.0539C94.5741 40.3809 94.2958 41.7055 93.684 42.9134C93.0687 44.1728 92.0635 45.2438 90.79 45.9967C89.5165 46.7497 88.0293 47.1523 86.5083 47.156C84.9348 47.126 83.3985 46.7172 82.0574 45.9716C80.7163 45.2259 79.6187 44.1704 78.8775 42.9134C78.1442 41.7303 77.7249 40.409 77.6527 39.0539C77.5513 38.0402 77.681 37.0184 78.0337 36.0519C78.3864 35.0854 78.9545 34.1947 79.703 33.4351C80.4514 32.6755 81.3642 32.0632 82.3847 31.636C83.4053 31.2089 84.5118 30.976 85.6358 30.9519C87.9714 31.0352 90.185 31.918 91.8294 33.4219C93.4738 34.9258 94.4264 36.9387 94.4948 39.0539Z" fill="white"/>
<path d="M93.6842 42.9145C93.069 44.1738 92.0638 45.2448 90.7903 45.9977C89.5168 46.7507 88.0295 47.1533 86.5085 47.157C84.935 47.127 83.3988 46.7182 82.0577 45.9726C80.7165 45.2269 79.619 44.1714 78.8778 42.9145C80.9881 41.5056 83.5432 40.7489 86.1652 40.7565C88.8553 40.7689 91.4776 41.5215 93.6842 42.9145Z" fill="#FA5C43"/>
<path d="M83.1695 33.6984C83.512 33.3701 83.9261 33.1097 84.3855 32.9339C84.8449 32.758 85.3397 32.6705 85.8385 32.6768C86.3372 32.6832 86.8291 32.7832 87.2829 32.9707C87.7367 33.1581 88.1425 33.4289 88.4747 33.7658C89.208 34.4378 89.6363 35.3343 89.6753 36.2783C89.7143 37.2223 89.361 38.1452 88.6852 38.8649C88.3427 39.1932 87.9286 39.4535 87.4692 39.6294C87.0097 39.8053 86.515 39.8928 86.0162 39.8865C85.5175 39.8801 85.0256 39.7801 84.5718 39.5926C84.118 39.4052 83.7121 39.1344 83.38 38.7975C82.6467 38.1255 82.2183 37.229 82.1794 36.285C82.1404 35.341 82.4937 34.4181 83.1695 33.6984Z" fill="#FA5C43"/>
<path d="M100.819 63.0232H73.9041C73.6632 63.0139 73.4352 62.9224 73.266 62.767C73.0967 62.6117 72.9987 62.404 72.9917 62.1859L72.7876 58.3801C72.7771 58.2753 72.7905 58.1696 72.827 58.0697C72.8634 57.9697 72.9222 57.8776 72.9996 57.7991C73.0771 57.7206 73.1715 57.6573 73.277 57.6132C73.3826 57.5691 73.497 57.5451 73.6133 57.5427H100.528C100.769 57.552 100.997 57.6436 101.166 57.7989C101.335 57.9543 101.433 58.1619 101.44 58.3801L101.644 62.1859C101.655 62.2907 101.641 62.3964 101.605 62.4963C101.568 62.5962 101.51 62.6883 101.432 62.7668C101.355 62.8454 101.26 62.9086 101.155 62.9527C101.049 62.9968 100.935 63.0208 100.819 63.0232Z" fill="white"/>
<path opacity="0.3" d="M92.5746 55.453H81.3309C81.0901 55.4437 80.8621 55.3522 80.6928 55.1968C80.5236 55.0414 80.4256 54.8338 80.4186 54.6157L80.3752 53.8072C80.3647 53.7024 80.3782 53.5967 80.4146 53.4968C80.4511 53.3968 80.5099 53.3048 80.5873 53.2262C80.6647 53.1477 80.7592 53.0845 80.8647 53.0404C80.9703 52.9962 81.0847 52.9722 81.2009 52.9698H92.4446C92.6855 52.9792 92.9134 53.0707 93.0827 53.2261C93.252 53.3814 93.35 53.5891 93.357 53.8072L93.4003 54.6157C93.4108 54.7205 93.3974 54.8261 93.3609 54.9261C93.3245 55.026 93.2657 55.1181 93.1883 55.1966C93.1108 55.2751 93.0164 55.3384 92.9109 55.3825C92.8053 55.4266 92.6909 55.4506 92.5746 55.453Z" fill="black"/>
<path opacity="0.3" d="M96.7555 81.2676H79.9202C79.5092 81.2529 79.1197 81.0975 78.8303 80.8328C78.5409 80.5682 78.3733 80.2139 78.3612 79.8417L78.2608 77.9729C78.243 77.7944 78.2658 77.6145 78.3279 77.4443C78.3901 77.2741 78.4902 77.1173 78.622 76.9836C78.7539 76.8499 78.9147 76.7422 79.0944 76.667C79.2742 76.5919 79.4691 76.5511 79.667 76.547H96.5023C96.9133 76.5617 97.3028 76.7171 97.5922 76.9818C97.8815 77.2465 98.0492 77.6007 98.0613 77.9729L98.1617 79.8417C98.1795 80.0202 98.1567 80.2001 98.0945 80.3703C98.0324 80.5405 97.9323 80.6973 97.8005 80.831C97.6686 80.9647 97.5078 81.0725 97.3281 81.1476C97.1483 81.2227 96.9534 81.2635 96.7555 81.2676Z" fill="black"/>
<path d="M101.31 72.1971H74.3958C74.1549 72.1878 73.9269 72.0962 73.7577 71.9409C73.5884 71.7855 73.4904 71.5779 73.4834 71.3597L73.2793 67.5539C73.2688 67.4491 73.2822 67.3435 73.3187 67.2435C73.3551 67.1436 73.4139 67.0515 73.4913 66.973C73.5688 66.8945 73.6632 66.8312 73.7687 66.7871C73.8743 66.743 73.9887 66.719 74.105 66.7166H101.02C101.26 66.7259 101.488 66.8174 101.658 66.9728C101.827 67.1281 101.925 67.3358 101.932 67.5539L102.136 71.3597C102.147 71.4645 102.133 71.5702 102.097 71.6702C102.06 71.7701 102.001 71.8621 101.924 71.9407C101.847 72.0192 101.752 72.0825 101.647 72.1266C101.541 72.1707 101.427 72.1947 101.31 72.1971Z" fill="white"/>
<path d="M77.3221 60.2841C77.334 60.4002 77.3194 60.5173 77.2793 60.628C77.2391 60.7388 77.1743 60.8409 77.0887 60.9281C77.0032 61.0152 76.8988 61.0855 76.782 61.1346C76.6651 61.1837 76.5384 61.2105 76.4097 61.2133C76.1423 61.2035 75.8889 61.1021 75.7009 60.9296C75.5129 60.7571 75.4043 60.5264 75.397 60.2841C75.3851 60.168 75.3996 60.051 75.4398 59.9402C75.4799 59.8294 75.5448 59.7273 75.6303 59.6401C75.7159 59.553 75.8203 59.4827 75.9371 59.4336C76.0539 59.3846 76.1806 59.3578 76.3094 59.3549C76.5768 59.3647 76.8302 59.4661 77.0182 59.6386C77.2062 59.8112 77.3148 60.0419 77.3221 60.2841Z" fill="#263238"/>
<path d="M80.2828 60.2841C80.2947 60.4002 80.2801 60.5173 80.24 60.628C80.1999 60.7388 80.135 60.8409 80.0494 60.9281C79.9639 61.0152 79.8595 61.0855 79.7427 61.1346C79.6259 61.1837 79.4992 61.2105 79.3704 61.2133C79.1028 61.2037 78.8491 61.1024 78.6609 60.9299C78.4727 60.7574 78.3639 60.5265 78.3566 60.2841C78.3446 60.168 78.3592 60.051 78.3993 59.9402C78.4395 59.8294 78.5043 59.7273 78.5899 59.6401C78.6754 59.553 78.7799 59.4827 78.8967 59.4336C79.0135 59.3846 79.1402 59.3578 79.2689 59.3549C79.5366 59.3645 79.7902 59.4658 79.9784 59.6383C80.1667 59.8108 80.2755 60.0417 80.2828 60.2841Z" fill="#263238"/>
<path d="M83.2435 60.2841C83.2554 60.4002 83.2408 60.5173 83.2007 60.628C83.1605 60.7388 83.0957 60.8409 83.0101 60.9281C82.9246 61.0152 82.8202 61.0855 82.7033 61.1346C82.5865 61.1837 82.4598 61.2105 82.3311 61.2133C82.0634 61.2037 81.8098 61.1024 81.6216 60.9299C81.4333 60.7574 81.3245 60.5265 81.3172 60.2841C81.3053 60.168 81.3199 60.051 81.36 59.9402C81.4002 59.8294 81.465 59.7273 81.5506 59.6401C81.6361 59.553 81.7405 59.4827 81.8574 59.4336C81.9742 59.3846 82.1009 59.3578 82.2296 59.3549C82.4973 59.3645 82.7509 59.4658 82.9391 59.6383C83.1274 59.8108 83.2362 60.0417 83.2435 60.2841Z" fill="#263238"/>
<path d="M86.2074 60.2841C86.2194 60.4002 86.205 60.5173 86.1649 60.6282C86.1249 60.739 86.06 60.8412 85.9744 60.9284C85.8889 61.0155 85.7844 61.0858 85.6675 61.1349C85.5506 61.1839 85.4238 61.2106 85.295 61.2133C85.0276 61.2035 84.7742 61.1021 84.5862 60.9296C84.3982 60.7571 84.2896 60.5264 84.2823 60.2841C84.2702 60.168 84.2846 60.0509 84.3247 59.94C84.3648 59.8292 84.4296 59.727 84.5152 59.6398C84.6008 59.5527 84.7053 59.4824 84.8222 59.4333C84.9391 59.3843 85.0659 59.3576 85.1946 59.3549C85.4621 59.3647 85.7154 59.4661 85.9034 59.6386C86.0914 59.8112 86.2001 60.0419 86.2074 60.2841Z" fill="#263238"/>
<path d="M77.8138 69.4578C77.8259 69.5739 77.8114 69.6911 77.7714 69.8019C77.7313 69.9127 77.6664 70.0149 77.5808 70.1021C77.4952 70.1893 77.3908 70.2596 77.2739 70.3086C77.157 70.3576 77.0302 70.3843 76.9014 70.3871C76.634 70.3772 76.3806 70.2758 76.1926 70.1033C76.0046 69.9308 75.896 69.7001 75.8887 69.4578C75.8766 69.3417 75.891 69.2246 75.9311 69.1137C75.9712 69.0029 76.0361 68.9007 76.1216 68.8135C76.2072 68.7264 76.3117 68.6561 76.4286 68.6071C76.5455 68.558 76.6723 68.5313 76.8011 68.5286C77.0685 68.5384 77.3219 68.6399 77.5099 68.8124C77.6979 68.9849 77.8065 69.2156 77.8138 69.4578Z" fill="#263238"/>
<path d="M80.7743 69.4578C80.7862 69.5739 80.7717 69.691 80.7315 69.8017C80.6914 69.9125 80.6265 70.0146 80.541 70.1018C80.4554 70.1889 80.351 70.2592 80.2342 70.3083C80.1174 70.3574 79.9907 70.3842 79.862 70.3871C79.5945 70.3772 79.3412 70.2758 79.1532 70.1033C78.9652 69.9308 78.8565 69.7001 78.8492 69.4578C78.8373 69.3417 78.8519 69.2247 78.892 69.1139C78.9321 69.0031 78.997 68.901 79.0826 68.8139C79.1681 68.7267 79.2725 68.6564 79.3894 68.6074C79.5062 68.5583 79.6329 68.5315 79.7616 68.5286C80.029 68.5384 80.2824 68.6399 80.4704 68.8124C80.6584 68.9849 80.767 69.2156 80.7743 69.4578Z" fill="#263238"/>
<path d="M83.7351 69.4578C83.747 69.5739 83.7324 69.691 83.6923 69.8017C83.6521 69.9125 83.5873 70.0146 83.5017 70.1018C83.4162 70.1889 83.3118 70.2592 83.195 70.3083C83.0781 70.3574 82.9514 70.3842 82.8227 70.3871C82.555 70.3775 82.3014 70.2762 82.1132 70.1036C81.9249 69.9311 81.8162 69.7002 81.8088 69.4578C81.7969 69.3417 81.8115 69.2247 81.8516 69.1139C81.8918 69.0031 81.9566 68.901 82.0422 68.8139C82.1277 68.7267 82.2322 68.6564 82.349 68.6074C82.4658 68.5583 82.5925 68.5315 82.7212 68.5286C82.9889 68.5382 83.2425 68.6395 83.4307 68.812C83.619 68.9846 83.7277 69.2154 83.7351 69.4578Z" fill="#263238"/>
<path d="M86.6956 69.4578C86.7075 69.5739 86.693 69.691 86.6528 69.8017C86.6127 69.9125 86.5478 70.0146 86.4623 70.1018C86.3767 70.1889 86.2723 70.2592 86.1555 70.3083C86.0387 70.3574 85.912 70.3842 85.7833 70.3871C85.5158 70.3772 85.2625 70.2758 85.0745 70.1033C84.8865 69.9308 84.7778 69.7001 84.7705 69.4578C84.7586 69.3417 84.7732 69.2247 84.8133 69.1139C84.8535 69.0031 84.9183 68.901 85.0039 68.8139C85.0894 68.7267 85.1939 68.6564 85.3107 68.6074C85.4275 68.5583 85.5542 68.5315 85.6829 68.5286C85.9504 68.5384 86.2037 68.6399 86.3917 68.8124C86.5797 68.9849 86.6883 69.2156 86.6956 69.4578Z" fill="#263238"/>
<path d="M89.6561 69.4578C89.6682 69.5739 89.6538 69.6911 89.6137 69.8019C89.5736 69.9127 89.5088 70.0149 89.4232 70.1021C89.3376 70.1893 89.2331 70.2596 89.1162 70.3086C88.9994 70.3576 88.8726 70.3843 88.7438 70.3871C88.4763 70.3772 88.223 70.2758 88.035 70.1033C87.847 69.9308 87.7384 69.7001 87.7311 69.4578C87.719 69.3417 87.7334 69.2246 87.7735 69.1137C87.8136 69.0029 87.8784 68.9007 87.964 68.8135C88.0496 68.7264 88.1541 68.6561 88.271 68.6071C88.3879 68.558 88.5146 68.5313 88.6434 68.5286C88.9109 68.5384 89.1642 68.6399 89.3522 68.8124C89.5402 68.9849 89.6488 69.2156 89.6561 69.4578Z" fill="#263238"/>
<path d="M92.6168 69.4578C92.6287 69.5739 92.6141 69.691 92.574 69.8017C92.5339 69.9125 92.469 70.0146 92.3834 70.1018C92.2979 70.1889 92.1935 70.2592 92.0767 70.3083C91.9599 70.3574 91.8332 70.3842 91.7044 70.3871C91.437 70.3772 91.1836 70.2758 90.9956 70.1033C90.8076 69.9308 90.699 69.7001 90.6917 69.4578C90.6796 69.3417 90.6941 69.2246 90.7341 69.1137C90.7742 69.0029 90.8391 68.9007 90.9246 68.8135C91.0102 68.7264 91.1147 68.6561 91.2316 68.6071C91.3485 68.558 91.4753 68.5313 91.6041 68.5286C91.8715 68.5384 92.1249 68.6399 92.3129 68.8124C92.5009 68.9849 92.6095 69.2156 92.6168 69.4578Z" fill="#263238"/>
<path d="M124.662 37.9729C124.732 38.0762 124.768 38.1288 124.814 38.2011L124.94 38.4076C125.022 38.5418 125.093 38.675 125.168 38.8092C125.309 39.0777 125.442 39.3451 125.561 39.6167C125.799 40.1566 126.003 40.7081 126.173 41.2686C126.513 42.3801 126.737 43.5181 126.841 44.6677L126.863 44.8814C126.863 44.9124 126.87 44.9598 126.872 45.0104L126.878 45.156C126.882 45.3444 126.871 45.5329 126.843 45.7198C126.791 46.0646 126.698 46.4032 126.564 46.7296C126.319 47.3064 125.991 47.8514 125.589 48.3506C124.853 49.2625 123.969 50.068 122.966 50.7398L122.189 49.8653C122.9 49.0912 123.527 48.2569 124.061 47.3738C124.305 46.9687 124.496 46.5395 124.631 46.0946C124.685 45.9044 124.716 45.7095 124.723 45.5133C124.728 45.4292 124.725 45.3449 124.714 45.2613L124.705 45.2035C124.705 45.186 124.705 45.1663 124.694 45.1302L124.658 44.9392C124.479 43.9298 124.223 42.9328 123.892 41.9553C123.73 41.471 123.529 41.0033 123.322 40.5438C123.221 40.3136 123.111 40.0895 122.997 39.8707L122.822 39.5516L122.735 39.4009L122.664 39.2821L124.662 37.9729Z" fill="#803E3C"/>
<path d="M122.036 50.7564L123.057 52.8296L123.867 51.0744C123.867 51.0744 123.149 49.5556 122.179 49.695L122.036 50.7564Z" fill="#7F3E3B"/>
<path d="M123.784 52.9317L124.593 51.6535L123.861 51.0763L123.051 52.8316L123.784 52.9317Z" fill="#7F3E3B"/>
<path d="M119.197 100.764C119.407 100.759 119.617 100.732 119.82 100.683C119.831 100.68 119.841 100.675 119.848 100.667C119.856 100.66 119.861 100.651 119.863 100.641C119.865 100.63 119.863 100.62 119.859 100.61C119.854 100.6 119.847 100.592 119.837 100.586C119.756 100.534 119.039 100.089 118.765 100.209C118.733 100.223 118.706 100.244 118.686 100.271C118.666 100.298 118.654 100.329 118.651 100.361C118.64 100.412 118.642 100.464 118.658 100.514C118.674 100.564 118.704 100.61 118.744 100.647C118.873 100.736 119.035 100.778 119.197 100.764ZM119.662 100.606C119.25 100.685 118.942 100.672 118.822 100.567C118.796 100.542 118.777 100.512 118.767 100.478C118.757 100.445 118.757 100.41 118.765 100.376C118.765 100.362 118.77 100.348 118.778 100.336C118.786 100.324 118.798 100.314 118.812 100.308C118.957 100.243 119.37 100.436 119.662 100.608V100.606Z" fill="#FA5C43"/>
<path d="M119.807 100.685C119.817 100.685 119.827 100.682 119.835 100.678C119.844 100.673 119.851 100.666 119.855 100.658C119.86 100.65 119.863 100.64 119.863 100.631C119.863 100.603 119.862 99.9498 119.602 99.7309C119.572 99.703 119.535 99.6819 119.493 99.6693C119.452 99.6568 119.408 99.6531 119.365 99.6586C119.32 99.6603 119.276 99.6762 119.242 99.7034C119.208 99.7306 119.185 99.7677 119.177 99.8083C119.125 100.064 119.553 100.555 119.778 100.677C119.787 100.682 119.796 100.685 119.807 100.685ZM119.405 99.7649C119.428 99.7651 119.451 99.7694 119.472 99.7776C119.493 99.7857 119.512 99.7976 119.528 99.8125C119.677 100.026 119.754 100.275 119.747 100.528C119.519 100.356 119.255 99.988 119.291 99.831C119.291 99.8052 119.312 99.7753 119.384 99.767L119.405 99.7649Z" fill="#FA5C43"/>
<path d="M116.535 99.6586C116.541 99.6516 116.546 99.6432 116.548 99.6342C116.55 99.6252 116.55 99.6159 116.547 99.607C116.544 99.5966 116.538 99.5874 116.529 99.5805C116.52 99.5737 116.509 99.5695 116.497 99.5688C116.383 99.5626 115.367 99.5223 115.139 99.7598L115.125 99.7763C115.106 99.8005 115.094 99.8284 115.09 99.8578C115.086 99.8871 115.09 99.9169 115.101 99.9446C115.115 99.9901 115.141 100.032 115.177 100.066C115.212 100.101 115.257 100.127 115.306 100.142C115.635 100.24 116.212 99.8857 116.527 99.6658L116.535 99.6586ZM115.223 99.831C115.567 99.6881 115.948 99.6328 116.325 99.671C115.886 99.957 115.526 100.093 115.339 100.039C115.307 100.028 115.278 100.011 115.254 99.9882C115.231 99.9653 115.214 99.9376 115.206 99.9074C115.201 99.8964 115.199 99.8843 115.2 99.8724C115.202 99.8605 115.206 99.8491 115.214 99.8393L115.223 99.831Z" fill="#FA5C43"/>
<path d="M116.535 99.6586L116.542 99.6494C116.546 99.6411 116.549 99.6319 116.549 99.6225C116.549 99.6131 116.546 99.6039 116.542 99.5957C116.528 99.573 116.213 99.0391 115.84 98.9431C115.787 98.9281 115.73 98.9239 115.675 98.9309C115.619 98.9378 115.566 98.9558 115.519 98.9834C115.473 99.0015 115.435 99.0336 115.412 99.0741C115.39 99.1146 115.383 99.161 115.394 99.2054C115.466 99.4563 116.185 99.6782 116.494 99.6762C116.502 99.6761 116.509 99.6745 116.516 99.6715C116.523 99.6684 116.53 99.664 116.535 99.6586ZM115.523 99.1145C115.539 99.0991 115.557 99.0858 115.577 99.0753C115.611 99.0549 115.65 99.0417 115.691 99.0367C115.732 99.0317 115.774 99.035 115.813 99.0464C116.058 99.1093 116.288 99.4108 116.39 99.5626C116.057 99.5265 115.546 99.3283 115.503 99.1775C115.499 99.1663 115.499 99.1545 115.503 99.1434C115.507 99.1322 115.514 99.1222 115.523 99.1145Z" fill="#FA5C43"/>
<path d="M119.638 30.0308C119.363 31.3782 118.746 34.3177 119.727 35.217C119.727 35.217 119.343 36.5841 116.741 36.5841C113.88 36.5841 115.372 35.217 115.372 35.217C116.935 34.8587 116.894 33.7436 116.627 32.6956L119.638 30.0308Z" fill="#7F3E3B"/>
<path d="M114.869 26.8517C114.886 26.8515 114.903 26.8476 114.919 26.8404C114.946 26.8264 114.966 26.8038 114.975 26.777C114.984 26.7502 114.982 26.7212 114.969 26.6958C114.898 26.544 114.787 26.4102 114.646 26.3063C114.504 26.2024 114.337 26.1316 114.158 26.1001C114.143 26.099 114.128 26.1005 114.114 26.1047C114.099 26.1089 114.086 26.1156 114.075 26.1244C114.063 26.1332 114.054 26.144 114.047 26.1561C114.04 26.1683 114.036 26.1815 114.035 26.1951C114.032 26.2087 114.033 26.2227 114.037 26.2361C114.04 26.2495 114.047 26.2622 114.056 26.2732C114.065 26.2843 114.077 26.2936 114.09 26.3006C114.103 26.3076 114.118 26.3121 114.133 26.3138C114.274 26.3409 114.406 26.3987 114.517 26.4822C114.627 26.5656 114.714 26.6723 114.769 26.7929C114.778 26.81 114.792 26.8245 114.81 26.8349C114.827 26.8453 114.848 26.8511 114.869 26.8517Z" fill="#263238"/>
<path d="M114.014 28.0298C113.795 28.4216 113.518 28.7848 113.192 29.1098C113.277 29.1877 113.38 29.2468 113.494 29.2826C113.609 29.3185 113.73 29.33 113.85 29.3163L114.014 28.0298Z" fill="#630F0F"/>
<path d="M114.224 27.7345C114.201 27.9162 114.082 28.0514 113.958 28.037C113.835 28.0225 113.753 27.8625 113.777 27.6808C113.801 27.4991 113.92 27.3638 114.043 27.3783C114.166 27.3927 114.244 27.5558 114.224 27.7345Z" fill="#263238"/>
<path d="M114.096 27.3976L113.659 27.2183C113.659 27.2183 113.848 27.5863 114.096 27.3976Z" fill="#263238"/>
<path d="M119.022 99.1413L116.724 99.6576L115.327 94.5705L117.625 94.0542L119.022 99.1413Z" fill="#7F3E3B"/>
<path d="M122.551 100.63H120.19L120.375 95.3707H122.735L122.551 100.63Z" fill="#7F3E3B"/>
<path d="M120.004 100.368H122.656C122.703 100.368 122.748 100.384 122.782 100.413C122.817 100.441 122.839 100.481 122.844 100.523L123.146 102.541C123.153 102.591 123.149 102.641 123.133 102.689C123.118 102.737 123.091 102.781 123.056 102.819C123.02 102.857 122.976 102.888 122.926 102.91C122.877 102.932 122.822 102.944 122.767 102.945C121.842 102.93 121.399 102.877 120.231 102.877C119.514 102.877 118.466 102.949 117.475 102.949C116.505 102.949 116.431 102.007 116.844 101.917C117.923 101.76 118.904 101.258 119.608 100.502C119.718 100.415 119.858 100.367 120.004 100.368Z" fill="#263238"/>
<path d="M116.52 99.321L118.929 98.2544C118.97 98.2357 119.018 98.232 119.062 98.244C119.107 98.2561 119.144 98.2831 119.167 98.3194L120.318 100.031C120.345 100.075 120.362 100.123 120.368 100.173C120.375 100.223 120.37 100.273 120.354 100.321C120.339 100.37 120.312 100.414 120.277 100.453C120.242 100.492 120.199 100.524 120.15 100.548C119.304 100.906 118.876 101.037 117.817 101.506C117.166 101.794 115.848 102.456 114.949 102.854C114.068 103.243 113.591 102.417 113.929 102.174C114.941 101.524 115.734 100.634 116.222 99.6018C116.283 99.4798 116.388 99.3806 116.52 99.321Z" fill="#263238"/>
<path opacity="0.2" d="M115.328 94.5735L116.076 97.2993L118.347 96.6798L117.627 94.0573L115.328 94.5735Z" fill="black"/>
<path opacity="0.2" d="M122.738 95.3738H120.377L120.282 98.0851H122.643L122.738 95.3738Z" fill="black"/>
<path d="M123.797 35.7334C124.778 35.9399 125.825 39.3348 125.825 39.3348L123.053 42.1711C123.053 42.1711 120.752 38.9837 121.221 37.8108C121.709 36.5904 122.639 35.4887 123.797 35.7334Z" fill="#263238"/>
<path opacity="0.4" d="M122.242 37.8933C121.746 37.4566 121.41 37.5836 121.182 37.9336C120.954 38.9423 122.293 41.0538 122.83 41.8571C123.079 40.8999 123.364 38.8855 122.242 37.8933Z" fill="black"/>
<path d="M111.383 35.7985C111.383 35.7985 110.259 36.1795 112.511 49.505H122.097C121.936 45.7508 121.931 43.4359 123.796 35.7324C122.456 35.4659 121.095 35.2933 119.726 35.2162C118.277 35.1164 116.822 35.1164 115.373 35.2162C113.503 35.3814 111.383 35.7985 111.383 35.7985Z" fill="#263238"/>
<path opacity="0.4" d="M111.293 40.9134C111.355 41.5618 111.437 42.2908 111.544 43.1147C112.463 42.0543 112.891 40.7116 112.736 39.3708C112.17 39.8143 111.683 40.3347 111.293 40.9134Z" fill="black"/>
<path d="M112.321 38.8939C111.8 40.1608 111.225 41.3658 110.578 42.5686C109.945 43.8011 109.192 44.9801 108.328 46.0915L108.148 46.3053L108.058 46.4085C108.027 46.4446 108.003 46.4756 107.953 46.5252C107.787 46.7016 107.6 46.8612 107.396 47.0012C107.037 47.2423 106.64 47.4333 106.218 47.568C105.487 47.7931 104.724 47.9224 103.952 47.9521C102.517 48.0066 101.08 47.884 99.6813 47.5876L99.8375 46.4519C100.485 46.4519 101.164 46.4415 101.82 46.4013C102.47 46.3709 103.118 46.3019 103.758 46.1948C104.354 46.1061 104.936 45.95 105.488 45.7301C105.714 45.6356 105.924 45.5126 106.111 45.3646C106.183 45.3066 106.248 45.2415 106.304 45.1705C106.324 45.1467 106.343 45.1219 106.361 45.0962L106.427 45.0064L106.559 44.8277C107.268 43.7719 107.898 42.6747 108.446 41.5434C109.016 40.39 109.569 39.1944 110.087 38.0328L112.321 38.8939Z" fill="#803E3C"/>
<path d="M111.384 35.7984C110.21 36.074 108.767 39.1726 108.767 39.1726L111.202 42.6191C111.202 42.6191 114.445 38.6956 114.053 37.4927C113.658 36.2382 112.807 35.4649 111.384 35.7984Z" fill="#263238"/>
<path d="M100.514 46.6191L98.4829 45.7167L98.2787 47.6598C98.2787 47.6598 99.9757 48.141 100.813 47.6474L100.514 46.6191Z" fill="#7F3E3B"/>
<path d="M97.2656 45.5194L97.0717 46.999L98.2783 47.6587L98.4825 45.7156L97.2656 45.5194Z" fill="#7F3E3B"/>
<path d="M120.657 27.8699C120.227 30.0856 120.095 31.0324 118.776 32.0391C118.368 32.3893 117.858 32.627 117.306 32.7243C116.754 32.8216 116.183 32.7745 115.66 32.5884C115.136 32.4023 114.683 32.0851 114.351 31.6738C114.02 31.2625 113.825 30.7743 113.789 30.2663C113.549 28.2013 114.292 24.9241 116.677 24.3067C117.222 24.1858 117.793 24.1934 118.334 24.3289C118.875 24.4643 119.369 24.7231 119.768 25.0805C120.167 25.4378 120.458 25.8819 120.614 26.3702C120.77 26.8585 120.785 27.3749 120.657 27.8699Z" fill="#7F3E3B"/>
<path d="M115.598 28.3364C115.467 29.466 115.416 32.4014 117.993 32.4943C118.514 32.5396 119.04 32.4791 119.531 32.317C120.023 32.155 120.468 31.8956 120.835 31.5578C121.202 31.22 121.48 30.8123 121.651 30.3644C121.821 29.9166 121.879 29.44 121.82 28.9694C122.234 28.6492 122.567 28.2521 122.797 27.8049C123.026 27.3577 123.147 26.871 123.15 26.3779C123.153 25.8848 123.039 25.3969 122.815 24.9474C122.591 24.4978 122.263 24.0972 121.853 23.7728C120.004 22.0784 115.935 23.0253 114.798 24.6762C114.423 25.2715 114.297 25.9692 114.444 26.6414C114.592 27.3137 115.001 27.9154 115.598 28.3364Z" fill="#263238"/>
<path d="M118.764 24.4305C118.612 23.239 118.73 22.4161 119.889 22.4161C120.546 22.3759 121.203 22.4989 121.789 22.7719C122.375 23.0448 122.867 23.4573 123.213 23.9649C123.795 25.1068 123.842 26.892 122.221 26.7113C120.6 26.5307 118.947 25.8575 118.764 24.4305Z" fill="#FA5C43"/>
<path d="M120.562 24.1445C120.286 22.7227 121.602 18.7228 124.813 18.4657C126.296 18.3449 126.989 19.8854 126.21 20.1384C127.615 20.1219 128.521 21.9143 127.207 22.1838C128.246 22.8218 127.987 24.1362 126.508 24.7795C125.416 25.2534 120.944 26.1124 120.562 24.1445Z" fill="#263238"/>
<path d="M123.991 25.6707C123.021 25.724 122.055 25.5236 121.208 25.0935C121.017 24.9794 120.858 24.8268 120.743 24.6477C120.628 24.4685 120.56 24.2678 120.546 24.061C120.544 24.0437 120.55 24.0265 120.562 24.013C120.574 23.9995 120.591 23.9908 120.611 23.9888C120.62 23.9882 120.63 23.9894 120.638 23.9922C120.647 23.995 120.656 23.9995 120.663 24.0053C120.67 24.0111 120.675 24.0181 120.679 24.0259C120.683 24.0337 120.686 24.0421 120.686 24.0507C120.7 24.237 120.761 24.4178 120.865 24.579C120.97 24.7402 121.113 24.8774 121.286 24.98C122.561 25.806 125.505 25.5355 126.431 25.2453C126.777 25.1651 127.092 25.003 127.345 24.7758C127.598 24.5486 127.779 24.2645 127.871 23.9526C127.908 23.7483 127.884 23.5387 127.801 23.3457C127.718 23.1528 127.579 22.9837 127.399 22.8561C127.384 22.8445 127.374 22.8283 127.372 22.8106C127.37 22.793 127.375 22.7753 127.387 22.7611C127.393 22.7543 127.4 22.7486 127.408 22.7444C127.416 22.7401 127.425 22.7375 127.434 22.7365C127.444 22.7355 127.453 22.7363 127.462 22.7388C127.471 22.7412 127.479 22.7453 127.486 22.7508C127.686 22.8951 127.839 23.0846 127.931 23.3002C128.022 23.5157 128.049 23.7494 128.009 23.9774C127.914 24.3129 127.722 24.6194 127.452 24.865C127.182 25.1106 126.845 25.2865 126.475 25.3744C125.667 25.5813 124.83 25.6811 123.991 25.6707Z" fill="#263238"/>
<path d="M114.88 28.0371C114.618 28.3983 114.51 28.8338 114.578 29.2617C114.671 29.8306 115.248 29.8678 115.665 29.5033C116.04 29.175 116.444 28.4842 116.137 28.0124C116.072 27.912 115.979 27.8291 115.867 27.7724C115.755 27.7156 115.629 27.687 115.5 27.6895C115.372 27.692 115.247 27.7256 115.138 27.7867C115.029 27.8479 114.94 27.9343 114.88 28.0371Z" fill="#7F3E3B"/>
<path d="M115.043 49.5058C115.043 49.5058 116.412 65.0966 117.834 73.8729C118.982 80.9682 119.887 97.5543 119.887 97.5543H123.105C123.105 97.5543 124.246 81.4649 123.667 74.447C122.193 56.6879 125.481 55.2424 122.097 49.5017L115.043 49.5058Z" fill="#FA5C43"/>
<path opacity="0.4" d="M119.094 55.3973C117.809 56.7 116.78 58.1931 116.053 59.8113C116.429 63.3146 116.873 67.2019 117.347 70.6081C119.293 65.7433 119.893 60.5207 119.094 55.3973Z" fill="black"/>
<path d="M112.785 49.4099C112.785 49.4099 109.814 66.4338 109.344 74.1074C110.511 81.2027 115.285 96.2029 115.285 96.2029L118.212 95.1828C118.212 95.1828 116.593 78.829 114.822 74.351C118.786 61.5067 121.7 58.2605 120.852 49.5111C118.835 49.5059 112.785 49.4099 112.785 49.4099Z" fill="#FA5C43"/>
<path d="M114.897 96.9463L118.853 95.9138L118.625 94.396L114.39 95.4977L114.897 96.9463Z" fill="#263238"/>
<path d="M119.446 97.6205H123.546L123.762 96.2369L119.428 96.0955L119.446 97.6205Z" fill="#263238"/>
<path d="M122.24 48.965L122.673 49.791C122.706 49.8551 122.627 49.9211 122.516 49.9211H112.463C112.377 49.9211 112.305 49.8798 112.3 49.8282L112.213 49.0022C112.208 48.9454 112.283 48.899 112.377 48.899H122.084C122.114 48.8965 122.145 48.9013 122.172 48.9129C122.2 48.9245 122.223 48.9425 122.24 48.965Z" fill="#FA5C43"/>
<path opacity="0.5" d="M122.24 48.965L122.673 49.791C122.706 49.8551 122.627 49.9211 122.516 49.9211H112.463C112.377 49.9211 112.305 49.8798 112.3 49.8282L112.213 49.0022C112.208 48.9454 112.283 48.899 112.377 48.899H122.084C122.114 48.8965 122.145 48.9013 122.172 48.9129C122.2 48.9245 122.223 48.9425 122.24 48.965Z" fill="black"/>
<path d="M120.938 50.0086H121.198C121.251 50.0086 121.289 49.9828 121.286 49.9518L121.164 48.879C121.164 48.8481 121.115 48.8223 121.064 48.8223H120.805C120.753 48.8223 120.714 48.8481 120.717 48.879L120.839 49.9518C120.84 49.9838 120.886 50.0086 120.938 50.0086Z" fill="#FA5C43"/>
<path d="M117.446 42.108C117.414 42.1072 117.383 42.0965 117.358 42.0778C117.334 42.0591 117.317 42.0333 117.31 42.0048C116.391 38.7359 114.48 36.0483 113.568 35.6342C113.534 35.6134 113.495 35.5994 113.454 35.593C113.413 35.5866 113.371 35.5879 113.331 35.597C113.314 35.6043 113.296 35.6083 113.277 35.6087C113.258 35.6092 113.239 35.6061 113.221 35.5997C113.204 35.5933 113.188 35.5838 113.175 35.5716C113.161 35.5594 113.151 35.5449 113.144 35.5289C113.129 35.4964 113.127 35.4598 113.14 35.4264C113.153 35.3931 113.18 35.3655 113.215 35.3493C113.292 35.3218 113.375 35.311 113.457 35.3178C113.539 35.3246 113.618 35.3488 113.688 35.3885C114.661 35.8314 116.588 38.486 117.552 41.8334C118.243 41.8251 119.309 41.7415 119.566 41.7208C119.888 41.3522 122.251 38.5108 121.367 35.4019C121.357 35.368 121.361 35.3318 121.38 35.3009C121.398 35.27 121.429 35.2466 121.466 35.2357C121.484 35.2312 121.503 35.2302 121.522 35.2326C121.541 35.235 121.559 35.2408 121.575 35.2497C121.591 35.2585 121.605 35.2703 121.616 35.2842C121.627 35.2981 121.635 35.3139 121.639 35.3307C122.624 38.7916 119.77 41.9108 119.741 41.9387C119.717 41.9639 119.684 41.9798 119.648 41.9831C119.636 41.9903 118.231 42.108 117.446 42.108Z" fill="#FA5C43"/>
<path d="M122.114 44.0243C120.578 41.2541 119.947 41.06 119.676 40.1699C119.881 39.6771 120.177 39.2193 120.552 38.8163C120.364 38.7657 119.964 38.6893 119.715 38.6429C119.743 38.5221 119.772 38.4023 119.8 38.2867C119.514 38.2538 119.223 38.2664 118.941 38.3238L118.931 38.0502C118.574 37.9745 118.205 37.9518 117.84 37.9831C117.871 38.1091 117.903 38.2402 117.934 38.3734C117.66 38.424 117.223 38.5086 117.016 38.5634C117.421 39.005 117.714 39.5207 117.877 40.075C117.051 41.443 113.831 50.2451 119.066 50.9069C124.3 51.5688 123.65 46.7955 122.114 44.0243Z" fill="#FA5C43"/>
<path opacity="0.4" d="M122.114 44.0243C120.578 41.2541 119.947 41.06 119.676 40.1699C119.881 39.6771 120.177 39.2193 120.552 38.8163C120.364 38.7657 119.964 38.6893 119.715 38.6429C119.743 38.5221 119.772 38.4023 119.8 38.2867C119.514 38.2538 119.223 38.2664 118.941 38.3238L118.931 38.0502C118.574 37.9745 118.205 37.9518 117.84 37.9831C117.871 38.1091 117.903 38.2402 117.934 38.3734C117.66 38.424 117.223 38.5086 117.016 38.5634C117.421 39.005 117.714 39.5207 117.877 40.075C117.051 41.443 113.831 50.2451 119.066 50.9069C124.3 51.5688 123.65 46.7955 122.114 44.0243Z" fill="white"/>
<path d="M117.681 39.8136C117.649 39.9528 117.635 40.0949 117.64 40.2369C117.634 40.3402 117.916 40.4063 118.233 40.4342C118.55 40.462 119.859 40.5137 119.818 40.3722C119.777 40.2308 119.883 40.0387 119.889 39.921C119.895 39.8033 119.367 39.7961 118.926 39.8178C118.486 39.8394 117.769 39.6608 117.681 39.8136Z" fill="#FA5C43"/>
<path d="M114.636 50.0086H114.896C114.947 50.0086 114.987 49.9828 114.984 49.9518L114.862 48.879C114.862 48.8481 114.813 48.8223 114.761 48.8223H114.501C114.45 48.8223 114.41 48.8481 114.414 48.879L114.536 49.9518C114.539 49.9838 114.584 50.0086 114.636 50.0086Z" fill="#FA5C43"/>
</g>
</svg>
