<svg width="28" height="28" viewBox="0 0 28 28" fill="none" xmlns="http://www.w3.org/2000/svg">
<path d="M21 8.4V11.2C22.54 11.2 23.8 12.46 23.8 14V23.8C23.8 25.34 22.54 26.6 21 26.6H6.99995C5.45995 26.6 4.19995 25.34 4.19995 23.8V14C4.19995 12.46 5.45995 11.2 6.99995 11.2V8.4C6.99995 4.536 10.136 1.4 14 1.4C17.864 1.4 21 4.536 21 8.4ZM11.2 8.4V11.2H16.8V8.4C16.8 6.86 15.54 5.6 14 5.6C12.46 5.6 11.2 6.86 11.2 8.4ZM15.12 22.75V19.712C16.1 19.278 16.8 18.298 16.8 17.15C16.8 15.61 15.54 14.35 14 14.35C12.46 14.35 11.2 15.61 11.2 17.15C11.2 18.298 11.9 19.278 12.88 19.712V22.75H15.12Z" fill="white"/>
</svg>
