<svg width="76" height="64" viewBox="0 0 76 64" fill="none" xmlns="http://www.w3.org/2000/svg">
<path d="M37.5385 64C58.2704 64 75.0769 63.2584 75.0769 62.3436C75.0769 61.4288 58.2704 60.6872 37.5385 60.6872C16.8065 60.6872 0 61.4288 0 62.3436C0 63.2584 16.8065 64 37.5385 64Z" fill="#FFDCC4"/>
<g style="mix-blend-mode:multiply">
<path d="M0 62.0561C0 62.0561 16.8065 62.7682 37.5385 62.7682C58.2704 62.7682 75.0769 62.0561 75.0769 62.0561C75.0769 61.5702 58.2704 61.1768 37.5385 61.1768C16.8065 61.1768 0 61.5702 0 62.0561Z" fill="#E6EAED"/>
</g>
<path d="M5.4424 61.4437C5.39247 58.737 4.9387 56.0539 4.0968 53.4875C3.08869 50.0732 1.83529 46.6883 1.60566 43.0853C1.37603 39.4823 2.38849 35.4949 4.99792 33.5777C8.04748 31.3347 12.527 32.3547 14.9894 29.2733C17.4319 26.2177 16.2794 21.3322 16.6421 17.1623C17.2257 10.4165 22.1584 5.15621 27.5217 2.65424C34.6341 -0.669248 45.5799 -1.20062 52.3661 2.96042C56.4977 5.49354 60.6633 9.58694 60.8729 16.646C60.9955 20.7608 59.9735 24.8577 60.2814 28.9671C60.6154 33.4175 61.507 34.4357 68.2106 37.7485C76.2772 41.736 71.7934 54.3143 72.163 61.4464L5.4424 61.4437Z" fill="#B3DFFC"/>
<path opacity="0.82" d="M58.1487 8.18687H31.7142C32.758 7.56383 31.475 7.48372 33.166 7.6288C34.0575 7.70535 34.9447 7.89582 35.6493 7.32529C36.2968 6.69283 36.904 6.01856 37.4672 5.30663C37.7526 4.95229 38.1212 4.67778 38.5384 4.50874C38.9556 4.3397 39.408 4.28165 39.8531 4.34002C40.415 4.47887 40.9038 4.91411 41.4796 4.9061C43.0453 4.88296 43.234 1.93685 44.7971 1.81847C45.6843 1.7535 46.4828 2.71744 47.3343 2.45843C47.7953 2.3178 48.0806 1.86565 48.4059 1.50161C48.4833 1.41497 48.5652 1.33267 48.6512 1.25507C49.9474 1.67829 51.193 2.24944 52.3644 2.95775C54.6207 4.27911 56.5891 6.0586 58.1487 8.18687Z" fill="url(#paint0_linear_3117_1877)"/>
<path opacity="0.82" d="M72.9711 45.6674H58.8376C59.6048 45.2117 58.6636 45.152 59.9014 45.2579C60.5131 45.427 61.1651 45.3476 61.721 45.0363C62.1959 44.5731 62.6407 44.0786 63.0527 43.5561C63.2618 43.2958 63.5321 43.094 63.8381 42.9695C64.1441 42.845 64.476 42.8018 64.8027 42.8441C65.2141 42.9473 65.5717 43.2669 65.9961 43.2606C67.1443 43.2428 67.28 41.0853 68.4273 40.9981C69.0761 40.9492 69.6615 41.6559 70.2852 41.4663C70.6235 41.363 70.8323 41.0301 71.068 40.7658C71.1546 40.6693 71.2485 40.58 71.3489 40.4988C72.2951 42.0597 72.8522 43.8346 72.9711 45.6674Z" fill="url(#paint1_linear_3117_1877)"/>
<path opacity="0.82" d="M30.0442 35.1585C29.5066 35.1193 28.9708 35.0445 28.4316 35.0445H3.56104C5.11017 32.474 8.64073 32.094 8.64073 32.094C10.9805 31.5421 13.4047 31.26 14.9904 29.2752C15.3154 28.8656 15.5873 28.4148 15.7993 27.9338C16.2846 28.0375 16.7411 28.2513 17.135 28.5593C17.529 28.8674 17.8504 29.262 18.0756 29.714C18.3365 30.248 18.4548 30.8568 18.7619 31.3686C18.894 31.6368 19.1079 31.8537 19.3713 31.9865C19.6346 32.1193 19.933 32.1608 20.2214 32.1047C20.6615 31.9525 20.9486 31.4718 21.4017 31.3748C21.9628 31.2538 22.4455 31.7727 22.7508 32.2711C23.0561 32.7695 23.3597 33.3534 23.9198 33.4932C24.3267 33.5353 24.7375 33.4857 25.1237 33.3481C26.885 32.9743 28.5803 34.0939 30.0442 35.1585Z" fill="url(#paint2_linear_3117_1877)"/>
<path d="M64.8157 38.4613H53.1324V39.1754H64.8157V38.4613Z" fill="#FFA143"/>
<path d="M64.3808 38.603H52.6975V39.3171H64.3808V38.603Z" fill="#FAF9FB"/>
<path d="M61.4487 39.4346L64.4974 59.943L67.9583 58.9923L64.8366 38.5039L61.4487 39.4346Z" fill="#FAF9FB"/>
<path d="M61.9366 39.3006L61.4487 39.4345L64.58 59.9865L65.0749 59.8508L61.9366 39.3006Z" fill="#FFA143"/>
<path d="M64.393 38.6257L67.4417 59.1341L67.9592 58.9915L64.8375 38.5031L64.393 38.6257Z" fill="#FFA143"/>
<path d="M61.4417 39.4276L51.5485 39.6712L55.2365 59.5533L64.58 59.9882L61.4417 39.4276Z" fill="#FFA143"/>
<path d="M54.224 48.6146L53.6082 44.5795L61.0538 44.3021L61.6696 48.3371L54.224 48.6146Z" fill="#FAF9FB"/>
<path d="M60.6067 38.4613H48.9234V39.1754H60.6067V38.4613Z" fill="#EE3D1E"/>
<path d="M60.1718 38.603H48.4885V39.3171H60.1718V38.603Z" fill="#FAF9FB"/>
<path d="M57.2397 39.4346L60.2884 59.943L63.7494 58.9923L60.6276 38.5039L57.2397 39.4346Z" fill="#FAF9FB"/>
<path d="M57.7277 39.3006L57.2397 39.4345L60.371 59.9865L60.866 59.8508L57.7277 39.3006Z" fill="#EE3D1E"/>
<path d="M60.184 38.6257L63.2327 59.1341L63.7546 58.9915L60.6328 38.5031L60.184 38.6257Z" fill="#EE3D1E"/>
<path d="M57.2327 39.4276L47.3395 39.6712L51.0275 59.5533L60.371 59.9882L57.2327 39.4276Z" fill="#EE3D1E"/>
<g style="mix-blend-mode:multiply">
<path d="M57.2327 39.4276L47.3395 39.6712L51.0275 59.5533L60.371 59.9882L57.2327 39.4276Z" fill="#B3B3B3"/>
</g>
<path d="M50.015 48.6146L49.3992 44.5795L56.8448 44.3021L57.4606 48.3371L50.015 48.6146Z" fill="#FAF9FB"/>
<path d="M58.8506 36.0502C58.6644 36.493 57.845 38.5257 57.7198 38.9293C57.5945 39.3329 58.3843 39.1363 58.614 38.8832C58.8897 38.5796 58.8523 38.2995 59.0628 37.7777C59.4107 36.9078 59.4629 36.6652 59.7213 36.493C60.4138 36.3085 61.1191 36.1762 61.8314 36.0972C62.2598 35.9588 62.6783 35.7914 63.0839 35.5962C63.5528 35.479 64.0287 35.3918 64.5087 35.3352L64.46 34.7411C64.46 34.7411 62.0932 35.0586 60.5275 35.3953C59.3794 35.6405 58.9141 35.8997 58.8506 36.0502Z" fill="#4B4C63"/>
<path d="M54.6398 36.0502C54.826 36.493 55.6453 38.5257 55.7706 38.9293C55.8958 39.3329 55.106 39.1363 54.8764 38.8832C54.6007 38.5796 54.6381 38.2995 54.4276 37.7777C54.0796 36.9078 54.0275 36.6652 53.7691 36.493C53.0766 36.3085 52.3713 36.1762 51.659 36.0972C51.2306 35.9587 50.8121 35.7914 50.4064 35.5962C49.9376 35.479 49.4617 35.3918 48.9817 35.3352L49.0304 34.7411C49.0304 34.7411 51.3972 35.0586 52.9628 35.3953C54.1118 35.6405 54.5772 35.8997 54.6398 36.0502Z" fill="#4B4C63"/>
<path d="M48.6999 34.8995V35.3988C48.7016 35.4495 48.7152 35.499 48.7397 35.5435C48.7642 35.5879 48.7988 35.6259 48.8408 35.6545C49.0471 35.8298 49.2085 36.052 49.3113 36.3025C49.4192 36.5826 49.8393 38.1413 50.5856 38.684C51.3319 39.2268 53.696 39.1137 54.3067 38.8658C55.6801 38.3092 55.9924 36.0163 56.202 35.8885C56.3344 35.8254 56.479 35.792 56.6257 35.7908C56.7724 35.7896 56.9175 35.8206 57.0509 35.8815C57.2631 36.0059 57.6102 38.2935 58.9924 38.8293C59.6073 39.0676 61.9723 39.1477 62.7099 38.5927C63.4475 38.0378 63.8407 36.4704 63.9468 36.1886C64.0456 35.9363 64.2033 35.7114 64.4069 35.5327C64.4489 35.5033 64.4833 35.4642 64.5072 35.4189C64.5311 35.3735 64.5438 35.323 64.5444 35.2718V34.7725C64.5443 34.695 64.5146 34.6204 64.4614 34.564C64.4083 34.5076 64.3356 34.4736 64.2582 34.4689C62.0914 34.2554 59.9068 34.3024 57.7511 34.609L57.351 34.6872C56.869 34.7831 56.3732 34.787 55.8897 34.6986L55.4887 34.6272C53.3288 34.3538 51.1439 34.3404 48.9808 34.5872C48.9028 34.5932 48.8302 34.629 48.7779 34.6871C48.7255 34.7453 48.6976 34.8213 48.6999 34.8995ZM57.7302 35.4475C57.8451 35.0682 58.0034 34.9882 59.135 34.8386C60.2666 34.689 63.0587 34.6446 63.3719 35.1413C63.4827 35.5512 63.5113 35.9789 63.456 36.3999C63.4008 36.8209 63.2628 37.2268 63.05 37.5942C62.4794 38.8693 60.9894 38.7327 60.1596 38.7145C59.7709 38.7548 59.3795 38.6699 59.0425 38.4721C58.7055 38.2743 58.4404 37.974 58.2861 37.615C57.9063 36.9568 57.7141 36.2072 57.7302 35.4475ZM49.8793 35.2439C50.1846 34.7421 52.9767 34.7421 54.111 34.876C55.2452 35.01 55.4044 35.0874 55.5244 35.4649C55.5523 36.2238 55.3718 36.9758 55.0025 37.6394C54.8541 38.0012 54.594 38.306 54.26 38.5095C53.9261 38.7129 53.5359 38.8042 53.1463 38.7701C52.3174 38.8015 50.8292 38.958 50.2394 37.6916C50.0203 37.3278 49.8755 36.9241 49.8135 36.504C49.7516 36.0838 49.7737 35.6555 49.8785 35.2439H49.8793Z" fill="#4B4C63"/>
<path opacity="0.32" d="M54.1101 34.876C55.2408 35.01 55.4035 35.0874 55.5235 35.4649C55.5513 36.2238 55.3708 36.9758 55.0016 37.6394C54.8532 38.0012 54.5931 38.3061 54.2591 38.5095C53.9252 38.7129 53.535 38.8042 53.1454 38.7702C52.3165 38.8015 50.8283 38.9581 50.2386 37.6916C50.02 37.3282 49.8757 36.9251 49.8138 36.5056C49.752 36.0861 49.774 35.6584 49.8785 35.2474C50.1838 34.743 52.9767 34.7421 54.1101 34.876Z" fill="white"/>
<path opacity="0.32" d="M59.135 34.8351C60.2657 34.6838 63.0587 34.6412 63.3718 35.1378C63.4826 35.5477 63.5113 35.9754 63.456 36.3964C63.4008 36.8174 63.2628 37.2233 63.05 37.5907C62.4794 38.8659 60.9894 38.7293 60.1596 38.711C59.7709 38.7512 59.3796 38.6662 59.0426 38.4685C58.7056 38.2707 58.4405 37.9705 58.2861 37.6116C57.9067 36.9539 57.7144 36.2049 57.7302 35.4457C57.8451 35.0683 58.0034 34.9891 59.135 34.8351Z" fill="white"/>
<path d="M49.4322 36.9618L49.3313 59.917H53.0089L53.0158 36.9618H49.4322Z" fill="#FAF9FB"/>
<path d="M50.0593 36.9618H49.4331L49.4244 59.9874H50.0602L50.0593 36.9618Z" fill="#FFEA2C"/>
<path d="M52.4453 36.9618L52.3444 59.917H53.0098L53.0167 36.9618H52.4453Z" fill="#FFEA2C"/>
<path d="M49.4244 36.9522H36.7695V59.9866H49.4244V36.9522Z" fill="#FFEA2C"/>
<g style="mix-blend-mode:multiply">
<path d="M49.4244 36.9522H36.7695V59.9866H49.4244V36.9522Z" fill="#B3B3B3"/>
</g>
<g style="mix-blend-mode:multiply">
<path d="M47.9275 58.2443V39.2459H38.5039V58.2443H47.9275Z" fill="#B3B3B3"/>
</g>
<path d="M43.0766 56.7118C43.0766 57.5836 42.7303 58.4197 42.1138 59.0361C41.4974 59.6525 40.6613 59.9988 39.7896 59.9988H11.4102V53.4248H39.7896C40.6613 53.4248 41.4974 53.7711 42.1138 54.3875C42.7303 55.004 43.0766 55.8401 43.0766 56.7118V56.7118Z" fill="#F3921D"/>
<path d="M41.37 56.7118C41.37 57.5836 41.0237 58.4197 40.4072 59.0361C39.7908 59.6525 38.9547 59.9988 38.083 59.9988H9.70363V53.4248H38.083C38.9547 53.4248 39.7908 53.7711 40.4072 54.3875C41.0237 55.004 41.37 55.8401 41.37 56.7118V56.7118Z" fill="#FAF9FB"/>
<path d="M39.6608 56.7118C39.6608 57.5836 39.3145 58.4197 38.6981 59.0361C38.0816 59.6525 37.2456 59.9988 36.3738 59.9988H7.99444V53.4248H36.3738C37.2456 53.4248 38.0816 53.7711 38.6981 54.3875C39.3145 55.004 39.6608 55.8401 39.6608 56.7118V56.7118Z" fill="#F3921D"/>
<path d="M30.934 56.7118C30.934 57.5836 30.5877 58.4197 29.9712 59.0361C29.3548 59.6525 28.5187 59.9988 27.6469 59.9988H3.51054V53.4248H27.6469C28.5187 53.4248 29.3548 53.7711 29.9712 54.3875C30.5877 55.004 30.934 55.8401 30.934 56.7118V56.7118Z" fill="#FAF9FB"/>
<path d="M29.2248 56.7118C29.2248 57.5836 28.8785 58.4197 28.2621 59.0361C27.6456 59.6525 26.8096 59.9988 25.9378 59.9988H1.8014V53.4248H25.9378C26.8096 53.4248 27.6456 53.7711 28.2621 54.3875C28.8785 55.004 29.2248 55.8401 29.2248 56.7118V56.7118Z" fill="#F3921D"/>
<path d="M26.5658 59.9988V53.4248H8.06577V59.9988H26.5658Z" fill="#F3BA40"/>
<path d="M8.0588 59.3091H25.662V54.1972H8.0588V59.3091Z" fill="#E7E7E5"/>
<g style="mix-blend-mode:multiply">
<path d="M8.0588 55.8933H25.662V54.1972H8.0588V55.8933Z" fill="#E6EAED"/>
</g>
<path d="M17.1074 47.3604H39.1311V53.3552H17.1066C16.3437 53.3552 15.612 53.0521 15.0726 52.5127C14.5332 51.9732 14.2301 51.2416 14.2301 50.4787V50.2377C14.2301 49.4746 14.5332 48.7428 15.0729 48.2032C15.6125 47.6636 16.3443 47.3604 17.1074 47.3604V47.3604Z" fill="#FF4F2C"/>
<path d="M18.5 48.9061H36.4729V52.1287H18.5C18.0727 52.1287 17.6629 51.959 17.3606 51.657C17.0584 51.3549 16.8885 50.9451 16.8882 50.5178V50.5178C16.8882 50.0904 17.0581 49.6804 17.3603 49.3781C17.6626 49.0759 18.0725 48.9061 18.5 48.9061V48.9061Z" fill="white"/>
<g style="mix-blend-mode:multiply">
<path d="M15.1912 47.3604H39.1311V49.2827H15.1912C14.9363 49.2827 14.6919 49.1814 14.5116 49.0012C14.3314 48.8209 14.2301 48.5765 14.2301 48.3216C14.2301 48.0666 14.3314 47.8222 14.5116 47.6419C14.6919 47.4617 14.9363 47.3604 15.1912 47.3604V47.3604Z" fill="#E6EAED"/>
</g>
<path d="M48.5651 53.3552V47.3604H38.1352V53.3552H48.5651Z" fill="#D34F26"/>
<path d="M48.5711 47.8397H38.7545V52.8898H48.5711V47.8397Z" fill="#E7E7E5"/>
<g style="mix-blend-mode:multiply">
<path d="M48.5711 47.8397H39.0241C38.9526 47.8397 38.884 47.8681 38.8334 47.9187C38.7829 47.9693 38.7545 48.0378 38.7545 48.1094V52.6193C38.7762 51.5419 38.8663 50.467 39.0241 49.401H48.5711V47.8397Z" fill="#E6EAED"/>
</g>
<path d="M14.5919 44.2152C14.5919 44.2152 13.4064 45.5495 12.4635 46.6707L12.9723 51.065C13.0056 50.5058 13.1542 49.9595 13.4086 49.4605C13.6631 48.9614 14.018 48.5204 14.451 48.165C15.7342 47.0435 16.8802 45.774 17.865 44.3831L14.5919 44.2152Z" fill="url(#paint3_linear_3117_1877)"/>
<path d="M14.8103 40.3663C14.8103 40.3663 13.7056 40.9751 13.483 41.0473C13.3598 41.1025 13.2264 41.131 13.0915 41.131C12.9566 41.131 12.8232 41.1025 12.7001 41.0473C12.2314 40.7337 11.8596 40.2954 11.6268 39.7817L12.2522 39.4486L13.2298 40.2915L14.3815 39.7243L14.8103 40.3663Z" fill="#FEC4AD"/>
<path d="M16.683 38.2292L15.4218 37.7255C15.1211 37.9184 14.8801 38.1913 14.7259 38.5136C14.474 38.9492 14.1772 39.3574 13.8405 39.7313L14.8799 40.9438C15.2863 40.5279 15.6473 40.0698 15.9567 39.5774C16.3098 38.9485 16.683 38.2292 16.683 38.2292Z" fill="#4097A5"/>
<path d="M13.6204 39.0763L13.8222 39.1928L15.1469 36.8992C15.1624 36.8724 15.1665 36.8406 15.1585 36.8107C15.1506 36.7809 15.131 36.7554 15.1043 36.74C15.0776 36.7248 15.046 36.7208 15.0164 36.7287C14.9867 36.7367 14.9614 36.7561 14.946 36.7826L13.6204 39.0763Z" fill="url(#paint4_linear_3117_1877)"/>
<path d="M17.7807 35.2752C17.7807 35.2752 17.8616 35.9006 17.9286 36.2189C17.9538 36.4112 18.0436 36.5891 18.1834 36.7234C18.2609 36.8 19.1359 37.3932 19.1359 37.3932C19.1359 37.3932 17.2275 40.9498 16.6769 39.0971C16.4475 38.5455 16.1504 38.0245 15.7923 37.5463C15.7923 37.5463 16.4577 37.0244 16.5569 36.7635C16.6387 36.4266 16.6905 36.0831 16.7117 35.7371L17.7807 35.2752Z" fill="#FEC4AD"/>
<g style="mix-blend-mode:multiply">
<path d="M17.0248 37.0505C16.9326 37.1175 16.8396 37.1844 16.7456 37.2488C16.5815 37.3607 16.4145 37.4689 16.2446 37.5732C16.1437 37.635 16.0385 37.6924 15.9358 37.7472C15.8489 37.6219 15.7914 37.5419 15.7914 37.5419C15.7914 37.5419 16.4568 37.02 16.556 36.7591C16.6378 36.4222 16.6896 36.0787 16.7108 35.7327L17.7807 35.2717C17.7807 35.2717 17.8616 35.8971 17.9286 36.2155C17.6398 36.506 17.3385 36.7843 17.0248 37.0505Z" fill="#E6EAED"/>
</g>
<path d="M13.4968 45.833C13.1089 45.7461 12.3435 46.6159 11.9486 47.6701C11.7231 48.7403 11.7098 49.8443 11.9094 50.9197C11.9964 51.9026 12.2852 56.3038 12.2852 56.3038H13.4299C13.4299 56.3038 13.6421 53.7944 13.7238 51.9548C13.8439 49.2583 13.8752 48.8234 13.8752 48.8234L16.4846 45.8304C15.4899 45.8974 14.4917 45.8983 13.4968 45.833Z" fill="url(#paint5_linear_3117_1877)"/>
<path d="M16.9656 44.724C16.1501 44.7018 15.3457 44.5293 14.5928 44.2151C14.8654 43.2456 15.017 42.2462 15.0442 41.2395C15.0838 40.0605 15.2096 38.886 15.4209 37.7254L16.3403 37.0557C16.3596 37.2441 16.4472 37.4189 16.5866 37.5471C16.7261 37.6753 16.9076 37.7481 17.097 37.7515C18.6627 37.8777 18.6026 37.0261 18.6026 37.0261C19.1759 37.2099 19.7261 37.4591 20.2422 37.7689C20.7719 38.2039 20.5293 38.7257 20.2187 40.8376C20.0909 41.7074 20.1091 42.766 20.0126 43.5671C19.9343 44.2142 20.0639 45.8286 19.5873 45.7877C18.7905 45.4755 17.8502 44.6935 16.9656 44.724Z" fill="#4097A5"/>
<path d="M16.6603 53.8483C16.9374 53.8203 17.2161 53.8813 17.4562 54.0223C17.5786 54.1008 17.7197 54.1452 17.865 54.151V54.732H15.747L16.6603 53.8483Z" fill="url(#paint6_linear_3117_1877)"/>
<path d="M12.3104 56.2916L13.3585 56.2646L13.4299 56.9222L11.8746 57.458L12.3104 56.2916Z" fill="url(#paint7_linear_3117_1877)"/>
<path d="M19.8752 39.9235C19.8752 39.9235 18.774 40.8229 18.3226 41.103C17.6728 41.5057 17.585 41.6449 17.2875 41.5622C16.99 41.4796 13.8613 38.891 13.8613 38.891L14.0179 38.3022C14.0179 38.3022 15.3278 39.172 16.2281 39.6513C16.7456 39.9261 17.4084 40.2862 17.4084 40.2862L18.5705 39.292L19.8752 39.9235Z" fill="#FEC4AD"/>
<path d="M17.571 39.9305C17.571 39.9305 19.168 38.3648 19.3724 38.1761C20.4284 37.195 20.9103 38.1456 20.384 39.4182C20.0117 40.1348 19.4569 40.7405 18.7757 41.1743C18.3104 41.0169 17.8102 40.2393 17.571 39.9305Z" fill="#4097A5"/>
<path d="M14.6067 46.528C14.9155 45.8878 15.5635 45.6121 16.3672 44.7014C16.3672 44.7014 16.9283 44.7188 17.8651 44.8267C18.4629 44.9172 19.0511 45.0627 19.6221 45.2616C19.6861 45.5819 19.6713 45.913 19.5791 46.2263C19.4868 46.5396 19.3198 46.8259 19.0924 47.0603C18.7053 47.5179 18.186 47.27 17.1475 47.6831C17.0258 47.7832 16.9097 47.8897 16.7995 48.0023C16.8376 48.8338 16.9651 49.6588 17.1796 50.463C17.4428 51.6819 17.6417 52.9139 17.7755 54.1537L16.7073 53.9727C16.7073 53.9727 15.7375 52.0835 15.3617 51.2946C14.7906 50.2306 14.4041 49.0774 14.2188 47.8841C14.1852 47.6435 14.2024 47.3985 14.2692 47.165C14.336 46.9314 14.451 46.7144 14.6067 46.528Z" fill="url(#paint8_linear_3117_1877)"/>
<path d="M15.1339 40.8786L13.3481 41.3944C13.2566 41.4185 13.1595 41.4109 13.0729 41.3726C12.9863 41.3344 12.9153 41.2678 12.8715 41.1839L11.1318 37.4681C11.1127 37.4304 11.1023 37.389 11.1015 37.3467C11.1007 37.3045 11.1095 37.2627 11.1273 37.2244C11.1451 37.1861 11.1713 37.1523 11.204 37.1257C11.2368 37.099 11.2751 37.0802 11.3162 37.0705L13.0863 36.5487C13.409 36.5173 13.5699 36.58 13.6517 36.7513L15.3913 40.4393C15.4774 40.6098 15.4461 40.7307 15.1339 40.8786Z" fill="white"/>
<path d="M14.919 40.9169L13.1333 41.4327C13.0417 41.4569 12.9447 41.4492 12.8581 41.4109C12.7715 41.3727 12.7004 41.3061 12.6566 41.2222L10.917 37.5064C10.8978 37.4688 10.8874 37.4273 10.8866 37.3851C10.8859 37.3429 10.8947 37.301 10.9124 37.2627C10.9302 37.2244 10.9564 37.1907 10.9892 37.164C11.0219 37.1374 11.0603 37.1185 11.1014 37.1089L12.8715 36.587C13.1942 36.5557 13.3551 36.6183 13.4369 36.7888L15.1765 40.4768C15.2626 40.6481 15.2295 40.769 14.919 40.9169Z" fill="#97A3CC"/>
<path d="M14.8816 40.9412L13.0872 41.4631C12.9953 41.4876 12.8977 41.4801 12.8107 41.4419C12.7236 41.4036 12.6521 41.3369 12.6079 41.2526L10.8665 37.5176C10.8474 37.4799 10.8371 37.4382 10.8364 37.3959C10.8357 37.3535 10.8446 37.3115 10.8626 37.2731C10.8805 37.2347 10.907 37.2009 10.9399 37.1743C10.9728 37.1476 11.0114 37.1288 11.0527 37.1193L12.8323 36.5974C12.9268 36.5715 13.0273 36.5783 13.1174 36.6167C13.2076 36.6551 13.2821 36.7227 13.329 36.8087L15.0869 40.5307C15.1058 40.5706 15.1155 40.6144 15.115 40.6586C15.1146 40.7029 15.1041 40.7464 15.0843 40.786C15.0645 40.8255 15.036 40.8601 15.0008 40.887C14.9657 40.9139 14.925 40.9324 14.8816 40.9412Z" fill="#FF3A46"/>
<path d="M11.0788 37.9438L11.3041 37.8499C11.3234 37.8419 11.3388 37.8264 11.3468 37.807C11.3548 37.7876 11.3547 37.7658 11.3467 37.7464C11.3427 37.7368 11.3368 37.7281 11.3295 37.7208C11.3221 37.7134 11.3134 37.7076 11.3037 37.7037C11.2941 37.6997 11.2838 37.6977 11.2734 37.6977C11.263 37.6977 11.2528 37.6998 11.2432 37.7038L11.0179 37.7977C11.0083 37.8017 10.9996 37.8076 10.9922 37.8149C10.9849 37.8223 10.9791 37.8311 10.9751 37.8407C10.9712 37.8503 10.9692 37.8606 10.9692 37.8709C10.9692 37.8813 10.9713 37.8916 10.9753 37.9012C10.9833 37.9206 10.9988 37.936 11.0182 37.944C11.0376 37.952 11.0594 37.9519 11.0788 37.9438Z" fill="#97A3CC"/>
<path d="M11.3371 38.5605L11.5624 38.4666C11.572 38.4626 11.5807 38.4568 11.588 38.4494C11.5954 38.442 11.6012 38.4333 11.6051 38.4237C11.6091 38.4141 11.6111 38.4038 11.6111 38.3934C11.6111 38.383 11.609 38.3727 11.605 38.3631C11.601 38.3535 11.5952 38.3448 11.5878 38.3375C11.5804 38.3301 11.5717 38.3243 11.5621 38.3203C11.5525 38.3164 11.5422 38.3144 11.5318 38.3144C11.5214 38.3144 11.5111 38.3165 11.5015 38.3205L11.2762 38.4144C11.2568 38.4225 11.2415 38.4379 11.2335 38.4573C11.2255 38.4767 11.2255 38.4986 11.2336 38.5179C11.2417 38.5373 11.2571 38.5527 11.2765 38.5607C11.2959 38.5687 11.3177 38.5686 11.3371 38.5605Z" fill="#97A3CC"/>
<path d="M11.5955 39.1782L11.8207 39.0842C11.8303 39.0802 11.8391 39.0744 11.8464 39.067C11.8537 39.0596 11.8595 39.0509 11.8635 39.0413C11.8675 39.0317 11.8695 39.0214 11.8695 39.011C11.8694 39.0006 11.8674 38.9903 11.8634 38.9807C11.8553 38.9613 11.8399 38.946 11.8204 38.938C11.8108 38.934 11.8005 38.932 11.7901 38.932C11.7797 38.932 11.7695 38.9341 11.7599 38.9381L11.5346 39.0321C11.5152 39.0401 11.4998 39.0556 11.4918 39.075C11.4838 39.0944 11.4839 39.1162 11.492 39.1356C11.5 39.1549 11.5155 39.1703 11.5349 39.1783C11.5543 39.1863 11.5761 39.1863 11.5955 39.1782Z" fill="#97A3CC"/>
<path d="M11.8547 39.7966L12.0799 39.7026C12.0895 39.6986 12.0982 39.6928 12.1056 39.6854C12.1129 39.6781 12.1187 39.6693 12.1227 39.6597C12.1266 39.6501 12.1287 39.6398 12.1286 39.6294C12.1286 39.619 12.1266 39.6087 12.1226 39.5991C12.1145 39.5798 12.099 39.5644 12.0796 39.5564C12.0602 39.5484 12.0384 39.5484 12.019 39.5565L11.7938 39.6504C11.7842 39.6544 11.7755 39.6603 11.7681 39.6676C11.7608 39.675 11.755 39.6838 11.751 39.6934C11.7471 39.703 11.745 39.7133 11.7451 39.7237C11.7451 39.7341 11.7471 39.7444 11.7511 39.7539C11.7592 39.7733 11.7747 39.7887 11.7941 39.7967C11.8135 39.8047 11.8353 39.8046 11.8547 39.7966Z" fill="#97A3CC"/>
<path d="M12.1121 40.4133L12.3374 40.3193C12.347 40.3153 12.3557 40.3095 12.363 40.3021C12.3704 40.2947 12.3762 40.286 12.3801 40.2764C12.3841 40.2668 12.3861 40.2565 12.3861 40.2461C12.3861 40.2357 12.384 40.2254 12.38 40.2158C12.3719 40.1964 12.3565 40.1811 12.3371 40.1731C12.3177 40.1651 12.2959 40.1651 12.2765 40.1732L12.0512 40.2671C12.0416 40.2711 12.0329 40.277 12.0256 40.2843C12.0182 40.2917 12.0124 40.3005 12.0085 40.3101C12.0045 40.3197 12.0025 40.33 12.0025 40.3404C12.0025 40.3508 12.0046 40.361 12.0086 40.3706C12.0167 40.39 12.0321 40.4054 12.0515 40.4134C12.0709 40.4214 12.0927 40.4213 12.1121 40.4133Z" fill="#97A3CC"/>
<path d="M12.3705 41.0317L12.5957 40.9378C12.6151 40.9297 12.6305 40.9143 12.6385 40.8949C12.6465 40.8755 12.6464 40.8537 12.6384 40.8343C12.6303 40.8149 12.6148 40.7995 12.5954 40.7915C12.576 40.7835 12.5542 40.7836 12.5349 40.7917L12.3096 40.8856C12.3 40.8896 12.2913 40.8955 12.2839 40.9028C12.2766 40.9102 12.2708 40.9189 12.2668 40.9285C12.2629 40.9382 12.2608 40.9485 12.2609 40.9589C12.2609 40.9692 12.263 40.9795 12.2669 40.9891C12.2709 40.9987 12.2768 41.0074 12.2842 41.0148C12.2915 41.0221 12.3003 41.0279 12.3099 41.0319C12.3195 41.0358 12.3298 41.0379 12.3402 41.0378C12.3506 41.0378 12.3609 41.0357 12.3705 41.0317Z" fill="#97A3CC"/>
<path d="M11.846 39.8191L11.7512 39.5999C11.8703 39.5486 12.0338 39.4582 12.126 39.4156C12.236 39.3633 12.3534 39.328 12.474 39.3112L12.5236 39.4956C12.4028 39.5254 12.286 39.5695 12.1756 39.6269C12.0773 39.6817 11.939 39.7609 11.846 39.8191Z" fill="#FEC4AD"/>
<path d="M11.7407 39.5747L11.6442 39.3529C11.8179 39.2505 11.9974 39.1581 12.1817 39.0763L12.2896 39.2268C12.2896 39.2268 12.0286 39.3686 11.9295 39.4416C11.8808 39.4782 11.8042 39.5312 11.7407 39.5747Z" fill="#FEC4AD"/>
<path d="M11.953 40.0583L11.8599 39.8443C12.0033 39.8011 12.1442 39.7497 12.2818 39.6904C12.3402 39.6583 12.4003 39.6293 12.4618 39.6034L12.5262 39.7713C12.412 39.8578 12.2856 39.9269 12.1513 39.9766C12.0626 40.0105 12.0008 40.0366 11.953 40.0583Z" fill="#FEC4AD"/>
<path d="M11.9651 40.0948C12.0766 40.0785 12.1857 40.0493 12.2904 40.0078C12.3342 39.9787 12.3833 39.9583 12.4348 39.9478L12.4644 40.0844C12.4644 40.0844 12.273 40.1862 12.053 40.2975L11.9651 40.0948Z" fill="#FEC4AD"/>
<path d="M12.2139 40.2027L12.0512 40.2897L11.7511 40.1157L11.5128 39.4425L11.6868 39.0763L12.2139 40.2027Z" fill="#FEC4AD"/>
<path d="M16.1881 55.1017H17.8651V54.7303H16.1881V55.1017Z" fill="#A6AEBA"/>
<path d="M15.2791 34.6594C15.3218 35.1421 15.4196 35.6184 15.5705 36.079C15.6333 36.2709 15.737 36.4468 15.8746 36.5946C16.0122 36.7424 16.1803 36.8585 16.3672 36.9348C16.7065 37.0444 17.2084 36.6269 17.4241 36.3025C17.5885 35.9498 17.6454 35.5565 17.5876 35.1717C17.5777 34.9037 17.5233 34.6391 17.4267 34.3889C17.4267 34.3889 17.4519 33.7374 17.0857 33.5513C15.6818 32.838 15.2652 34.315 15.2791 34.6594Z" fill="#FEC4AD"/>
<path d="M15.1843 34.4594C15.5897 34.4741 15.6993 33.9923 16.5125 34.2497C16.6081 34.2762 16.709 34.2768 16.805 34.2516C16.9009 34.2264 16.9885 34.1762 17.0588 34.1062C17.1257 34.3506 16.9814 34.3906 17.0083 34.6037C17.0353 34.8168 17.3397 34.9517 17.3397 34.9517C17.3751 35.0961 17.4393 35.2319 17.5285 35.3509C17.6698 35.5901 17.785 35.8438 17.872 36.1076C17.872 36.1076 18.0886 35.4562 18.1017 35.3527C18.1147 35.2491 18.407 35.0204 18.5235 34.6777C18.6401 34.335 18.4287 32.992 17.5937 33.0711C17.2824 32.8945 16.9223 32.8237 16.5673 32.8693C16.2123 32.915 15.8818 33.0746 15.6253 33.3243C15.3501 33.6394 15.194 34.041 15.1843 34.4594Z" fill="#613531"/>
<path d="M17.3562 35.0326C17.3379 34.8751 17.2527 34.4811 17.6058 34.4185C17.959 34.3559 17.9364 34.9038 17.8294 35.0404C17.7394 35.1727 17.662 35.313 17.598 35.4596C17.4744 35.3463 17.3898 35.1968 17.3562 35.0326Z" fill="#FEC4AD"/>
<path d="M23.7693 22.162H34.7594V21.5731H23.7693V22.162Z" fill="#EE3D1E"/>
<path d="M24.179 22.2785H35.1691V21.6896H24.179V22.2785Z" fill="#FAF9FB"/>
<path d="M26.9363 22.3756L24.0659 42.0864L20.8102 41.3036L23.7467 21.6093L26.9363 22.3756Z" fill="#FAF9FB"/>
<path d="M26.4779 22.2637L26.9363 22.3742L23.992 42.1189L23.5266 42.0067L26.4779 22.2637Z" fill="#EE3D1E"/>
<path d="M24.1686 21.7114L21.2982 41.4222L20.8111 41.3047L23.7476 21.6105L24.1686 21.7114Z" fill="#EE3D1E"/>
<path d="M26.9441 22.3698L36.2511 22.5707L32.7823 41.764L23.9972 42.1206L26.9441 22.3698Z" fill="#EE3D1E"/>
<g style="mix-blend-mode:multiply">
<path d="M26.9441 22.3698L36.2511 22.5707L32.7823 41.764L23.9972 42.1206L26.9441 22.3698Z" fill="#B3B3B3"/>
</g>
<path d="M33.626 31.3802L34.2053 28.0523L27.3077 26.391L26.7284 29.7189L33.626 31.3802Z" fill="#FAF9FB"/>
<path d="M30.7523 20.7776L30.8393 41.6323H26.8486L26.8425 20.7776H30.7523Z" fill="#FAF9FB"/>
<path d="M30.1903 20.7772H30.7522L30.76 41.6866H30.1894L30.1903 20.7772Z" fill="#F3BA40"/>
<path d="M27.3573 20.7776L27.4443 41.6323H26.8476L26.8415 20.7776H27.3573Z" fill="#F3BA40"/>
<path d="M30.76 41.6867H42.1145V20.7703H30.76V41.6867Z" fill="#F3BA40"/>
<path d="M40.4671 28.3604V24.8037H32.0117V28.3604H40.4671Z" fill="#FAF9FB"/>
<path d="M46.6445 12.5245L58.1756 23.4841C58.1897 23.4973 58.1989 23.5149 58.2019 23.5339C58.2049 23.553 58.2014 23.5725 58.1921 23.5894L57.7938 24.3261L42.3764 19.7744H42.3694L30.0363 9.3001L30.4347 8.56424C30.4438 8.5472 30.4583 8.53368 30.476 8.52581C30.4936 8.51793 30.5134 8.51615 30.5321 8.52075L46.1018 12.2401C46.3045 12.2855 46.4917 12.3836 46.6445 12.5245Z" fill="#75769A"/>
<path d="M46.8011 13.8779L57.7938 24.3226L41.9588 20.5694C41.9478 20.5669 41.9376 20.5615 41.9293 20.5537L30.0372 9.29315L44.8866 12.8394C45.6051 13.0109 46.2655 13.3692 46.8011 13.8779Z" fill="#4B4C63"/>
<path d="M44.4013 15.9107C48.4024 18.08 51.2615 20.5616 50.7779 21.4549L47.2204 28.0254L32.7154 20.171L36.2729 13.6005C36.7557 12.7098 40.395 13.744 44.4013 15.9107Z" fill="#75769A"/>
<path d="M32.711 20.1728C32.6688 20.2553 32.6525 20.3487 32.6641 20.4407C32.731 21.4923 35.4301 23.7372 39.0885 25.7187C42.7469 27.7001 46.0913 28.7317 47.0177 28.2176C47.1003 28.1743 47.1688 28.1082 47.2151 28.0272C47.6987 27.1347 44.8458 24.6523 40.8403 22.483C36.8348 20.3137 33.1972 19.2795 32.711 20.1728Z" fill="#4B4C63"/>
<path d="M32.6667 20.4407C32.7336 21.4923 35.4327 23.7373 39.0911 25.7178C42.7495 27.6984 46.0939 28.7309 47.0203 28.2168C47.2343 27.2035 44.4926 24.8245 40.6889 22.7657C36.8852 20.7069 33.4016 19.7101 32.6667 20.4407Z" fill="#23232E"/>
<path d="M52.4757 25.7795C52.1197 26.6658 51.8856 27.5963 51.7799 28.5456C51.7476 29.3461 51.811 30.1476 51.9686 30.9332L52.2017 31.1941L52.4627 31.0202L52.7089 31.4412L52.8776 31.0758L53.182 31.382L53.4204 31.1385L53.5517 31.6603L53.9196 31.3916L54.2675 31.4786C54.2675 31.4786 54.5015 30.1043 54.5685 29.5363C54.7255 28.3068 54.6017 27.0578 54.2067 25.8831C53.6013 23.7068 52.4757 25.7795 52.4757 25.7795Z" fill="#FEB200"/>
<path d="M54.2049 25.877L52.4757 25.7804L52.5627 24.1478C52.5764 23.9188 52.68 23.7046 52.8508 23.5516C53.0217 23.3987 53.2461 23.3194 53.4751 23.331C53.7041 23.3447 53.9183 23.4483 54.0713 23.6191C54.2243 23.79 54.3035 24.0144 54.2919 24.2434L54.2049 25.877Z" fill="#FC9D00"/>
<path d="M34.1244 20.7776L34.2114 41.6323H30.9114L30.9053 20.7776H34.1244Z" fill="#FAF9FB"/>
<path d="M33.5625 20.7772H34.1244L34.1323 41.6866H33.5617L33.5625 20.7772Z" fill="#F97228"/>
<path d="M31.422 20.7776L31.509 41.6323H30.9123L30.9062 20.7776H31.422Z" fill="#F97228"/>
<path d="M34.1323 41.6867H45.4868V20.7703H34.1323V41.6867Z" fill="#F97228"/>
<g style="mix-blend-mode:multiply">
<path d="M34.1323 41.6867H45.4868V20.7703H34.1323V41.6867Z" fill="#B3B3B3"/>
</g>
<path d="M43.8394 28.3604V24.8037H35.3839V28.3604H43.8394Z" fill="#FAF9FB"/>
<path d="M47.2995 44.6441C47.2995 45.3765 47.0085 46.079 46.4906 46.5969C45.9727 47.1148 45.2703 47.4057 44.5378 47.4057H28.1506V41.8824H44.5378C45.2703 41.8824 45.9727 42.1734 46.4906 42.6913C47.0085 43.2092 47.2995 43.9117 47.2995 44.6441V44.6441Z" fill="#FF9136"/>
<path d="M44.1856 44.6441C44.1856 45.3765 43.8946 46.079 43.3767 46.5969C42.8588 47.1148 42.1564 47.4058 41.4239 47.4058H25.5934C25.4453 47.4058 25.3032 47.3469 25.1985 47.2422C25.0938 47.1375 25.0349 46.9954 25.0349 46.8473V42.4409C25.0349 42.3674 25.0494 42.2946 25.0776 42.2268C25.1058 42.1589 25.1471 42.0973 25.1991 42.0454C25.2511 41.9935 25.3129 41.9524 25.3809 41.9245C25.4488 41.8965 25.5216 41.8822 25.5951 41.8824H41.4239C42.1564 41.8824 42.8588 42.1734 43.3767 42.6913C43.8946 43.2092 44.1856 43.9117 44.1856 44.6441V44.6441Z" fill="#FAF9FB"/>
<path d="M24.6444 46.8473V42.4409C24.6444 42.2928 24.7032 42.1507 24.8079 42.046C24.9127 41.9413 25.0547 41.8824 25.2028 41.8824H36.6791C37.4115 41.8824 38.114 42.1734 38.6319 42.6913C39.1498 43.2092 39.4407 43.9117 39.4407 44.6441C39.4407 45.0068 39.3693 45.3659 39.2305 45.7009C39.0917 46.036 38.8883 46.3404 38.6319 46.5969C38.3754 46.8533 38.071 47.0567 37.7359 47.1955C37.4009 47.3343 37.0418 47.4058 36.6791 47.4058H25.2028C25.0547 47.4058 24.9127 47.3469 24.8079 47.2422C24.7032 47.1375 24.6444 46.9954 24.6444 46.8473Z" fill="#FF9136"/>
<path d="M36.5582 44.6441C36.5582 45.3765 36.2672 46.079 35.7493 46.5969C35.2314 47.1148 34.529 47.4058 33.7965 47.4058H22.3498C22.1936 47.4058 22.0439 47.3437 21.9334 47.2333C21.823 47.1228 21.761 46.9731 21.761 46.8169V42.4678C21.7619 42.3121 21.8244 42.1631 21.935 42.0534C22.0455 41.9437 22.195 41.8822 22.3507 41.8824H33.7965C34.529 41.8824 35.2314 42.1734 35.7493 42.6913C36.2672 43.2092 36.5582 43.9117 36.5582 44.6441V44.6441Z" fill="#FF9136"/>
<path d="M32.6414 44.644C32.6414 45.3765 32.3505 46.0789 31.8325 46.5968C31.3146 47.1147 30.6122 47.4057 29.8798 47.4057H20.8798V41.8824H29.8798C30.6122 41.8824 31.3146 42.1733 31.8325 42.6913C32.3505 43.2092 32.6414 43.9116 32.6414 44.644V44.644Z" fill="#FFA52E"/>
<path d="M20.8737 46.7603H31.8299V42.4991H20.8737V46.7603Z" fill="#E7E7E5"/>
<g style="mix-blend-mode:multiply">
<path d="M20.8737 43.4767H31.8299V42.4991H20.8737V43.4767Z" fill="#E6EAED"/>
</g>
<path d="M38.7641 32.4676C38.9847 32.2351 39.233 32.0306 39.5034 31.8587C39.8225 32.2124 40.0534 32.6365 40.1775 33.0964C40.3149 33.7575 41.557 36.3217 41.611 36.5435C41.6207 36.9219 41.5959 37.3004 41.537 37.6743L40.4637 37.315C40.4167 36.8962 40.2673 36.4953 40.0288 36.1477C39.406 35.4098 38.9356 34.5557 38.6449 33.6349C38.5179 32.8085 38.457 32.966 38.7641 32.4676Z" fill="white"/>
<path d="M36.6826 29.8903C36.6879 30.0356 36.6801 30.1812 36.6591 30.3252C36.6347 30.5582 36.538 30.7778 36.3825 30.9532C36.1361 31.1293 35.8741 31.2825 35.5997 31.4107C35.5997 31.4107 36.8992 33.0903 37.8238 33.0529C39.5921 32.9807 38.6797 31.4342 38.6797 31.4342C38.4053 31.3204 38.143 31.1794 37.8968 31.0132C37.7759 30.9097 37.7159 30.3252 37.7159 30.3252L36.6826 29.8903Z" fill="#FEC4AD"/>
<path d="M37.8968 31.0132C37.8968 31.0132 38.3152 31.9613 37.6855 32.0657C36.6852 32.2318 36.3807 30.9523 36.3807 30.9523L35.2778 31.5203L36.7496 33.7984L38.9554 32.6432L38.9145 31.5412L37.8968 31.0132Z" fill="white"/>
<path d="M42.1494 48.8104L42.0833 49.5228L42.5095 50.6292L41.2143 50.0142L41.2674 48.9618L42.1494 48.8104Z" fill="#282C3B"/>
<path d="M40.2114 38.7363C40.2114 38.7363 42.693 40.7803 42.9696 41.4136C43.2462 42.0468 42.3103 49.0766 42.3103 49.0766L41.0925 49.0044C41.0925 49.0044 40.9777 46.6994 40.8707 45.4721C40.812 44.4327 40.8196 43.3906 40.8934 42.3521C40.2037 42.0704 39.4999 41.8245 38.7849 41.6153C35.9145 40.9265 36.506 39.132 36.5452 37.9847L40.2114 38.7363Z" fill="#914709"/>
<path d="M38.0464 39.0677C38.8739 39.6308 39.6159 40.3101 40.2497 41.0848C40.5263 41.718 38.1491 49.261 38.1491 49.261L36.9627 49.3124C36.9627 49.3124 37.5289 46.1471 37.6472 44.9207C37.7655 43.6942 37.9395 42.1912 37.9395 42.1912C37.164 42.0877 36.4032 41.8939 35.6727 41.6136C34.5611 41.0204 34.8403 40.2133 34.8795 39.066L38.0464 39.0677Z" fill="#914709"/>
<path d="M38.1491 49.2619L38.0229 49.796L38.4309 51.239L36.9679 50.4283L37.2845 49.0305L38.1491 49.2619Z" fill="#282C3B"/>
<path d="M36.1224 31.0715C36.1224 31.0715 36.4303 32.8355 37.8238 32.8355C37.8238 32.8355 38.4205 36.974 38.3726 37.4307C38.3248 37.8873 38.4596 39.2016 38.1404 39.426C37.3576 39.9792 35.2796 39.6809 34.8664 39.6809C34.8664 39.6809 34.7272 37.7838 34.6794 36.6539C34.6316 35.524 35.1143 34.0071 35.0647 33.4539C34.9328 32.9089 34.7134 32.389 34.415 31.9143L36.1224 31.0715Z" fill="#F3BA40"/>
<path d="M38.2161 31.1698C38.2161 31.1698 38.7902 32.4267 37.8238 32.8355C37.8238 32.8355 37.8803 38.8154 38.2413 39.2486C38.6023 39.6818 40.381 39.3669 40.4776 39.4156C40.5741 39.4643 39.7817 37.1819 39.7817 36.6166C39.7817 36.0512 39.506 31.8535 39.506 31.8535L38.2161 31.1698Z" fill="#F3BA40"/>
<path d="M39.3312 28.6682C39.3068 28.9622 39.0989 29.5702 39.0476 30.0094C39.0282 30.2035 38.9703 30.3918 38.8772 30.5633C38.7842 30.7347 38.6579 30.8859 38.5057 31.008C38.3719 31.1039 38.2148 31.1622 38.0508 31.1767C37.8868 31.1912 37.7219 31.1615 37.5733 31.0906C37.3389 30.9858 37.1331 30.8261 36.9734 30.6251C36.8137 30.424 36.7047 30.1875 36.6556 29.9355C36.5173 29.4189 36.5098 28.8761 36.6339 28.3559L38.0108 28.095L39.3312 28.6682Z" fill="#FEC4AD"/>
<path d="M39.4607 28.8665C39.0624 29.1805 38.784 28.9587 38.5344 28.8508C38.2134 28.7117 37.4567 28.2785 37.4567 28.2785C37.3601 28.499 37.3013 28.7343 37.2827 28.9744C37.2762 29.1679 37.216 29.3558 37.1088 29.5171C37.1088 29.5171 37.1384 29.1822 36.9435 29.0448C36.7487 28.9074 36.6278 29.2988 36.6826 29.5806C36.6998 29.7174 36.7484 29.8483 36.8243 29.9633C36.7552 30.1074 36.6933 30.2549 36.6391 30.4052C36.5705 30.0361 36.4695 29.6737 36.3373 29.3223C36.1686 28.9502 36.1521 28.5269 36.2912 28.1428C36.4416 27.6975 37.0992 27.7671 37.0992 27.7671C37.0992 27.7671 37.7724 27.0712 38.4587 27.3235C39.145 27.5757 39.6721 28.3133 39.7695 28.182C39.7838 28.3132 39.7627 28.4459 39.7084 28.5663C39.6541 28.6867 39.5686 28.7903 39.4607 28.8665Z" fill="#282C3B"/>
<path d="M37.1897 29.2101C37.1897 29.2371 37.2653 29.2649 37.2767 29.2745C37.3027 29.2945 37.288 29.2945 37.3567 29.5041C37.4071 29.659 37.5559 29.7503 37.8942 29.7651C38.1552 29.7738 38.1839 29.5972 38.2308 29.5224C38.2778 29.4476 38.303 29.4415 38.3422 29.4476C38.3813 29.4537 38.3987 29.4676 38.4205 29.5528C38.4257 29.6344 38.4574 29.712 38.5108 29.7739C38.5641 29.8357 38.6363 29.8785 38.7162 29.8956C38.9154 29.9399 39.018 29.8851 39.0824 29.7825C39.199 29.5981 39.199 29.6007 39.2294 29.5894C39.2598 29.5781 39.2851 29.4946 39.2868 29.4459C39.2885 29.3972 39.1424 29.3589 38.9885 29.3389C38.8282 29.3045 38.6642 29.2914 38.5005 29.2997C38.4031 29.3223 38.4013 29.3545 38.357 29.3476C38.3126 29.3406 38.3161 29.3084 38.2308 29.2606C38.0194 29.1932 37.8022 29.1458 37.582 29.1188C37.428 29.0944 37.2106 29.0771 37.1975 29.124C37.1908 29.1522 37.1882 29.1812 37.1897 29.2101ZM38.5179 29.425C38.5474 29.3684 38.6118 29.3754 38.8058 29.398C38.9998 29.4206 39.0824 29.425 39.1094 29.4606C39.1363 29.4963 39.1354 29.5911 39.065 29.7068C39.0422 29.7662 38.9986 29.8153 38.9422 29.8448C38.8858 29.8742 38.8206 29.8821 38.7588 29.8668C38.6958 29.864 38.6357 29.8391 38.5892 29.7965C38.5426 29.7539 38.5124 29.6963 38.504 29.6337C38.494 29.5639 38.4987 29.4928 38.5179 29.425ZM37.4306 29.1936C37.5934 29.1916 37.7556 29.2127 37.9125 29.2562C38.103 29.2954 38.1665 29.3076 38.1734 29.3711C38.1707 29.4415 38.1533 29.5105 38.1221 29.5737C38.0804 29.6703 38.0238 29.7477 37.7211 29.7025C37.508 29.6694 37.428 29.592 37.3924 29.4415C37.3654 29.3093 37.3941 29.218 37.4306 29.1927V29.1936Z" fill="#282C3B"/>
<path d="M37.8873 39.2878L38.0247 38.8528C38.0247 38.8528 39.1624 39.2182 39.4756 39.2878C39.7551 39.3691 40.0274 39.4736 40.2897 39.6H38.2961L37.8873 39.2878Z" fill="#F8C9A5"/>
<path d="M38.4161 38.9538L38.2961 39.6035C38.2961 39.6035 35.3918 39.4 34.876 38.5415C34.5271 37.9748 34.3184 37.3331 34.2671 36.6696C33.6582 33.634 34.0062 32.0822 34.4115 31.9144C34.8168 31.7465 35.5422 32.6363 35.4683 33.3817C35.5714 34.775 35.7614 36.1604 36.0372 37.5299C36.7743 38.0922 37.5723 38.5698 38.4161 38.9538Z" fill="white"/>
<path d="M39.1746 39.8079H40.3793L41.5839 35.5928H40.668L39.1746 39.8079Z" fill="#A6AEBA"/>
<path d="M39.5217 39.8079H44.2186L45.4233 35.5928H40.7263L39.5217 39.8079Z" fill="#D2DCEB"/>
<path d="M38.8293 40.0271H44.2221V39.7131H38.8293V40.0271Z" fill="#D2DCEB"/>
<path d="M36.1328 40.0271H38.8293V39.7131H36.1328V40.0271Z" fill="#A6AEBA"/>
<path d="M42.1024 37.903C42.0866 37.9982 42.098 38.096 42.1352 38.185C42.1724 38.2741 42.2339 38.3509 42.3127 38.4066C42.3915 38.4623 42.4844 38.4947 42.5808 38.5001C42.6771 38.5055 42.7731 38.4837 42.8576 38.4371C42.9422 38.3905 43.0119 38.3211 43.0588 38.2367C43.1057 38.1524 43.1279 38.0565 43.1229 37.9601C43.1179 37.8638 43.0858 37.7707 43.0304 37.6917C42.975 37.6127 42.8984 37.5509 42.8095 37.5133C42.6641 37.4735 42.5089 37.4919 42.3769 37.5647C42.2448 37.6374 42.1463 37.7588 42.1024 37.903Z" fill="#A6AEBA"/>
<defs>
<linearGradient id="paint0_linear_3117_1877" x1="44.9315" y1="8.18687" x2="44.9315" y2="1.25507" gradientUnits="userSpaceOnUse">
<stop stop-color="white" stop-opacity="0"/>
<stop offset="0.007" stop-color="white" stop-opacity="0.035"/>
<stop offset="0.047" stop-color="white" stop-opacity="0.216"/>
<stop offset="0.093" stop-color="white" stop-opacity="0.384"/>
<stop offset="0.141" stop-color="white" stop-opacity="0.533"/>
<stop offset="0.194" stop-color="white" stop-opacity="0.659"/>
<stop offset="0.252" stop-color="white" stop-opacity="0.769"/>
<stop offset="0.318" stop-color="white" stop-opacity="0.855"/>
<stop offset="0.395" stop-color="white" stop-opacity="0.922"/>
<stop offset="0.49" stop-color="white" stop-opacity="0.965"/>
<stop offset="0.624" stop-color="white" stop-opacity="0.992"/>
<stop offset="0.995" stop-color="white"/>
</linearGradient>
<linearGradient id="paint1_linear_3117_1877" x1="65.9044" y1="45.6674" x2="65.9044" y2="40.4988" gradientUnits="userSpaceOnUse">
<stop stop-color="white" stop-opacity="0"/>
<stop offset="0.007" stop-color="white" stop-opacity="0.035"/>
<stop offset="0.047" stop-color="white" stop-opacity="0.216"/>
<stop offset="0.093" stop-color="white" stop-opacity="0.384"/>
<stop offset="0.141" stop-color="white" stop-opacity="0.533"/>
<stop offset="0.194" stop-color="white" stop-opacity="0.659"/>
<stop offset="0.252" stop-color="white" stop-opacity="0.769"/>
<stop offset="0.318" stop-color="white" stop-opacity="0.855"/>
<stop offset="0.395" stop-color="white" stop-opacity="0.922"/>
<stop offset="0.49" stop-color="white" stop-opacity="0.965"/>
<stop offset="0.624" stop-color="white" stop-opacity="0.992"/>
<stop offset="0.995" stop-color="white"/>
</linearGradient>
<linearGradient id="paint2_linear_3117_1877" x1="16.8026" y1="35.1585" x2="16.8026" y2="27.9338" gradientUnits="userSpaceOnUse">
<stop stop-color="white" stop-opacity="0"/>
<stop offset="0.007" stop-color="white" stop-opacity="0.035"/>
<stop offset="0.047" stop-color="white" stop-opacity="0.216"/>
<stop offset="0.093" stop-color="white" stop-opacity="0.384"/>
<stop offset="0.141" stop-color="white" stop-opacity="0.533"/>
<stop offset="0.194" stop-color="white" stop-opacity="0.659"/>
<stop offset="0.252" stop-color="white" stop-opacity="0.769"/>
<stop offset="0.318" stop-color="white" stop-opacity="0.855"/>
<stop offset="0.395" stop-color="white" stop-opacity="0.922"/>
<stop offset="0.49" stop-color="white" stop-opacity="0.965"/>
<stop offset="0.624" stop-color="white" stop-opacity="0.992"/>
<stop offset="0.995" stop-color="white"/>
</linearGradient>
<linearGradient id="paint3_linear_3117_1877" x1="59.9159" y1="44.2152" x2="59.9159" y2="51.065" gradientUnits="userSpaceOnUse">
<stop stop-color="#272438"/>
<stop offset="1" stop-color="#304260"/>
</linearGradient>
<linearGradient id="paint4_linear_3117_1877" x1="60.5549" y1="36.3348" x2="60.7878" y2="36.3348" gradientUnits="userSpaceOnUse">
<stop stop-color="#272438"/>
<stop offset="1" stop-color="#304260"/>
</linearGradient>
<linearGradient id="paint5_linear_3117_1877" x1="60.9771" y1="45.827" x2="60.9771" y2="56.3038" gradientUnits="userSpaceOnUse">
<stop stop-color="#272438"/>
<stop offset="1" stop-color="#304260"/>
</linearGradient>
<linearGradient id="paint6_linear_3117_1877" x1="58.2679" y1="53.8417" x2="58.2679" y2="54.732" gradientUnits="userSpaceOnUse">
<stop stop-color="#272438"/>
<stop offset="1" stop-color="#304260"/>
</linearGradient>
<linearGradient id="paint7_linear_3117_1877" x1="62.421" y1="56.2646" x2="62.421" y2="57.458" gradientUnits="userSpaceOnUse">
<stop stop-color="#272438"/>
<stop offset="1" stop-color="#304260"/>
</linearGradient>
<linearGradient id="paint8_linear_3117_1877" x1="58.0768" y1="44.7014" x2="58.0768" y2="54.1537" gradientUnits="userSpaceOnUse">
<stop stop-color="#272438"/>
<stop offset="1" stop-color="#304260"/>
</linearGradient>
</defs>
</svg>
