<svg xmlns="http://www.w3.org/2000/svg" width="32.715" height="32.715" viewBox="0 0 32.715 32.715"><path class="a" d="M172.154,182H152.921A1.919,1.919,0,0,0,151,183.917v13.418a1.919,1.919,0,0,0,1.917,1.917h15.9l3.618,3.559a.96.96,0,0,0,1.631-.683v-18.21A1.919,1.919,0,0,0,172.154,182Zm-2.939,13.354H155.8a.958.958,0,0,1,0-1.917h13.418a.958.958,0,0,1,0,1.917Zm-14.377-4.792a.958.958,0,0,1,.958-.958h9.584a.958.958,0,0,1,0,1.917H155.8A.958.958,0,0,1,154.838,190.562Zm14.377-2.875H155.8a.958.958,0,0,1,0-1.917h13.418a.958.958,0,0,1,0,1.917Z" transform="translate(-141.356 -170.371)"/><path class="a" d="M23.07,9.712v-7.8A1.919,1.919,0,0,0,21.154,0H1.921A1.919,1.919,0,0,0,0,1.917v18.21a.959.959,0,0,0,1.631.683l3.618-3.558H7.735V13.546a3.838,3.838,0,0,1,3.834-3.834Zm-4.792-.064a.958.958,0,1,1,.958-.958A.958.958,0,0,1,18.278,9.648ZM4.86,3.9H18.278a.958.958,0,0,1,0,1.917H4.86a.958.958,0,0,1,0-1.917Zm1.917,9.584H4.86a.958.958,0,0,1,0-1.917H6.777a.958.958,0,1,1,0,1.917ZM4.86,9.648a.958.958,0,0,1,0-1.917h9.584a.958.958,0,1,1,0,1.917Z" transform="translate(-0.004)"/></svg>